<svg xmlns="http://www.w3.org/2000/svg" xmlns:xlink="http://www.w3.org/1999/xlink" width="411" height="870" viewBox="0 0 411 870">
  <defs>
    <filter id="Rectangle_95" x="0" y="0" width="411" height="870" filterUnits="userSpaceOnUse">
      <feOffset dy="3" input="SourceAlpha"/>
      <feGaussianBlur stdDeviation="3" result="blur"/>
      <feFlood flood-opacity="0.161"/>
      <feComposite operator="in" in2="blur"/>
      <feComposite in="SourceGraphic"/>
    </filter>
    <clipPath id="clip-path">
      <path id="Rectangle_104" data-name="Rectangle 104" d="M0,0H356a0,0,0,0,1,0,0V717a44,44,0,0,1-44,44H44A44,44,0,0,1,0,717V0A0,0,0,0,1,0,0Z" transform="translate(25 67)" fill="#e3dddd"/>
    </clipPath>
  </defs>
  <g id="iphone_14_model" data-name="iphone 14 model" transform="translate(3 6)">
    <g id="Group_51" data-name="Group 51" transform="translate(-1007 -44)">
      <path id="Rectangle_102" data-name="Rectangle 102" d="M0,0H354a0,0,0,0,1,0,0V715a44,44,0,0,1-44,44H44A44,44,0,0,1,0,715V0A0,0,0,0,1,0,0Z" transform="translate(1033 113)" fill="#fff"/>
      <path id="Rectangle_98" data-name="Rectangle 98" d="M4,0H8A1,1,0,0,1,9,1V32a0,0,0,0,1,0,0H4a4,4,0,0,1-4-4V4A4,4,0,0,1,4,0Z" transform="translate(1007 146)"/>
      <path id="Rectangle_99" data-name="Rectangle 99" d="M4,0H8A1,1,0,0,1,9,1V41a0,0,0,0,1,0,0H4a4,4,0,0,1-4-4V4A4,4,0,0,1,4,0Z" transform="translate(1007 213)"/>
      <path id="Rectangle_100" data-name="Rectangle 100" d="M4,0H8A1,1,0,0,1,9,1V43a0,0,0,0,1,0,0H4a4,4,0,0,1-4-4V4A4,4,0,0,1,4,0Z" transform="translate(1007 267)"/>
      <g transform="matrix(1, 0, 0, 1, 1004, 38)" filter="url(#Rectangle_95)">
        <rect id="Rectangle_95-2" data-name="Rectangle 95" width="393" height="852" rx="49" transform="translate(9 6)"/>
      </g>
      <rect id="Rectangle_96" data-name="Rectangle 96" width="356" height="806" rx="44" transform="translate(1032 66)" fill="#fff"/>
      <rect id="Rectangle_97" data-name="Rectangle 97" width="91" height="26" rx="13" transform="translate(1165 79)"/>
      <circle id="Ellipse_28" data-name="Ellipse 28" cx="7.5" cy="7.5" r="7.5" transform="translate(1235 85)" fill="#343434"/>
      <g id="Group_49" data-name="Group 49" transform="translate(249 -70)">
        <g id="Group_48" data-name="Group 48">
          <circle id="Ellipse_31" data-name="Ellipse 31" cx="7.5" cy="7.5" r="7.5" transform="translate(986 155)" fill="#686868" opacity="0.58"/>
          <circle id="Ellipse_29" data-name="Ellipse 29" cx="5.5" cy="5.5" r="5.5" transform="translate(988 157)"/>
        </g>
        <circle id="Ellipse_30" data-name="Ellipse 30" cx="3.5" cy="3.5" r="3.5" transform="translate(990 159)" fill="#686868" opacity="0.58"/>
      </g>
      <g id="e8e6ee9e72e7153be5440514d554cb61" transform="translate(1334.5 78)">
        <path id="Path_100" data-name="Path 100" d="M4.5,9h17a2,2,0,0,1,2,2v7a2,2,0,0,1-2,2H4.5a2,2,0,0,1-2-2V11a2,2,0,0,1,2-2Z"/>
        <path id="Path_101" data-name="Path 101" d="M22.5,12.511a2.478,2.478,0,0,0,0,3.978V12.511Z"/>
        <path id="Path_102" data-name="Path 102" d="M24.5,12.05v4.9a2.5,2.5,0,0,0,0-4.9Z"/>
        <g id="Group_47" data-name="Group 47">
          <path id="Path_103" data-name="Path 103" d="M4.5,9h17a2,2,0,0,1,2,2v7a2,2,0,0,1-2,2H4.5a2,2,0,0,1-2-2V11a2,2,0,0,1,2-2Z"/>
          <path id="Path_104" data-name="Path 104" d="M22.5,12.511a2.478,2.478,0,0,0,0,3.978V12.511Z"/>
          <path id="Path_105" data-name="Path 105" d="M24.5,12.05v4.9a2.5,2.5,0,0,0,0-4.9Z"/>
        </g>
      </g>
      <g id="d743fefe810fdcecaebf8af611593f31" transform="translate(1302.925 78.713)">
        <path id="Path_107" data-name="Path 107" d="M9.52,14.352a5.617,5.617,0,0,1,7.943,0M7.075,11.907a9.075,9.075,0,0,1,12.832,0" fill="none"/>
      </g>
      <g id="Group_50" data-name="Group 50" transform="translate(131 -70)">
        <g id="Group_48-2" data-name="Group 48">
          <path id="Path_112" data-name="Path 112" d="M7.5,0C9.924,8.771,15,3.358,15,7.5a7.5,7.5,0,0,1-15,0C0,3.358,5.076-8.771,7.5,0Z" transform="translate(986 155)" opacity="0.58"/>
          <circle id="Ellipse_29-2" data-name="Ellipse 29" cx="5.5" cy="5.5" r="5.5" transform="translate(988 157)"/>
        </g>
        <circle id="Ellipse_30-2" data-name="Ellipse 30" cx="3.5" cy="3.5" r="3.5" transform="translate(990 159)" fill="#fff" opacity="0.58"/>
      </g>
      <g id="f1cde6ddbaba974b823c5c7b191d9d2c" transform="translate(1279.5 80.5)">
        <path id="Path_108" data-name="Path 108" d="M5.849,15.087V19.2a.587.587,0,0,1-.587.587H4.087A.587.587,0,0,1,3.5,19.2V15.087a.587.587,0,0,1,.587-.587H5.262A.587.587,0,0,1,5.849,15.087Z" transform="translate(0 -3.715)"/>
        <path id="Path_109" data-name="Path 109" d="M11.849,13.087v5.285a.587.587,0,0,1-.587.587H10.087a.587.587,0,0,1-.587-.587V13.087a.587.587,0,0,1,.587-.587h1.174A.587.587,0,0,1,11.849,13.087Z" transform="translate(-2.477 -2.889)"/>
        <path id="Path_110" data-name="Path 110" d="M17.849,10.087v7.047a.587.587,0,0,1-.587.587H16.087a.587.587,0,0,1-.587-.587V10.087a.587.587,0,0,1,.587-.587h1.174A.587.587,0,0,1,17.849,10.087Z" transform="translate(-4.953 -1.651)"/>
        <path id="Path_111" data-name="Path 111" d="M23.849,6.087v9.4a.587.587,0,0,1-.587.587H22.087a.587.587,0,0,1-.587-.587v-9.4a.587.587,0,0,1,.587-.587h1.174A.587.587,0,0,1,23.849,6.087Z" transform="translate(-7.43)"/>
      </g>
      <text id="_5:41" data-name="5:41" transform="translate(1086 98)" font-size="17" font-family="OpenSans-Bold, Open Sans" font-weight="700"><tspan x="-16.979" y="0">5:41</tspan></text>
      <path id="Rectangle_103" data-name="Rectangle 103" d="M1,0H5A4,4,0,0,1,9,4V87a4,4,0,0,1-4,4H0a0,0,0,0,1,0,0V1A1,1,0,0,1,1,0Z" transform="translate(1404 191)"/>
      <g id="d743fefe810fdcecaebf8af611593f31-2" data-name="d743fefe810fdcecaebf8af611593f31" transform="translate(1302.925 78)">
        <path id="Path_113" data-name="Path 113" d="M14.222,19.357l-2.2-2.2a3.108,3.108,0,0,1,4.394,0Z" transform="translate(-0.556 -0.787)"/>
        <path id="Path_114" data-name="Path 114" d="M9.586,14.491a5.77,5.77,0,0,1,8.159,0M7.075,11.979a9.322,9.322,0,0,1,13.181,0" transform="translate(0 0)" fill="none" stroke="#000" stroke-miterlimit="10" stroke-width="2"/>
      </g>
    </g>
    <g id="Mask_Group_8" data-name="Mask Group 8" clip-path="url(#clip-path)">
      <g id="Check_Out_Phase_2_-1" data-name="Check Out ( Phase 2 )-1" transform="translate(27.132 67)">
        <rect id="Rectangle_661" data-name="Rectangle 661" width="351.737" height="761" fill="#fff"/>
        <rect id="Rectangle_662" data-name="Rectangle 662" width="59.992" height="21.367" transform="translate(196.003 127.792)" fill="none" stroke="#000" stroke-width="0.822"/>
        <path id="Path_485" data-name="Path 485" d="M16.735,193.126V181.771h4.258a4.505,4.505,0,0,1,2.2.488,3.25,3.25,0,0,1,1.347,1.341,4.3,4.3,0,0,1,0,3.871,3.29,3.29,0,0,1-1.359,1.336,4.632,4.632,0,0,1-2.212.482H18.143V187.6h2.545a2.6,2.6,0,0,0,1.253-.266,1.682,1.682,0,0,0,.721-.731,2.317,2.317,0,0,0,.238-1.071,2.28,2.28,0,0,0-.238-1.064,1.617,1.617,0,0,0-.726-.715,2.657,2.657,0,0,0-1.259-.261H18.792v9.637Zm12.258.172a3.552,3.552,0,0,1-1.458-.288,2.378,2.378,0,0,1-1.02-.865,2.533,2.533,0,0,1-.371-1.409,2.4,2.4,0,0,1,.266-1.192,2.058,2.058,0,0,1,.726-.754,3.652,3.652,0,0,1,1.037-.427,8.486,8.486,0,0,1,1.2-.216q.749-.078,1.214-.139a1.8,1.8,0,0,0,.676-.2.47.47,0,0,0,.216-.427v-.034a1.255,1.255,0,0,0-.372-.97,1.52,1.52,0,0,0-1.07-.344,1.918,1.918,0,0,0-1.17.322,1.6,1.6,0,0,0-.577.759l-1.874-.266a2.993,2.993,0,0,1,.732-1.3,3.192,3.192,0,0,1,1.248-.787,4.77,4.77,0,0,1,1.63-.266,5.308,5.308,0,0,1,1.225.145,3.446,3.446,0,0,1,1.115.477,2.4,2.4,0,0,1,.81.892,2.912,2.912,0,0,1,.311,1.414v5.7H31.56v-1.17h-.066a2.452,2.452,0,0,1-.516.666,2.487,2.487,0,0,1-.826.494A3.339,3.339,0,0,1,28.993,193.3Zm.521-1.475a2.177,2.177,0,0,0,1.048-.238,1.768,1.768,0,0,0,.682-.643,1.639,1.639,0,0,0,.244-.871v-1a.943.943,0,0,1-.322.145,4.656,4.656,0,0,1-.5.116q-.277.051-.549.089l-.471.067a3.547,3.547,0,0,0-.8.2,1.335,1.335,0,0,0-.56.388,1.071,1.071,0,0,0,.2,1.469A1.756,1.756,0,0,0,29.514,191.823Zm6.937,4.5a4.062,4.062,0,0,1-.76-.067,2.816,2.816,0,0,1-.549-.144l.466-1.564a2.678,2.678,0,0,0,.782.122.966.966,0,0,0,.6-.216,1.539,1.539,0,0,0,.449-.688l.172-.46-3.088-8.695h2.129l1.963,6.432h.089l1.968-6.432h2.135l-3.41,9.549a3.818,3.818,0,0,1-.632,1.159,2.568,2.568,0,0,1-.965.743A3.2,3.2,0,0,1,36.451,196.32Zm7.749-3.194v-8.517h1.919v1.447h.1a2.263,2.263,0,0,1,.882-1.142,2.564,2.564,0,0,1,1.469-.416,2.453,2.453,0,0,1,1.458.422,2.207,2.207,0,0,1,.843,1.137h.089a2.331,2.331,0,0,1,.954-1.131,2.942,2.942,0,0,1,1.6-.427,2.6,2.6,0,0,1,1.919.744,2.936,2.936,0,0,1,.743,2.168v5.717H54.164V187.72a1.458,1.458,0,0,0-.421-1.16,1.506,1.506,0,0,0-1.031-.371,1.453,1.453,0,0,0-1.137.455,1.679,1.679,0,0,0-.4,1.169v5.312H49.2v-5.49a1.414,1.414,0,0,0-.4-1.054,1.4,1.4,0,0,0-1.031-.394,1.455,1.455,0,0,0-.787.222,1.549,1.549,0,0,0-.566.616,1.921,1.921,0,0,0-.211.92v5.179Zm17.784.166a4.384,4.384,0,0,1-2.212-.532,3.609,3.609,0,0,1-1.425-1.52,5.619,5.619,0,0,1,0-4.63,3.772,3.772,0,0,1,1.408-1.552,3.952,3.952,0,0,1,2.124-.56,4.3,4.3,0,0,1,1.486.256,3.357,3.357,0,0,1,1.242.776,3.647,3.647,0,0,1,.854,1.342,5.391,5.391,0,0,1,.31,1.93v.616H58.79v-1.353h5.057a2.156,2.156,0,0,0-.25-1.026,1.818,1.818,0,0,0-.682-.716,1.92,1.92,0,0,0-1.009-.26,1.961,1.961,0,0,0-1.081.3,2.069,2.069,0,0,0-.726.777,2.235,2.235,0,0,0-.261,1.048v1.181a2.776,2.776,0,0,0,.272,1.275,1.933,1.933,0,0,0,.76.809,2.273,2.273,0,0,0,1.142.278,2.427,2.427,0,0,0,.793-.122,1.752,1.752,0,0,0,.615-.371,1.549,1.549,0,0,0,.394-.6l1.874.21a2.922,2.922,0,0,1-.676,1.3,3.3,3.3,0,0,1-1.264.854A4.842,4.842,0,0,1,61.984,193.292Zm7.493-5.156v4.99H67.469v-8.517h1.919v1.447h.1a2.435,2.435,0,0,1,.937-1.137,2.881,2.881,0,0,1,1.6-.422,3.022,3.022,0,0,1,1.536.377,2.542,2.542,0,0,1,1.02,1.092,3.733,3.733,0,0,1,.36,1.736v5.423H72.936v-5.113a1.9,1.9,0,0,0-.444-1.336,1.558,1.558,0,0,0-1.214-.482,1.872,1.872,0,0,0-.937.233,1.617,1.617,0,0,0-.638.66A2.229,2.229,0,0,0,69.476,188.136Zm11.761-3.527v1.553h-4.9v-1.553Zm-3.687-2.041h2.007v8a1.28,1.28,0,0,0,.122.62.658.658,0,0,0,.333.288,1.275,1.275,0,0,0,.455.078,1.921,1.921,0,0,0,.344-.028c.107-.018.189-.035.244-.05l.338,1.57a4.5,4.5,0,0,1-.46.122,3.762,3.762,0,0,1-.721.078,3.279,3.279,0,0,1-1.358-.228,2.113,2.113,0,0,1-.959-.787,2.346,2.346,0,0,1-.344-1.331Zm9.328-.8H89.4L92.766,190H92.9l3.371-8.229h2.517v11.356H96.814v-7.8h-.105l-3.139,7.769H92.1l-3.139-7.785h-.106v7.818H86.877Zm17.777,11.522a4.122,4.122,0,0,1-2.163-.549,3.729,3.729,0,0,1-1.419-1.536,5.595,5.595,0,0,1,0-4.619,3.729,3.729,0,0,1,1.419-1.542,4.534,4.534,0,0,1,4.325,0,3.691,3.691,0,0,1,1.414,1.542,5.537,5.537,0,0,1,0,4.619,3.691,3.691,0,0,1-1.414,1.536A4.117,4.117,0,0,1,104.655,193.292Zm.011-1.607a1.732,1.732,0,0,0,1.132-.371,2.243,2.243,0,0,0,.676-1.009,4.49,4.49,0,0,0,0-2.823,2.237,2.237,0,0,0-.676-1.014,1.713,1.713,0,0,0-1.132-.377,1.758,1.758,0,0,0-1.153.377,2.272,2.272,0,0,0-.682,1.014,4.6,4.6,0,0,0,0,2.823,2.279,2.279,0,0,0,.682,1.009A1.778,1.778,0,0,0,104.665,191.685Zm8.935,1.591a3.224,3.224,0,0,1-1.8-.515,3.5,3.5,0,0,1-1.253-1.5,6.4,6.4,0,0,1,.006-4.78,3.447,3.447,0,0,1,1.27-1.481,3.262,3.262,0,0,1,1.779-.5,2.619,2.619,0,0,1,1.231.256,2.309,2.309,0,0,1,.765.6,3.642,3.642,0,0,1,.438.66h.084v-4.247h2.013v11.356h-1.974v-1.342h-.122a3.394,3.394,0,0,1-.449.66,2.461,2.461,0,0,1-.777.588A2.678,2.678,0,0,1,113.6,193.276Zm.56-1.647a1.737,1.737,0,0,0,1.087-.344,2.15,2.15,0,0,0,.682-.971,4.131,4.131,0,0,0,.233-1.447,4.033,4.033,0,0,0-.233-1.436,2.043,2.043,0,0,0-.677-.948,1.749,1.749,0,0,0-1.092-.339,1.773,1.773,0,0,0-1.12.349,2.124,2.124,0,0,0-.676.965,4.061,4.061,0,0,0-.228,1.409,4.168,4.168,0,0,0,.228,1.425,2.226,2.226,0,0,0,.682.981A1.756,1.756,0,0,0,114.16,191.629Zm9.886,1.663a4.383,4.383,0,0,1-2.212-.532,3.6,3.6,0,0,1-1.425-1.52,5.613,5.613,0,0,1,0-4.63,3.77,3.77,0,0,1,1.408-1.552,3.954,3.954,0,0,1,2.124-.56,4.3,4.3,0,0,1,1.487.256,3.355,3.355,0,0,1,1.242.776,3.646,3.646,0,0,1,.854,1.342,5.389,5.389,0,0,1,.311,1.93v.616h-6.981v-1.353h5.057a2.161,2.161,0,0,0-.25-1.026,1.815,1.815,0,0,0-.682-.716,1.92,1.92,0,0,0-1.009-.26,1.958,1.958,0,0,0-1.081.3,2.066,2.066,0,0,0-.726.777,2.229,2.229,0,0,0-.261,1.048v1.181a2.78,2.78,0,0,0,.271,1.275,1.936,1.936,0,0,0,.76.809,2.269,2.269,0,0,0,1.141.278,2.426,2.426,0,0,0,.793-.122,1.749,1.749,0,0,0,.616-.371,1.544,1.544,0,0,0,.394-.6l1.875.21a2.929,2.929,0,0,1-.676,1.3,3.3,3.3,0,0,1-1.265.854A4.839,4.839,0,0,1,124.045,193.292Z"/>
        <circle id="Ellipse_148" data-name="Ellipse 148" cx="7.807" cy="7.807" r="7.807" transform="translate(13.971 218.603)" fill="#d9d9d9"/>
        <circle id="Ellipse_149" data-name="Ellipse 149" cx="7.807" cy="7.807" r="7.807" transform="translate(13.971 250.653)" fill="#fa7b17"/>
        <circle id="Ellipse_150" data-name="Ellipse 150" cx="7.807" cy="7.807" r="7.807" transform="translate(13.971 282.704)" fill="#d9d9d9"/>
        <circle id="Ellipse_151" data-name="Ellipse 151" cx="7.807" cy="7.807" r="7.807" transform="translate(13.971 314.755)" fill="#d9d9d9"/>
        <path id="Path_486" data-name="Path 486" d="M51.571,225.588H50.63a1.964,1.964,0,0,0-.793-1.229,2.149,2.149,0,0,0-.649-.319,2.6,2.6,0,0,0-.744-.106,2.372,2.372,0,0,0-1.279.357,2.48,2.48,0,0,0-.907,1.051,4.513,4.513,0,0,0,0,3.407,2.478,2.478,0,0,0,.907,1.05,2.365,2.365,0,0,0,1.279.357,2.6,2.6,0,0,0,.744-.106,2.177,2.177,0,0,0,.649-.315,1.988,1.988,0,0,0,.793-1.234h.941a3.134,3.134,0,0,1-.387,1.067,2.924,2.924,0,0,1-.7.8,3.078,3.078,0,0,1-.937.5,3.5,3.5,0,0,1-1.1.17,3.256,3.256,0,0,1-1.768-.486,3.333,3.333,0,0,1-1.218-1.381,5.306,5.306,0,0,1,0-4.249,3.33,3.33,0,0,1,1.218-1.381,3.256,3.256,0,0,1,1.768-.486,3.481,3.481,0,0,1,1.1.171,3.016,3.016,0,0,1,.937.5,2.863,2.863,0,0,1,.7.8A3.092,3.092,0,0,1,51.571,225.588Zm1.4,5.342V225.1h.865v.88H53.9a1.4,1.4,0,0,1,.577-.7,1.7,1.7,0,0,1,.941-.27c.066,0,.148,0,.247,0s.173.007.224.011v.911c-.03-.008-.1-.019-.209-.035a2.1,2.1,0,0,0-.338-.026,1.582,1.582,0,0,0-.759.178,1.338,1.338,0,0,0-.524.486,1.308,1.308,0,0,0-.19.7v3.687Zm6.241.122a2.738,2.738,0,0,1-1.453-.372,2.49,2.49,0,0,1-.937-1.047,3.571,3.571,0,0,1-.326-1.57,3.623,3.623,0,0,1,.326-1.579,2.567,2.567,0,0,1,.918-1.069,2.466,2.466,0,0,1,1.381-.387,2.764,2.764,0,0,1,.9.151,2.24,2.24,0,0,1,.808.494,2.355,2.355,0,0,1,.58.895,3.817,3.817,0,0,1,.216,1.373v.38H57.132v-.774h3.581a1.91,1.91,0,0,0-.2-.88,1.482,1.482,0,0,0-.554-.611,1.548,1.548,0,0,0-.842-.224,1.6,1.6,0,0,0-.926.266,1.742,1.742,0,0,0-.6.683,2,2,0,0,0-.209.9v.516a2.5,2.5,0,0,0,.228,1.119,1.644,1.644,0,0,0,.641.694,1.877,1.877,0,0,0,.952.235,1.938,1.938,0,0,0,.637-.1,1.365,1.365,0,0,0,.5-.3,1.386,1.386,0,0,0,.322-.509l.865.243a1.917,1.917,0,0,1-.459.773,2.238,2.238,0,0,1-.8.516A2.95,2.95,0,0,1,59.211,231.051Zm5.975,0a2.285,2.285,0,0,1-1.286-.368,2.486,2.486,0,0,1-.873-1.047,3.786,3.786,0,0,1-.315-1.605,3.74,3.74,0,0,1,.315-1.593,2.444,2.444,0,0,1,.876-1.043,2.31,2.31,0,0,1,1.3-.368,1.806,1.806,0,0,1,.9.19,1.538,1.538,0,0,1,.508.425q.178.234.277.387h.076V223.16h.9v7.77h-.865v-.895h-.106q-.1.159-.281.4a1.667,1.667,0,0,1-.52.429A1.872,1.872,0,0,1,65.186,231.051Zm.121-.8a1.466,1.466,0,0,0,.91-.281,1.755,1.755,0,0,0,.565-.785,3.244,3.244,0,0,0,.193-1.165,3.15,3.15,0,0,0-.19-1.142,1.666,1.666,0,0,0-.562-.767,1.672,1.672,0,0,0-1.867.016,1.746,1.746,0,0,0-.565.786,3.12,3.12,0,0,0-.186,1.108,3.21,3.21,0,0,0,.19,1.13,1.847,1.847,0,0,0,.569.8A1.483,1.483,0,0,0,65.308,230.247Zm4.314.683V225.1h.9v5.827Zm.455-6.8a.635.635,0,0,1-.451-.178.587.587,0,0,1,0-.857.635.635,0,0,1,.451-.178.622.622,0,0,1,.448.178.579.579,0,0,1,0,.857A.622.622,0,0,1,70.077,224.131Zm4.614.971v.759h-3.02V225.1Zm-2.14-1.4h.9v5.555a1.16,1.16,0,0,0,.11.569.569.569,0,0,0,.288.251,1.162,1.162,0,0,0,.376.061,1.512,1.512,0,0,0,.243-.016l.152-.03.182.8a1.821,1.821,0,0,1-.254.068,1.861,1.861,0,0,1-.414.038,1.806,1.806,0,0,1-.744-.163,1.481,1.481,0,0,1-.6-.5,1.427,1.427,0,0,1-.235-.842Zm12.865,1.882h-.94a1.968,1.968,0,0,0-.793-1.229,2.145,2.145,0,0,0-.649-.319,2.6,2.6,0,0,0-.744-.106,2.372,2.372,0,0,0-1.278.357,2.48,2.48,0,0,0-.907,1.051,4.513,4.513,0,0,0,0,3.407,2.478,2.478,0,0,0,.907,1.05,2.365,2.365,0,0,0,1.278.357,2.594,2.594,0,0,0,.744-.106,2.174,2.174,0,0,0,.649-.315,1.993,1.993,0,0,0,.793-1.234h.94a3.144,3.144,0,0,1-.386,1.067,2.922,2.922,0,0,1-.7.8,3.078,3.078,0,0,1-.937.5,3.509,3.509,0,0,1-1.1.17,3.255,3.255,0,0,1-1.768-.486,3.333,3.333,0,0,1-1.218-1.381,5.306,5.306,0,0,1,0-4.249,3.33,3.33,0,0,1,1.218-1.381,3.255,3.255,0,0,1,1.768-.486,3.486,3.486,0,0,1,1.1.171,3.016,3.016,0,0,1,.937.5,2.862,2.862,0,0,1,.7.8A3.1,3.1,0,0,1,85.416,225.588Zm3.114,5.478a2.358,2.358,0,0,1-1.005-.209,1.655,1.655,0,0,1-.983-1.582,1.5,1.5,0,0,1,.2-.812,1.4,1.4,0,0,1,.528-.493,2.77,2.77,0,0,1,.728-.265c.269-.061.537-.108.809-.144q.531-.069.861-.1a1.342,1.342,0,0,0,.486-.125.319.319,0,0,0,.155-.3V227a1.188,1.188,0,0,0-.307-.872,1.233,1.233,0,0,0-.922-.311,1.608,1.608,0,0,0-1.005.281,1.646,1.646,0,0,0-.512.6l-.851-.3a2.043,2.043,0,0,1,.607-.828,2.289,2.289,0,0,1,.835-.417,3.248,3.248,0,0,1,1.54-.053,2.042,2.042,0,0,1,.709.27,1.58,1.58,0,0,1,.573.618,2.3,2.3,0,0,1,.228,1.108v3.84h-.895v-.789h-.045a1.576,1.576,0,0,1-.3.406,1.76,1.76,0,0,1-.565.368A2.178,2.178,0,0,1,88.53,231.066Zm.137-.8a1.778,1.778,0,0,0,.895-.209,1.423,1.423,0,0,0,.554-.539,1.372,1.372,0,0,0,.19-.694V228a.538.538,0,0,1-.251.125,4.062,4.062,0,0,1-.44.1c-.164.025-.325.048-.482.068s-.279.033-.376.045a3.443,3.443,0,0,0-.653.148,1.128,1.128,0,0,0-.486.3.767.767,0,0,0-.182.539.8.8,0,0,0,.345.705A1.548,1.548,0,0,0,88.667,230.262Zm4.168.667V225.1H93.7v.88h.06a1.406,1.406,0,0,1,.577-.7,1.7,1.7,0,0,1,.941-.27c.066,0,.148,0,.247,0s.173.007.224.011v.911c-.03-.008-.1-.019-.208-.035a2.116,2.116,0,0,0-.338-.026,1.584,1.584,0,0,0-.759.178,1.343,1.343,0,0,0-.523.486,1.307,1.307,0,0,0-.19.7v3.687Zm6,.122a2.284,2.284,0,0,1-1.286-.368,2.48,2.48,0,0,1-.873-1.047,3.779,3.779,0,0,1-.315-1.605,3.733,3.733,0,0,1,.315-1.593,2.443,2.443,0,0,1,.876-1.043,2.312,2.312,0,0,1,1.3-.368,1.805,1.805,0,0,1,.9.19,1.541,1.541,0,0,1,.509.425c.118.156.211.285.277.387h.076V223.16h.9v7.77h-.865v-.895h-.106q-.1.159-.281.4a1.667,1.667,0,0,1-.519.429A1.873,1.873,0,0,1,98.834,231.051Zm.121-.8a1.465,1.465,0,0,0,.911-.281,1.753,1.753,0,0,0,.565-.785,3.242,3.242,0,0,0,.194-1.165,3.148,3.148,0,0,0-.19-1.142,1.669,1.669,0,0,0-.561-.767,1.673,1.673,0,0,0-1.867.016,1.752,1.752,0,0,0-.565.786,3.135,3.135,0,0,0-.186,1.108,3.208,3.208,0,0,0,.19,1.13,1.851,1.851,0,0,0,.569.8A1.485,1.485,0,0,0,98.955,230.247Z"/>
        <path id="Path_487" data-name="Path 487" d="M47.717,262.981h-2.4v-7.77h2.5a3.8,3.8,0,0,1,1.935.467,3.058,3.058,0,0,1,1.233,1.332,4.619,4.619,0,0,1,.429,2.071,4.679,4.679,0,0,1-.433,2.091,3.077,3.077,0,0,1-1.26,1.343A4.03,4.03,0,0,1,47.717,262.981Zm-1.457-.835h1.4a3.113,3.113,0,0,0,1.6-.371,2.294,2.294,0,0,0,.945-1.059,4.439,4.439,0,0,0,0-3.255,2.264,2.264,0,0,0-.918-1.047,2.9,2.9,0,0,0-1.521-.368h-1.5Zm9.06.957a2.738,2.738,0,0,1-1.453-.372,2.491,2.491,0,0,1-.937-1.047,3.572,3.572,0,0,1-.326-1.57,3.625,3.625,0,0,1,.326-1.579,2.569,2.569,0,0,1,.918-1.069,2.466,2.466,0,0,1,1.381-.387,2.764,2.764,0,0,1,.9.151,2.239,2.239,0,0,1,.808.494,2.355,2.355,0,0,1,.581.895,3.817,3.817,0,0,1,.216,1.373v.38H53.24V259.6h3.581a1.911,1.911,0,0,0-.2-.88,1.483,1.483,0,0,0-.554-.611,1.548,1.548,0,0,0-.842-.224,1.6,1.6,0,0,0-.926.266,1.743,1.743,0,0,0-.6.683,2,2,0,0,0-.209.9v.516a2.5,2.5,0,0,0,.228,1.119,1.644,1.644,0,0,0,.641.694,1.877,1.877,0,0,0,.952.235,1.938,1.938,0,0,0,.637-.1,1.363,1.363,0,0,0,.5-.3,1.386,1.386,0,0,0,.322-.509l.865.243a1.917,1.917,0,0,1-.459.773,2.237,2.237,0,0,1-.8.516A2.95,2.95,0,0,1,55.32,263.1Zm3.9-.122v-7.77h.9v2.869h.076q.1-.153.273-.387a1.592,1.592,0,0,1,.508-.425,1.828,1.828,0,0,1,.9-.19,2.31,2.31,0,0,1,1.3.368,2.443,2.443,0,0,1,.876,1.043,3.739,3.739,0,0,1,.315,1.593,3.785,3.785,0,0,1-.315,1.605,2.485,2.485,0,0,1-.873,1.047,2.285,2.285,0,0,1-1.286.368,1.872,1.872,0,0,1-.9-.186,1.667,1.667,0,0,1-.52-.429q-.182-.243-.281-.4h-.106v.895Zm.88-2.913a3.242,3.242,0,0,0,.193,1.165,1.755,1.755,0,0,0,.565.785A1.624,1.624,0,0,0,62.7,262a1.806,1.806,0,0,0,.569-.8,3.155,3.155,0,0,0,.193-1.13,3.064,3.064,0,0,0-.19-1.108,1.71,1.71,0,0,0-.565-.786,1.666,1.666,0,0,0-1.863-.016,1.666,1.666,0,0,0-.561.767A3.15,3.15,0,0,0,60.1,260.067Zm5.634,2.913v-5.827h.9v5.827Zm.455-6.8a.635.635,0,0,1-.451-.178.587.587,0,0,1,0-.857.635.635,0,0,1,.451-.178.622.622,0,0,1,.448.178.579.579,0,0,1,0,.857A.622.622,0,0,1,66.185,256.182Zm4.614.971v.759H67.78v-.759Zm-2.14-1.4h.9v5.555a1.159,1.159,0,0,0,.11.569.569.569,0,0,0,.288.251,1.163,1.163,0,0,0,.376.061,1.51,1.51,0,0,0,.243-.016l.152-.03.182.8a1.827,1.827,0,0,1-.254.068,1.861,1.861,0,0,1-.414.038,1.807,1.807,0,0,1-.744-.163,1.482,1.482,0,0,1-.6-.5,1.427,1.427,0,0,1-.235-.842Zm12.865,1.882h-.941a1.964,1.964,0,0,0-.793-1.229,2.149,2.149,0,0,0-.649-.319,2.6,2.6,0,0,0-.744-.106,2.372,2.372,0,0,0-1.278.357,2.48,2.48,0,0,0-.907,1.051,4.514,4.514,0,0,0,0,3.407,2.477,2.477,0,0,0,.907,1.05,2.365,2.365,0,0,0,1.278.357,2.6,2.6,0,0,0,.744-.106,2.178,2.178,0,0,0,.649-.315,1.989,1.989,0,0,0,.793-1.234h.941a3.136,3.136,0,0,1-.387,1.067,2.924,2.924,0,0,1-.7.8,3.08,3.08,0,0,1-.937.5,3.5,3.5,0,0,1-1.1.17,3.256,3.256,0,0,1-1.768-.486,3.333,3.333,0,0,1-1.218-1.381,5.306,5.306,0,0,1,0-4.249,3.331,3.331,0,0,1,1.218-1.381A3.256,3.256,0,0,1,78.4,255.1a3.481,3.481,0,0,1,1.1.171,3.018,3.018,0,0,1,.937.5,2.863,2.863,0,0,1,.7.8A3.094,3.094,0,0,1,81.525,257.639Zm3.114,5.478a2.358,2.358,0,0,1-1.005-.209,1.652,1.652,0,0,1-.983-1.582,1.5,1.5,0,0,1,.2-.812,1.4,1.4,0,0,1,.528-.493,2.771,2.771,0,0,1,.728-.265q.4-.091.808-.144c.354-.046.642-.08.861-.1a1.342,1.342,0,0,0,.486-.125.32.32,0,0,0,.156-.3v-.03a1.188,1.188,0,0,0-.307-.872,1.235,1.235,0,0,0-.922-.311,1.612,1.612,0,0,0-1.006.281,1.654,1.654,0,0,0-.512.6l-.85-.3a2.042,2.042,0,0,1,.607-.828,2.285,2.285,0,0,1,.834-.417,3.251,3.251,0,0,1,1.541-.053,2.049,2.049,0,0,1,.709.27,1.586,1.586,0,0,1,.573.618,2.3,2.3,0,0,1,.228,1.108v3.84h-.895v-.789h-.046a1.59,1.59,0,0,1-.3.406,1.769,1.769,0,0,1-.565.368A2.18,2.18,0,0,1,84.639,263.117Zm.136-.8a1.781,1.781,0,0,0,.9-.209,1.428,1.428,0,0,0,.554-.539,1.372,1.372,0,0,0,.19-.694v-.819a.543.543,0,0,1-.251.125,4.08,4.08,0,0,1-.44.1c-.164.025-.325.048-.482.068s-.279.033-.376.045a3.427,3.427,0,0,0-.653.148,1.128,1.128,0,0,0-.486.3.763.763,0,0,0-.182.539.8.8,0,0,0,.345.705A1.546,1.546,0,0,0,84.775,262.313Zm4.169.667v-5.827h.865v.88h.061a1.4,1.4,0,0,1,.577-.7,1.7,1.7,0,0,1,.941-.27c.066,0,.148,0,.247,0s.173.007.224.011v.911c-.03-.008-.1-.019-.209-.035a2.1,2.1,0,0,0-.338-.026,1.583,1.583,0,0,0-.759.178,1.337,1.337,0,0,0-.523.486,1.307,1.307,0,0,0-.19.7v3.687Zm6,.122a2.286,2.286,0,0,1-1.286-.368,2.492,2.492,0,0,1-.873-1.047,3.791,3.791,0,0,1-.315-1.605,3.745,3.745,0,0,1,.315-1.593,2.445,2.445,0,0,1,.877-1.043,2.31,2.31,0,0,1,1.3-.368,1.807,1.807,0,0,1,.9.19,1.529,1.529,0,0,1,.508.425q.179.234.277.387h.076V255.21h.895v7.77h-.865v-.895h-.107c-.066.106-.159.24-.28.4a1.671,1.671,0,0,1-.52.429A1.871,1.871,0,0,1,94.942,263.1Zm.122-.8a1.467,1.467,0,0,0,.911-.281,1.753,1.753,0,0,0,.565-.785,3.242,3.242,0,0,0,.193-1.165,3.148,3.148,0,0,0-.19-1.142,1.658,1.658,0,0,0-.561-.767,1.672,1.672,0,0,0-1.866.016,1.746,1.746,0,0,0-.565.786,3.117,3.117,0,0,0-.186,1.108,3.208,3.208,0,0,0,.19,1.13,1.844,1.844,0,0,0,.569.8A1.483,1.483,0,0,0,95.063,262.3Z"/>
        <path id="Path_488" data-name="Path 488" d="M50.418,287.261h.941v5.145a2.712,2.712,0,0,1-.376,1.423,2.63,2.63,0,0,1-1.051.982,3.738,3.738,0,0,1-3.187,0,2.658,2.658,0,0,1-1.055-.982,2.734,2.734,0,0,1-.372-1.423v-5.145h.941v5.069a2.025,2.025,0,0,0,.25,1.013,1.792,1.792,0,0,0,.713.694,2.607,2.607,0,0,0,2.231,0,1.76,1.76,0,0,0,.713-.694,2.025,2.025,0,0,0,.25-1.013Zm2.7,9.955V289.2h.865v.926h.106q.1-.153.273-.387a1.592,1.592,0,0,1,.508-.425,1.828,1.828,0,0,1,.9-.19,2.31,2.31,0,0,1,1.3.368,2.444,2.444,0,0,1,.876,1.043,3.74,3.74,0,0,1,.315,1.593,3.786,3.786,0,0,1-.315,1.605,2.486,2.486,0,0,1-.873,1.047,2.285,2.285,0,0,1-1.286.368,1.872,1.872,0,0,1-.9-.186,1.667,1.667,0,0,1-.52-.429q-.182-.243-.281-.4h-.076v3.08Zm.88-5.1a3.242,3.242,0,0,0,.194,1.165,1.754,1.754,0,0,0,.565.785,1.624,1.624,0,0,0,1.848-.015,1.806,1.806,0,0,0,.569-.8,3.153,3.153,0,0,0,.194-1.13,3.064,3.064,0,0,0-.19-1.108,1.71,1.71,0,0,0-.565-.786,1.666,1.666,0,0,0-1.863-.016,1.666,1.666,0,0,0-.562.767A3.151,3.151,0,0,0,54,292.118Zm5.63,2.913V289.2h.9v5.827Zm.455-6.8a.635.635,0,0,1-.452-.178.587.587,0,0,1,0-.857.635.635,0,0,1,.452-.178.622.622,0,0,1,.448.178.579.579,0,0,1,0,.857A.622.622,0,0,1,60.082,288.232Z"/>
        <path id="Path_489" data-name="Path 489" d="M51.571,321.74H50.63a1.964,1.964,0,0,0-.793-1.229,2.148,2.148,0,0,0-.649-.319,2.6,2.6,0,0,0-.744-.106,2.372,2.372,0,0,0-1.279.357,2.48,2.48,0,0,0-.907,1.051,4.513,4.513,0,0,0,0,3.407,2.478,2.478,0,0,0,.907,1.05,2.365,2.365,0,0,0,1.279.357,2.6,2.6,0,0,0,.744-.106,2.178,2.178,0,0,0,.649-.315,1.988,1.988,0,0,0,.793-1.234h.941a3.134,3.134,0,0,1-.387,1.067,2.924,2.924,0,0,1-.7.8,3.078,3.078,0,0,1-.937.5,3.5,3.5,0,0,1-1.1.17,3.256,3.256,0,0,1-1.768-.486,3.333,3.333,0,0,1-1.218-1.381,5.306,5.306,0,0,1,0-4.249,3.33,3.33,0,0,1,1.218-1.381,3.256,3.256,0,0,1,1.768-.486,3.481,3.481,0,0,1,1.1.171,3.016,3.016,0,0,1,.937.5,2.863,2.863,0,0,1,.7.8A3.092,3.092,0,0,1,51.571,321.74Zm3.114,5.478a2.359,2.359,0,0,1-1.005-.209,1.653,1.653,0,0,1-.983-1.582,1.5,1.5,0,0,1,.2-.812,1.4,1.4,0,0,1,.527-.493,2.767,2.767,0,0,1,.728-.265q.4-.091.808-.144c.354-.046.641-.08.861-.1a1.344,1.344,0,0,0,.486-.125.319.319,0,0,0,.155-.3v-.03a1.187,1.187,0,0,0-.307-.872,1.233,1.233,0,0,0-.922-.311,1.609,1.609,0,0,0-1.005.281,1.651,1.651,0,0,0-.512.6l-.85-.3a2.042,2.042,0,0,1,.607-.828,2.285,2.285,0,0,1,.835-.417,3.248,3.248,0,0,1,1.54-.053,2.046,2.046,0,0,1,.709.27,1.583,1.583,0,0,1,.573.618,2.3,2.3,0,0,1,.228,1.108v3.84h-.9v-.789h-.046a1.58,1.58,0,0,1-.3.406,1.769,1.769,0,0,1-.565.368A2.18,2.18,0,0,1,54.685,327.218Zm.137-.8a1.778,1.778,0,0,0,.9-.209,1.424,1.424,0,0,0,.554-.539,1.373,1.373,0,0,0,.19-.694v-.819a.537.537,0,0,1-.25.125,4.061,4.061,0,0,1-.44.1c-.164.025-.325.048-.482.068s-.279.033-.376.045a3.43,3.43,0,0,0-.653.148,1.126,1.126,0,0,0-.486.3.764.764,0,0,0-.182.539.8.8,0,0,0,.345.705A1.548,1.548,0,0,0,54.822,326.415Zm8.3-3.855-.8.228a1.494,1.494,0,0,0-.224-.39,1.081,1.081,0,0,0-.395-.319,1.428,1.428,0,0,0-.641-.125,1.531,1.531,0,0,0-.892.247.725.725,0,0,0-.353.618.638.638,0,0,0,.243.528,2.018,2.018,0,0,0,.759.322l.865.213a2.389,2.389,0,0,1,1.165.58,1.358,1.358,0,0,1,.383,1,1.481,1.481,0,0,1-.288.9,1.914,1.914,0,0,1-.8.622,2.918,2.918,0,0,1-1.191.228,2.619,2.619,0,0,1-1.476-.387,1.717,1.717,0,0,1-.74-1.131l.85-.212a1.182,1.182,0,0,0,.459.705,1.54,1.54,0,0,0,.892.236,1.663,1.663,0,0,0,.994-.266.782.782,0,0,0,.372-.644.677.677,0,0,0-.212-.509,1.357,1.357,0,0,0-.653-.311l-.971-.228a2.311,2.311,0,0,1-1.176-.588,1.424,1.424,0,0,1-.372-1.006,1.439,1.439,0,0,1,.277-.872,1.882,1.882,0,0,1,.763-.6,2.67,2.67,0,0,1,1.1-.216,2.182,2.182,0,0,1,1.358.379A2.046,2.046,0,0,1,63.118,322.56Zm2.349,1.017v3.506h-.9v-7.77h.9v2.853h.076a1.646,1.646,0,0,1,.615-.717,1.987,1.987,0,0,1,1.1-.27,2.182,2.182,0,0,1,1.043.239,1.6,1.6,0,0,1,.694.724,2.691,2.691,0,0,1,.25,1.237v3.7h-.9V323.44a1.5,1.5,0,0,0-.36-1.073,1.286,1.286,0,0,0-.99-.384,1.651,1.651,0,0,0-.789.187,1.355,1.355,0,0,0-.546.542A1.762,1.762,0,0,0,65.467,323.576Zm15.1-.379a4.733,4.733,0,0,1-.444,2.124A3.332,3.332,0,0,1,78.9,326.7a3.461,3.461,0,0,1-3.536,0,3.333,3.333,0,0,1-1.218-1.381,5.306,5.306,0,0,1,0-4.249,3.331,3.331,0,0,1,1.218-1.381,3.461,3.461,0,0,1,3.536,0,3.33,3.33,0,0,1,1.218,1.381A4.733,4.733,0,0,1,80.566,323.2Zm-.911,0a3.871,3.871,0,0,0-.338-1.7,2.446,2.446,0,0,0-.907-1.051,2.463,2.463,0,0,0-2.553,0,2.48,2.48,0,0,0-.907,1.051,4.513,4.513,0,0,0,0,3.407,2.478,2.478,0,0,0,.907,1.05,2.463,2.463,0,0,0,2.553,0,2.444,2.444,0,0,0,.907-1.05A3.876,3.876,0,0,0,79.655,323.2Zm3.266.379v3.506h-.9v-5.827h.865v.911h.076a1.671,1.671,0,0,1,.623-.713,1.936,1.936,0,0,1,1.077-.273,2.123,2.123,0,0,1,1.035.242,1.637,1.637,0,0,1,.69.729,2.7,2.7,0,0,1,.247,1.229v3.7h-.895V323.44a1.512,1.512,0,0,0-.357-1.07,1.265,1.265,0,0,0-.979-.387,1.562,1.562,0,0,0-.767.187,1.325,1.325,0,0,0-.527.542A1.789,1.789,0,0,0,82.922,323.576ZM93.8,327.082H91.4v-7.77h2.5a3.8,3.8,0,0,1,1.935.467,3.057,3.057,0,0,1,1.234,1.332,4.627,4.627,0,0,1,.428,2.071,4.678,4.678,0,0,1-.432,2.091,3.079,3.079,0,0,1-1.26,1.343A4.027,4.027,0,0,1,93.8,327.082Zm-1.457-.835h1.4a3.111,3.111,0,0,0,1.6-.371,2.292,2.292,0,0,0,.945-1.059,3.942,3.942,0,0,0,.311-1.635,3.9,3.9,0,0,0-.307-1.62,2.261,2.261,0,0,0-.918-1.047,2.9,2.9,0,0,0-1.521-.368h-1.5Zm9.06.957a2.739,2.739,0,0,1-1.453-.372,2.489,2.489,0,0,1-.937-1.047,3.568,3.568,0,0,1-.326-1.57,3.62,3.62,0,0,1,.326-1.579,2.564,2.564,0,0,1,.918-1.069,2.465,2.465,0,0,1,1.381-.387,2.76,2.76,0,0,1,.9.151,2.239,2.239,0,0,1,.809.494,2.355,2.355,0,0,1,.58.895,3.825,3.825,0,0,1,.216,1.373v.38H99.324V323.7h3.581a1.911,1.911,0,0,0-.2-.88,1.479,1.479,0,0,0-.554-.611,1.548,1.548,0,0,0-.842-.224,1.6,1.6,0,0,0-.925.266,1.741,1.741,0,0,0-.6.683,2,2,0,0,0-.209.9v.516a2.507,2.507,0,0,0,.228,1.119,1.648,1.648,0,0,0,.641.694,1.88,1.88,0,0,0,.952.235,1.942,1.942,0,0,0,.638-.1,1.359,1.359,0,0,0,.5-.3,1.377,1.377,0,0,0,.323-.509l.865.243a1.914,1.914,0,0,1-.459.773,2.24,2.24,0,0,1-.8.516A2.947,2.947,0,0,1,101.4,327.2Zm4.67-7.892v7.77h-.895v-7.77Zm1.64,7.77v-5.827h.9v5.827Zm.455-6.8a.635.635,0,0,1-.451-.178.587.587,0,0,1,0-.857.635.635,0,0,1,.451-.178.622.622,0,0,1,.448.178.579.579,0,0,1,0,.857A.622.622,0,0,1,108.168,320.283Zm6.846.971-2.155,5.827h-.911l-2.156-5.827h.971l1.609,4.644h.061l1.608-4.644Zm3.416,5.949a2.737,2.737,0,0,1-1.453-.372,2.49,2.49,0,0,1-.938-1.047,3.579,3.579,0,0,1-.326-1.57,3.632,3.632,0,0,1,.326-1.579,2.571,2.571,0,0,1,.919-1.069,2.465,2.465,0,0,1,1.381-.387,2.764,2.764,0,0,1,.9.151,2.236,2.236,0,0,1,.808.494,2.356,2.356,0,0,1,.581.895,3.825,3.825,0,0,1,.216,1.373v.38h-4.492V323.7h3.581a1.911,1.911,0,0,0-.2-.88,1.485,1.485,0,0,0-.554-.611,1.548,1.548,0,0,0-.842-.224,1.6,1.6,0,0,0-.925.266,1.741,1.741,0,0,0-.6.683,2,2,0,0,0-.209.9v.516a2.5,2.5,0,0,0,.228,1.119,1.647,1.647,0,0,0,.641.694,1.879,1.879,0,0,0,.952.235,1.933,1.933,0,0,0,.637-.1,1.362,1.362,0,0,0,.5-.3,1.4,1.4,0,0,0,.323-.509l.865.243a1.923,1.923,0,0,1-.459.773,2.24,2.24,0,0,1-.8.516A2.95,2.95,0,0,1,118.43,327.2Zm3.775-.122v-5.827h.865v.88h.061a1.4,1.4,0,0,1,.576-.7,1.7,1.7,0,0,1,.941-.27c.066,0,.148,0,.247,0s.173.007.224.011v.911c-.03-.008-.1-.019-.209-.035a2.1,2.1,0,0,0-.338-.026,1.578,1.578,0,0,0-.759.178,1.337,1.337,0,0,0-.523.486,1.307,1.307,0,0,0-.19.7v3.687Zm4.73,2.185a1.944,1.944,0,0,1-.406-.038,1.062,1.062,0,0,1-.247-.068l.228-.789a1.721,1.721,0,0,0,.576.06.688.688,0,0,0,.444-.224,1.767,1.767,0,0,0,.361-.641l.167-.455-2.155-5.858h.971l1.608,4.644h.061l1.608-4.644h.971l-2.474,6.677a2.535,2.535,0,0,1-.413.748,1.548,1.548,0,0,1-.573.444A1.767,1.767,0,0,1,126.934,329.267Z"/>
        <line id="Line_177" data-name="Line 177" x2="338.587" transform="translate(10.684 357.078)" fill="none" stroke="#d9d9d9" stroke-width="0.822"/>
        <path id="Path_490" data-name="Path 490" d="M18.142,388.718v-8.965h5.831v1.362H19.766v2.433h3.9v1.362h-3.9v2.447h4.242v1.362Zm9-3.94v3.94H25.56v-6.724h1.515v1.142h.079a1.923,1.923,0,0,1,.74-.9,2.281,2.281,0,0,1,1.265-.332,2.382,2.382,0,0,1,1.213.3,2,2,0,0,1,.806.862,2.945,2.945,0,0,1,.285,1.37v4.282H29.876v-4.036a1.5,1.5,0,0,0-.35-1.055,1.229,1.229,0,0,0-.959-.38,1.473,1.473,0,0,0-.74.183,1.277,1.277,0,0,0-.5.521A1.76,1.76,0,0,0,27.145,384.778Zm9.285-2.784v1.226H32.564v-1.226Zm-2.911-1.611H35.1V386.7a1.016,1.016,0,0,0,.1.491.521.521,0,0,0,.263.228,1.02,1.02,0,0,0,.359.061,1.613,1.613,0,0,0,.271-.021q.127-.022.193-.039l.267,1.238a3.326,3.326,0,0,1-.363.1,2.938,2.938,0,0,1-.569.062,2.585,2.585,0,0,1-1.073-.18,1.665,1.665,0,0,1-.757-.621,1.852,1.852,0,0,1-.271-1.05Zm7.141,8.466a3.462,3.462,0,0,1-1.747-.421,2.845,2.845,0,0,1-1.125-1.2,4.436,4.436,0,0,1,0-3.655,2.979,2.979,0,0,1,1.112-1.225,3.116,3.116,0,0,1,1.677-.442,3.382,3.382,0,0,1,1.173.2,2.646,2.646,0,0,1,.981.612,2.879,2.879,0,0,1,.674,1.059,4.259,4.259,0,0,1,.245,1.524v.486H38.138v-1.068H42.13a1.7,1.7,0,0,0-.2-.81,1.433,1.433,0,0,0-.538-.565,1.513,1.513,0,0,0-.8-.205,1.549,1.549,0,0,0-.854.236,1.634,1.634,0,0,0-.573.613,1.765,1.765,0,0,0-.206.828v.932a2.194,2.194,0,0,0,.214,1.008,1.53,1.53,0,0,0,.6.639,1.791,1.791,0,0,0,.9.219,1.9,1.9,0,0,0,.626-.1,1.382,1.382,0,0,0,.486-.293,1.225,1.225,0,0,0,.311-.477l1.48.166a2.308,2.308,0,0,1-.534,1.025,2.605,2.605,0,0,1-1,.674A3.82,3.82,0,0,1,40.659,388.85Zm4.331-.132v-6.724h1.536v1.121h.07a1.679,1.679,0,0,1,.63-.9,1.736,1.736,0,0,1,1.029-.32c.088,0,.185,0,.293.013a2.066,2.066,0,0,1,.276.03V383.4a1.736,1.736,0,0,0-.32-.062,3.049,3.049,0,0,0-.416-.03,1.61,1.61,0,0,0-.779.188,1.378,1.378,0,0,0-.538.512,1.446,1.446,0,0,0-.2.758v3.953Zm11.053,0H53.005v-8.965h3.1a4.611,4.611,0,0,1,2.294.538,3.6,3.6,0,0,1,1.48,1.537,5.826,5.826,0,0,1,0,4.806,3.6,3.6,0,0,1-1.493,1.546A4.753,4.753,0,0,1,56.043,388.718Zm-1.414-1.405h1.335a3.233,3.233,0,0,0,1.563-.341,2.187,2.187,0,0,0,.941-1.029,4.118,4.118,0,0,0,.315-1.716,4.057,4.057,0,0,0-.315-1.708,2.151,2.151,0,0,0-.932-1.02,3.1,3.1,0,0,0-1.523-.341H54.629Zm10.215,1.537a3.462,3.462,0,0,1-1.747-.421,2.845,2.845,0,0,1-1.125-1.2,4.436,4.436,0,0,1,0-3.655,2.979,2.979,0,0,1,1.112-1.225,3.116,3.116,0,0,1,1.677-.442,3.382,3.382,0,0,1,1.173.2,2.646,2.646,0,0,1,.981.612,2.879,2.879,0,0,1,.674,1.059,4.259,4.259,0,0,1,.245,1.524v.486H62.323v-1.068h3.992a1.7,1.7,0,0,0-.2-.81,1.433,1.433,0,0,0-.538-.565,1.513,1.513,0,0,0-.8-.205,1.548,1.548,0,0,0-.854.236,1.634,1.634,0,0,0-.573.613,1.765,1.765,0,0,0-.206.828v.932a2.194,2.194,0,0,0,.214,1.008,1.53,1.53,0,0,0,.6.639,1.791,1.791,0,0,0,.9.219,1.9,1.9,0,0,0,.626-.1,1.382,1.382,0,0,0,.486-.293,1.226,1.226,0,0,0,.311-.477l1.48.166a2.308,2.308,0,0,1-.534,1.025,2.605,2.605,0,0,1-1,.674A3.82,3.82,0,0,1,64.844,388.85Zm4.4-.132v-8.965H70.83v3.353H70.9a2.92,2.92,0,0,1,.346-.521,1.828,1.828,0,0,1,.6-.477,2.063,2.063,0,0,1,.972-.2,2.563,2.563,0,0,1,1.405.4,2.7,2.7,0,0,1,1,1.169,4.326,4.326,0,0,1,.372,1.891,4.407,4.407,0,0,1-.363,1.882,2.763,2.763,0,0,1-.989,1.182,2.54,2.54,0,0,1-1.418.408,2.107,2.107,0,0,1-.959-.193,1.949,1.949,0,0,1-.613-.464,3.012,3.012,0,0,1-.355-.521H70.8v1.059Zm1.554-3.362a3.244,3.244,0,0,0,.184,1.142,1.744,1.744,0,0,0,.538.767,1.507,1.507,0,0,0,1.738-.009,1.728,1.728,0,0,0,.534-.775,3.534,3.534,0,0,0,0-2.237,1.672,1.672,0,0,0-.534-.762,1.542,1.542,0,0,0-1.747-.008,1.639,1.639,0,0,0-.538.748A3.247,3.247,0,0,0,70.8,385.356Zm6.141,3.362v-6.724h1.585v6.724Zm.8-7.678a.923.923,0,0,1-.648-.25.8.8,0,0,1-.271-.608.8.8,0,0,1,.271-.608.916.916,0,0,1,.648-.254.906.906,0,0,1,.648.254.8.8,0,0,1,.271.608.8.8,0,0,1-.271.608A.913.913,0,0,1,77.736,381.04Zm5.775.954v1.226H79.646v-1.226ZM80.6,380.383h1.584V386.7a1.006,1.006,0,0,0,.1.491.519.519,0,0,0,.262.228,1.022,1.022,0,0,0,.359.061,1.606,1.606,0,0,0,.271-.021c.085-.015.149-.028.193-.039l.266,1.238a3.26,3.26,0,0,1-.363.1,2.936,2.936,0,0,1-.569.062,2.584,2.584,0,0,1-1.073-.18,1.666,1.666,0,0,1-.757-.621,1.851,1.851,0,0,1-.271-1.05Zm10.227,8.466a3.251,3.251,0,0,1-1.729-.442,2.951,2.951,0,0,1-1.108-1.221,4.035,4.035,0,0,1-.385-1.8A3.97,3.97,0,0,1,88,383.574a2.934,2.934,0,0,1,1.112-1.225,3.2,3.2,0,0,1,1.707-.442,3.314,3.314,0,0,1,1.449.3,2.451,2.451,0,0,1,1.441,2.115H92.194a1.451,1.451,0,0,0-.438-.81,1.262,1.262,0,0,0-.915-.329,1.43,1.43,0,0,0-.854.263,1.681,1.681,0,0,0-.574.744,3.042,3.042,0,0,0-.2,1.164,3.132,3.132,0,0,0,.2,1.182,1.722,1.722,0,0,0,.565.758,1.556,1.556,0,0,0,1.488.131,1.249,1.249,0,0,0,.468-.39,1.5,1.5,0,0,0,.259-.618h1.515a2.649,2.649,0,0,1-.421,1.266,2.487,2.487,0,0,1-.989.858A3.3,3.3,0,0,1,90.828,388.85Zm6.116,0a2.8,2.8,0,0,1-1.151-.228,1.879,1.879,0,0,1-.805-.683,2,2,0,0,1-.293-1.112,1.9,1.9,0,0,1,.21-.941,1.626,1.626,0,0,1,.574-.6,2.894,2.894,0,0,1,.819-.338,6.572,6.572,0,0,1,.95-.17q.59-.062.958-.11a1.414,1.414,0,0,0,.534-.157.372.372,0,0,0,.171-.337v-.026a.993.993,0,0,0-.293-.767,1.2,1.2,0,0,0-.845-.271,1.515,1.515,0,0,0-.924.254,1.262,1.262,0,0,0-.455.6l-1.479-.21a2.36,2.36,0,0,1,.578-1.024,2.511,2.511,0,0,1,.985-.622,3.781,3.781,0,0,1,1.287-.21,4.209,4.209,0,0,1,.968.113,2.717,2.717,0,0,1,.879.376,1.9,1.9,0,0,1,.639.705,2.3,2.3,0,0,1,.245,1.116v4.5H98.971v-.924h-.053a1.925,1.925,0,0,1-1.059.915A2.618,2.618,0,0,1,96.944,388.854Zm.412-1.165a1.721,1.721,0,0,0,.828-.188,1.39,1.39,0,0,0,.538-.508,1.293,1.293,0,0,0,.192-.687v-.792a.727.727,0,0,1-.254.113,3.508,3.508,0,0,1-.394.092c-.146.026-.29.05-.433.07l-.372.053a2.745,2.745,0,0,0-.634.158,1.049,1.049,0,0,0-.442.307.747.747,0,0,0-.163.5.756.756,0,0,0,.32.662A1.392,1.392,0,0,0,97.355,387.689Zm4.732,1.029v-6.724h1.537v1.121h.07a1.679,1.679,0,0,1,.63-.9,1.737,1.737,0,0,1,1.029-.32c.087,0,.185,0,.293.013a2.043,2.043,0,0,1,.275.03V383.4a1.724,1.724,0,0,0-.319-.062,3.052,3.052,0,0,0-.416-.03,1.613,1.613,0,0,0-.78.188,1.379,1.379,0,0,0-.538.512,1.445,1.445,0,0,0-.2.758v3.953Zm7.106.118a2.54,2.54,0,0,1-1.418-.408,2.763,2.763,0,0,1-.989-1.182,5.054,5.054,0,0,1,0-3.773,2.726,2.726,0,0,1,1-1.169,2.579,2.579,0,0,1,1.405-.4,2.064,2.064,0,0,1,.972.2,1.827,1.827,0,0,1,.6.477,2.953,2.953,0,0,1,.346.521h.065v-3.353h1.589v8.965h-1.558v-1.059h-.1a2.745,2.745,0,0,1-.355.521,1.947,1.947,0,0,1-.613.464A2.1,2.1,0,0,1,109.194,388.836Zm.442-1.3a1.372,1.372,0,0,0,.858-.271,1.7,1.7,0,0,0,.538-.767,3.246,3.246,0,0,0,.184-1.142,3.18,3.18,0,0,0-.184-1.134,1.612,1.612,0,0,0-.534-.748,1.379,1.379,0,0,0-.862-.267,1.4,1.4,0,0,0-.884.275,1.672,1.672,0,0,0-.534.762,3.188,3.188,0,0,0-.179,1.112,3.278,3.278,0,0,0,.179,1.125,1.754,1.754,0,0,0,.538.775A1.388,1.388,0,0,0,109.636,387.536Zm10.993,1.182h-3.037v-8.965h3.1a4.609,4.609,0,0,1,2.294.538,3.6,3.6,0,0,1,1.48,1.537,5.827,5.827,0,0,1,0,4.806,3.6,3.6,0,0,1-1.492,1.546A4.754,4.754,0,0,1,120.628,388.718Zm-1.414-1.405h1.335a3.231,3.231,0,0,0,1.562-.341,2.182,2.182,0,0,0,.941-1.029,4.114,4.114,0,0,0,.316-1.716,4.052,4.052,0,0,0-.316-1.708,2.146,2.146,0,0,0-.932-1.02,3.1,3.1,0,0,0-1.524-.341h-1.383Zm10.215,1.537a3.463,3.463,0,0,1-1.747-.421,2.848,2.848,0,0,1-1.125-1.2,4.44,4.44,0,0,1,0-3.655,2.988,2.988,0,0,1,1.112-1.225,3.117,3.117,0,0,1,1.677-.442,3.379,3.379,0,0,1,1.173.2,2.642,2.642,0,0,1,.98.612,2.881,2.881,0,0,1,.675,1.059,4.256,4.256,0,0,1,.245,1.524v.486h-5.511v-1.068H130.9a1.712,1.712,0,0,0-.2-.81,1.435,1.435,0,0,0-.538-.565,1.513,1.513,0,0,0-.8-.205,1.546,1.546,0,0,0-.853.236,1.63,1.63,0,0,0-.574.613,1.764,1.764,0,0,0-.206.828v.932a2.194,2.194,0,0,0,.214,1.008,1.533,1.533,0,0,0,.6.639,1.791,1.791,0,0,0,.9.219,1.9,1.9,0,0,0,.626-.1,1.377,1.377,0,0,0,.486-.293,1.233,1.233,0,0,0,.311-.477l1.479.166a2.307,2.307,0,0,1-.534,1.025,2.607,2.607,0,0,1-1,.674A3.824,3.824,0,0,1,129.43,388.85Zm7.688-6.856v1.226h-3.866v-1.226Zm-2.911-1.611h1.584V386.7a1.017,1.017,0,0,0,.1.491.52.52,0,0,0,.263.228,1.018,1.018,0,0,0,.358.061,1.624,1.624,0,0,0,.272-.021q.127-.022.192-.039l.267,1.238a3.31,3.31,0,0,1-.363.1,2.937,2.937,0,0,1-.57.062,2.584,2.584,0,0,1-1.072-.18,1.663,1.663,0,0,1-.757-.621,1.847,1.847,0,0,1-.271-1.05Zm6.171,8.47a2.8,2.8,0,0,1-1.151-.228,1.874,1.874,0,0,1-.805-.683,2,2,0,0,1-.293-1.112,1.892,1.892,0,0,1,.21-.941,1.624,1.624,0,0,1,.573-.6,2.889,2.889,0,0,1,.819-.338,6.562,6.562,0,0,1,.949-.17q.592-.062.959-.11a1.419,1.419,0,0,0,.534-.157.374.374,0,0,0,.171-.337v-.026a.993.993,0,0,0-.293-.767,1.2,1.2,0,0,0-.845-.271,1.514,1.514,0,0,0-.924.254,1.257,1.257,0,0,0-.455.6l-1.48-.21a2.368,2.368,0,0,1,.578-1.024,2.514,2.514,0,0,1,.985-.622,3.774,3.774,0,0,1,1.287-.21,4.2,4.2,0,0,1,.967.113,2.714,2.714,0,0,1,.88.376,1.9,1.9,0,0,1,.639.705,2.3,2.3,0,0,1,.245,1.116v4.5H142.4v-.924h-.053a1.918,1.918,0,0,1-1.059.915A2.613,2.613,0,0,1,140.378,388.854Zm.412-1.165a1.718,1.718,0,0,0,.827-.188,1.393,1.393,0,0,0,.539-.508,1.292,1.292,0,0,0,.192-.687v-.792a.727.727,0,0,1-.254.113,3.551,3.551,0,0,1-.394.092c-.146.026-.291.05-.434.07l-.372.053a2.756,2.756,0,0,0-.634.158,1.054,1.054,0,0,0-.442.307.846.846,0,0,0,.158,1.16A1.389,1.389,0,0,0,140.79,387.689Zm4.732,1.029v-6.724h1.584v6.724Zm.8-7.678a.922.922,0,0,1-.648-.25.8.8,0,0,1-.271-.608.8.8,0,0,1,.271-.608.954.954,0,0,1,1.3,0,.8.8,0,0,1,.271.608.8.8,0,0,1-.271.608A.914.914,0,0,1,146.318,381.04Zm4-1.287v8.965h-1.584v-8.965Zm6.944,4.019-1.445.158a1.165,1.165,0,0,0-.214-.412,1.069,1.069,0,0,0-.4-.311,1.466,1.466,0,0,0-.622-.118,1.521,1.521,0,0,0-.832.215.629.629,0,0,0-.328.556.58.58,0,0,0,.214.477,1.833,1.833,0,0,0,.736.3l1.146.245a2.9,2.9,0,0,1,1.418.652,1.555,1.555,0,0,1,.473,1.169,1.825,1.825,0,0,1-.371,1.12,2.391,2.391,0,0,1-1.012.754,3.825,3.825,0,0,1-1.488.271,3.451,3.451,0,0,1-1.987-.517,2.074,2.074,0,0,1-.9-1.449l1.545-.149a1.088,1.088,0,0,0,.446.687,1.549,1.549,0,0,0,.889.233,1.579,1.579,0,0,0,.906-.233.677.677,0,0,0,.346-.574.6.6,0,0,0-.223-.477,1.561,1.561,0,0,0-.683-.289l-1.147-.241a2.728,2.728,0,0,1-1.432-.678,1.669,1.669,0,0,1-.459-1.217,1.72,1.72,0,0,1,.337-1.077,2.2,2.2,0,0,1,.959-.709,3.711,3.711,0,0,1,1.423-.254,3.064,3.064,0,0,1,1.861.5A2.121,2.121,0,0,1,157.265,383.772Z"/>
        <rect id="Rectangle_663" data-name="Rectangle 663" width="189.839" height="31.229" transform="translate(21.778 431.863)" fill="#fff" stroke="#fa7b17" stroke-width="0.822"/>
        <rect id="Rectangle_664" data-name="Rectangle 664" width="106.014" height="31.229" transform="translate(228.053 431.863)" fill="#fff" stroke="#fa7b17" stroke-width="0.822"/>
        <path id="Path_491" data-name="Path 491" d="M269.2,444l1.849,2.983h.056L272.954,444h1.023l-2.256,3.586,2.256,3.586h-1.023l-1.849-2.927h-.056l-1.849,2.927h-1.022l2.311-3.586L268.178,444Zm6.327,0,1.849,2.983h.057L279.282,444H280.3l-2.255,3.586,2.255,3.586h-1.022l-1.849-2.927h-.057l-1.849,2.927H274.5l2.312-3.586L274.5,444Zm6.328,0,1.849,2.983h.056L285.609,444h1.022l-2.255,3.586,2.255,3.586h-1.022l-1.849-2.927H283.7l-1.849,2.927h-1.023l2.312-3.586L280.832,444Zm6.327,0,1.849,2.983h.056L291.936,444h1.022L290.7,447.59l2.255,3.586h-1.022l-1.849-2.927h-.056l-1.849,2.927H287.16l2.311-3.586L287.16,444Z" fill="#707070"/>
        <path id="Path_492" data-name="Path 492" d="M58.4,451.176V444h4.329v.77h-3.46V447.2H62.5v.771H59.264v2.437H62.78v.771ZM65,447.94v3.236h-.826V445.8h.8v.84h.07a1.54,1.54,0,0,1,.574-.658,1.789,1.789,0,0,1,.995-.252,1.96,1.96,0,0,1,.956.224,1.511,1.511,0,0,1,.637.672,2.5,2.5,0,0,1,.228,1.135v3.418h-.826v-3.362a1.4,1.4,0,0,0-.329-.988,1.17,1.17,0,0,0-.9-.357,1.435,1.435,0,0,0-.707.172,1.226,1.226,0,0,0-.487.5A1.654,1.654,0,0,0,65,447.94Zm7.282-2.142v.7H69.5v-.7Zm-1.975-1.289h.826v5.127a1.071,1.071,0,0,0,.1.525.525.525,0,0,0,.266.231,1.056,1.056,0,0,0,.347.057,1.507,1.507,0,0,0,.224-.014l.14-.029.168.743a1.8,1.8,0,0,1-.235.063,1.754,1.754,0,0,1-.382.035,1.666,1.666,0,0,1-.686-.15,1.362,1.362,0,0,1-.553-.459,1.319,1.319,0,0,1-.217-.777Zm5.416,6.78a2.533,2.533,0,0,1-1.341-.343,2.306,2.306,0,0,1-.865-.966,3.3,3.3,0,0,1-.3-1.451,3.34,3.34,0,0,1,.3-1.456,2.373,2.373,0,0,1,.847-.988,2.275,2.275,0,0,1,1.275-.357,2.544,2.544,0,0,1,.83.14,2.046,2.046,0,0,1,.746.455,2.182,2.182,0,0,1,.536.826,3.526,3.526,0,0,1,.2,1.268v.35H73.807v-.714h3.306a1.766,1.766,0,0,0-.182-.813,1.373,1.373,0,0,0-.511-.564,1.436,1.436,0,0,0-.777-.206,1.482,1.482,0,0,0-.855.245,1.614,1.614,0,0,0-.55.63,1.849,1.849,0,0,0-.193.833v.477a2.309,2.309,0,0,0,.21,1.033,1.516,1.516,0,0,0,.592.641,1.736,1.736,0,0,0,.879.217,1.787,1.787,0,0,0,.588-.091,1.258,1.258,0,0,0,.459-.28,1.272,1.272,0,0,0,.3-.469l.8.224a1.773,1.773,0,0,1-.424.714,2.066,2.066,0,0,1-.735.477A2.734,2.734,0,0,1,75.726,451.288Zm3.485-.112V445.8h.8v.812h.056a1.291,1.291,0,0,1,.532-.648,1.565,1.565,0,0,1,.868-.249c.061,0,.137,0,.228,0s.16.006.207.01v.841c-.028-.007-.092-.017-.193-.031a1.881,1.881,0,0,0-.312-.025,1.469,1.469,0,0,0-.7.164,1.245,1.245,0,0,0-.483.449,1.206,1.206,0,0,0-.175.648v3.4Zm8.769,0H85.766V444h2.311a3.494,3.494,0,0,1,1.786.431A2.813,2.813,0,0,1,91,445.664a4.262,4.262,0,0,1,.4,1.912,4.316,4.316,0,0,1-.4,1.93,2.84,2.84,0,0,1-1.163,1.24A3.726,3.726,0,0,1,87.979,451.176Zm-1.345-.771h1.289a2.883,2.883,0,0,0,1.474-.343,2.12,2.12,0,0,0,.872-.977,4.1,4.1,0,0,0,0-3,2.088,2.088,0,0,0-.847-.966,2.677,2.677,0,0,0-1.4-.34H86.634Zm8.363.883a2.535,2.535,0,0,1-1.341-.343,2.307,2.307,0,0,1-.865-.966,3.291,3.291,0,0,1-.3-1.451,3.332,3.332,0,0,1,.3-1.456,2.373,2.373,0,0,1,.847-.988,2.274,2.274,0,0,1,1.275-.357,2.543,2.543,0,0,1,.83.14,2.045,2.045,0,0,1,.746.455,2.179,2.179,0,0,1,.536.826,3.524,3.524,0,0,1,.2,1.268v.35H93.078v-.714h3.306a1.763,1.763,0,0,0-.182-.813,1.373,1.373,0,0,0-.511-.564,1.435,1.435,0,0,0-.777-.206,1.485,1.485,0,0,0-.855.245,1.624,1.624,0,0,0-.55.63,1.852,1.852,0,0,0-.192.833v.477a2.3,2.3,0,0,0,.21,1.033,1.513,1.513,0,0,0,.592.641,1.734,1.734,0,0,0,.879.217,1.783,1.783,0,0,0,.588-.091,1.2,1.2,0,0,0,.757-.749l.8.224a1.773,1.773,0,0,1-.423.714,2.071,2.071,0,0,1-.736.477A2.734,2.734,0,0,1,95,451.288Zm3.6-.112V444h.827v2.647h.07q.091-.139.252-.357a1.475,1.475,0,0,1,.469-.393,1.689,1.689,0,0,1,.833-.175,2.131,2.131,0,0,1,1.2.34,2.255,2.255,0,0,1,.809.963,3.458,3.458,0,0,1,.29,1.47,3.5,3.5,0,0,1-.29,1.482,2.291,2.291,0,0,1-.806.966,2.1,2.1,0,0,1-1.187.339,1.723,1.723,0,0,1-.83-.171,1.534,1.534,0,0,1-.48-.4c-.112-.15-.2-.273-.259-.371h-.1v.827Zm.813-2.69a2.991,2.991,0,0,0,.178,1.076,1.62,1.62,0,0,0,.522.725,1.5,1.5,0,0,0,1.705-.014,1.674,1.674,0,0,0,.525-.743,2.913,2.913,0,0,0,.179-1.044,2.829,2.829,0,0,0-.175-1.022,1.586,1.586,0,0,0-.522-.725,1.54,1.54,0,0,0-1.72-.014,1.531,1.531,0,0,0-.518.708A2.906,2.906,0,0,0,99.407,448.486Zm5.2,2.69V445.8h.826v5.379Zm.42-6.275a.586.586,0,0,1-.417-.165.542.542,0,0,1,0-.791.589.589,0,0,1,.417-.164.577.577,0,0,1,.413.164.535.535,0,0,1,0,.791A.575.575,0,0,1,105.027,444.9Zm4.259.9v.7H106.5v-.7Zm-1.976-1.289h.827v5.127a1.065,1.065,0,0,0,.1.525.524.524,0,0,0,.266.231,1.053,1.053,0,0,0,.346.057,1.507,1.507,0,0,0,.224-.014l.141-.029.168.743a1.784,1.784,0,0,1-.234.063,1.755,1.755,0,0,1-.382.035,1.665,1.665,0,0,1-.686-.15,1.361,1.361,0,0,1-.553-.459,1.32,1.32,0,0,1-.218-.777Zm11.876,1.737h-.869a1.812,1.812,0,0,0-.732-1.135,1.963,1.963,0,0,0-.6-.294,2.411,2.411,0,0,0-.687-.1,2.189,2.189,0,0,0-1.18.33,2.288,2.288,0,0,0-.837.97,4.166,4.166,0,0,0,0,3.145,2.288,2.288,0,0,0,.837.97,2.189,2.189,0,0,0,1.18.33,2.381,2.381,0,0,0,.687-.1,1.99,1.99,0,0,0,.6-.29,1.832,1.832,0,0,0,.732-1.138h.869a2.9,2.9,0,0,1-.357.984,2.68,2.68,0,0,1-.644.739,2.8,2.8,0,0,1-.865.459,3.239,3.239,0,0,1-1.019.157,3,3,0,0,1-1.631-.448,3.075,3.075,0,0,1-1.124-1.275,4.895,4.895,0,0,1,0-3.923,3.07,3.07,0,0,1,1.124-1.275,3,3,0,0,1,1.631-.449,3.216,3.216,0,0,1,1.019.158,2.778,2.778,0,0,1,.865.463,2.62,2.62,0,0,1,.644.736A2.864,2.864,0,0,1,119.187,446.245Zm2.874,5.057a2.19,2.19,0,0,1-.928-.192,1.528,1.528,0,0,1-.907-1.46,1.379,1.379,0,0,1,.182-.75,1.289,1.289,0,0,1,.487-.455,2.563,2.563,0,0,1,.672-.245c.248-.056.5-.1.746-.133.327-.042.592-.074.795-.095a1.226,1.226,0,0,0,.449-.116.3.3,0,0,0,.144-.28v-.028a1.1,1.1,0,0,0-.284-.805,1.138,1.138,0,0,0-.851-.287,1.486,1.486,0,0,0-.928.259,1.536,1.536,0,0,0-.473.553l-.784-.28a1.887,1.887,0,0,1,.56-.763,2.1,2.1,0,0,1,.77-.385,3.2,3.2,0,0,1,.827-.113,3.283,3.283,0,0,1,.595.063,1.891,1.891,0,0,1,.655.249,1.462,1.462,0,0,1,.529.57,2.131,2.131,0,0,1,.21,1.023v3.544H123.7v-.728h-.043a1.45,1.45,0,0,1-.279.375,1.629,1.629,0,0,1-.522.339A2.009,2.009,0,0,1,122.061,451.3Zm.127-.742a1.64,1.64,0,0,0,.826-.192,1.32,1.32,0,0,0,.512-.5,1.272,1.272,0,0,0,.175-.641v-.757a.5.5,0,0,1-.232.116,3.766,3.766,0,0,1-.406.087c-.152.024-.3.044-.445.063l-.347.042a3.2,3.2,0,0,0-.6.136,1.036,1.036,0,0,0-.448.277.7.7,0,0,0-.168.5.74.74,0,0,0,.319.652A1.43,1.43,0,0,0,122.187,450.56Zm3.848.616V445.8h.8v.812h.057a1.291,1.291,0,0,1,.532-.648,1.566,1.566,0,0,1,.869-.249c.061,0,.136,0,.228,0s.16.006.207.01v.841c-.029-.007-.093-.017-.193-.031a1.879,1.879,0,0,0-.311-.025,1.468,1.468,0,0,0-.7.164,1.24,1.24,0,0,0-.483.449,1.206,1.206,0,0,0-.175.648v3.4Zm5.537.112a2.106,2.106,0,0,1-1.188-.339,2.3,2.3,0,0,1-.805-.966,3.5,3.5,0,0,1-.29-1.482,3.458,3.458,0,0,1,.29-1.47,2.255,2.255,0,0,1,.809-.963,2.131,2.131,0,0,1,1.2-.34,1.669,1.669,0,0,1,.83.175,1.44,1.44,0,0,1,.469.393c.11.145.195.264.256.357h.07V444h.827v7.172h-.8v-.827h-.1c-.061.1-.147.222-.259.371a1.543,1.543,0,0,1-.48.4A1.723,1.723,0,0,1,131.572,451.288Zm.112-.742a1.355,1.355,0,0,0,.841-.259,1.62,1.62,0,0,0,.522-.725,2.991,2.991,0,0,0,.178-1.076,2.906,2.906,0,0,0-.175-1.054,1.531,1.531,0,0,0-.518-.708,1.377,1.377,0,0,0-.848-.256,1.391,1.391,0,0,0-.875.27,1.617,1.617,0,0,0-.522.725,2.884,2.884,0,0,0-.172,1.022,2.968,2.968,0,0,0,.175,1.044,1.708,1.708,0,0,0,.526.743A1.371,1.371,0,0,0,131.683,450.546ZM144.238,444v7.172h-.84l-3.909-5.631h-.07v5.631h-.869V444h.841l3.922,5.645h.071V444Zm5.016,4.973V445.8h.826v5.379h-.826v-.911H149.2a1.77,1.77,0,0,1-.588.7,1.7,1.7,0,0,1-1.009.284,1.8,1.8,0,0,1-.9-.22,1.549,1.549,0,0,1-.616-.672,2.567,2.567,0,0,1-.224-1.138V445.8h.826v3.361a1.317,1.317,0,0,0,.33.939,1.119,1.119,0,0,0,.847.35,1.4,1.4,0,0,0,.627-.158,1.369,1.369,0,0,0,.539-.483A1.449,1.449,0,0,0,149.255,448.977Zm2.34,2.2V445.8h.8v.84h.07a1.359,1.359,0,0,1,.543-.669,1.625,1.625,0,0,1,.9-.242,1.535,1.535,0,0,1,.886.242,1.585,1.585,0,0,1,.557.669h.056a1.564,1.564,0,0,1,.62-.662,1.884,1.884,0,0,1,.991-.249,1.613,1.613,0,0,1,1.18.452,1.879,1.879,0,0,1,.459,1.4v3.6h-.826v-3.6a1.015,1.015,0,0,0-.326-.851,1.2,1.2,0,0,0-.767-.256,1.126,1.126,0,0,0-.879.343,1.226,1.226,0,0,0-.312.862v3.5h-.84v-3.684a.966.966,0,0,0-.3-.739,1.065,1.065,0,0,0-.767-.284,1.128,1.128,0,0,0-.6.172,1.3,1.3,0,0,0-.448.476,1.4,1.4,0,0,0-.168.7v3.362Zm8.683,0V444h.827v2.647h.07c.061-.093.145-.212.252-.357a1.493,1.493,0,0,1,.469-.393,1.689,1.689,0,0,1,.833-.175,2.134,2.134,0,0,1,1.2.34,2.259,2.259,0,0,1,.809.963,3.446,3.446,0,0,1,.291,1.47,3.492,3.492,0,0,1-.291,1.482,2.289,2.289,0,0,1-.805.966,2.1,2.1,0,0,1-1.188.339,1.719,1.719,0,0,1-.829-.171,1.534,1.534,0,0,1-.48-.4c-.113-.15-.2-.273-.26-.371h-.1v.827Zm.813-2.69a3.009,3.009,0,0,0,.178,1.076,1.626,1.626,0,0,0,.522.725,1.5,1.5,0,0,0,1.706-.014,1.674,1.674,0,0,0,.525-.743,2.913,2.913,0,0,0,.178-1.044,2.829,2.829,0,0,0-.175-1.022,1.58,1.58,0,0,0-.522-.725,1.539,1.539,0,0,0-1.719-.014,1.527,1.527,0,0,0-.519.708A2.906,2.906,0,0,0,161.09,448.486Zm7.456,2.8a2.536,2.536,0,0,1-1.342-.343,2.307,2.307,0,0,1-.865-.966,3.3,3.3,0,0,1-.3-1.451,3.344,3.344,0,0,1,.3-1.456,2.373,2.373,0,0,1,.847-.988,2.274,2.274,0,0,1,1.275-.357,2.543,2.543,0,0,1,.83.14,2.045,2.045,0,0,1,.746.455,2.179,2.179,0,0,1,.536.826,3.524,3.524,0,0,1,.2,1.268v.35h-4.147v-.714h3.306a1.763,1.763,0,0,0-.182-.813,1.367,1.367,0,0,0-.511-.564,1.435,1.435,0,0,0-.777-.206,1.48,1.48,0,0,0-.854.245,1.62,1.62,0,0,0-.551.63,1.852,1.852,0,0,0-.192.833v.477a2.3,2.3,0,0,0,.21,1.033,1.513,1.513,0,0,0,.592.641,1.735,1.735,0,0,0,.879.217,1.782,1.782,0,0,0,.588-.091,1.2,1.2,0,0,0,.757-.749l.8.224a1.784,1.784,0,0,1-.424.714,2.071,2.071,0,0,1-.736.477A2.732,2.732,0,0,1,168.547,451.288Zm3.484-.112V445.8h.8v.812h.056a1.3,1.3,0,0,1,.533-.648,1.566,1.566,0,0,1,.869-.249c.061,0,.136,0,.228,0s.16.006.206.01v.841c-.028-.007-.092-.017-.192-.031a1.879,1.879,0,0,0-.311-.025,1.471,1.471,0,0,0-.7.164,1.246,1.246,0,0,0-.483.449,1.206,1.206,0,0,0-.175.648v3.4Z" fill="#707070"/>
        <path id="Path_493" data-name="Path 493" d="M135.413,134.46v-1.027h7.172v1.027h-3.007V143H138.42V134.46Zm10.684,8.685a3.034,3.034,0,0,1-2.844-1.756,4.379,4.379,0,0,1-.406-1.942,4.436,4.436,0,0,1,.406-1.957,3.029,3.029,0,0,1,2.844-1.76,3.026,3.026,0,0,1,2.839,1.76,4.379,4.379,0,0,1,.411,1.957,4.324,4.324,0,0,1-.411,1.942,3.031,3.031,0,0,1-2.839,1.756Zm0-.99a1.89,1.89,0,0,0,1.214-.378,2.235,2.235,0,0,0,.705-.994,4.032,4.032,0,0,0,0-2.676,2.258,2.258,0,0,0-.705-1,2.116,2.116,0,0,0-2.428,0,2.25,2.25,0,0,0-.7,1,4.018,4.018,0,0,0,0,2.676,2.227,2.227,0,0,0,.7.994A1.893,1.893,0,0,0,146.1,142.155Zm8.779.841v-9.563h3.231a3.686,3.686,0,0,1,1.839.406,2.54,2.54,0,0,1,1.065,1.088,3.581,3.581,0,0,1,0,3.068,2.579,2.579,0,0,1-1.055,1.1,3.678,3.678,0,0,1-1.83.406h-2.317v-1.027h2.279a2.491,2.491,0,0,0,1.238-.266,1.587,1.587,0,0,0,.677-.719,2.4,2.4,0,0,0,.214-1.032,2.376,2.376,0,0,0-.214-1.027,1.533,1.533,0,0,0-.682-.709,2.58,2.58,0,0,0-1.252-.261h-2.036V143Zm10.308.168a2.921,2.921,0,0,1-1.238-.257,2.036,2.036,0,0,1-1.21-1.947,1.84,1.84,0,0,1,.243-1,1.708,1.708,0,0,1,.649-.607,3.435,3.435,0,0,1,.9-.327q.5-.111,1-.177.653-.085,1.059-.127a1.639,1.639,0,0,0,.6-.154.393.393,0,0,0,.191-.374v-.037a1.461,1.461,0,0,0-.379-1.074,1.518,1.518,0,0,0-1.134-.383,1.985,1.985,0,0,0-1.238.345,2.048,2.048,0,0,0-.63.738l-1.046-.373a2.517,2.517,0,0,1,.747-1.018,2.805,2.805,0,0,1,1.027-.514,4.278,4.278,0,0,1,1.1-.15,4.368,4.368,0,0,1,.794.084,2.543,2.543,0,0,1,.874.332,1.954,1.954,0,0,1,.705.761,2.834,2.834,0,0,1,.28,1.363V143h-1.1v-.971h-.057a1.915,1.915,0,0,1-.373.5,2.141,2.141,0,0,1-.7.453A2.671,2.671,0,0,1,165.184,143.164Zm.168-.99a2.191,2.191,0,0,0,1.1-.256,1.761,1.761,0,0,0,.682-.663,1.694,1.694,0,0,0,.233-.855v-1.008a.664.664,0,0,1-.308.154,5.09,5.09,0,0,1-.542.117c-.2.031-.4.059-.593.084s-.344.041-.463.057a4.2,4.2,0,0,0-.8.182,1.389,1.389,0,0,0-.6.369.939.939,0,0,0-.224.663.99.99,0,0,0,.425.869A1.907,1.907,0,0,0,165.351,142.174Zm5.583,3.512a2.409,2.409,0,0,1-.5-.047,1.316,1.316,0,0,1-.3-.084l.28-.971a2.142,2.142,0,0,0,.709.075.854.854,0,0,0,.547-.275,2.2,2.2,0,0,0,.444-.79l.205-.56-2.652-7.209h1.195l1.98,5.715h.075l1.98-5.715h1.2l-3.045,8.218a3.1,3.1,0,0,1-.509.92,1.908,1.908,0,0,1-.705.547A2.174,2.174,0,0,1,170.935,145.685Z"/>
        <path id="Path_494" data-name="Path 494" d="M207.8,144.191V132.237h.766v11.954Zm2.032-8.009a1.185,1.185,0,0,0-.481-.878,1.907,1.907,0,0,0-1.154-.313,2.2,2.2,0,0,0-.836.141,1.179,1.179,0,0,0-.523.378.909.909,0,0,0-.178.551.782.782,0,0,0,.108.449,1.116,1.116,0,0,0,.331.331,2.475,2.475,0,0,0,.486.238,4.961,4.961,0,0,0,.588.168l.859.205a6.035,6.035,0,0,1,1.149.373,3.507,3.507,0,0,1,.906.574,2.393,2.393,0,0,1,.593.8,2.543,2.543,0,0,1,.219,1.06,2.643,2.643,0,0,1-.449,1.522,2.847,2.847,0,0,1-1.27,1,5.1,5.1,0,0,1-1.994.35,5.259,5.259,0,0,1-2.018-.355,2.957,2.957,0,0,1-1.335-1.05,3.146,3.146,0,0,1-.5-1.732h1.957a1.472,1.472,0,0,0,.275.8,1.534,1.534,0,0,0,.658.481,2.614,2.614,0,0,0,.939.159,2.411,2.411,0,0,0,.892-.15,1.363,1.363,0,0,0,.593-.415.958.958,0,0,0,.21-.612.8.8,0,0,0-.191-.542,1.455,1.455,0,0,0-.551-.373,5.6,5.6,0,0,0-.883-.28l-1.041-.261a4.366,4.366,0,0,1-1.91-.92,2.133,2.133,0,0,1-.7-1.686,2.5,2.5,0,0,1,.463-1.517,3.108,3.108,0,0,1,1.294-1.013,4.555,4.555,0,0,1,1.867-.364,4.414,4.414,0,0,1,1.859.364,2.938,2.938,0,0,1,1.242,1.013,2.682,2.682,0,0,1,.458,1.5ZM213.58,143l3.964-7.844v-.066h-4.619v-1.653h6.71v1.676L215.667,143Zm7.442,0v-1.457l3.4-3.152q.435-.42.729-.756a2.879,2.879,0,0,0,.453-.659,1.632,1.632,0,0,0,.154-.705,1.323,1.323,0,0,0-.191-.723,1.257,1.257,0,0,0-.523-.472,1.644,1.644,0,0,0-.752-.168,1.581,1.581,0,0,0-.766.178,1.224,1.224,0,0,0-.5.51,1.649,1.649,0,0,0-.178.789h-1.919a3.047,3.047,0,0,1,.425-1.63,2.832,2.832,0,0,1,1.19-1.069,3.939,3.939,0,0,1,1.765-.378,4.093,4.093,0,0,1,1.788.364,2.832,2.832,0,0,1,1.191,1,2.586,2.586,0,0,1,.425,1.466,2.818,2.818,0,0,1-.214,1.069,4.5,4.5,0,0,1-.752,1.172,17.3,17.3,0,0,1-1.527,1.536l-1.4,1.368v.066h4.016V143Zm9.464.122A1.117,1.117,0,0,1,229.364,142a1.07,1.07,0,0,1,.327-.784,1.115,1.115,0,0,1,1.578,0,1.084,1.084,0,0,1,.178,1.349,1.214,1.214,0,0,1-.406.406A1.073,1.073,0,0,1,230.485,143.117ZM236.5,133.3a4.124,4.124,0,0,1,1.42.247,3.258,3.258,0,0,1,1.223.789,3.733,3.733,0,0,1,.855,1.438,6.644,6.644,0,0,1,.322,2.19,7.886,7.886,0,0,1-.275,2.175,4.821,4.821,0,0,1-.78,1.621,3.407,3.407,0,0,1-1.228,1.018,3.667,3.667,0,0,1-1.607.345,3.717,3.717,0,0,1-1.69-.369,3.1,3.1,0,0,1-1.718-2.461h1.995a1.362,1.362,0,0,0,.49.813,1.48,1.48,0,0,0,.925.284,1.555,1.555,0,0,0,1.419-.813,4.4,4.4,0,0,0,.491-2.236h-.065a2.311,2.311,0,0,1-.579.724,2.694,2.694,0,0,1-.836.462,2.98,2.98,0,0,1-.994.164,2.881,2.881,0,0,1-1.509-.4,2.845,2.845,0,0,1-1.045-1.093,3.507,3.507,0,0,1,.061-3.3,3.123,3.123,0,0,1,1.251-1.176A3.9,3.9,0,0,1,236.5,133.3Zm.014,1.587a1.584,1.584,0,0,0-.84.224,1.65,1.65,0,0,0-.579.6,1.678,1.678,0,0,0-.205.845,1.76,1.76,0,0,0,.205.851,1.649,1.649,0,0,0,.57.6,1.581,1.581,0,0,0,.832.219,1.6,1.6,0,0,0,1.167-.491,1.711,1.711,0,0,0,.35-.537,1.653,1.653,0,0,0,.127-.644,1.718,1.718,0,0,0-.215-.832,1.639,1.639,0,0,0-.579-.607A1.543,1.543,0,0,0,236.514,134.889Zm8.742,8.237a4.591,4.591,0,0,1-1.863-.359,3.188,3.188,0,0,1-1.285-1,2.51,2.51,0,0,1-.481-1.476h2.036a1.059,1.059,0,0,0,.229.616,1.412,1.412,0,0,0,.57.407,2.106,2.106,0,0,0,.8.145,1.943,1.943,0,0,0,.817-.164,1.342,1.342,0,0,0,.556-.453,1.143,1.143,0,0,0,.2-.668,1.121,1.121,0,0,0-.214-.677,1.376,1.376,0,0,0-.607-.467,2.366,2.366,0,0,0-.934-.168h-.892v-1.485h.892a1.949,1.949,0,0,0,.808-.159,1.3,1.3,0,0,0,.551-.439,1.18,1.18,0,0,0-.453-1.723,1.547,1.547,0,0,0-.709-.154,1.853,1.853,0,0,0-.752.15,1.316,1.316,0,0,0-.547.416,1.09,1.09,0,0,0-.219.635h-1.938a2.488,2.488,0,0,1,.472-1.457,3.063,3.063,0,0,1,1.233-.985,4.15,4.15,0,0,1,1.76-.359,3.927,3.927,0,0,1,1.732.359,2.848,2.848,0,0,1,1.153.971A2.329,2.329,0,0,1,248.58,136a1.866,1.866,0,0,1-.5,1.34,2.271,2.271,0,0,1-1.3.681v.075a2.541,2.541,0,0,1,1.607.733,2.072,2.072,0,0,1,.551,1.485,2.329,2.329,0,0,1-.472,1.452,3.16,3.16,0,0,1-1.3,1A4.711,4.711,0,0,1,245.256,143.126Z" fill="#fa7b17"/>
        <line id="Line_178" data-name="Line 178" y2="29.585" transform="translate(188.606 124.916)" fill="none" stroke="#d9d9d9" stroke-width="0.822"/>
        <line id="Line_179" data-name="Line 179" x2="121.629" transform="translate(134.778 154.09)" fill="none" stroke="#d9d9d9" stroke-width="0.822"/>
        <rect id="Rectangle_665" data-name="Rectangle 665" width="350.915" height="1.644" transform="translate(0.822 79.716)" fill="#d9d9d9"/>
        <rect id="Rectangle_666" data-name="Rectangle 666" width="312.289" height="4.109" transform="translate(0 78.072)" fill="#fa7b17"/>
        <path id="Path_495" data-name="Path 495" d="M77.935,40.68H76.125A3.776,3.776,0,0,0,74.6,38.316a4.088,4.088,0,0,0-1.248-.613,4.983,4.983,0,0,0-1.43-.2,4.558,4.558,0,0,0-2.459.686,4.769,4.769,0,0,0-1.744,2.021,7.521,7.521,0,0,0-.642,3.276,7.521,7.521,0,0,0,.642,3.276,4.769,4.769,0,0,0,1.744,2.021,4.558,4.558,0,0,0,2.459.686,4.98,4.98,0,0,0,1.43-.2,4.185,4.185,0,0,0,1.248-.606,3.819,3.819,0,0,0,1.525-2.371h1.809a6.027,6.027,0,0,1-.744,2.05,5.6,5.6,0,0,1-1.342,1.539,5.88,5.88,0,0,1-1.8.956,6.718,6.718,0,0,1-2.123.328,6.262,6.262,0,0,1-3.4-.934,6.407,6.407,0,0,1-2.342-2.656,9.1,9.1,0,0,1-.854-4.086,9.1,9.1,0,0,1,.854-4.086,6.407,6.407,0,0,1,2.342-2.656,6.262,6.262,0,0,1,3.4-.934,6.718,6.718,0,0,1,2.123.328,5.794,5.794,0,0,1,1.8.963A5.5,5.5,0,0,1,77.19,38.63,5.953,5.953,0,0,1,77.935,40.68Zm4.412,3.531v6.741H80.625V36.01h1.722V41.5h.146a3.165,3.165,0,0,1,1.182-1.379,3.827,3.827,0,0,1,2.116-.518,4.2,4.2,0,0,1,2.006.46,3.1,3.1,0,0,1,1.335,1.394,5.179,5.179,0,0,1,.482,2.378v7.121H87.891v-7a2.881,2.881,0,0,0-.693-2.065,2.473,2.473,0,0,0-1.9-.737,3.179,3.179,0,0,0-1.518.357,2.616,2.616,0,0,0-1.05,1.043A3.389,3.389,0,0,0,82.347,44.211Zm15.116,6.975a5.271,5.271,0,0,1-2.794-.715,4.8,4.8,0,0,1-1.8-2.014,6.867,6.867,0,0,1-.628-3.02,6.963,6.963,0,0,1,.628-3.035,4.952,4.952,0,0,1,1.765-2.057,4.745,4.745,0,0,1,2.656-.744,5.316,5.316,0,0,1,1.729.292,4.285,4.285,0,0,1,1.554.948,4.536,4.536,0,0,1,1.116,1.722A7.329,7.329,0,0,1,102.1,45.2v.73H93.464V44.445h6.888a3.672,3.672,0,0,0-.38-1.693,2.861,2.861,0,0,0-1.065-1.175,2.986,2.986,0,0,0-1.62-.43,3.088,3.088,0,0,0-1.78.511,3.355,3.355,0,0,0-1.146,1.313,3.853,3.853,0,0,0-.4,1.736V45.7a4.81,4.81,0,0,0,.437,2.152,3.155,3.155,0,0,0,1.234,1.335,3.613,3.613,0,0,0,1.831.452,3.724,3.724,0,0,0,1.225-.19,2.619,2.619,0,0,0,.956-.584,2.652,2.652,0,0,0,.62-.978l1.663.467a3.689,3.689,0,0,1-.883,1.488,4.309,4.309,0,0,1-1.532.992A5.687,5.687,0,0,1,97.462,51.186Zm11.812,0a4.69,4.69,0,0,1-4.465-2.794,7.556,7.556,0,0,1,.015-6,4.961,4.961,0,0,1,1.765-2.05,4.743,4.743,0,0,1,2.656-.744,5.024,5.024,0,0,1,2.13.438,4.08,4.08,0,0,1,1.554,1.226,3.821,3.821,0,0,1,.751,1.839h-1.722a2.673,2.673,0,0,0-.875-1.357,2.621,2.621,0,0,0-1.81-.6,3.022,3.022,0,0,0-1.765.525,3.424,3.424,0,0,0-1.175,1.466,5.438,5.438,0,0,0-.416,2.211,5.752,5.752,0,0,0,.409,2.262,3.456,3.456,0,0,0,1.167,1.5,3.019,3.019,0,0,0,1.78.533,3.075,3.075,0,0,0,1.219-.233,2.513,2.513,0,0,0,.926-.671,2.568,2.568,0,0,0,.54-1.051h1.722a3.981,3.981,0,0,1-.722,1.788,4.033,4.033,0,0,1-1.51,1.255A4.869,4.869,0,0,1,109.274,51.186Zm8.529-4.319-.029-2.13h.35l4.9-4.99h2.13l-5.223,5.282h-.146ZM116.2,50.952V36.01h1.722V50.952Zm7.121,0-4.378-5.545,1.226-1.2,5.34,6.741Zm8.146.233a4.739,4.739,0,0,1-4.444-2.743,6.846,6.846,0,0,1-.634-3.035,6.929,6.929,0,0,1,.634-3.057,5.05,5.05,0,0,1,7.1-2.028,4.832,4.832,0,0,1,1.78,2.028,6.85,6.85,0,0,1,.642,3.057,6.768,6.768,0,0,1-.642,3.035,4.736,4.736,0,0,1-4.436,2.743Zm0-1.547a2.955,2.955,0,0,0,1.9-.591,3.482,3.482,0,0,0,1.1-1.554,5.949,5.949,0,0,0,.357-2.087,6.01,6.01,0,0,0-.357-2.094,3.527,3.527,0,0,0-1.1-1.569,3.306,3.306,0,0,0-3.793,0,3.528,3.528,0,0,0-1.1,1.569,6.011,6.011,0,0,0-.357,2.094,5.95,5.95,0,0,0,.357,2.087,3.483,3.483,0,0,0,1.1,1.554A2.956,2.956,0,0,0,131.465,49.639Zm14.769-3.269V39.746h1.722V50.952h-1.722v-1.9h-.117a3.684,3.684,0,0,1-1.225,1.452,3.54,3.54,0,0,1-2.1.591,3.744,3.744,0,0,1-1.868-.46,3.212,3.212,0,0,1-1.284-1.4,5.318,5.318,0,0,1-.468-2.371V39.746h1.722v7a2.74,2.74,0,0,0,.686,1.955,2.328,2.328,0,0,0,1.765.73,2.935,2.935,0,0,0,1.307-.328,2.849,2.849,0,0,0,1.123-1.007A3.019,3.019,0,0,0,146.234,46.371Zm9.749-6.625v1.459h-5.808V39.746Zm-4.115-2.685h1.722V47.742a2.229,2.229,0,0,0,.212,1.094,1.1,1.1,0,0,0,.554.482,2.228,2.228,0,0,0,.722.117,3.047,3.047,0,0,0,.467-.029l.293-.058.35,1.547a3.534,3.534,0,0,1-.489.131,3.6,3.6,0,0,1-.8.073,3.465,3.465,0,0,1-1.43-.314,2.844,2.844,0,0,1-1.153-.956,2.745,2.745,0,0,1-.452-1.62Z"/>
        <path id="Path_496" data-name="Path 496" d="M41.672,39.754a.822.822,0,0,0-1.162-1.162l-4.383,4.383a.821.821,0,0,0,0,1.162L40.51,48.52a.822.822,0,1,0,1.162-1.162l-2.98-2.98H49.309a.822.822,0,0,0,0-1.644H38.692Z" fill="#fa7b17"/>
        <path id="Path_497" data-name="Path 497" d="M310.341,33.169a54.977,54.977,0,0,1,12.115,0,4.861,4.861,0,0,1,4.288,4.242,52.9,52.9,0,0,1,0,12.29,4.86,4.86,0,0,1-4.288,4.242,54.967,54.967,0,0,1-12.115,0,4.86,4.86,0,0,1-4.288-4.242,52.9,52.9,0,0,1,0-12.29A4.861,4.861,0,0,1,310.341,33.169Zm1.464,5.794a.977.977,0,0,1,1.381,0l3.213,3.214,3.213-3.214a.976.976,0,0,1,1.381,1.38l-3.214,3.214,3.214,3.214a.976.976,0,1,1-1.381,1.38L316.4,44.936l-3.213,3.214a.976.976,0,0,1-1.381-1.38l3.214-3.214L311.8,40.343A.977.977,0,0,1,311.8,38.963Z" fill="#d3241d" fill-rule="evenodd"/>
        <g id="Group_182" data-name="Group 182">
          <path id="Path_498" data-name="Path 498" d="M61.636,529.248H308.18v30.407H61.636Z" fill="#fa7b17"/>
          <path id="Path_499" data-name="Path 499" d="M145.523,549.794V539.633h4.008a4.071,4.071,0,0,1,1.97.442,2.988,2.988,0,0,1,1.24,1.215,3.885,3.885,0,0,1,0,3.572,3.008,3.008,0,0,1-1.265,1.206,4.252,4.252,0,0,1-1.995.431h-2.555v-1.721h2.207a2.168,2.168,0,0,0,1.022-.214,1.414,1.414,0,0,0,.606-.6,1.883,1.883,0,0,0,.2-.888,1.833,1.833,0,0,0-.2-.883,1.363,1.363,0,0,0-.606-.59,2.212,2.212,0,0,0-1.032-.214h-1.448v8.4Zm11.119-10.161v10.161h-2.114V539.633Zm3.866,10.3a3.183,3.183,0,0,1-1.3-.253,2.092,2.092,0,0,1-.9-.759,2.274,2.274,0,0,1-.328-1.261,2.223,2.223,0,0,1,.233-1.067,1.886,1.886,0,0,1,.635-.694,3.091,3.091,0,0,1,.913-.4,6.882,6.882,0,0,1,1.082-.188q.664-.07,1.072-.129a1.521,1.521,0,0,0,.59-.189.413.413,0,0,0,.183-.367v-.03a.911.911,0,0,0-.3-.729,1.22,1.22,0,0,0-.833-.258,1.481,1.481,0,0,0-.908.253,1.16,1.16,0,0,0-.446.625l-1.955-.159a2.656,2.656,0,0,1,.586-1.2,2.81,2.81,0,0,1,1.126-.783,4.293,4.293,0,0,1,1.607-.278,4.864,4.864,0,0,1,1.215.149,3.175,3.175,0,0,1,1.037.461,2.248,2.248,0,0,1,.719.8,2.42,2.42,0,0,1,.263,1.166v5.14h-2v-1.057h-.059a2.153,2.153,0,0,1-.491.63,2.277,2.277,0,0,1-.739.422A3.056,3.056,0,0,1,160.508,549.938Zm.606-1.459a1.776,1.776,0,0,0,.823-.183,1.455,1.455,0,0,0,.56-.506,1.3,1.3,0,0,0,.2-.719v-.809a1.158,1.158,0,0,1-.273.119c-.112.033-.239.064-.381.094s-.285.052-.427.075l-.386.054a2.619,2.619,0,0,0-.65.174,1.035,1.035,0,0,0-.432.322.789.789,0,0,0-.154.5.767.767,0,0,0,.313.66A1.363,1.363,0,0,0,161.113,548.479Zm8.769,1.464a3.9,3.9,0,0,1-2.014-.5,3.358,3.358,0,0,1-1.29-1.389,4.9,4.9,0,0,1,0-4.1,3.361,3.361,0,0,1,1.3-1.385,3.82,3.82,0,0,1,1.995-.5,3.967,3.967,0,0,1,1.746.362,2.926,2.926,0,0,1,1.186,1.017,2.987,2.987,0,0,1,.481,1.538h-1.995a1.538,1.538,0,0,0-.446-.918,1.28,1.28,0,0,0-.938-.352,1.414,1.414,0,0,0-.858.268,1.707,1.707,0,0,0-.566.769,3.286,3.286,0,0,0-.2,1.225,3.436,3.436,0,0,0,.2,1.24,1.726,1.726,0,0,0,.571.779,1.419,1.419,0,0,0,.858.268,1.4,1.4,0,0,0,.65-.149,1.259,1.259,0,0,0,.482-.432,1.657,1.657,0,0,0,.252-.69h1.995a3.124,3.124,0,0,1-.476,1.538,2.877,2.877,0,0,1-1.166,1.031A3.894,3.894,0,0,1,169.882,549.943Zm8.23,0a4.073,4.073,0,0,1-2.024-.476,3.259,3.259,0,0,1-1.3-1.36,4.952,4.952,0,0,1,0-4.152,3.373,3.373,0,0,1,1.285-1.385,3.755,3.755,0,0,1,1.955-.5,3.977,3.977,0,0,1,1.4.242,3.112,3.112,0,0,1,1.141.72,3.275,3.275,0,0,1,.764,1.21,4.81,4.81,0,0,1,.273,1.7v.581h-6.435v-1.31h4.445a1.62,1.62,0,0,0-.2-.809,1.419,1.419,0,0,0-.551-.551,1.568,1.568,0,0,0-.809-.2,1.627,1.627,0,0,0-.853.224,1.561,1.561,0,0,0-.575.59,1.668,1.668,0,0,0-.214.819v1.246a2.139,2.139,0,0,0,.209.977,1.523,1.523,0,0,0,.6.635,1.806,1.806,0,0,0,.918.223,2.012,2.012,0,0,0,.645-.1,1.346,1.346,0,0,0,.5-.3,1.3,1.3,0,0,0,.318-.486l1.954.129a2.668,2.668,0,0,1-.61,1.23,3.062,3.062,0,0,1-1.181.814A4.461,4.461,0,0,1,178.112,549.943Zm17.487-5.229a5.878,5.878,0,0,1-.63,2.828,4.369,4.369,0,0,1-1.707,1.781,5.107,5.107,0,0,1-4.852,0,4.374,4.374,0,0,1-1.7-1.781,6.7,6.7,0,0,1,0-5.651,4.34,4.34,0,0,1,1.7-1.776,5.088,5.088,0,0,1,4.852,0,4.336,4.336,0,0,1,1.707,1.776A5.878,5.878,0,0,1,195.6,544.713Zm-2.178,0a4.545,4.545,0,0,0-.322-1.815,2.46,2.46,0,0,0-.9-1.122,2.609,2.609,0,0,0-2.719,0,2.49,2.49,0,0,0-.9,1.122,5.355,5.355,0,0,0,0,3.632,2.493,2.493,0,0,0,.9,1.121,2.609,2.609,0,0,0,2.719,0,2.463,2.463,0,0,0,.9-1.121A4.549,4.549,0,0,0,193.421,544.713Zm3.729,5.08v-7.621h2.05v1.33h.079a1.972,1.972,0,0,1,.7-1.072,1.84,1.84,0,0,1,1.132-.367,3.213,3.213,0,0,1,.342.021,2.432,2.432,0,0,1,.323.054v1.875a2.884,2.884,0,0,0-.412-.08,3.724,3.724,0,0,0-.482-.035,1.692,1.692,0,0,0-.833.2,1.494,1.494,0,0,0-.575.556,1.605,1.605,0,0,0-.209.823v4.311Zm8.17.124a2.879,2.879,0,0,1-1.573-.446,3.106,3.106,0,0,1-1.111-1.325,5.107,5.107,0,0,1-.407-2.153,4.978,4.978,0,0,1,.422-2.179,3.026,3.026,0,0,1,1.121-1.3,2.877,2.877,0,0,1,1.543-.436,2.332,2.332,0,0,1,1.067.218,2.063,2.063,0,0,1,.694.536,2.731,2.731,0,0,1,.407.625h.064v-3.821h2.109v10.161h-2.084v-1.22h-.089a2.759,2.759,0,0,1-.422.63,2.1,2.1,0,0,1-.7.51A2.406,2.406,0,0,1,205.32,549.918Zm.67-1.682a1.348,1.348,0,0,0,.863-.278,1.756,1.756,0,0,0,.546-.789,3.308,3.308,0,0,0,.194-1.185,3.346,3.346,0,0,0-.189-1.181,1.691,1.691,0,0,0-.546-.774,1.39,1.39,0,0,0-.868-.273,1.373,1.373,0,0,0-.879.283,1.734,1.734,0,0,0-.541.784,3.364,3.364,0,0,0-.183,1.161,3.463,3.463,0,0,0,.183,1.175,1.81,1.81,0,0,0,.541.794A1.369,1.369,0,0,0,205.99,548.236Zm8.876,1.707a4.073,4.073,0,0,1-2.024-.476,3.262,3.262,0,0,1-1.3-1.36,4.944,4.944,0,0,1,0-4.152,3.373,3.373,0,0,1,1.284-1.385,3.753,3.753,0,0,1,1.955-.5,3.98,3.98,0,0,1,1.4.242,3.126,3.126,0,0,1,1.142.72,3.263,3.263,0,0,1,.763,1.21,4.791,4.791,0,0,1,.273,1.7v.581h-6.435v-1.31h4.446a1.62,1.62,0,0,0-.2-.809,1.419,1.419,0,0,0-.551-.551,1.572,1.572,0,0,0-.809-.2,1.625,1.625,0,0,0-.853.224,1.563,1.563,0,0,0-.576.59,1.668,1.668,0,0,0-.213.819v1.246a2.14,2.14,0,0,0,.208.977,1.525,1.525,0,0,0,.6.635,1.806,1.806,0,0,0,.918.223,2.007,2.007,0,0,0,.644-.1,1.342,1.342,0,0,0,.5-.3,1.29,1.29,0,0,0,.317-.486l1.955.129a2.669,2.669,0,0,1-.611,1.23,3.065,3.065,0,0,1-1.18.814A4.463,4.463,0,0,1,214.867,549.943Zm4.877-.149v-7.621h2.049v1.33h.079a1.968,1.968,0,0,1,.7-1.072,1.836,1.836,0,0,1,1.131-.367,3.241,3.241,0,0,1,.343.021,2.419,2.419,0,0,1,.322.054v1.875a2.885,2.885,0,0,0-.412-.08,3.714,3.714,0,0,0-.482-.035,1.692,1.692,0,0,0-.833.2,1.494,1.494,0,0,0-.575.556,1.605,1.605,0,0,0-.209.823v4.311Z" fill="#fff"/>
        </g>
      </g>
    </g>
  </g>
</svg>
