<svg xmlns="http://www.w3.org/2000/svg" xmlns:xlink="http://www.w3.org/1999/xlink" width="411" height="870" viewBox="0 0 411 870">
  <defs>
    <filter id="Rectangle_95" x="0" y="0" width="411" height="870" filterUnits="userSpaceOnUse">
      <feOffset dy="3" input="SourceAlpha"/>
      <feGaussianBlur stdDeviation="3" result="blur"/>
      <feFlood flood-opacity="0.161"/>
      <feComposite operator="in" in2="blur"/>
      <feComposite in="SourceGraphic"/>
    </filter>
    <clipPath id="clip-path">
      <path id="Rectangle_104" data-name="Rectangle 104" d="M0,0H356a0,0,0,0,1,0,0V717a44,44,0,0,1-44,44H44A44,44,0,0,1,0,717V0A0,0,0,0,1,0,0Z" transform="translate(25 67)" fill="#e3dddd"/>
    </clipPath>
  </defs>
  <g id="iphone_14_model" data-name="iphone 14 model" transform="translate(3 6)">
    <g id="Group_51" data-name="Group 51" transform="translate(-1007 -44)">
      <path id="Rectangle_102" data-name="Rectangle 102" d="M0,0H354a0,0,0,0,1,0,0V715a44,44,0,0,1-44,44H44A44,44,0,0,1,0,715V0A0,0,0,0,1,0,0Z" transform="translate(1033 113)" fill="#fff"/>
      <path id="Rectangle_98" data-name="Rectangle 98" d="M4,0H8A1,1,0,0,1,9,1V32a0,0,0,0,1,0,0H4a4,4,0,0,1-4-4V4A4,4,0,0,1,4,0Z" transform="translate(1007 146)"/>
      <path id="Rectangle_99" data-name="Rectangle 99" d="M4,0H8A1,1,0,0,1,9,1V41a0,0,0,0,1,0,0H4a4,4,0,0,1-4-4V4A4,4,0,0,1,4,0Z" transform="translate(1007 213)"/>
      <path id="Rectangle_100" data-name="Rectangle 100" d="M4,0H8A1,1,0,0,1,9,1V43a0,0,0,0,1,0,0H4a4,4,0,0,1-4-4V4A4,4,0,0,1,4,0Z" transform="translate(1007 267)"/>
      <g transform="matrix(1, 0, 0, 1, 1004, 38)" filter="url(#Rectangle_95)">
        <rect id="Rectangle_95-2" data-name="Rectangle 95" width="393" height="852" rx="49" transform="translate(9 6)"/>
      </g>
      <rect id="Rectangle_96" data-name="Rectangle 96" width="356" height="806" rx="44" transform="translate(1032 66)" fill="#fff"/>
      <rect id="Rectangle_97" data-name="Rectangle 97" width="91" height="26" rx="13" transform="translate(1165 79)"/>
      <circle id="Ellipse_28" data-name="Ellipse 28" cx="7.5" cy="7.5" r="7.5" transform="translate(1235 85)" fill="#343434"/>
      <g id="Group_49" data-name="Group 49" transform="translate(249 -70)">
        <g id="Group_48" data-name="Group 48">
          <circle id="Ellipse_31" data-name="Ellipse 31" cx="7.5" cy="7.5" r="7.5" transform="translate(986 155)" fill="#686868" opacity="0.58"/>
          <circle id="Ellipse_29" data-name="Ellipse 29" cx="5.5" cy="5.5" r="5.5" transform="translate(988 157)"/>
        </g>
        <circle id="Ellipse_30" data-name="Ellipse 30" cx="3.5" cy="3.5" r="3.5" transform="translate(990 159)" fill="#686868" opacity="0.58"/>
      </g>
      <g id="e8e6ee9e72e7153be5440514d554cb61" transform="translate(1334.5 78)">
        <path id="Path_100" data-name="Path 100" d="M4.5,9h17a2,2,0,0,1,2,2v7a2,2,0,0,1-2,2H4.5a2,2,0,0,1-2-2V11a2,2,0,0,1,2-2Z"/>
        <path id="Path_101" data-name="Path 101" d="M22.5,12.511a2.478,2.478,0,0,0,0,3.978V12.511Z"/>
        <path id="Path_102" data-name="Path 102" d="M24.5,12.05v4.9a2.5,2.5,0,0,0,0-4.9Z"/>
        <g id="Group_47" data-name="Group 47">
          <path id="Path_103" data-name="Path 103" d="M4.5,9h17a2,2,0,0,1,2,2v7a2,2,0,0,1-2,2H4.5a2,2,0,0,1-2-2V11a2,2,0,0,1,2-2Z"/>
          <path id="Path_104" data-name="Path 104" d="M22.5,12.511a2.478,2.478,0,0,0,0,3.978V12.511Z"/>
          <path id="Path_105" data-name="Path 105" d="M24.5,12.05v4.9a2.5,2.5,0,0,0,0-4.9Z"/>
        </g>
      </g>
      <g id="d743fefe810fdcecaebf8af611593f31" transform="translate(1302.925 78.713)">
        <path id="Path_107" data-name="Path 107" d="M9.52,14.352a5.617,5.617,0,0,1,7.943,0M7.075,11.907a9.075,9.075,0,0,1,12.832,0" fill="none"/>
      </g>
      <g id="Group_50" data-name="Group 50" transform="translate(131 -70)">
        <g id="Group_48-2" data-name="Group 48">
          <path id="Path_112" data-name="Path 112" d="M7.5,0C9.924,8.771,15,3.358,15,7.5a7.5,7.5,0,0,1-15,0C0,3.358,5.076-8.771,7.5,0Z" transform="translate(986 155)" opacity="0.58"/>
          <circle id="Ellipse_29-2" data-name="Ellipse 29" cx="5.5" cy="5.5" r="5.5" transform="translate(988 157)"/>
        </g>
        <circle id="Ellipse_30-2" data-name="Ellipse 30" cx="3.5" cy="3.5" r="3.5" transform="translate(990 159)" fill="#fff" opacity="0.58"/>
      </g>
      <g id="f1cde6ddbaba974b823c5c7b191d9d2c" transform="translate(1279.5 80.5)">
        <path id="Path_108" data-name="Path 108" d="M5.849,15.087V19.2a.587.587,0,0,1-.587.587H4.087A.587.587,0,0,1,3.5,19.2V15.087a.587.587,0,0,1,.587-.587H5.262A.587.587,0,0,1,5.849,15.087Z" transform="translate(0 -3.715)"/>
        <path id="Path_109" data-name="Path 109" d="M11.849,13.087v5.285a.587.587,0,0,1-.587.587H10.087a.587.587,0,0,1-.587-.587V13.087a.587.587,0,0,1,.587-.587h1.174A.587.587,0,0,1,11.849,13.087Z" transform="translate(-2.477 -2.889)"/>
        <path id="Path_110" data-name="Path 110" d="M17.849,10.087v7.047a.587.587,0,0,1-.587.587H16.087a.587.587,0,0,1-.587-.587V10.087a.587.587,0,0,1,.587-.587h1.174A.587.587,0,0,1,17.849,10.087Z" transform="translate(-4.953 -1.651)"/>
        <path id="Path_111" data-name="Path 111" d="M23.849,6.087v9.4a.587.587,0,0,1-.587.587H22.087a.587.587,0,0,1-.587-.587v-9.4a.587.587,0,0,1,.587-.587h1.174A.587.587,0,0,1,23.849,6.087Z" transform="translate(-7.43)"/>
      </g>
      <text id="_5:41" data-name="5:41" transform="translate(1086 98)" font-size="17" font-family="OpenSans-Bold, Open Sans" font-weight="700"><tspan x="-16.979" y="0">5:41</tspan></text>
      <path id="Rectangle_103" data-name="Rectangle 103" d="M1,0H5A4,4,0,0,1,9,4V87a4,4,0,0,1-4,4H0a0,0,0,0,1,0,0V1A1,1,0,0,1,1,0Z" transform="translate(1404 191)"/>
      <g id="d743fefe810fdcecaebf8af611593f31-2" data-name="d743fefe810fdcecaebf8af611593f31" transform="translate(1302.925 78)">
        <path id="Path_113" data-name="Path 113" d="M14.222,19.357l-2.2-2.2a3.108,3.108,0,0,1,4.394,0Z" transform="translate(-0.556 -0.787)"/>
        <path id="Path_114" data-name="Path 114" d="M9.586,14.491a5.77,5.77,0,0,1,8.159,0M7.075,11.979a9.322,9.322,0,0,1,13.181,0" transform="translate(0 0)" fill="none" stroke="#000" stroke-miterlimit="10" stroke-width="2"/>
      </g>
    </g>
    <g id="Mask_Group_10" data-name="Mask Group 10" clip-path="url(#clip-path)">
      <g id="Check_Out_Phase_2_-2" data-name="Check Out ( Phase 2 )-2" transform="translate(27.132 67)">
        <rect id="Rectangle_671" data-name="Rectangle 671" width="351.737" height="761" fill="#fff"/>
        <g id="Group_184" data-name="Group 184">
          <path id="Path_521" data-name="Path 521" d="M59.992,459.394H306.537V489.8H59.992Z" fill="#fa7b17"/>
          <path id="Path_522" data-name="Path 522" d="M143.879,479.94V469.779h4.068a4.615,4.615,0,0,1,1.87.333,2.484,2.484,0,0,1,1.126.923,2.436,2.436,0,0,1,.377,1.349,2.215,2.215,0,0,1-.238,1.047,2.052,2.052,0,0,1-.655.734,2.694,2.694,0,0,1-.943.4v.1a2.277,2.277,0,0,1,1.086.327,2.327,2.327,0,0,1,.829.848,2.509,2.509,0,0,1,.317,1.29,2.643,2.643,0,0,1-.4,1.444,2.708,2.708,0,0,1-1.176,1,4.483,4.483,0,0,1-1.92.367Zm2.148-1.756h1.751a2.033,2.033,0,0,0,1.309-.343,1.145,1.145,0,0,0,.412-.922,1.365,1.365,0,0,0-.2-.745,1.384,1.384,0,0,0-.58-.506,1.988,1.988,0,0,0-.888-.183h-1.8Zm0-4.153h1.592a1.888,1.888,0,0,0,.784-.154,1.306,1.306,0,0,0,.546-.446,1.167,1.167,0,0,0,.2-.69,1.114,1.114,0,0,0-.392-.888,1.624,1.624,0,0,0-1.1-.338h-1.632Zm9.222,6.053a3.18,3.18,0,0,1-1.3-.253,2.094,2.094,0,0,1-.9-.759,2.28,2.28,0,0,1-.327-1.261,2.214,2.214,0,0,1,.233-1.067,1.884,1.884,0,0,1,.634-.694,3.1,3.1,0,0,1,.913-.4,6.905,6.905,0,0,1,1.081-.188q.664-.07,1.072-.129a1.527,1.527,0,0,0,.591-.189.414.414,0,0,0,.183-.367v-.03a.914.914,0,0,0-.3-.729,1.223,1.223,0,0,0-.833-.258,1.479,1.479,0,0,0-.908.253,1.165,1.165,0,0,0-.447.625l-1.954-.159a2.663,2.663,0,0,1,.585-1.2,2.807,2.807,0,0,1,1.127-.783,4.294,4.294,0,0,1,1.607-.278,4.866,4.866,0,0,1,1.215.149,3.171,3.171,0,0,1,1.036.461,2.25,2.25,0,0,1,.72.8,2.42,2.42,0,0,1,.263,1.166v5.14h-2v-1.057h-.06a2.163,2.163,0,0,1-.491.63,2.289,2.289,0,0,1-.74.422A3.047,3.047,0,0,1,155.249,480.083Zm.6-1.459a1.772,1.772,0,0,0,.823-.183,1.458,1.458,0,0,0,.561-.506,1.3,1.3,0,0,0,.2-.719v-.809a1.158,1.158,0,0,1-.273.119q-.169.049-.382.094c-.142.026-.284.052-.427.075l-.387.054a2.631,2.631,0,0,0-.65.174,1.038,1.038,0,0,0-.431.322.784.784,0,0,0-.154.5.769.769,0,0,0,.312.66A1.366,1.366,0,0,0,155.854,478.625Zm8.769,1.464a3.9,3.9,0,0,1-2.013-.5,3.348,3.348,0,0,1-1.29-1.389,4.9,4.9,0,0,1,0-4.1,3.35,3.35,0,0,1,1.3-1.385,3.819,3.819,0,0,1,1.994-.5,3.964,3.964,0,0,1,1.746.362,2.921,2.921,0,0,1,1.186,1.017,2.988,2.988,0,0,1,.482,1.538h-1.995a1.542,1.542,0,0,0-.446-.918,1.28,1.28,0,0,0-.938-.352,1.414,1.414,0,0,0-.859.268,1.7,1.7,0,0,0-.565.769,3.285,3.285,0,0,0-.2,1.225,3.436,3.436,0,0,0,.2,1.24,1.725,1.725,0,0,0,.57.779,1.419,1.419,0,0,0,.859.268,1.4,1.4,0,0,0,.65-.149,1.257,1.257,0,0,0,.481-.432,1.646,1.646,0,0,0,.253-.689h1.995a3.125,3.125,0,0,1-.477,1.538,2.88,2.88,0,0,1-1.165,1.031A3.9,3.9,0,0,1,164.623,480.088Zm6.672-2.341,0-2.535h.307l2.441-2.893h2.426l-3.279,3.831h-.5Zm-1.916,2.193V469.779h2.114V479.94Zm4.763,0L171.9,476.62l1.409-1.493,3.309,4.813Zm6.255-8.389v-1.772h8.345v1.772h-3.111v8.389h-2.124V471.55Zm12.017,8.538a3.9,3.9,0,0,1-2-.491,3.36,3.36,0,0,1-1.3-1.379,4.887,4.887,0,0,1,0-4.123,3.331,3.331,0,0,1,1.3-1.379,4.271,4.271,0,0,1,3.994,0,3.314,3.314,0,0,1,1.3,1.379,4.879,4.879,0,0,1,0,4.123,3.344,3.344,0,0,1-1.3,1.379A3.872,3.872,0,0,1,192.415,480.088Zm.01-1.637a1.313,1.313,0,0,0,.878-.3,1.843,1.843,0,0,0,.531-.823,3.911,3.911,0,0,0,0-2.372,1.834,1.834,0,0,0-.531-.823,1.3,1.3,0,0,0-.878-.3,1.344,1.344,0,0,0-.893.3,1.863,1.863,0,0,0-.541.823,4.032,4.032,0,0,0,0,2.372,1.872,1.872,0,0,0,.541.823A1.363,1.363,0,0,0,192.425,478.451Zm8.388,1.488V469.779h2.148v4.193h4.361v-4.193h2.143V479.94h-2.143v-4.2h-4.361v4.2Zm13.827.149a3.9,3.9,0,0,1-2-.491,3.36,3.36,0,0,1-1.3-1.379,4.887,4.887,0,0,1,0-4.123,3.331,3.331,0,0,1,1.3-1.379,4.271,4.271,0,0,1,3.994,0,3.314,3.314,0,0,1,1.3,1.379,4.879,4.879,0,0,1,0,4.123,3.344,3.344,0,0,1-1.3,1.379A3.872,3.872,0,0,1,214.64,480.088Zm.01-1.637a1.313,1.313,0,0,0,.878-.3,1.85,1.85,0,0,0,.531-.823,3.912,3.912,0,0,0,0-2.372,1.841,1.841,0,0,0-.531-.823,1.3,1.3,0,0,0-.878-.3,1.344,1.344,0,0,0-.893.3,1.856,1.856,0,0,0-.541.823,4.032,4.032,0,0,0,0,2.372,1.865,1.865,0,0,0,.541.823A1.363,1.363,0,0,0,214.65,478.451Zm5.115,1.488v-7.621h2.014v1.344h.09a2.114,2.114,0,0,1,.794-1.057,2.476,2.476,0,0,1,2.663,0,1.847,1.847,0,0,1,.735,1.052h.079a2.033,2.033,0,0,1,.844-1.047,2.627,2.627,0,0,1,1.454-.4,2.311,2.311,0,0,1,1.731.68,2.6,2.6,0,0,1,.67,1.915v5.125H228.73v-4.708a1.246,1.246,0,0,0-.338-.952,1.181,1.181,0,0,0-.843-.318,1.133,1.133,0,0,0-.9.367,1.389,1.389,0,0,0-.322.957v4.654H224.28v-4.753a1.228,1.228,0,0,0-.323-.893,1.1,1.1,0,0,0-.838-.333,1.165,1.165,0,0,0-.635.179,1.232,1.232,0,0,0-.441.491,1.563,1.563,0,0,0-.164.735v4.574Zm16.216.149a4.074,4.074,0,0,1-2.024-.476,3.259,3.259,0,0,1-1.3-1.36,4.952,4.952,0,0,1,0-4.152,3.369,3.369,0,0,1,1.285-1.385,3.75,3.75,0,0,1,1.954-.5,3.985,3.985,0,0,1,1.4.242,3.117,3.117,0,0,1,1.141.72,3.276,3.276,0,0,1,.764,1.211,4.809,4.809,0,0,1,.273,1.7v.581h-6.435v-1.31h4.445a1.62,1.62,0,0,0-.2-.809,1.419,1.419,0,0,0-.551-.551,1.568,1.568,0,0,0-.809-.2,1.627,1.627,0,0,0-.853.224,1.561,1.561,0,0,0-.575.59,1.668,1.668,0,0,0-.214.819v1.246a2.139,2.139,0,0,0,.209.977,1.523,1.523,0,0,0,.6.635,1.806,1.806,0,0,0,.918.223,2.012,2.012,0,0,0,.645-.1,1.345,1.345,0,0,0,.5-.3,1.291,1.291,0,0,0,.318-.486l1.954.129a2.668,2.668,0,0,1-.61,1.23,3.062,3.062,0,0,1-1.181.814A4.461,4.461,0,0,1,235.981,480.088Z" fill="#fff"/>
        </g>
        <path id="Path_523" data-name="Path 523" d="M132.312,339.82h88.756a4.52,4.52,0,0,1,4.52,4.52v20.545a4.52,4.52,0,0,1-4.52,4.52H132.312a4.52,4.52,0,0,1-4.52-4.52V344.34A4.52,4.52,0,0,1,132.312,339.82Z" fill="#fff" stroke="#fa7b17" stroke-width="0.822"/>
        <path id="Path_524" data-name="Path 524" d="M143.611,351.114v-1.32h7.863v1.32H148.3v8.841h-1.529v-8.841Zm8.691,8.841v-7.621h1.433v1.211h.08a1.842,1.842,0,0,1,.735-.967,2.1,2.1,0,0,1,1.2-.357q.139,0,.328.01c.129.007.23.016.3.025v1.418a2.665,2.665,0,0,0-.317-.054,3.046,3.046,0,0,0-.457-.035,1.938,1.938,0,0,0-.938.223,1.663,1.663,0,0,0-.883,1.493v4.654Zm7.511.168a3.1,3.1,0,0,1-1.31-.268,2.2,2.2,0,0,1-.928-.789,2.257,2.257,0,0,1-.337-1.265,2.053,2.053,0,0,1,.247-1.062,1.835,1.835,0,0,1,.67-.66,3.521,3.521,0,0,1,.943-.367,9.468,9.468,0,0,1,1.062-.188l1.112-.129a1.636,1.636,0,0,0,.62-.173.421.421,0,0,0,.194-.387V354.8a1.34,1.34,0,0,0-.367-1.008,1.481,1.481,0,0,0-1.081-.358,1.888,1.888,0,0,0-1.181.333,1.774,1.774,0,0,0-.59.729l-1.395-.317a2.676,2.676,0,0,1,.725-1.121,2.938,2.938,0,0,1,1.106-.625,4.318,4.318,0,0,1,1.315-.2,4.668,4.668,0,0,1,.967.108,2.848,2.848,0,0,1,.962.387,2.154,2.154,0,0,1,.74.809,2.794,2.794,0,0,1,.288,1.354v5.061h-1.449v-1.042h-.06a2.076,2.076,0,0,1-.431.565,2.283,2.283,0,0,1-.739.462A2.866,2.866,0,0,1,159.813,360.123Zm.322-1.191a2.133,2.133,0,0,0,1.052-.242,1.707,1.707,0,0,0,.67-.635,1.648,1.648,0,0,0,.233-.848v-.983a.77.77,0,0,1-.308.149,4.6,4.6,0,0,1-.51.114c-.192.03-.379.058-.561.085l-.456.059a3.7,3.7,0,0,0-.789.184,1.347,1.347,0,0,0-.565.371.932.932,0,0,0-.209.635.949.949,0,0,0,.407.833A1.8,1.8,0,0,0,160.135,358.932Zm8.624,1.176a3.506,3.506,0,0,1-1.9-.5,3.315,3.315,0,0,1-1.22-1.394,4.63,4.63,0,0,1-.427-2.034,4.576,4.576,0,0,1,.437-2.049,3.344,3.344,0,0,1,1.23-1.395,3.432,3.432,0,0,1,1.87-.5,3.562,3.562,0,0,1,1.547.322,2.774,2.774,0,0,1,1.1.893,2.693,2.693,0,0,1,.5,1.344h-1.444a1.727,1.727,0,0,0-.546-.923,1.608,1.608,0,0,0-1.131-.387,1.845,1.845,0,0,0-1.086.327,2.108,2.108,0,0,0-.72.923,3.532,3.532,0,0,0-.258,1.409,3.719,3.719,0,0,0,.253,1.438,2.135,2.135,0,0,0,.715.938,1.837,1.837,0,0,0,1.1.333,1.856,1.856,0,0,0,.764-.154,1.561,1.561,0,0,0,.58-.452,1.692,1.692,0,0,0,.332-.7h1.444a2.8,2.8,0,0,1-.481,1.32,2.77,2.77,0,0,1-1.077.913A3.5,3.5,0,0,1,168.76,360.108Zm6.081-2.738-.011-1.811h.258l3.037-3.225H179.9l-3.463,3.672h-.233Zm-1.365,2.585V349.794h1.483v10.161Zm4.813,0-2.728-3.622,1.022-1.037,3.527,4.659Z"/>
        <path id="Path_525" data-name="Path 525" d="M111.342,72.992A9.677,9.677,0,0,1,110.3,77.65a7.2,7.2,0,0,1-2.811,2.934,8.417,8.417,0,0,1-7.992-.008,7.214,7.214,0,0,1-2.8-2.934,11.03,11.03,0,0,1,0-9.307,7.158,7.158,0,0,1,2.8-2.925,8.387,8.387,0,0,1,7.992,0,7.14,7.14,0,0,1,2.811,2.925A9.677,9.677,0,0,1,111.342,72.992Zm-3.587,0A7.489,7.489,0,0,0,107.224,70a4.055,4.055,0,0,0-1.479-1.847,4.3,4.3,0,0,0-4.478,0A4.1,4.1,0,0,0,99.779,70a8.818,8.818,0,0,0,0,5.981,4.1,4.1,0,0,0,1.487,1.847,4.3,4.3,0,0,0,4.478,0,4.055,4.055,0,0,0,1.479-1.847A7.489,7.489,0,0,0,107.755,72.992ZM113.9,81.36V68.808h3.374V71h.131a3.244,3.244,0,0,1,1.152-1.765,3.03,3.03,0,0,1,1.863-.6,5.265,5.265,0,0,1,.564.033,3.968,3.968,0,0,1,.532.09V71.84a4.542,4.542,0,0,0-.679-.131,6.081,6.081,0,0,0-.792-.057,2.782,2.782,0,0,0-1.372.335,2.467,2.467,0,0,0-.948.915,2.646,2.646,0,0,0-.344,1.356v7.1Zm13.456.2a4.738,4.738,0,0,1-2.59-.735,5.107,5.107,0,0,1-1.831-2.182,8.415,8.415,0,0,1-.67-3.546,8.2,8.2,0,0,1,.694-3.587,4.989,4.989,0,0,1,1.847-2.149,4.734,4.734,0,0,1,2.542-.719A3.832,3.832,0,0,1,129.1,69a3.385,3.385,0,0,1,1.145.883,4.5,4.5,0,0,1,.67,1.03h.106V64.625H134.5V81.36h-3.432v-2.01h-.147a4.507,4.507,0,0,1-.694,1.038,3.459,3.459,0,0,1-1.152.842A3.965,3.965,0,0,1,127.354,81.564Zm1.1-2.77a2.225,2.225,0,0,0,1.422-.458,2.9,2.9,0,0,0,.9-1.3,6.191,6.191,0,0,0,.008-3.9,2.794,2.794,0,0,0-.9-1.275,2.285,2.285,0,0,0-1.43-.449,2.257,2.257,0,0,0-1.446.466,2.849,2.849,0,0,0-.891,1.291,5.551,5.551,0,0,0-.3,1.912,5.72,5.72,0,0,0,.3,1.937,2.988,2.988,0,0,0,.891,1.307A2.257,2.257,0,0,0,128.457,78.794ZM143.078,81.6a6.706,6.706,0,0,1-3.334-.784,5.373,5.373,0,0,1-2.141-2.239,8.152,8.152,0,0,1,0-6.839,5.557,5.557,0,0,1,2.116-2.28,6.178,6.178,0,0,1,3.22-.817,6.553,6.553,0,0,1,2.313.4,5.133,5.133,0,0,1,1.879,1.185,5.39,5.39,0,0,1,1.258,1.994,7.924,7.924,0,0,1,.45,2.795v.956h-10.6V73.817h7.322a2.668,2.668,0,0,0-.327-1.332,2.34,2.34,0,0,0-.907-.907A2.586,2.586,0,0,0,143,71.243a2.677,2.677,0,0,0-1.405.368,2.578,2.578,0,0,0-.948.972,2.745,2.745,0,0,0-.352,1.348v2.051a3.52,3.52,0,0,0,.344,1.61,2.512,2.512,0,0,0,.989,1.046,2.973,2.973,0,0,0,1.511.368,3.292,3.292,0,0,0,1.063-.163,2.2,2.2,0,0,0,.825-.49,2.129,2.129,0,0,0,.523-.8l3.219.212a4.393,4.393,0,0,1-1.005,2.027,5.045,5.045,0,0,1-1.944,1.34A7.333,7.333,0,0,1,143.078,81.6Zm8.032-.245V68.808h3.374V71h.132a3.235,3.235,0,0,1,1.152-1.765,3.027,3.027,0,0,1,1.863-.6,5.277,5.277,0,0,1,.564.033,3.977,3.977,0,0,1,.531.09V71.84a4.549,4.549,0,0,0-.678-.131,6.1,6.1,0,0,0-.793-.057,2.782,2.782,0,0,0-1.372.335,2.467,2.467,0,0,0-.948.915,2.645,2.645,0,0,0-.343,1.356v7.1Z"/>
        <path id="Path_526" data-name="Path 526" d="M149.776,103.549V86.813h6.6a6.717,6.717,0,0,1,3.245.727,4.932,4.932,0,0,1,2.043,2,5.946,5.946,0,0,1,.711,2.942,5.886,5.886,0,0,1-.719,2.941,4.962,4.962,0,0,1-2.084,1.986,7.007,7.007,0,0,1-3.285.711H152.08V95.287h3.637a3.57,3.57,0,0,0,1.683-.351,2.33,2.33,0,0,0,1-.989,3.1,3.1,0,0,0,.335-1.463,3.017,3.017,0,0,0-.335-1.455,2.234,2.234,0,0,0-1-.972,3.641,3.641,0,0,0-1.7-.352h-2.386v13.843Zm18.315-16.735v16.735h-3.481V86.813Zm6.367,16.972a5.229,5.229,0,0,1-2.141-.417,3.442,3.442,0,0,1-1.487-1.25,3.742,3.742,0,0,1-.539-2.076,3.652,3.652,0,0,1,.384-1.756,3.109,3.109,0,0,1,1.046-1.144,5.065,5.065,0,0,1,1.5-.654,11.476,11.476,0,0,1,1.782-.311q1.095-.115,1.765-.212a2.5,2.5,0,0,0,.972-.311.683.683,0,0,0,.3-.6V95a1.5,1.5,0,0,0-.491-1.2,2.009,2.009,0,0,0-1.372-.425,2.436,2.436,0,0,0-1.5.417,1.916,1.916,0,0,0-.736,1.03l-3.219-.262a4.377,4.377,0,0,1,.964-1.977,4.629,4.629,0,0,1,1.855-1.291,7.1,7.1,0,0,1,2.648-.458,8.029,8.029,0,0,1,2,.246,5.249,5.249,0,0,1,1.708.759,3.7,3.7,0,0,1,1.185,1.324,3.989,3.989,0,0,1,.433,1.921v8.466h-3.3v-1.741h-.1a3.545,3.545,0,0,1-.809,1.038,3.736,3.736,0,0,1-1.218.694A5.027,5.027,0,0,1,174.458,103.785Zm1-2.4a2.927,2.927,0,0,0,1.356-.3,2.4,2.4,0,0,0,.924-.833,2.148,2.148,0,0,0,.335-1.185V97.73a1.847,1.847,0,0,1-.45.2q-.279.081-.63.155t-.7.122l-.638.09a4.238,4.238,0,0,0-1.07.286,1.708,1.708,0,0,0-.711.531,1.29,1.29,0,0,0-.253.817,1.262,1.262,0,0,0,.514,1.087A2.248,2.248,0,0,0,175.455,101.383Zm14.443,2.41a6.43,6.43,0,0,1-3.318-.817,5.529,5.529,0,0,1-2.124-2.288,8.069,8.069,0,0,1,.008-6.75,5.524,5.524,0,0,1,2.133-2.28,6.284,6.284,0,0,1,3.285-.826,6.532,6.532,0,0,1,2.876.6,4.809,4.809,0,0,1,1.953,1.676,4.919,4.919,0,0,1,.792,2.533h-3.285a2.533,2.533,0,0,0-.736-1.511,2.1,2.1,0,0,0-1.544-.58,2.338,2.338,0,0,0-1.414.44,2.815,2.815,0,0,0-.932,1.267,5.426,5.426,0,0,0-.334,2.018,5.655,5.655,0,0,0,.326,2.042,2.835,2.835,0,0,0,.94,1.284,2.338,2.338,0,0,0,1.414.44,2.3,2.3,0,0,0,1.071-.245,2.067,2.067,0,0,0,.792-.711,2.707,2.707,0,0,0,.417-1.136H195.5a5.139,5.139,0,0,1-.784,2.533,4.743,4.743,0,0,1-1.921,1.7A6.418,6.418,0,0,1,189.9,103.793Zm13.555,0a6.709,6.709,0,0,1-3.334-.784,5.371,5.371,0,0,1-2.141-2.239,8.151,8.151,0,0,1,0-6.839,5.556,5.556,0,0,1,2.116-2.28,6.175,6.175,0,0,1,3.22-.818,6.549,6.549,0,0,1,2.313.4,5.119,5.119,0,0,1,1.879,1.184,5.38,5.38,0,0,1,1.259,1.995,7.919,7.919,0,0,1,.45,2.794v.956h-10.6V96.006h7.322a2.666,2.666,0,0,0-.326-1.331,2.342,2.342,0,0,0-.907-.907,2.585,2.585,0,0,0-1.332-.335,2.672,2.672,0,0,0-1.405.368,2.568,2.568,0,0,0-.948.972,2.745,2.745,0,0,0-.352,1.349v2.05a3.519,3.519,0,0,0,.344,1.61,2.512,2.512,0,0,0,.989,1.046,2.975,2.975,0,0,0,1.511.367,3.306,3.306,0,0,0,1.063-.163,2.209,2.209,0,0,0,.825-.491,2.115,2.115,0,0,0,.523-.8l3.22.213a4.4,4.4,0,0,1-1.005,2.027,5.06,5.06,0,0,1-1.944,1.34A7.345,7.345,0,0,1,203.452,103.793Zm12.658-.04a4.742,4.742,0,0,1-2.59-.736,5.109,5.109,0,0,1-1.831-2.182,8.415,8.415,0,0,1-.67-3.546,8.2,8.2,0,0,1,.694-3.588,4.993,4.993,0,0,1,1.847-2.149,4.736,4.736,0,0,1,2.542-.719,3.829,3.829,0,0,1,1.756.36,3.384,3.384,0,0,1,1.145.883,4.5,4.5,0,0,1,.67,1.03h.106V86.813h3.473v16.735H219.82v-2.01h-.147a4.516,4.516,0,0,1-.694,1.038,3.46,3.46,0,0,1-1.152.842A3.963,3.963,0,0,1,216.11,103.753Zm1.1-2.77a2.226,2.226,0,0,0,1.422-.458,2.9,2.9,0,0,0,.9-1.3,6.191,6.191,0,0,0,.008-3.9,2.8,2.8,0,0,0-.9-1.275,2.283,2.283,0,0,0-1.43-.45,2.257,2.257,0,0,0-1.446.466,2.847,2.847,0,0,0-.891,1.291,5.55,5.55,0,0,0-.3,1.912,5.718,5.718,0,0,0,.3,1.936,2.987,2.987,0,0,0,.891,1.308A2.257,2.257,0,0,0,217.213,100.983Z"/>
        <path id="Path_527" data-name="Path 527" d="M244.161,86.058a53.036,53.036,0,0,1,11.677,0,5,5,0,0,1,3.517,2.078l-9.978,9.978L246.3,95.035a.935.935,0,0,0-1.322,1.322l3.74,3.74a.934.934,0,0,0,1.322,0L260.155,89.98c.028.136.05.275.067.416a51,51,0,0,1,0,11.847,4.969,4.969,0,0,1-4.384,4.338,52.936,52.936,0,0,1-11.677,0,4.967,4.967,0,0,1-4.384-4.338,50.912,50.912,0,0,1,0-11.847A4.968,4.968,0,0,1,244.161,86.058Z" fill="#007f00"/>
        <path id="Path_528" data-name="Path 528" d="M82.411,169.7l.178-1a3.681,3.681,0,0,1,.321-.965,5.041,5.041,0,0,1,.638-.993,4.395,4.395,0,0,1,.9-.837l.454.471a6.453,6.453,0,0,0-.876,1.082,3.188,3.188,0,0,0-.494,1.225l-.177,1.015Zm2.6,0,.178-1a3.713,3.713,0,0,1,.321-.965,5.078,5.078,0,0,1,.638-.993,4.416,4.416,0,0,1,.9-.837l.454.471a6.494,6.494,0,0,0-.876,1.082,3.173,3.173,0,0,0-.493,1.225l-.178,1.015Zm8.793,7.807-1.226-11.356h1.054l.948,9.765h.089l4.2-9.765h1.2l.954,9.765h.089l4.191-9.765h1.065l-5,11.356h-1.115l-1.031-9.632h-.072l-4.236,9.632Zm14.965.178a3.3,3.3,0,0,1-1.968-.555,2.93,2.93,0,0,1-1.087-1.547,4.907,4.907,0,0,1-.094-2.285,6.043,6.043,0,0,1,.854-2.285,4.793,4.793,0,0,1,1.575-1.569,3.834,3.834,0,0,1,2.035-.571,3.3,3.3,0,0,1,1.3.255,2.555,2.555,0,0,1,1.026.771,2.962,2.962,0,0,1,.593,1.3,5.025,5.025,0,0,1-.011,1.852l-.078.488h-6.653l.138-.871h5.651a3.038,3.038,0,0,0-.078-1.474,2.039,2.039,0,0,0-.737-1.037,2.07,2.07,0,0,0-1.281-.388,2.734,2.734,0,0,0-1.48.438,4.009,4.009,0,0,0-1.176,1.142,3.786,3.786,0,0,0-.616,1.492l-.111.654a4.073,4.073,0,0,0,.044,1.813,1.91,1.91,0,0,0,.8,1.1,2.73,2.73,0,0,0,1.492.371,3.065,3.065,0,0,0,1.1-.188,2.869,2.869,0,0,0,.86-.5,2.815,2.815,0,0,0,.588-.7l.882.3a3.5,3.5,0,0,1-.8.993,4.018,4.018,0,0,1-1.215.731A4.259,4.259,0,0,1,108.77,177.689Zm11.474-3.393.2-1.3h.221l4.652-4h1.265l-4.6,3.948-.089.017Zm-1.431,3.216,1.885-11.356h.987L119.8,177.512Zm5.323,0-2.745-4.375.8-.681,3.188,5.057Zm4.749-5.323L128,177.512h-.987l1.42-8.517h.959l-.222,1.336h.089a2.957,2.957,0,0,1,1.1-1.048,3.3,3.3,0,0,1,1.646-.4,2.714,2.714,0,0,1,1.442.361,1.943,1.943,0,0,1,.842,1.048,3.353,3.353,0,0,1,.089,1.7l-.926,5.517h-.986l.909-5.456a2.046,2.046,0,0,0-.3-1.653,1.721,1.721,0,0,0-1.459-.616,2.751,2.751,0,0,0-1.248.288,2.669,2.669,0,0,0-.965.832A3,3,0,0,0,128.885,172.189Zm10.523,5.5a3.085,3.085,0,0,1-1.886-.565,3.047,3.047,0,0,1-1.081-1.58,5.072,5.072,0,0,1-.105-2.329,5.906,5.906,0,0,1,.837-2.262,4.658,4.658,0,0,1,1.553-1.524,3.829,3.829,0,0,1,2-.549,2.927,2.927,0,0,1,2.967,2.152,5.04,5.04,0,0,1,.111,2.334,5.84,5.84,0,0,1-.843,2.257,4.744,4.744,0,0,1-1.552,1.52A3.82,3.82,0,0,1,139.408,177.689Zm.011-.9a2.814,2.814,0,0,0,1.619-.482,3.89,3.89,0,0,0,1.181-1.3,5.324,5.324,0,0,0,.627-1.791,4.409,4.409,0,0,0-.034-1.713,2.364,2.364,0,0,0-.7-1.253,1.987,1.987,0,0,0-1.386-.471,2.787,2.787,0,0,0-1.62.493,3.86,3.86,0,0,0-1.181,1.309,5.226,5.226,0,0,0-.62,1.785,4.417,4.417,0,0,0,.022,1.713,2.328,2.328,0,0,0,.7,1.242A2.025,2.025,0,0,0,139.419,176.785Zm7.466.726-1.153-8.517h1.036l.849,7.026h.072l3.183-7.026h1.048l.827,7.009h.077l3.183-7.009h1.054l-3.992,8.517h-1.02l-.865-6.97h-.105l-3.171,6.97Zm15.232,3.194a2.511,2.511,0,0,1-.544-.055,1.854,1.854,0,0,1-.382-.122l.416-.87a1.769,1.769,0,0,0,.854.1,1.406,1.406,0,0,0,.749-.377,3.6,3.6,0,0,0,.7-.959l.466-.865-1.686-8.562h1.026l1.331,7.231h.072l3.732-7.231h1.114l-5.24,9.854a4.374,4.374,0,0,1-.749,1.048,2.72,2.72,0,0,1-.876.61A2.465,2.465,0,0,1,162.118,180.705Zm11.4-3.016a3.084,3.084,0,0,1-1.885-.565,3.047,3.047,0,0,1-1.081-1.58,5.071,5.071,0,0,1-.106-2.329,5.907,5.907,0,0,1,.837-2.262,4.663,4.663,0,0,1,1.552-1.524,3.834,3.834,0,0,1,2-.549,2.927,2.927,0,0,1,2.967,2.152,5.04,5.04,0,0,1,.111,2.334,5.84,5.84,0,0,1-.843,2.257,4.751,4.751,0,0,1-1.552,1.52A3.821,3.821,0,0,1,173.519,177.689Zm.011-.9a2.814,2.814,0,0,0,1.619-.482,3.89,3.89,0,0,0,1.181-1.3,5.324,5.324,0,0,0,.627-1.791,4.409,4.409,0,0,0-.034-1.713,2.364,2.364,0,0,0-.7-1.253,1.989,1.989,0,0,0-1.386-.471,2.787,2.787,0,0,0-1.619.493,3.86,3.86,0,0,0-1.181,1.309,5.228,5.228,0,0,0-.621,1.785,4.417,4.417,0,0,0,.022,1.713,2.329,2.329,0,0,0,.7,1.242A2.025,2.025,0,0,0,173.53,176.785Zm11.814-2.529.882-5.262h.987l-1.419,8.517h-.987l.233-1.414h-.072a3.249,3.249,0,0,1-1.132,1.093,3.187,3.187,0,0,1-1.663.432,2.607,2.607,0,0,1-1.392-.355,1.976,1.976,0,0,1-.814-1.054,3.447,3.447,0,0,1-.078-1.7l.926-5.518h.987l-.91,5.457a1.979,1.979,0,0,0,.322,1.607,1.7,1.7,0,0,0,1.408.6,2.644,2.644,0,0,0,1.154-.278,2.862,2.862,0,0,0,1.009-.809A2.768,2.768,0,0,0,185.345,174.257Zm6.069-8.1-.155,1a3.4,3.4,0,0,1-.327.971,5.129,5.129,0,0,1-.643.993,4.626,4.626,0,0,1-.893.832l-.466-.472a6.118,6.118,0,0,0,.876-1.076,3.234,3.234,0,0,0,.494-1.23l.166-1.015Zm-.369,11.356,1.42-8.517h.959L193.2,170.3h.072a2.648,2.648,0,0,1,1.059-1.037,3.04,3.04,0,0,1,1.514-.4c.081,0,.173,0,.272.006a2.338,2.338,0,0,1,.25.011l-.172,1c-.044-.007-.122-.019-.233-.034a2.64,2.64,0,0,0-.36-.022,2.718,2.718,0,0,0-1.231.283,2.682,2.682,0,0,0-.943.771,2.55,2.55,0,0,0-.488,1.126l-.91,5.5Zm8.743.178a3.3,3.3,0,0,1-1.968-.555,2.93,2.93,0,0,1-1.087-1.547,4.9,4.9,0,0,1-.094-2.285,6.042,6.042,0,0,1,.854-2.285,4.793,4.793,0,0,1,1.575-1.569,3.832,3.832,0,0,1,2.035-.571,3.3,3.3,0,0,1,1.3.255,2.555,2.555,0,0,1,1.026.771,2.962,2.962,0,0,1,.593,1.3,5.025,5.025,0,0,1-.011,1.852l-.078.488h-6.653l.138-.871h5.651a3.038,3.038,0,0,0-.078-1.474,2.039,2.039,0,0,0-.737-1.037,2.07,2.07,0,0,0-1.281-.388,2.734,2.734,0,0,0-1.48.438,4.009,4.009,0,0,0-1.176,1.142,3.774,3.774,0,0,0-.616,1.492l-.111.654a4.049,4.049,0,0,0,.044,1.813,1.91,1.91,0,0,0,.8,1.1,2.73,2.73,0,0,0,1.492.371,3.069,3.069,0,0,0,1.1-.188,2.869,2.869,0,0,0,.86-.5,2.832,2.832,0,0,0,.588-.7l.882.3a3.5,3.5,0,0,1-.8.993,4.019,4.019,0,0,1-1.215.731A4.259,4.259,0,0,1,199.788,177.689Zm10.248-.178,1.885-11.356h1.037l-.865,5.206h6.443l.865-5.206h1.037l-1.885,11.356h-1.037l.865-5.218h-6.443l-.865,5.218Zm17.273-3.255.882-5.262h.987l-1.42,8.517h-.987L227,176.1h-.072a3.253,3.253,0,0,1-1.131,1.093,3.19,3.19,0,0,1-1.664.432,2.6,2.6,0,0,1-1.391-.355,1.977,1.977,0,0,1-.815-1.054,3.448,3.448,0,0,1-.077-1.7l.925-5.518h.987l-.909,5.457a1.979,1.979,0,0,0,.321,1.607,1.7,1.7,0,0,0,1.409.6,2.637,2.637,0,0,0,1.153-.278,2.854,2.854,0,0,0,1.009-.809A2.777,2.777,0,0,0,227.309,174.257Zm4.931-2.068-.882,5.323h-.987l1.419-8.517h.959l-.221,1.336h.089a2.955,2.955,0,0,1,1.1-1.048,3.3,3.3,0,0,1,1.647-.4,2.709,2.709,0,0,1,1.441.361,1.941,1.941,0,0,1,.843,1.048,3.353,3.353,0,0,1,.089,1.7l-.926,5.517h-.987l.91-5.456a2.049,2.049,0,0,0-.3-1.653,1.722,1.722,0,0,0-1.459-.616,2.751,2.751,0,0,0-1.248.288,2.662,2.662,0,0,0-.965.832A2.988,2.988,0,0,0,232.24,172.189Zm9.891,8.694a4.361,4.361,0,0,1-1.492-.227,2.672,2.672,0,0,1-1.009-.611,2.423,2.423,0,0,1-.56-.87l.9-.527a2.324,2.324,0,0,0,.371.632,1.816,1.816,0,0,0,.7.51,2.914,2.914,0,0,0,1.192.205,3.273,3.273,0,0,0,1.935-.571,2.536,2.536,0,0,0,1.009-1.752l.3-1.919h-.089a3.965,3.965,0,0,1-.61.777,3.121,3.121,0,0,1-2.273.892,2.908,2.908,0,0,1-1.73-.5,2.694,2.694,0,0,1-1-1.441,4.834,4.834,0,0,1-.071-2.246,6.246,6.246,0,0,1,.809-2.273,4.6,4.6,0,0,1,1.486-1.53,3.614,3.614,0,0,1,1.941-.549,2.456,2.456,0,0,1,1.252.277,1.943,1.943,0,0,1,.716.676,3.243,3.243,0,0,1,.36.787h.1l.266-1.625h.965l-1.442,8.739a3.742,3.742,0,0,1-.754,1.78,3.416,3.416,0,0,1-1.419,1.031A4.936,4.936,0,0,1,242.13,180.883Zm.6-4.364a2.8,2.8,0,0,0,1.474-.394,3.256,3.256,0,0,0,1.1-1.137,4.916,4.916,0,0,0,.616-1.774,4.482,4.482,0,0,0-.016-1.769,2.2,2.2,0,0,0-.694-1.22,1.956,1.956,0,0,0-1.341-.449,2.585,2.585,0,0,0-1.52.46,3.591,3.591,0,0,0-1.081,1.242,5.515,5.515,0,0,0-.582,1.736,4.621,4.621,0,0,0,.011,1.724,1.894,1.894,0,0,0,2.03,1.58Zm6.062.993,1.419-8.517h.96l-.222,1.309h.072a2.65,2.65,0,0,1,1.059-1.037,3.04,3.04,0,0,1,1.514-.4c.081,0,.172,0,.272.006a2.331,2.331,0,0,1,.249.011l-.172,1c-.044-.007-.122-.019-.233-.034a2.662,2.662,0,0,0-.361-.022,2.722,2.722,0,0,0-2.174,1.054,2.548,2.548,0,0,0-.487,1.126l-.91,5.5Zm6.007,3.194a2.5,2.5,0,0,1-.543-.055,1.882,1.882,0,0,1-.383-.122l.416-.87a1.769,1.769,0,0,0,.854.1,1.4,1.4,0,0,0,.749-.377,3.6,3.6,0,0,0,.7-.959l.466-.865-1.686-8.562h1.026l1.331,7.231h.072l3.732-7.231h1.114l-5.24,9.854a4.351,4.351,0,0,1-.749,1.048,2.711,2.711,0,0,1-.876.61A2.465,2.465,0,0,1,254.8,180.705Zm16.02-14.549-1.419,8.1h-.976l1.275-8.1Zm-2.334,11.439a.74.74,0,0,1-.56-.233.789.789,0,0,1-.222-.565.737.737,0,0,1,.244-.56.8.8,0,0,1,.565-.227.771.771,0,0,1,.566.233.722.722,0,0,1,.221.555.846.846,0,0,1-.122.4.874.874,0,0,1-.294.288A.788.788,0,0,1,268.484,177.595ZM61.5,202.166,60.275,190.81h1.053l.948,9.765h.089l4.2-9.765h1.2l.954,9.765H68.8l4.192-9.765h1.065l-5,11.356H67.949l-1.031-9.632h-.072l-4.236,9.632Zm14.966.178a3.3,3.3,0,0,1-1.968-.555,2.93,2.93,0,0,1-1.087-1.547,4.9,4.9,0,0,1-.094-2.285,6.058,6.058,0,0,1,.854-2.285,4.794,4.794,0,0,1,1.575-1.569,3.834,3.834,0,0,1,2.035-.571,3.3,3.3,0,0,1,1.3.255,2.553,2.553,0,0,1,1.026.771,2.967,2.967,0,0,1,.593,1.3,5.03,5.03,0,0,1-.011,1.852l-.078.488H73.954l.139-.871h5.65a3.04,3.04,0,0,0-.078-1.474,2.043,2.043,0,0,0-.737-1.037,2.068,2.068,0,0,0-1.281-.388,2.737,2.737,0,0,0-1.48.438,4.01,4.01,0,0,0-1.176,1.142,3.771,3.771,0,0,0-.615,1.492l-.111.654a4.05,4.05,0,0,0,.044,1.813,1.912,1.912,0,0,0,.8,1.1,2.731,2.731,0,0,0,1.492.371,3.07,3.07,0,0,0,1.1-.188,2.873,2.873,0,0,0,.86-.5,2.834,2.834,0,0,0,.588-.7l.882.3a3.5,3.5,0,0,1-.8.993,4.014,4.014,0,0,1-1.214.731A4.257,4.257,0,0,1,76.466,202.344ZM84.9,190.81l-.155,1a3.4,3.4,0,0,1-.327.971,5.163,5.163,0,0,1-.643.993,4.654,4.654,0,0,1-.893.832l-.465-.472a6.192,6.192,0,0,0,.876-1.076,3.219,3.219,0,0,0,.493-1.23l.167-1.015Zm-.368,11.356,1.419-8.517h.959l-.222,1.309h.072a2.645,2.645,0,0,1,1.059-1.037,3.035,3.035,0,0,1,1.514-.4c.081,0,.172,0,.271.006a2.337,2.337,0,0,1,.25.011l-.172,1c-.044-.007-.122-.019-.233-.034a2.643,2.643,0,0,0-.36-.022,2.718,2.718,0,0,0-1.231.283,2.689,2.689,0,0,0-.943.771,2.55,2.55,0,0,0-.488,1.126l-.909,5.5Zm8.742.178a3.3,3.3,0,0,1-1.968-.555,2.924,2.924,0,0,1-1.086-1.547,4.9,4.9,0,0,1-.095-2.285,6.056,6.056,0,0,1,.854-2.285,4.793,4.793,0,0,1,1.575-1.569,3.834,3.834,0,0,1,2.035-.571,3.3,3.3,0,0,1,1.3.255,2.549,2.549,0,0,1,1.026.771,2.962,2.962,0,0,1,.593,1.3,5.025,5.025,0,0,1-.011,1.852l-.078.488H90.758l.138-.871h5.651a3.039,3.039,0,0,0-.078-1.474,2.039,2.039,0,0,0-.737-1.037,2.069,2.069,0,0,0-1.281-.388,2.736,2.736,0,0,0-1.48.438,4.019,4.019,0,0,0-1.176,1.142,3.773,3.773,0,0,0-.615,1.492l-.111.654a4.049,4.049,0,0,0,.044,1.813,1.912,1.912,0,0,0,.8,1.1,2.73,2.73,0,0,0,1.492.371,3.073,3.073,0,0,0,1.1-.188,2.864,2.864,0,0,0,.859-.5,2.836,2.836,0,0,0,.588-.7l.881.3a3.5,3.5,0,0,1-.8.993,4.019,4.019,0,0,1-1.215.731A4.259,4.259,0,0,1,93.269,202.344Zm14.817-8.695-.138.86h-4.07l.145-.86Zm-2.461-2.041h.992l-1.386,8.334a1.51,1.51,0,0,0,.044.837.812.812,0,0,0,.41.427,1.5,1.5,0,0,0,.61.122,2.152,2.152,0,0,0,.333-.022c.1-.018.181-.037.255-.055l.072.893a3.005,3.005,0,0,1-.383.1,2.424,2.424,0,0,1-.532.05,2.157,2.157,0,0,1-1-.238,1.583,1.583,0,0,1-.7-.71,1.9,1.9,0,0,1-.127-1.169Zm3.284,10.558,1.419-8.517h.959l-.222,1.309h.072a2.645,2.645,0,0,1,1.059-1.037,3.035,3.035,0,0,1,1.514-.4c.081,0,.172,0,.271.006a2.337,2.337,0,0,1,.25.011l-.172,1c-.044-.007-.122-.019-.233-.034a2.643,2.643,0,0,0-.36-.022,2.718,2.718,0,0,0-1.231.283,2.689,2.689,0,0,0-.943.771,2.55,2.55,0,0,0-.488,1.126l-.909,5.5Zm6.006,3.194a2.508,2.508,0,0,1-.543-.055,1.853,1.853,0,0,1-.382-.122l.416-.87a1.769,1.769,0,0,0,.854.1,1.407,1.407,0,0,0,.749-.377,3.6,3.6,0,0,0,.7-.959l.466-.865-1.686-8.562h1.026l1.331,7.231h.072l3.732-7.231h1.114l-5.24,9.854a4.374,4.374,0,0,1-.749,1.048,2.719,2.719,0,0,1-.876.61A2.466,2.466,0,0,1,114.915,205.36Zm8.369-3.194,1.419-8.517h.993l-1.42,8.517Zm2.273-10a.726.726,0,0,1-.527-.211.675.675,0,0,1-.205-.51.69.69,0,0,1,.228-.488.731.731,0,0,1,.521-.21.714.714,0,0,1,.527.216.648.648,0,0,1,.205.51.662.662,0,0,1-.228.488A.74.74,0,0,1,125.558,192.169Zm3.2,4.674-.881,5.323h-.987l1.419-8.517h.959l-.222,1.336h.089a2.963,2.963,0,0,1,1.1-1.048,3.3,3.3,0,0,1,1.647-.4,2.713,2.713,0,0,1,1.441.361,1.948,1.948,0,0,1,.843,1.048,3.363,3.363,0,0,1,.089,1.7l-.926,5.517h-.987l.909-5.456a2.043,2.043,0,0,0-.3-1.653,1.72,1.72,0,0,0-1.458-.616,2.746,2.746,0,0,0-1.248.288,2.655,2.655,0,0,0-.965.832A2.988,2.988,0,0,0,128.755,196.843Zm9.891,8.694a4.354,4.354,0,0,1-1.492-.227,2.672,2.672,0,0,1-1.009-.611,2.414,2.414,0,0,1-.56-.87l.9-.527a2.346,2.346,0,0,0,.371.632,1.822,1.822,0,0,0,.7.51,2.921,2.921,0,0,0,1.192.205,3.273,3.273,0,0,0,1.935-.571,2.539,2.539,0,0,0,1.009-1.752l.3-1.919h-.089a4,4,0,0,1-.61.777,3.121,3.121,0,0,1-2.274.892,2.911,2.911,0,0,1-1.73-.5,2.693,2.693,0,0,1-1-1.441,4.834,4.834,0,0,1-.072-2.246,6.261,6.261,0,0,1,.809-2.273,4.607,4.607,0,0,1,1.487-1.53,3.612,3.612,0,0,1,1.94-.549,2.459,2.459,0,0,1,1.253.277,1.94,1.94,0,0,1,.715.676,3.216,3.216,0,0,1,.361.787h.1l.266-1.625h.965l-1.441,8.739a3.735,3.735,0,0,1-.754,1.78A3.416,3.416,0,0,1,140.5,205.2,4.936,4.936,0,0,1,138.647,205.537Zm.6-4.364a2.8,2.8,0,0,0,1.475-.394,3.264,3.264,0,0,0,1.1-1.137,4.916,4.916,0,0,0,.616-1.774,4.466,4.466,0,0,0-.017-1.769,2.2,2.2,0,0,0-.693-1.22,1.958,1.958,0,0,0-1.342-.449,2.584,2.584,0,0,0-1.519.46,3.583,3.583,0,0,0-1.082,1.242,5.536,5.536,0,0,0-.583,1.736,4.619,4.619,0,0,0,.011,1.724,1.894,1.894,0,0,0,2.029,1.58Zm13.8,1.17a3.081,3.081,0,0,1-1.885-.565,3.043,3.043,0,0,1-1.082-1.58,5.083,5.083,0,0,1-.105-2.329,5.894,5.894,0,0,1,.837-2.262,4.649,4.649,0,0,1,1.552-1.524,3.83,3.83,0,0,1,2-.549,2.925,2.925,0,0,1,2.966,2.152,5.04,5.04,0,0,1,.111,2.334,5.852,5.852,0,0,1-.842,2.257,4.754,4.754,0,0,1-1.553,1.52A3.82,3.82,0,0,1,153.048,202.344Zm.011-.9a2.812,2.812,0,0,0,1.619-.482,3.873,3.873,0,0,0,1.181-1.3,5.324,5.324,0,0,0,.627-1.791,4.409,4.409,0,0,0-.034-1.713,2.369,2.369,0,0,0-.7-1.253,1.991,1.991,0,0,0-1.386-.471,2.785,2.785,0,0,0-1.619.493,3.854,3.854,0,0,0-1.182,1.309,5.244,5.244,0,0,0-.62,1.785,4.417,4.417,0,0,0,.022,1.713,2.324,2.324,0,0,0,.7,1.242A2.021,2.021,0,0,0,153.059,201.44Zm11.815-2.529.881-5.262h.987l-1.419,8.517h-.987l.233-1.414H164.5a3.249,3.249,0,0,1-1.132,1.093,3.187,3.187,0,0,1-1.663.432,2.6,2.6,0,0,1-1.391-.355,1.973,1.973,0,0,1-.815-1.054,3.457,3.457,0,0,1-.078-1.7l.926-5.518h.987l-.909,5.457a1.979,1.979,0,0,0,.321,1.607,1.7,1.7,0,0,0,1.409.6,2.64,2.64,0,0,0,1.153-.278,2.854,2.854,0,0,0,1.009-.809A2.776,2.776,0,0,0,164.874,198.911Zm3.062,3.255,1.419-8.517h.959l-.222,1.309h.072a2.65,2.65,0,0,1,1.059-1.037,3.04,3.04,0,0,1,1.514-.4c.081,0,.172,0,.271.006a2.337,2.337,0,0,1,.25.011l-.172,1c-.044-.007-.122-.019-.233-.034a2.664,2.664,0,0,0-.361-.022,2.718,2.718,0,0,0-1.231.283,2.689,2.689,0,0,0-.943.771,2.55,2.55,0,0,0-.488,1.126l-.909,5.5Zm10.177,0L180,190.81h.993l-.732,4.463h.089a4.737,4.737,0,0,1,.6-.787,3.193,3.193,0,0,1,.943-.676,2.994,2.994,0,0,1,1.342-.277,2.725,2.725,0,0,1,1.746.554,2.866,2.866,0,0,1,.981,1.542,5.309,5.309,0,0,1,.061,2.3,6.463,6.463,0,0,1-.826,2.313,4.63,4.63,0,0,1-1.486,1.547,3.544,3.544,0,0,1-1.924.555,2.486,2.486,0,0,1-1.253-.277,2.033,2.033,0,0,1-.721-.682,3.4,3.4,0,0,1-.355-.8h-.122l-.266,1.58Zm1.686-4.253a5.048,5.048,0,0,0,0,1.829,2.291,2.291,0,0,0,.671,1.248,1.927,1.927,0,0,0,1.331.449,2.576,2.576,0,0,0,1.514-.466,3.678,3.678,0,0,0,1.109-1.27,5.538,5.538,0,0,0,.611-1.791,4.8,4.8,0,0,0-.006-1.769,2.273,2.273,0,0,0-.671-1.248,1.93,1.93,0,0,0-1.359-.465,2.615,2.615,0,0,0-1.5.449,3.486,3.486,0,0,0-1.1,1.231A5.438,5.438,0,0,0,179.8,197.913Zm11.107,4.43a3.3,3.3,0,0,1-1.968-.555,2.93,2.93,0,0,1-1.087-1.547,4.9,4.9,0,0,1-.094-2.285,6.043,6.043,0,0,1,.854-2.285,4.793,4.793,0,0,1,1.575-1.569,3.832,3.832,0,0,1,2.035-.571,3.3,3.3,0,0,1,1.3.255,2.555,2.555,0,0,1,1.026.771,2.971,2.971,0,0,1,.593,1.3,5.028,5.028,0,0,1-.012,1.852l-.077.488h-6.654l.139-.871h5.65a3.039,3.039,0,0,0-.077-1.474,2.044,2.044,0,0,0-.737-1.037,2.07,2.07,0,0,0-1.281-.388,2.734,2.734,0,0,0-1.48.438,4,4,0,0,0-1.176,1.142,3.775,3.775,0,0,0-.616,1.492l-.111.654a4.049,4.049,0,0,0,.044,1.813,1.91,1.91,0,0,0,.8,1.1,2.73,2.73,0,0,0,1.492.371,3.069,3.069,0,0,0,1.1-.188,2.869,2.869,0,0,0,.86-.5,2.832,2.832,0,0,0,.588-.7l.882.3a3.491,3.491,0,0,1-.8.993,4,4,0,0,1-1.214.731A4.259,4.259,0,0,1,190.906,202.344Zm12.483-6.826-.948.244a1.956,1.956,0,0,0-.266-.688,1.289,1.289,0,0,0-.549-.487,2.032,2.032,0,0,0-.932-.183,2.611,2.611,0,0,0-1.492.422,1.552,1.552,0,0,0-.731,1.064.989.989,0,0,0,.227.882,2.255,2.255,0,0,0,1.076.533l1.243.316a2.626,2.626,0,0,1,1.469.832,1.768,1.768,0,0,1,.3,1.431,2.518,2.518,0,0,1-.616,1.275,3.324,3.324,0,0,1-1.253.87,4.367,4.367,0,0,1-1.7.316,3.125,3.125,0,0,1-1.979-.565,2.089,2.089,0,0,1-.766-1.63l.993-.222a1.516,1.516,0,0,0,.516,1.142,2.072,2.072,0,0,0,1.342.388,2.916,2.916,0,0,0,1.658-.449,1.618,1.618,0,0,0,.771-1.109,1,1,0,0,0-.194-.865,1.754,1.754,0,0,0-.965-.51l-1.326-.333a2.667,2.667,0,0,1-1.514-.848,1.8,1.8,0,0,1-.294-1.437,2.426,2.426,0,0,1,.588-1.236,3.205,3.205,0,0,1,1.192-.832,4,4,0,0,1,1.575-.3,2.667,2.667,0,0,1,1.791.532A2.374,2.374,0,0,1,203.388,195.518Zm5.948-1.869-.138.86h-4.07l.145-.86Zm-2.461-2.041h.992l-1.386,8.334a1.51,1.51,0,0,0,.044.837.815.815,0,0,0,.41.427,1.5,1.5,0,0,0,.61.122,2.137,2.137,0,0,0,.333-.022c.1-.018.181-.037.255-.055l.072.893a2.969,2.969,0,0,1-.383.1,2.419,2.419,0,0,1-.532.05,2.151,2.151,0,0,1-1-.238,1.581,1.581,0,0,1-.7-.71,1.9,1.9,0,0,1-.127-1.169Zm12.45,2.041-.139.86h-4.07l.144-.86Zm-2.462-2.041h.993l-1.386,8.334a1.51,1.51,0,0,0,.044.837.815.815,0,0,0,.41.427,1.5,1.5,0,0,0,.61.122,2.137,2.137,0,0,0,.333-.022c.1-.018.182-.037.256-.055l.072.893a2.953,2.953,0,0,1-.382.1,2.432,2.432,0,0,1-.533.05,2.151,2.151,0,0,1-1-.238,1.579,1.579,0,0,1-.7-.71,1.892,1.892,0,0,1-.127-1.169Zm6.542,10.735a3.083,3.083,0,0,1-1.885-.565,3.048,3.048,0,0,1-1.082-1.58,5.083,5.083,0,0,1-.105-2.329,5.907,5.907,0,0,1,.837-2.262,4.656,4.656,0,0,1,1.552-1.524,3.834,3.834,0,0,1,2-.549,2.927,2.927,0,0,1,2.967,2.152,5.062,5.062,0,0,1,.111,2.334,5.839,5.839,0,0,1-.843,2.257,4.759,4.759,0,0,1-1.552,1.52A3.821,3.821,0,0,1,223.4,202.344Zm.012-.9a2.816,2.816,0,0,0,1.619-.482,3.89,3.89,0,0,0,1.181-1.3,5.305,5.305,0,0,0,.626-1.791,4.409,4.409,0,0,0-.033-1.713,2.37,2.37,0,0,0-.7-1.253,1.99,1.99,0,0,0-1.386-.471,2.785,2.785,0,0,0-1.619.493,3.86,3.86,0,0,0-1.181,1.309,5.228,5.228,0,0,0-.621,1.785,4.418,4.418,0,0,0,.022,1.713,2.329,2.329,0,0,0,.7,1.242A2.023,2.023,0,0,0,223.416,201.44Zm12.973,4.1a4.361,4.361,0,0,1-1.492-.227,2.672,2.672,0,0,1-1.009-.611,2.423,2.423,0,0,1-.56-.87l.9-.527a2.324,2.324,0,0,0,.371.632,1.816,1.816,0,0,0,.7.51,2.917,2.917,0,0,0,1.192.205,3.273,3.273,0,0,0,1.935-.571,2.536,2.536,0,0,0,1.009-1.752l.3-1.919h-.089a3.965,3.965,0,0,1-.61.777,3.117,3.117,0,0,1-2.273.892,2.91,2.91,0,0,1-1.73-.5,2.689,2.689,0,0,1-1-1.441,4.822,4.822,0,0,1-.072-2.246,6.246,6.246,0,0,1,.809-2.273,4.6,4.6,0,0,1,1.486-1.53,3.614,3.614,0,0,1,1.941-.549,2.461,2.461,0,0,1,1.253.277,1.947,1.947,0,0,1,.715.676,3.247,3.247,0,0,1,.361.787h.1l.266-1.625h.965l-1.441,8.739a3.75,3.75,0,0,1-.754,1.78,3.416,3.416,0,0,1-1.419,1.031A4.937,4.937,0,0,1,236.389,205.537Zm.6-4.364a2.8,2.8,0,0,0,1.475-.394,3.261,3.261,0,0,0,1.1-1.137,4.9,4.9,0,0,0,.616-1.774,4.483,4.483,0,0,0-.016-1.769,2.2,2.2,0,0,0-.693-1.22,1.959,1.959,0,0,0-1.342-.449,2.587,2.587,0,0,0-1.52.46,3.591,3.591,0,0,0-1.082,1.242,5.536,5.536,0,0,0-.582,1.736,4.62,4.62,0,0,0,.011,1.724,1.9,1.9,0,0,0,2.03,1.58Zm9.483,1.17a3.3,3.3,0,0,1-1.968-.555,2.924,2.924,0,0,1-1.086-1.547,4.9,4.9,0,0,1-.094-2.285,6.056,6.056,0,0,1,.854-2.285,4.793,4.793,0,0,1,1.575-1.569,3.834,3.834,0,0,1,2.035-.571,3.3,3.3,0,0,1,1.3.255,2.555,2.555,0,0,1,1.026.771,2.962,2.962,0,0,1,.593,1.3,5.025,5.025,0,0,1-.011,1.852l-.078.488H243.96l.138-.871h5.651a3.038,3.038,0,0,0-.078-1.474,2.039,2.039,0,0,0-.737-1.037,2.069,2.069,0,0,0-1.281-.388,2.737,2.737,0,0,0-1.48.438A4.019,4.019,0,0,0,245,196.012a3.773,3.773,0,0,0-.615,1.492l-.111.654a4.049,4.049,0,0,0,.044,1.813,1.909,1.909,0,0,0,.8,1.1,2.73,2.73,0,0,0,1.492.371,3.073,3.073,0,0,0,1.1-.188,2.874,2.874,0,0,0,.859-.5,2.835,2.835,0,0,0,.588-.7l.881.3a3.5,3.5,0,0,1-.8.993,4.019,4.019,0,0,1-1.215.731A4.259,4.259,0,0,1,246.471,202.344Zm10.426-8.695-.139.86h-4.07l.145-.86Zm-2.462-2.041h.993l-1.386,8.334a1.51,1.51,0,0,0,.044.837.815.815,0,0,0,.41.427,1.5,1.5,0,0,0,.61.122,2.137,2.137,0,0,0,.333-.022c.1-.018.181-.037.255-.055l.072.893a2.99,2.99,0,0,1-.382.1,2.433,2.433,0,0,1-.533.05,2.151,2.151,0,0,1-1-.238,1.581,1.581,0,0,1-.7-.71,1.9,1.9,0,0,1-.127-1.169Zm7.842,13.751a2.5,2.5,0,0,1-.543-.055,1.88,1.88,0,0,1-.383-.122l.416-.87a1.769,1.769,0,0,0,.854.1,1.4,1.4,0,0,0,.749-.377,3.6,3.6,0,0,0,.7-.959l.466-.865-1.686-8.562h1.026l1.331,7.231h.072l3.732-7.231h1.114l-5.24,9.854a4.351,4.351,0,0,1-.749,1.048,2.7,2.7,0,0,1-.876.61A2.465,2.465,0,0,1,262.277,205.36Zm11.4-3.016a3.083,3.083,0,0,1-1.885-.565,3.043,3.043,0,0,1-1.082-1.58,5.083,5.083,0,0,1-.105-2.329,5.894,5.894,0,0,1,.837-2.262A4.649,4.649,0,0,1,273,194.082a3.834,3.834,0,0,1,2-.549,2.925,2.925,0,0,1,2.966,2.152,5.04,5.04,0,0,1,.111,2.334,5.839,5.839,0,0,1-.842,2.257,4.759,4.759,0,0,1-1.552,1.52A3.825,3.825,0,0,1,273.679,202.344Zm.011-.9a2.812,2.812,0,0,0,1.619-.482,3.883,3.883,0,0,0,1.182-1.3,5.322,5.322,0,0,0,.626-1.791,4.426,4.426,0,0,0-.033-1.713,2.37,2.37,0,0,0-.7-1.253,1.989,1.989,0,0,0-1.386-.471,2.785,2.785,0,0,0-1.619.493,3.843,3.843,0,0,0-1.181,1.309,5.228,5.228,0,0,0-.621,1.785,4.417,4.417,0,0,0,.022,1.713,2.324,2.324,0,0,0,.7,1.242A2.023,2.023,0,0,0,273.69,201.44Zm11.815-2.529.882-5.262h.987l-1.42,8.517h-.987l.233-1.414h-.072A3.253,3.253,0,0,1,284,201.845a3.19,3.19,0,0,1-1.664.432,2.6,2.6,0,0,1-1.391-.355,1.977,1.977,0,0,1-.815-1.054,3.448,3.448,0,0,1-.077-1.7l.925-5.518h.987l-.909,5.457a1.979,1.979,0,0,0,.321,1.607,1.7,1.7,0,0,0,1.409.6,2.637,2.637,0,0,0,1.153-.278,2.854,2.854,0,0,0,1.009-.809A2.776,2.776,0,0,0,285.5,198.911Zm3.062,3.255,1.419-8.517h.959l-.221,1.309h.072a2.65,2.65,0,0,1,1.059-1.037,3.04,3.04,0,0,1,1.514-.4c.081,0,.172,0,.272.006a2.331,2.331,0,0,1,.249.011l-.172,1c-.044-.007-.122-.019-.233-.034a2.664,2.664,0,0,0-.361-.022,2.722,2.722,0,0,0-2.174,1.054,2.549,2.549,0,0,0-.488,1.126l-.909,5.5ZM165.083,218.3l-.144.86h-4.181l.138-.86Zm-4.3,8.517,1.625-9.765a2.353,2.353,0,0,1,.5-1.159,2.622,2.622,0,0,1,.954-.715,2.8,2.8,0,0,1,1.137-.244,2.464,2.464,0,0,1,.632.067,2.51,2.51,0,0,1,.383.122l-.422.865-.266-.078a1.422,1.422,0,0,0-.394-.044,1.54,1.54,0,0,0-1.054.361,1.706,1.706,0,0,0-.527,1.031l-1.586,9.559Zm7.847.178a3.081,3.081,0,0,1-1.885-.565,3.043,3.043,0,0,1-1.081-1.58,5.072,5.072,0,0,1-.105-2.329,5.906,5.906,0,0,1,.837-2.262,4.658,4.658,0,0,1,1.553-1.524,3.829,3.829,0,0,1,2-.549,2.927,2.927,0,0,1,2.967,2.152,5.04,5.04,0,0,1,.111,2.334,5.84,5.84,0,0,1-.843,2.257,4.744,4.744,0,0,1-1.552,1.52A3.82,3.82,0,0,1,168.632,227Zm.011-.9a2.814,2.814,0,0,0,1.619-.482,3.881,3.881,0,0,0,1.181-1.3,5.325,5.325,0,0,0,.627-1.791,4.409,4.409,0,0,0-.034-1.713,2.364,2.364,0,0,0-.7-1.253,1.987,1.987,0,0,0-1.386-.471,2.787,2.787,0,0,0-1.62.493,3.86,3.86,0,0,0-1.181,1.309,5.226,5.226,0,0,0-.62,1.785,4.417,4.417,0,0,0,.022,1.713,2.324,2.324,0,0,0,.7,1.242A2.021,2.021,0,0,0,168.643,226.094Zm9.214.9a3.084,3.084,0,0,1-1.885-.565,3.048,3.048,0,0,1-1.082-1.58,5.083,5.083,0,0,1-.105-2.329,5.907,5.907,0,0,1,.837-2.262,4.663,4.663,0,0,1,1.552-1.524,3.835,3.835,0,0,1,2-.549,2.927,2.927,0,0,1,2.967,2.152,5.04,5.04,0,0,1,.111,2.334,5.839,5.839,0,0,1-.843,2.257,4.751,4.751,0,0,1-1.552,1.52A3.821,3.821,0,0,1,177.857,227Zm.012-.9a2.815,2.815,0,0,0,1.619-.482,3.89,3.89,0,0,0,1.181-1.3,5.305,5.305,0,0,0,.626-1.791,4.409,4.409,0,0,0-.033-1.713,2.37,2.37,0,0,0-.7-1.253,1.989,1.989,0,0,0-1.386-.471,2.785,2.785,0,0,0-1.619.493,3.86,3.86,0,0,0-1.181,1.309,5.227,5.227,0,0,0-.621,1.785,4.417,4.417,0,0,0,.022,1.713,2.329,2.329,0,0,0,.7,1.242A2.023,2.023,0,0,0,177.869,226.094Zm8.914.9a2.721,2.721,0,0,1-1.746-.555,2.9,2.9,0,0,1-.975-1.547,5.373,5.373,0,0,1-.062-2.313,6.394,6.394,0,0,1,.827-2.3,4.62,4.62,0,0,1,1.492-1.542,3.584,3.584,0,0,1,1.935-.554,2.429,2.429,0,0,1,1.248.277,1.946,1.946,0,0,1,.715.676,3.186,3.186,0,0,1,.349.787h.089l.743-4.463h.993L190.5,226.821h-.96l.266-1.58h-.122a4.976,4.976,0,0,1-.627.8,3.283,3.283,0,0,1-.943.682A2.991,2.991,0,0,1,186.783,227Zm.217-.9a2.609,2.609,0,0,0,1.492-.449,3.636,3.636,0,0,0,1.119-1.248,5.394,5.394,0,0,0,.621-1.829,4.653,4.653,0,0,0-.006-1.8,2.221,2.221,0,0,0-.687-1.231,1.967,1.967,0,0,0-1.348-.449,2.554,2.554,0,0,0-1.508.465,3.611,3.611,0,0,0-1.092,1.248,5.653,5.653,0,0,0-.593,1.769,4.991,4.991,0,0,0,0,1.791,2.338,2.338,0,0,0,.654,1.27A1.9,1.9,0,0,0,187,226.094Zm-59.144,16.864-.138.86h-4.07l.145-.86Zm-2.461-2.041h.992L125,249.251a1.51,1.51,0,0,0,.044.837.815.815,0,0,0,.41.427,1.5,1.5,0,0,0,.61.122,2.139,2.139,0,0,0,.333-.022c.1-.018.181-.037.255-.055l.072.892a2.986,2.986,0,0,1-.382.1,2.431,2.431,0,0,1-.533.05,2.151,2.151,0,0,1-1-.238,1.58,1.58,0,0,1-.7-.71,1.9,1.9,0,0,1-.127-1.169Zm6.542,10.735a3.081,3.081,0,0,1-1.885-.565,3.043,3.043,0,0,1-1.081-1.58,5.083,5.083,0,0,1-.105-2.329,5.894,5.894,0,0,1,.837-2.262,4.648,4.648,0,0,1,1.552-1.524,3.83,3.83,0,0,1,2-.549,2.925,2.925,0,0,1,2.966,2.152,5.04,5.04,0,0,1,.111,2.334,5.852,5.852,0,0,1-.842,2.257,4.753,4.753,0,0,1-1.553,1.52A3.82,3.82,0,0,1,131.937,251.653Zm.011-.9a2.812,2.812,0,0,0,1.619-.482,3.884,3.884,0,0,0,1.182-1.3,5.323,5.323,0,0,0,.626-1.791,4.409,4.409,0,0,0-.034-1.713,2.368,2.368,0,0,0-.7-1.253,1.991,1.991,0,0,0-1.386-.471,2.785,2.785,0,0,0-1.619.493,3.854,3.854,0,0,0-1.182,1.309,5.244,5.244,0,0,0-.62,1.785,4.418,4.418,0,0,0,.022,1.713,2.324,2.324,0,0,0,.7,1.242A2.023,2.023,0,0,0,131.947,250.749Zm10.423,3.92a2.5,2.5,0,0,1-.543-.055,1.882,1.882,0,0,1-.383-.122l.416-.87a1.772,1.772,0,0,0,.855.1,1.4,1.4,0,0,0,.748-.377,3.6,3.6,0,0,0,.7-.959l.465-.865-1.686-8.562h1.026l1.331,7.231h.072l3.732-7.231h1.114l-5.24,9.854a4.351,4.351,0,0,1-.749,1.048,2.7,2.7,0,0,1-.876.61A2.459,2.459,0,0,1,142.37,254.669Zm11.4-3.016a3.083,3.083,0,0,1-1.885-.565,3.048,3.048,0,0,1-1.081-1.58,5.083,5.083,0,0,1-.105-2.329,5.907,5.907,0,0,1,.837-2.262,4.656,4.656,0,0,1,1.552-1.524,3.834,3.834,0,0,1,2-.549,2.927,2.927,0,0,1,2.967,2.152,5.062,5.062,0,0,1,.111,2.334,5.84,5.84,0,0,1-.843,2.257,4.759,4.759,0,0,1-1.552,1.52A3.821,3.821,0,0,1,153.772,251.653Zm.011-.9a2.815,2.815,0,0,0,1.619-.482,3.89,3.89,0,0,0,1.181-1.3,5.306,5.306,0,0,0,.626-1.791,4.409,4.409,0,0,0-.033-1.713,2.37,2.37,0,0,0-.7-1.253,1.989,1.989,0,0,0-1.386-.471,2.785,2.785,0,0,0-1.619.493,3.86,3.86,0,0,0-1.181,1.309,5.228,5.228,0,0,0-.621,1.785,4.417,4.417,0,0,0,.022,1.713,2.329,2.329,0,0,0,.7,1.242A2.024,2.024,0,0,0,153.784,250.749ZM165.6,248.22l.882-5.262h.987l-1.419,8.517h-.987l.233-1.414h-.072a3.246,3.246,0,0,1-1.131,1.093,3.187,3.187,0,0,1-1.663.432,2.6,2.6,0,0,1-1.392-.355,1.977,1.977,0,0,1-.815-1.054,3.448,3.448,0,0,1-.077-1.7l.926-5.518h.987l-.91,5.457a1.982,1.982,0,0,0,.321,1.607,1.7,1.7,0,0,0,1.409.6,2.643,2.643,0,0,0,1.154-.278,2.869,2.869,0,0,0,1.009-.809A2.776,2.776,0,0,0,165.6,248.22Zm51.536,3.338a.753.753,0,0,1-.56-.233.789.789,0,0,1-.222-.565.737.737,0,0,1,.244-.56.813.813,0,0,1,.571-.227.763.763,0,0,1,.56.233.72.72,0,0,1,.222.555.773.773,0,0,1-.122.4.88.88,0,0,1-.293.288A.771.771,0,0,1,217.134,251.558ZM227.6,240.119l-.155,1a3.4,3.4,0,0,1-.327.971,5.163,5.163,0,0,1-.643.993,4.655,4.655,0,0,1-.893.832l-.465-.472a6.192,6.192,0,0,0,.876-1.076,3.22,3.22,0,0,0,.493-1.23l.167-1.015Zm2.6,0-.155,1a3.423,3.423,0,0,1-.327.971,5.207,5.207,0,0,1-.643.993,4.626,4.626,0,0,1-.892.832l-.466-.472a6.154,6.154,0,0,0,.876-1.076,3.235,3.235,0,0,0,.494-1.23l.172-1.015Z"/>
        <path id="Path_529" data-name="Path 529" d="M174.693,251.475H172.12l5.806-11.356h3.094l2.029,11.356h-2.573l-1.381-8.761h-.089Zm.588-4.463h6.077l-.321,1.874h-6.077Zm16.367-3.594a1.272,1.272,0,0,0-.4-1.07,1.906,1.906,0,0,0-1.292-.377,2.838,2.838,0,0,0-1.021.167,1.713,1.713,0,0,0-.693.449,1.27,1.27,0,0,0-.316.654.878.878,0,0,0,.039.533,1.035,1.035,0,0,0,.327.394,2.525,2.525,0,0,0,.538.283,5.348,5.348,0,0,0,.66.2l.975.244a6.111,6.111,0,0,1,1.287.444,3.3,3.3,0,0,1,.965.682,2.253,2.253,0,0,1,.554.953,2.819,2.819,0,0,1,.044,1.259,3.7,3.7,0,0,1-.826,1.807,4.276,4.276,0,0,1-1.7,1.182,6.625,6.625,0,0,1-2.44.416,5.707,5.707,0,0,1-2.323-.422,2.761,2.761,0,0,1-1.381-1.248,3.4,3.4,0,0,1-.256-2.057h2.323a1.512,1.512,0,0,0,.167.953,1.444,1.444,0,0,0,.693.571,2.842,2.842,0,0,0,1.081.188,3.139,3.139,0,0,0,1.092-.177,2.022,2.022,0,0,0,.782-.494,1.356,1.356,0,0,0,.366-.726.83.83,0,0,0-.117-.643,1.4,1.4,0,0,0-.588-.443,5.271,5.271,0,0,0-.993-.333L188,246.5a4.224,4.224,0,0,1-2.079-1.092,2.243,2.243,0,0,1-.5-2,3.587,3.587,0,0,1,.86-1.8,4.607,4.607,0,0,1,1.73-1.2,5.943,5.943,0,0,1,2.29-.432,4.717,4.717,0,0,1,2.134.438,2.744,2.744,0,0,1,1.27,1.209,2.915,2.915,0,0,1,.244,1.807Zm4.439,8.057h-2.572l5.805-11.356h3.094l2.029,11.356H201.87l-1.381-8.761H200.4Zm.588-4.463h6.077l-.321,1.874h-6.077Zm9.135,4.463,1.885-11.356h4.481a4.073,4.073,0,0,1,2.113.493,2.628,2.628,0,0,1,1.165,1.358,3.773,3.773,0,0,1,.155,2,4.621,4.621,0,0,1-.821,2,4.259,4.259,0,0,1-1.63,1.342,5.293,5.293,0,0,1-2.318.482h-2.856l.316-1.924h2.467a2.713,2.713,0,0,0,1.192-.239,2.013,2.013,0,0,0,.793-.671,2.416,2.416,0,0,0,.382-.993,1.931,1.931,0,0,0-.061-.992,1.217,1.217,0,0,0-.571-.655,2.194,2.194,0,0,0-1.1-.238h-1.62l-1.569,9.393Z" fill="#fa7b17"/>
        <path id="Path_530" data-name="Path 530" d="M201.869,276.4l-.2,1.22H196.7l.2-1.22Z" fill="rgba(0,0,0,0.25)"/>
        <path id="Path_531" data-name="Path 531" d="M212.551,274.486a2.368,2.368,0,0,0-.161-.672,1.658,1.658,0,0,0-.353-.55,1.581,1.581,0,0,0-.564-.368,2.106,2.106,0,0,0-.785-.133,2.6,2.6,0,0,0-1.3.354,3.225,3.225,0,0,0-1.082,1.04,4.231,4.231,0,0,0-.62,1.674,3.843,3.843,0,0,0,.031,1.657,1.892,1.892,0,0,0,.683,1.05,2,2,0,0,0,1.222.361,2.624,2.624,0,0,0,1.226-.294,2.7,2.7,0,0,0,.956-.844,2.986,2.986,0,0,0,.5-1.3l.2.067h-2.3l.108-.588h2.721l-.108.588a3.675,3.675,0,0,1-.627,1.589,3.294,3.294,0,0,1-1.191,1.033,3.364,3.364,0,0,1-1.547.361,2.625,2.625,0,0,1-1.569-.451,2.4,2.4,0,0,1-.879-1.282,4.262,4.262,0,0,1-.063-1.951,5.283,5.283,0,0,1,.469-1.523,4.228,4.228,0,0,1,.827-1.16,3.578,3.578,0,0,1,1.1-.742,3.261,3.261,0,0,1,1.289-.26,2.779,2.779,0,0,1,1.047.186,2.252,2.252,0,0,1,.777.511,2.155,2.155,0,0,1,.483.746,2.488,2.488,0,0,1,.176.9Zm3.57,5.043a2.088,2.088,0,0,1-1.243-.35,1.847,1.847,0,0,1-.686-.977,3.1,3.1,0,0,1-.06-1.442,3.825,3.825,0,0,1,.54-1.443,3.03,3.03,0,0,1,.994-.991,2.421,2.421,0,0,1,1.285-.361,2.082,2.082,0,0,1,.819.161,1.614,1.614,0,0,1,.648.487,1.873,1.873,0,0,1,.375.823,3.174,3.174,0,0,1-.007,1.169l-.049.308h-4.2l.088-.55h3.568a1.928,1.928,0,0,0-.048-.931,1.29,1.29,0,0,0-.466-.655,1.308,1.308,0,0,0-.809-.246,1.734,1.734,0,0,0-.934.277,2.533,2.533,0,0,0-.743.722,2.389,2.389,0,0,0-.389.942l-.07.413a2.551,2.551,0,0,0,.028,1.145,1.207,1.207,0,0,0,.508.694,1.717,1.717,0,0,0,.942.235,1.949,1.949,0,0,0,.7-.119,1.767,1.767,0,0,0,.915-.763l.556.192a2.2,2.2,0,0,1-.5.627,2.529,2.529,0,0,1-.767.463A2.7,2.7,0,0,1,216.121,279.529Zm3.569-.112.9-5.379h.606l-.14.826h.045a1.678,1.678,0,0,1,.669-.655,1.925,1.925,0,0,1,.956-.251c.052,0,.109,0,.172,0s.116,0,.158.007l-.108.634c-.028,0-.077-.012-.147-.021a1.733,1.733,0,0,0-.228-.014,1.713,1.713,0,0,0-.777.178,1.693,1.693,0,0,0-.595.487,1.6,1.6,0,0,0-.308.711l-.574,3.474Zm3.525,0,.9-5.379h.606l-.14.826h.056a1.709,1.709,0,0,1,.652-.655,1.848,1.848,0,0,1,.945-.242,1.318,1.318,0,0,1,.869.263,1.254,1.254,0,0,1,.42.714h.046a1.858,1.858,0,0,1,.711-.711,2.048,2.048,0,0,1,1.047-.266,1.292,1.292,0,0,1,1.1.473,1.748,1.748,0,0,1,.207,1.372l-.6,3.6h-.624l.6-3.6a1.161,1.161,0,0,0-.164-.956.98.98,0,0,0-.8-.319,1.429,1.429,0,0,0-1.019.378,1.632,1.632,0,0,0-.494.96l-.592,3.54H226.3l.612-3.66a1.138,1.138,0,0,0-.157-.883.912.912,0,0,0-.8-.336,1.405,1.405,0,0,0-.7.186,1.643,1.643,0,0,0-.553.508,1.784,1.784,0,0,0-.294.739l-.574,3.446Zm9.954.122a1.869,1.869,0,0,1-.858-.189,1.242,1.242,0,0,1-.553-.553,1.466,1.466,0,0,1-.1-.883,1.511,1.511,0,0,1,.771-1.121,2.721,2.721,0,0,1,.7-.28,6.308,6.308,0,0,1,.861-.154l.778-.1a1.621,1.621,0,0,0,.5-.133.388.388,0,0,0,.214-.294l.021-.127a1.039,1.039,0,0,0-.168-.865,1.058,1.058,0,0,0-.869-.319,1.906,1.906,0,0,0-1.008.259,1.79,1.79,0,0,0-.63.6l-.554-.214a2.171,2.171,0,0,1,.62-.7,2.459,2.459,0,0,1,.787-.381,3.023,3.023,0,0,1,.83-.119,2.565,2.565,0,0,1,.627.081,1.5,1.5,0,0,1,.571.28,1.125,1.125,0,0,1,.375.55,1.836,1.836,0,0,1,.035.889l-.609,3.653h-.624l.144-.851h-.039a2.021,2.021,0,0,1-.406.463,2.1,2.1,0,0,1-.613.367A2.134,2.134,0,0,1,233.168,279.539Zm.158-.57a1.843,1.843,0,0,0,.9-.221,1.94,1.94,0,0,0,.666-.585,1.919,1.919,0,0,0,.336-.809l.129-.777a.7.7,0,0,1-.251.119,3.759,3.759,0,0,1-.389.095c-.143.025-.286.048-.431.067l-.378.049a3.92,3.92,0,0,0-.812.175,1.39,1.39,0,0,0-.55.329.945.945,0,0,0-.26.533.793.793,0,0,0,.214.76A1.2,1.2,0,0,0,233.326,278.969Zm5.024-2.914-.557,3.362h-.623l.9-5.379h.606l-.141.844h.057a1.857,1.857,0,0,1,.7-.662,2.087,2.087,0,0,1,1.04-.252,1.715,1.715,0,0,1,.911.228,1.231,1.231,0,0,1,.533.662,2.116,2.116,0,0,1,.056,1.075l-.585,3.484h-.623l.574-3.446a1.29,1.29,0,0,0-.193-1.044,1.086,1.086,0,0,0-.92-.389,1.734,1.734,0,0,0-.788.182,1.672,1.672,0,0,0-.61.525A1.887,1.887,0,0,0,238.35,276.055Zm7.434,3.362,1.19-7.172h2.315a2.42,2.42,0,0,1,1.229.273,1.431,1.431,0,0,1,.648.76,2.146,2.146,0,0,1,.081,1.114,2.613,2.613,0,0,1-.448,1.1,2.336,2.336,0,0,1-.9.753,2.98,2.98,0,0,1-1.313.27h-1.968l.1-.6h1.95a2.286,2.286,0,0,0,.966-.186,1.581,1.581,0,0,0,.644-.528,1.931,1.931,0,0,0,.319-.813,1.6,1.6,0,0,0-.053-.823.991.991,0,0,0-.469-.543,1.836,1.836,0,0,0-.906-.192h-1.643l-1.093,6.584Zm3.7-3.236,1.229,3.236h-.753l-1.208-3.236Zm4.5,3.348a2.088,2.088,0,0,1-1.243-.35,1.852,1.852,0,0,1-.686-.977,3.093,3.093,0,0,1-.059-1.442,3.824,3.824,0,0,1,.539-1.443,3.038,3.038,0,0,1,.994-.991,2.423,2.423,0,0,1,1.285-.361,2.079,2.079,0,0,1,.819.161,1.616,1.616,0,0,1,.648.487,1.891,1.891,0,0,1,.375.823,3.177,3.177,0,0,1-.007,1.169l-.049.308h-4.2l.087-.55h3.569a1.918,1.918,0,0,0-.049-.931,1.29,1.29,0,0,0-.466-.655,1.305,1.305,0,0,0-.809-.246,1.735,1.735,0,0,0-.935.277,2.53,2.53,0,0,0-.742.722,2.377,2.377,0,0,0-.389.942l-.071.413a2.563,2.563,0,0,0,.028,1.145,1.207,1.207,0,0,0,.508.694,1.722,1.722,0,0,0,.943.235,1.953,1.953,0,0,0,.7-.119,1.807,1.807,0,0,0,.542-.319,1.787,1.787,0,0,0,.371-.445l.556.192a2.195,2.195,0,0,1-.5.627,2.549,2.549,0,0,1-.767.463A2.7,2.7,0,0,1,253.978,279.529Zm7.885-4.31-.6.154a1.212,1.212,0,0,0-.168-.434.81.81,0,0,0-.347-.308,1.279,1.279,0,0,0-.588-.116,1.648,1.648,0,0,0-.943.266.982.982,0,0,0-.462.672.626.626,0,0,0,.143.557,1.427,1.427,0,0,0,.68.336l.785.2a1.65,1.65,0,0,1,.928.525,1.116,1.116,0,0,1,.192.9,1.581,1.581,0,0,1-.389.805,2.086,2.086,0,0,1-.791.55,2.764,2.764,0,0,1-1.072.2,1.978,1.978,0,0,1-1.25-.357,1.318,1.318,0,0,1-.483-1.03l.627-.141a.957.957,0,0,0,.325.722,1.307,1.307,0,0,0,.847.246,1.839,1.839,0,0,0,1.047-.284,1.021,1.021,0,0,0,.487-.7.636.636,0,0,0-.122-.546,1.111,1.111,0,0,0-.61-.322l-.837-.21a1.693,1.693,0,0,1-.957-.536,1.138,1.138,0,0,1-.186-.907,1.534,1.534,0,0,1,.371-.781,2.034,2.034,0,0,1,.753-.526,2.534,2.534,0,0,1,1-.192,1.68,1.68,0,0,1,1.131.336A1.5,1.5,0,0,1,261.863,275.218Zm3.757-1.18-.088.542h-2.57l.09-.542Zm-1.555-1.289h.627l-.876,5.264a.961.961,0,0,0,.028.529.52.52,0,0,0,.26.27.952.952,0,0,0,.385.077,1.279,1.279,0,0,0,.21-.015c.061-.012.114-.023.161-.035l.046.564a2.03,2.03,0,0,1-.242.063,1.589,1.589,0,0,1-.337.031,1.359,1.359,0,0,1-.634-.15,1,1,0,0,1-.441-.449,1.2,1.2,0,0,1-.081-.739Zm3.563,6.791a1.869,1.869,0,0,1-.858-.189,1.248,1.248,0,0,1-.554-.553,1.472,1.472,0,0,1-.1-.883,1.511,1.511,0,0,1,.771-1.121,2.722,2.722,0,0,1,.7-.28,6.286,6.286,0,0,1,.861-.154l.777-.1a1.621,1.621,0,0,0,.5-.133.39.39,0,0,0,.214-.294l.021-.127a1.039,1.039,0,0,0-.168-.865,1.059,1.059,0,0,0-.869-.319,1.911,1.911,0,0,0-1.009.259,1.8,1.8,0,0,0-.63.6l-.553-.214a2.179,2.179,0,0,1,.62-.7,2.463,2.463,0,0,1,.788-.381,3.024,3.024,0,0,1,.83-.119,2.57,2.57,0,0,1,.627.081,1.5,1.5,0,0,1,.571.28,1.119,1.119,0,0,1,.374.55,1.824,1.824,0,0,1,.035.889l-.609,3.653h-.624l.144-.851h-.039a2.021,2.021,0,0,1-.406.463,2.111,2.111,0,0,1-.613.367A2.137,2.137,0,0,1,267.627,279.539Zm.158-.57a1.843,1.843,0,0,0,.9-.221,1.937,1.937,0,0,0,.665-.585,1.907,1.907,0,0,0,.336-.809l.13-.777a.707.707,0,0,1-.252.119,3.707,3.707,0,0,1-.389.095c-.142.025-.286.048-.431.067l-.378.049a3.941,3.941,0,0,0-.813.175,1.4,1.4,0,0,0-.55.329.949.949,0,0,0-.259.533.791.791,0,0,0,.214.76A1.2,1.2,0,0,0,267.785,278.969Zm7.6-1.607.556-3.323h.624l-.9,5.379h-.624l.147-.893h-.045a2.05,2.05,0,0,1-.714.69,2.02,2.02,0,0,1-1.051.273,1.643,1.643,0,0,1-.879-.224,1.244,1.244,0,0,1-.515-.665,2.171,2.171,0,0,1-.048-1.075l.584-3.484h.624l-.574,3.446a1.253,1.253,0,0,0,.2,1.016,1.078,1.078,0,0,0,.889.381,1.671,1.671,0,0,0,.729-.175,1.8,1.8,0,0,0,.637-.511A1.759,1.759,0,0,0,275.386,277.361Zm1.934,2.055.9-5.379h.606l-.14.826h.045a1.678,1.678,0,0,1,.669-.655,1.925,1.925,0,0,1,.956-.251c.052,0,.109,0,.172,0s.116,0,.158.007l-.108.634c-.028,0-.077-.012-.147-.021a1.732,1.732,0,0,0-.228-.014,1.713,1.713,0,0,0-.777.178,1.693,1.693,0,0,0-.6.487,1.6,1.6,0,0,0-.308.711l-.574,3.474Zm5.013.122a1.869,1.869,0,0,1-.858-.189,1.246,1.246,0,0,1-.553-.553,1.46,1.46,0,0,1-.1-.883,1.513,1.513,0,0,1,.77-1.121,2.722,2.722,0,0,1,.7-.28,6.3,6.3,0,0,1,.862-.154l.777-.1a1.622,1.622,0,0,0,.5-.133.386.386,0,0,0,.214-.294l.021-.127a1.042,1.042,0,0,0-.168-.865,1.057,1.057,0,0,0-.869-.319,1.91,1.91,0,0,0-1.008.259,1.8,1.8,0,0,0-.63.6l-.553-.214a2.169,2.169,0,0,1,.62-.7,2.455,2.455,0,0,1,.788-.381,3.019,3.019,0,0,1,.83-.119,2.558,2.558,0,0,1,.626.081,1.493,1.493,0,0,1,.571.28,1.125,1.125,0,0,1,.375.55,1.834,1.834,0,0,1,.035.889l-.61,3.653h-.623l.143-.851h-.039a2.021,2.021,0,0,1-.406.463,2.1,2.1,0,0,1-.613.367A2.131,2.131,0,0,1,282.333,279.539Zm.158-.57a1.841,1.841,0,0,0,.9-.221,1.95,1.95,0,0,0,1-1.394l.13-.777a.714.714,0,0,1-.252.119,3.708,3.708,0,0,1-.389.095q-.213.038-.431.067l-.379.049a3.932,3.932,0,0,0-.812.175,1.39,1.39,0,0,0-.55.329.945.945,0,0,0-.26.533.793.793,0,0,0,.214.76A1.2,1.2,0,0,0,282.49,278.969Zm5.024-2.914-.557,3.362h-.623l.9-5.379h.606l-.14.844h.056a1.857,1.857,0,0,1,.7-.662,2.087,2.087,0,0,1,1.04-.252,1.715,1.715,0,0,1,.911.228,1.231,1.231,0,0,1,.533.662,2.116,2.116,0,0,1,.056,1.075l-.584,3.484h-.624l.574-3.446a1.293,1.293,0,0,0-.192-1.044,1.088,1.088,0,0,0-.921-.389,1.733,1.733,0,0,0-.788.182,1.663,1.663,0,0,0-.609.525A1.878,1.878,0,0,0,287.514,276.055Zm7.546-2.017-.087.542H292.4l.091-.542Zm-1.555-1.289h.627l-.875,5.264a.946.946,0,0,0,.028.529.516.516,0,0,0,.259.27.952.952,0,0,0,.385.077,1.279,1.279,0,0,0,.21-.015c.061-.012.115-.023.161-.035l.046.564a2.032,2.032,0,0,1-.242.063,1.586,1.586,0,0,1-.336.031,1.36,1.36,0,0,1-.634-.15,1,1,0,0,1-.441-.449,1.2,1.2,0,0,1-.081-.739Z" fill="rgba(0,0,0,0.55)"/>
        <line id="Line_182" data-name="Line 182" x2="338.587" transform="translate(7.396 403.922)" fill="none" stroke="#d9d9d9" stroke-width="0.822"/>
        <path id="Path_532" data-name="Path 532" d="M204.426,346.806a.616.616,0,1,0-1.233,0v1.466a6.78,6.78,0,0,0-6.136,6.136h-1.466a.616.616,0,0,0,0,1.233h1.466a6.78,6.78,0,0,0,6.136,6.136v1.466a.616.616,0,1,0,1.233,0v-1.466a6.78,6.78,0,0,0,6.136-6.136h1.466a.616.616,0,1,0,0-1.233h-1.466a6.78,6.78,0,0,0-6.136-6.136Zm-3.7,8.218a3.082,3.082,0,1,1,3.082,3.082A3.082,3.082,0,0,1,200.728,355.024Z" fill="#fa7b17" fill-rule="evenodd"/>
        <path id="Path_533" data-name="Path 533" d="M313.628,17.555a54.977,54.977,0,0,1,12.115,0,4.861,4.861,0,0,1,4.288,4.242,52.9,52.9,0,0,1,0,12.29,4.86,4.86,0,0,1-4.288,4.242,54.967,54.967,0,0,1-12.115,0,4.86,4.86,0,0,1-4.288-4.242,52.9,52.9,0,0,1,0-12.29A4.861,4.861,0,0,1,313.628,17.555Zm1.464,5.794a.977.977,0,0,1,1.381,0l3.213,3.214,3.213-3.214a.976.976,0,0,1,1.381,1.38l-3.214,3.214,3.214,3.214a.976.976,0,0,1-1.381,1.38l-3.213-3.214-3.213,3.214a.976.976,0,0,1-1.381-1.38l3.214-3.214-3.214-3.214A.977.977,0,0,1,315.092,23.348Z" fill="#d3241d" fill-rule="evenodd"/>
      </g>
    </g>
  </g>
</svg>
