<svg xmlns="http://www.w3.org/2000/svg" xmlns:xlink="http://www.w3.org/1999/xlink" width="411" height="870" viewBox="0 0 411 870">
  <defs>
    <filter id="Rectangle_95" x="0" y="0" width="411" height="870" filterUnits="userSpaceOnUse">
      <feOffset dy="3" input="SourceAlpha"/>
      <feGaussianBlur stdDeviation="3" result="blur"/>
      <feFlood flood-opacity="0.161"/>
      <feComposite operator="in" in2="blur"/>
      <feComposite in="SourceGraphic"/>
    </filter>
    <clipPath id="clip-path">
      <path id="Rectangle_104" data-name="Rectangle 104" d="M0,0H356a0,0,0,0,1,0,0V717a44,44,0,0,1-44,44H44A44,44,0,0,1,0,717V0A0,0,0,0,1,0,0Z" transform="translate(25 67)" fill="#e3dddd"/>
    </clipPath>
  </defs>
  <g id="iphone_14_model" data-name="iphone 14 model" transform="translate(3 6)">
    <g id="Group_51" data-name="Group 51" transform="translate(-1007 -44)">
      <path id="Rectangle_102" data-name="Rectangle 102" d="M0,0H354a0,0,0,0,1,0,0V715a44,44,0,0,1-44,44H44A44,44,0,0,1,0,715V0A0,0,0,0,1,0,0Z" transform="translate(1033 113)" fill="#fff"/>
      <path id="Rectangle_98" data-name="Rectangle 98" d="M4,0H8A1,1,0,0,1,9,1V32a0,0,0,0,1,0,0H4a4,4,0,0,1-4-4V4A4,4,0,0,1,4,0Z" transform="translate(1007 146)"/>
      <path id="Rectangle_99" data-name="Rectangle 99" d="M4,0H8A1,1,0,0,1,9,1V41a0,0,0,0,1,0,0H4a4,4,0,0,1-4-4V4A4,4,0,0,1,4,0Z" transform="translate(1007 213)"/>
      <path id="Rectangle_100" data-name="Rectangle 100" d="M4,0H8A1,1,0,0,1,9,1V43a0,0,0,0,1,0,0H4a4,4,0,0,1-4-4V4A4,4,0,0,1,4,0Z" transform="translate(1007 267)"/>
      <g transform="matrix(1, 0, 0, 1, 1004, 38)" filter="url(#Rectangle_95)">
        <rect id="Rectangle_95-2" data-name="Rectangle 95" width="393" height="852" rx="49" transform="translate(9 6)"/>
      </g>
      <rect id="Rectangle_96" data-name="Rectangle 96" width="356" height="806" rx="44" transform="translate(1032 66)" fill="#fff"/>
      <rect id="Rectangle_97" data-name="Rectangle 97" width="91" height="26" rx="13" transform="translate(1165 79)"/>
      <circle id="Ellipse_28" data-name="Ellipse 28" cx="7.5" cy="7.5" r="7.5" transform="translate(1235 85)" fill="#343434"/>
      <g id="Group_49" data-name="Group 49" transform="translate(249 -70)">
        <g id="Group_48" data-name="Group 48">
          <circle id="Ellipse_31" data-name="Ellipse 31" cx="7.5" cy="7.5" r="7.5" transform="translate(986 155)" fill="#686868" opacity="0.58"/>
          <circle id="Ellipse_29" data-name="Ellipse 29" cx="5.5" cy="5.5" r="5.5" transform="translate(988 157)"/>
        </g>
        <circle id="Ellipse_30" data-name="Ellipse 30" cx="3.5" cy="3.5" r="3.5" transform="translate(990 159)" fill="#686868" opacity="0.58"/>
      </g>
      <g id="e8e6ee9e72e7153be5440514d554cb61" transform="translate(1334.5 78)">
        <path id="Path_100" data-name="Path 100" d="M4.5,9h17a2,2,0,0,1,2,2v7a2,2,0,0,1-2,2H4.5a2,2,0,0,1-2-2V11a2,2,0,0,1,2-2Z"/>
        <path id="Path_101" data-name="Path 101" d="M22.5,12.511a2.478,2.478,0,0,0,0,3.978V12.511Z"/>
        <path id="Path_102" data-name="Path 102" d="M24.5,12.05v4.9a2.5,2.5,0,0,0,0-4.9Z"/>
        <g id="Group_47" data-name="Group 47">
          <path id="Path_103" data-name="Path 103" d="M4.5,9h17a2,2,0,0,1,2,2v7a2,2,0,0,1-2,2H4.5a2,2,0,0,1-2-2V11a2,2,0,0,1,2-2Z"/>
          <path id="Path_104" data-name="Path 104" d="M22.5,12.511a2.478,2.478,0,0,0,0,3.978V12.511Z"/>
          <path id="Path_105" data-name="Path 105" d="M24.5,12.05v4.9a2.5,2.5,0,0,0,0-4.9Z"/>
        </g>
      </g>
      <g id="d743fefe810fdcecaebf8af611593f31" transform="translate(1302.925 78.713)">
        <path id="Path_107" data-name="Path 107" d="M9.52,14.352a5.617,5.617,0,0,1,7.943,0M7.075,11.907a9.075,9.075,0,0,1,12.832,0" fill="none"/>
      </g>
      <g id="Group_50" data-name="Group 50" transform="translate(131 -70)">
        <g id="Group_48-2" data-name="Group 48">
          <path id="Path_112" data-name="Path 112" d="M7.5,0C9.924,8.771,15,3.358,15,7.5a7.5,7.5,0,0,1-15,0C0,3.358,5.076-8.771,7.5,0Z" transform="translate(986 155)" opacity="0.58"/>
          <circle id="Ellipse_29-2" data-name="Ellipse 29" cx="5.5" cy="5.5" r="5.5" transform="translate(988 157)"/>
        </g>
        <circle id="Ellipse_30-2" data-name="Ellipse 30" cx="3.5" cy="3.5" r="3.5" transform="translate(990 159)" fill="#fff" opacity="0.58"/>
      </g>
      <g id="f1cde6ddbaba974b823c5c7b191d9d2c" transform="translate(1279.5 80.5)">
        <path id="Path_108" data-name="Path 108" d="M5.849,15.087V19.2a.587.587,0,0,1-.587.587H4.087A.587.587,0,0,1,3.5,19.2V15.087a.587.587,0,0,1,.587-.587H5.262A.587.587,0,0,1,5.849,15.087Z" transform="translate(0 -3.715)"/>
        <path id="Path_109" data-name="Path 109" d="M11.849,13.087v5.285a.587.587,0,0,1-.587.587H10.087a.587.587,0,0,1-.587-.587V13.087a.587.587,0,0,1,.587-.587h1.174A.587.587,0,0,1,11.849,13.087Z" transform="translate(-2.477 -2.889)"/>
        <path id="Path_110" data-name="Path 110" d="M17.849,10.087v7.047a.587.587,0,0,1-.587.587H16.087a.587.587,0,0,1-.587-.587V10.087a.587.587,0,0,1,.587-.587h1.174A.587.587,0,0,1,17.849,10.087Z" transform="translate(-4.953 -1.651)"/>
        <path id="Path_111" data-name="Path 111" d="M23.849,6.087v9.4a.587.587,0,0,1-.587.587H22.087a.587.587,0,0,1-.587-.587v-9.4a.587.587,0,0,1,.587-.587h1.174A.587.587,0,0,1,23.849,6.087Z" transform="translate(-7.43)"/>
      </g>
      <text id="_5:41" data-name="5:41" transform="translate(1086 98)" font-size="17" font-family="OpenSans-Bold, Open Sans" font-weight="700"><tspan x="-16.979" y="0">5:41</tspan></text>
      <path id="Rectangle_103" data-name="Rectangle 103" d="M1,0H5A4,4,0,0,1,9,4V87a4,4,0,0,1-4,4H0a0,0,0,0,1,0,0V1A1,1,0,0,1,1,0Z" transform="translate(1404 191)"/>
      <g id="d743fefe810fdcecaebf8af611593f31-2" data-name="d743fefe810fdcecaebf8af611593f31" transform="translate(1302.925 78)">
        <path id="Path_113" data-name="Path 113" d="M14.222,19.357l-2.2-2.2a3.108,3.108,0,0,1,4.394,0Z" transform="translate(-0.556 -0.787)"/>
        <path id="Path_114" data-name="Path 114" d="M9.586,14.491a5.77,5.77,0,0,1,8.159,0M7.075,11.979a9.322,9.322,0,0,1,13.181,0" transform="translate(0 0)" fill="none" stroke="#000" stroke-miterlimit="10" stroke-width="2"/>
      </g>
    </g>
    <g id="Mask_Group_9" data-name="Mask Group 9" clip-path="url(#clip-path)">
      <g id="Check_Out_Phase_2_" data-name="Check Out ( Phase 2 )" transform="translate(27.132 67)">
        <rect id="Rectangle_667" data-name="Rectangle 667" width="351.737" height="761" fill="#fff"/>
        <rect id="Rectangle_668" data-name="Rectangle 668" width="75.607" height="32.873" rx="6.164" transform="translate(139.298 383.376)" fill="none" stroke="rgba(112,112,112,0.55)" stroke-width="0.822"/>
        <path id="Path_500" data-name="Path 500" d="M58.178,125.327H56.8a2.872,2.872,0,0,0-1.159-1.8,3.107,3.107,0,0,0-.948-.466,3.785,3.785,0,0,0-1.087-.155,3.47,3.47,0,0,0-1.869.521,3.626,3.626,0,0,0-1.325,1.536,6.6,6.6,0,0,0,0,4.979,3.616,3.616,0,0,0,1.325,1.536,3.463,3.463,0,0,0,1.869.522,3.784,3.784,0,0,0,1.087-.155,3.19,3.19,0,0,0,.948-.46,2.906,2.906,0,0,0,1.159-1.8h1.375a4.582,4.582,0,0,1-.566,1.558,4.25,4.25,0,0,1-1.02,1.169,4.459,4.459,0,0,1-1.37.726,5.092,5.092,0,0,1-1.614.25,4.757,4.757,0,0,1-2.584-.71,4.864,4.864,0,0,1-1.78-2.018,7.756,7.756,0,0,1,0-6.21,4.867,4.867,0,0,1,1.78-2.018,4.758,4.758,0,0,1,2.584-.71,5.091,5.091,0,0,1,1.614.25,4.4,4.4,0,0,1,1.37.731,4.183,4.183,0,0,1,1.02,1.165A4.52,4.52,0,0,1,58.178,125.327Zm5.5,7.985a3.6,3.6,0,0,1-3.377-2.085,5.2,5.2,0,0,1-.482-2.307,5.259,5.259,0,0,1,.482-2.323,3.593,3.593,0,0,1,3.377-2.091,3.592,3.592,0,0,1,3.371,2.091,5.208,5.208,0,0,1,.488,2.323,5.145,5.145,0,0,1-.488,2.307,3.6,3.6,0,0,1-3.371,2.085Zm0-1.175a2.248,2.248,0,0,0,1.442-.45,2.645,2.645,0,0,0,.837-1.181,4.78,4.78,0,0,0,0-3.177,2.68,2.68,0,0,0-.837-1.192,2.514,2.514,0,0,0-2.883,0,2.68,2.68,0,0,0-.837,1.192,4.78,4.78,0,0,0,0,3.177,2.645,2.645,0,0,0,.837,1.181A2.249,2.249,0,0,0,63.683,132.136Zm7.165-4.125v5.123H69.54v-8.517H70.8v1.331h.111a2.433,2.433,0,0,1,.909-1.043,2.826,2.826,0,0,1,1.575-.4,3.1,3.1,0,0,1,1.514.355,2.391,2.391,0,0,1,1.009,1.065,3.951,3.951,0,0,1,.36,1.8v5.412H74.974v-5.323a2.208,2.208,0,0,0-.521-1.564,1.848,1.848,0,0,0-1.431-.565,2.287,2.287,0,0,0-1.12.271,1.947,1.947,0,0,0-.771.793A2.62,2.62,0,0,0,70.849,128.011Zm11.618-3.394v1.109H77.875v-1.109Zm-3.216,8.517v-9.692a2.063,2.063,0,0,1,.344-1.22,2.131,2.131,0,0,1,.893-.732,2.821,2.821,0,0,1,1.159-.244,3.272,3.272,0,0,1,.787.078,3.074,3.074,0,0,1,.455.144l-.377,1.131c-.067-.022-.159-.049-.278-.083a1.691,1.691,0,0,0-.454-.05,1.189,1.189,0,0,0-.937.328,1.427,1.427,0,0,0-.283.959v9.382Zm5.05,0v-8.517h1.309v8.517Zm.666-9.937a.933.933,0,0,1-.66-.261.86.86,0,0,1,0-1.253.933.933,0,0,1,.66-.261.911.911,0,0,1,.654.261.846.846,0,0,1,0,1.253A.911.911,0,0,1,84.966,123.2Zm3.04,9.937v-8.517H89.27V125.9h.089a2.042,2.042,0,0,1,.842-1.026,2.484,2.484,0,0,1,1.375-.394c.1,0,.217,0,.361.006s.253.009.327.016v1.331c-.044-.012-.146-.028-.3-.05a3.048,3.048,0,0,0-.494-.039,2.312,2.312,0,0,0-1.109.261,1.966,1.966,0,0,0-.765.71,1.91,1.91,0,0,0-.277,1.026v5.389Zm5.81,0v-8.517H95.08v1.331h.111a2.136,2.136,0,0,1,.86-1.059,2.574,2.574,0,0,1,1.425-.383,2.436,2.436,0,0,1,1.4.383,2.5,2.5,0,0,1,.882,1.059h.089a2.476,2.476,0,0,1,.981-1.049,2.99,2.99,0,0,1,1.569-.394,2.551,2.551,0,0,1,1.869.716,2.976,2.976,0,0,1,.726,2.212v5.7h-1.308v-5.7a1.614,1.614,0,0,0-.516-1.348,1.91,1.91,0,0,0-1.215-.4,1.783,1.783,0,0,0-1.391.543,1.941,1.941,0,0,0-.494,1.364v5.545H98.739V127.3a1.534,1.534,0,0,0-.471-1.17,1.69,1.69,0,0,0-1.215-.449,1.8,1.8,0,0,0-.954.271,2.057,2.057,0,0,0-.709.754,2.225,2.225,0,0,0-.266,1.1v5.323Zm18.806,3.194a2.864,2.864,0,0,1-.593-.055,1.558,1.558,0,0,1-.361-.1l.333-1.153a2.517,2.517,0,0,0,.842.089,1.013,1.013,0,0,0,.649-.327,2.613,2.613,0,0,0,.527-.937l.244-.666-3.15-8.562h1.42l2.35,6.787h.089l2.351-6.787h1.419l-3.615,9.759a3.7,3.7,0,0,1-.6,1.093,2.271,2.271,0,0,1-.837.648A2.579,2.579,0,0,1,112.621,136.327Zm11-3.016a3.6,3.6,0,0,1-3.377-2.085,5.2,5.2,0,0,1-.482-2.307,5.263,5.263,0,0,1,.482-2.323,3.594,3.594,0,0,1,3.377-2.091A3.594,3.594,0,0,1,127,126.6a5.218,5.218,0,0,1,.487,2.323,5.155,5.155,0,0,1-.487,2.307,3.6,3.6,0,0,1-3.372,2.085Zm0-1.175a2.25,2.25,0,0,0,1.442-.45,2.646,2.646,0,0,0,.837-1.181,4.774,4.774,0,0,0,0-3.177,2.682,2.682,0,0,0-.837-1.192,2.515,2.515,0,0,0-2.884,0,2.683,2.683,0,0,0-.837,1.192,4.788,4.788,0,0,0,0,3.177,2.648,2.648,0,0,0,.837,1.181A2.249,2.249,0,0,0,123.625,132.136Zm11.224-2.484v-5.035h1.309v8.517h-1.309v-1.441h-.089a2.788,2.788,0,0,1-.931,1.1,2.687,2.687,0,0,1-1.6.45,2.851,2.851,0,0,1-1.42-.349,2.449,2.449,0,0,1-.975-1.065,4.04,4.04,0,0,1-.355-1.8v-5.412h1.308v5.324a2.082,2.082,0,0,0,.522,1.486,1.768,1.768,0,0,0,1.341.555,2.232,2.232,0,0,0,.993-.25,2.162,2.162,0,0,0,.854-.765A2.29,2.29,0,0,0,134.849,129.652Zm10.6,3.682a3.464,3.464,0,0,1-1.469-.3,2.414,2.414,0,0,1-1.437-2.313,2.186,2.186,0,0,1,.288-1.187,2.038,2.038,0,0,1,.771-.721,4.046,4.046,0,0,1,1.064-.388q.588-.133,1.181-.21.777-.1,1.259-.15a1.948,1.948,0,0,0,.71-.182.467.467,0,0,0,.227-.444v-.044a1.738,1.738,0,0,0-.449-1.275,1.806,1.806,0,0,0-1.348-.454,2.353,2.353,0,0,0-1.469.41,2.429,2.429,0,0,0-.749.876l-1.242-.444a2.985,2.985,0,0,1,.887-1.208,3.334,3.334,0,0,1,1.22-.611,5.061,5.061,0,0,1,1.308-.178,5.188,5.188,0,0,1,.943.1,3.011,3.011,0,0,1,1.037.394,2.314,2.314,0,0,1,.837.9,3.36,3.36,0,0,1,.333,1.619v5.611h-1.309v-1.153h-.067a2.325,2.325,0,0,1-.444.593,2.559,2.559,0,0,1-.826.537A3.181,3.181,0,0,1,145.453,133.334Zm.2-1.176a2.593,2.593,0,0,0,1.309-.3,2.075,2.075,0,0,0,.809-.787,2,2,0,0,0,.277-1.014v-1.2a.785.785,0,0,1-.366.183,6.284,6.284,0,0,1-.643.139q-.36.055-.7.1t-.549.067a5.038,5.038,0,0,0-.953.216,1.648,1.648,0,0,0-.71.438,1.115,1.115,0,0,0-.266.787,1.174,1.174,0,0,0,.5,1.031A2.263,2.263,0,0,0,145.652,132.158Zm9.309,1.154a3.331,3.331,0,0,1-1.88-.538,3.625,3.625,0,0,1-1.275-1.53,5.534,5.534,0,0,1-.46-2.345,5.472,5.472,0,0,1,.46-2.329,3.576,3.576,0,0,1,1.281-1.524,3.381,3.381,0,0,1,1.9-.538,2.638,2.638,0,0,1,1.314.278,2.258,2.258,0,0,1,.743.62q.261.344.405.566h.111v-4.192h1.308v11.356H157.6v-1.308h-.155q-.144.233-.41.588a2.437,2.437,0,0,1-.76.626A2.718,2.718,0,0,1,154.96,133.311Zm.178-1.175a2.142,2.142,0,0,0,1.331-.411,2.574,2.574,0,0,0,.827-1.147,4.747,4.747,0,0,0,.283-1.7,4.625,4.625,0,0,0-.277-1.669,2.433,2.433,0,0,0-.821-1.12,2.448,2.448,0,0,0-2.728.022,2.56,2.56,0,0,0-.826,1.148,4.569,4.569,0,0,0-.272,1.619,4.7,4.7,0,0,0,.278,1.653,2.7,2.7,0,0,0,.832,1.175A2.167,2.167,0,0,0,155.138,132.136Zm9.521,1.175a3.329,3.329,0,0,1-1.88-.538,3.619,3.619,0,0,1-1.275-1.53,5.534,5.534,0,0,1-.46-2.345,5.472,5.472,0,0,1,.46-2.329,3.58,3.58,0,0,1,1.28-1.524,3.384,3.384,0,0,1,1.9-.538,2.638,2.638,0,0,1,1.314.278,2.258,2.258,0,0,1,.743.62q.261.344.405.566h.111v-4.192h1.308v11.356H167.3v-1.308h-.155q-.144.233-.411.588a2.433,2.433,0,0,1-.759.626A2.718,2.718,0,0,1,164.659,133.311Zm.178-1.175a2.143,2.143,0,0,0,1.331-.411,2.574,2.574,0,0,0,.827-1.147,4.747,4.747,0,0,0,.283-1.7,4.607,4.607,0,0,0-.278-1.669,2.432,2.432,0,0,0-.82-1.12,2.448,2.448,0,0,0-2.728.022,2.56,2.56,0,0,0-.826,1.148,4.551,4.551,0,0,0-.272,1.619,4.7,4.7,0,0,0,.278,1.653,2.694,2.694,0,0,0,.832,1.175A2.165,2.165,0,0,0,164.836,132.136Zm6.3,1v-8.517h1.265V125.9h.089a2.051,2.051,0,0,1,.842-1.026,2.485,2.485,0,0,1,1.376-.394c.1,0,.216,0,.36.006s.253.009.327.016v1.331c-.044-.012-.145-.028-.3-.05a3.045,3.045,0,0,0-.493-.039,2.313,2.313,0,0,0-1.109.261,1.971,1.971,0,0,0-.765.71,1.91,1.91,0,0,0-.277,1.026v5.389Zm9.122.178a4.008,4.008,0,0,1-2.124-.543,3.649,3.649,0,0,1-1.369-1.531,5.213,5.213,0,0,1-.477-2.3,5.293,5.293,0,0,1,.477-2.307,3.753,3.753,0,0,1,1.342-1.563,3.6,3.6,0,0,1,2.018-.566,4.041,4.041,0,0,1,1.314.222,3.269,3.269,0,0,1,1.181.721,3.451,3.451,0,0,1,.848,1.309,5.583,5.583,0,0,1,.316,2.007v.555h-6.565v-1.131h5.234a2.8,2.8,0,0,0-.288-1.287,2.17,2.17,0,0,0-.81-.892,2.267,2.267,0,0,0-1.23-.327,2.349,2.349,0,0,0-1.354.388,2.544,2.544,0,0,0-.87,1,2.933,2.933,0,0,0-.3,1.319v.754a3.651,3.651,0,0,0,.333,1.635,2.394,2.394,0,0,0,.937,1.015,2.746,2.746,0,0,0,1.392.344,2.828,2.828,0,0,0,.931-.145,1.98,1.98,0,0,0,.726-.444,2.019,2.019,0,0,0,.471-.743l1.265.355a2.792,2.792,0,0,1-.671,1.131,3.252,3.252,0,0,1-1.165.754A4.314,4.314,0,0,1,180.262,133.311Zm11.55-6.787-1.176.333a2.177,2.177,0,0,0-.327-.571,1.594,1.594,0,0,0-.576-.466,2.1,2.1,0,0,0-.938-.182,2.239,2.239,0,0,0-1.3.36,1.061,1.061,0,0,0-.516.9.932.932,0,0,0,.355.771,2.972,2.972,0,0,0,1.109.472l1.264.31a3.483,3.483,0,0,1,1.7.849,1.982,1.982,0,0,1,.56,1.458,2.163,2.163,0,0,1-.422,1.309,2.8,2.8,0,0,1-1.165.909,4.25,4.25,0,0,1-1.741.333,3.826,3.826,0,0,1-2.156-.565,2.509,2.509,0,0,1-1.082-1.653l1.242-.311a1.728,1.728,0,0,0,.671,1.031,2.251,2.251,0,0,0,1.3.344,2.433,2.433,0,0,0,1.453-.388,1.144,1.144,0,0,0,.543-.943.989.989,0,0,0-.31-.743,1.983,1.983,0,0,0-.954-.454l-1.419-.333a3.391,3.391,0,0,1-1.719-.86,2.081,2.081,0,0,1-.543-1.469,2.1,2.1,0,0,1,.405-1.275,2.748,2.748,0,0,1,1.114-.87,3.916,3.916,0,0,1,1.607-.316,3.183,3.183,0,0,1,1.986.555A3,3,0,0,1,191.812,126.524Zm8.158,0-1.176.333a2.177,2.177,0,0,0-.327-.571,1.6,1.6,0,0,0-.577-.466,2.1,2.1,0,0,0-.937-.182,2.237,2.237,0,0,0-1.3.36,1.062,1.062,0,0,0-.516.9.932.932,0,0,0,.355.771,2.973,2.973,0,0,0,1.109.472l1.265.31a3.487,3.487,0,0,1,1.7.849,1.985,1.985,0,0,1,.56,1.458,2.163,2.163,0,0,1-.422,1.309,2.8,2.8,0,0,1-1.165.909,4.253,4.253,0,0,1-1.741.333,3.824,3.824,0,0,1-2.156-.565,2.507,2.507,0,0,1-1.082-1.653l1.242-.311a1.724,1.724,0,0,0,.671,1.031,2.249,2.249,0,0,0,1.3.344,2.435,2.435,0,0,0,1.453-.388,1.144,1.144,0,0,0,.543-.943.99.99,0,0,0-.311-.743,1.98,1.98,0,0,0-.953-.454l-1.419-.333a3.385,3.385,0,0,1-1.719-.86,2.081,2.081,0,0,1-.543-1.469,2.109,2.109,0,0,1,.4-1.275,2.759,2.759,0,0,1,1.114-.87,3.92,3.92,0,0,1,1.608-.316,3.183,3.183,0,0,1,1.986.555A3,3,0,0,1,199.97,126.524Z"/>
        <path id="Path_501" data-name="Path 501" d="M29.418,120.1a2.055,2.055,0,0,0-2.952,0l-3.943,4.073a1.65,1.65,0,0,0-.437.85,23.635,23.635,0,0,0-.1,7.909l.145.929a.6.6,0,0,0,.6.51h2.756a.411.411,0,0,0,.411-.411V128.2H30v5.753a.411.411,0,0,0,.411.411h2.755a.6.6,0,0,0,.6-.51l.145-.929a23.635,23.635,0,0,0-.1-7.909,1.65,1.65,0,0,0-.437-.85Z"/>
        <path id="Path_502" data-name="Path 502" d="M332.387,126.079a.617.617,0,0,1-.079.775l-7.555,7.554a.613.613,0,0,1-.279.16l-3.147.822a.616.616,0,0,1-.752-.752l.822-3.146a.643.643,0,0,1,.132-.256l7.583-7.578a.619.619,0,0,1,.436-.181.614.614,0,0,1,.436.181l2.325,2.324A.679.679,0,0,1,332.387,126.079Zm-1.386.339-1.453-1.452-7,7-.514,1.967,1.967-.514Z" fill-rule="evenodd"/>
        <path id="Path_503" data-name="Path 503" d="M330.9,135.731a36.383,36.383,0,0,0,.215-5.785.336.336,0,0,1,.1-.248l.809-.808a.163.163,0,0,1,.278.1,37.745,37.745,0,0,1-.173,6.88,3.608,3.608,0,0,1-3.183,3.149,39.259,39.259,0,0,1-8.642,0,3.608,3.608,0,0,1-3.183-3.149,37.705,37.705,0,0,1,0-8.769,3.608,3.608,0,0,1,3.183-3.149,39.234,39.234,0,0,1,6.565-.175.163.163,0,0,1,.105.279l-.816.816a.33.33,0,0,1-.245.1,37.948,37.948,0,0,0-5.473.21,2.374,2.374,0,0,0-2.095,2.068,36.5,36.5,0,0,0,0,8.481,2.374,2.374,0,0,0,2.095,2.068,38,38,0,0,0,8.369,0A2.374,2.374,0,0,0,330.9,135.731Z"/>
        <path id="Path_504" data-name="Path 504" d="M20.134,353.38a6.985,6.985,0,1,1,6.985,6.985A6.986,6.986,0,0,1,20.134,353.38Zm7.6-4.109a.616.616,0,1,0-1.233,0v4.109a.616.616,0,0,0,.29.523l2.465,1.541a.616.616,0,0,0,.653-1.045l-2.176-1.36Z" fill-rule="evenodd"/>
        <path id="Path_505" data-name="Path 505" d="M50.177,360.776V353.6h4.329v.77h-3.46V356.8h3.236v.771H51.046v2.437h3.516v.771Zm9.592-4.175-.742.21a1.386,1.386,0,0,0-.207-.361,1,1,0,0,0-.364-.294,1.332,1.332,0,0,0-.592-.115,1.411,1.411,0,0,0-.823.228.669.669,0,0,0-.326.57.59.59,0,0,0,.224.487,1.89,1.89,0,0,0,.7.3l.8.2a2.209,2.209,0,0,1,1.075.536,1.255,1.255,0,0,1,.354.921,1.367,1.367,0,0,1-.266.827,1.772,1.772,0,0,1-.735.574,2.693,2.693,0,0,1-1.1.21,2.423,2.423,0,0,1-1.362-.357,1.584,1.584,0,0,1-.683-1.044l.784-.2a1.091,1.091,0,0,0,.424.652,1.423,1.423,0,0,0,.823.217,1.537,1.537,0,0,0,.918-.245.723.723,0,0,0,.343-.6.627.627,0,0,0-.2-.469,1.256,1.256,0,0,0-.6-.287l-.9-.21a2.14,2.14,0,0,1-1.086-.542,1.317,1.317,0,0,1-.343-.929,1.331,1.331,0,0,1,.256-.805,1.741,1.741,0,0,1,.7-.55,2.471,2.471,0,0,1,1.016-.2,2.011,2.011,0,0,1,1.254.35A1.9,1.9,0,0,1,59.769,356.6Zm3.682-1.2v.7H60.663v-.7Zm-1.975-1.289H62.3v5.127a1.071,1.071,0,0,0,.1.525.525.525,0,0,0,.266.231,1.057,1.057,0,0,0,.347.057,1.5,1.5,0,0,0,.224-.014l.14-.029.168.743a1.807,1.807,0,0,1-.235.063,1.752,1.752,0,0,1-.382.034,1.666,1.666,0,0,1-.686-.15,1.363,1.363,0,0,1-.553-.459,1.319,1.319,0,0,1-.217-.777Zm3.218,6.668V355.4h.826v5.379Zm.42-6.275a.586.586,0,0,1-.417-.165.542.542,0,0,1,0-.791.589.589,0,0,1,.417-.164.577.577,0,0,1,.413.164.535.535,0,0,1,0,.791A.574.574,0,0,1,65.114,354.5Zm1.92,6.275V355.4h.8v.84h.07a1.356,1.356,0,0,1,.543-.669,1.626,1.626,0,0,1,.9-.242,1.536,1.536,0,0,1,.886.242,1.586,1.586,0,0,1,.557.669h.056a1.567,1.567,0,0,1,.62-.662,1.885,1.885,0,0,1,.991-.249,1.613,1.613,0,0,1,1.18.452,1.879,1.879,0,0,1,.459,1.4v3.6h-.826v-3.6a1.017,1.017,0,0,0-.326-.851,1.2,1.2,0,0,0-.767-.256,1.128,1.128,0,0,0-.879.343,1.226,1.226,0,0,0-.312.862v3.5h-.84v-3.684a.967.967,0,0,0-.3-.739,1.067,1.067,0,0,0-.767-.284,1.128,1.128,0,0,0-.6.172,1.294,1.294,0,0,0-.448.476,1.406,1.406,0,0,0-.168.7v3.362Zm10.154.126a2.188,2.188,0,0,1-.928-.192,1.526,1.526,0,0,1-.907-1.46,1.381,1.381,0,0,1,.182-.749,1.287,1.287,0,0,1,.487-.455,2.562,2.562,0,0,1,.672-.245q.371-.084.746-.133c.327-.042.592-.074.8-.095a1.221,1.221,0,0,0,.448-.116.294.294,0,0,0,.144-.28v-.028a1.1,1.1,0,0,0-.284-.805,1.14,1.14,0,0,0-.851-.287,1.487,1.487,0,0,0-.928.259,1.535,1.535,0,0,0-.473.553l-.784-.28a1.89,1.89,0,0,1,.56-.763,2.1,2.1,0,0,1,.77-.385,3.2,3.2,0,0,1,.826-.113,3.285,3.285,0,0,1,.6.063,1.891,1.891,0,0,1,.655.249,1.461,1.461,0,0,1,.529.57,2.126,2.126,0,0,1,.21,1.023v3.544h-.826v-.728h-.042a1.457,1.457,0,0,1-.28.375,1.619,1.619,0,0,1-.522.339A2.006,2.006,0,0,1,77.189,360.9Zm.126-.742a1.642,1.642,0,0,0,.826-.192,1.316,1.316,0,0,0,.511-.5,1.272,1.272,0,0,0,.175-.641v-.757a.5.5,0,0,1-.231.116,3.812,3.812,0,0,1-.406.087c-.152.024-.3.044-.445.063l-.347.042a3.191,3.191,0,0,0-.6.136,1.036,1.036,0,0,0-.448.277.7.7,0,0,0-.168.5.741.741,0,0,0,.319.652A1.431,1.431,0,0,0,77.315,360.16ZM83.5,355.4v.7H80.714v-.7Zm-1.975-1.289h.826v5.127a1.065,1.065,0,0,0,.1.525.524.524,0,0,0,.266.231,1.054,1.054,0,0,0,.346.057,1.5,1.5,0,0,0,.224-.014l.141-.029.168.743a1.8,1.8,0,0,1-.234.063,1.753,1.753,0,0,1-.382.034,1.666,1.666,0,0,1-.686-.15,1.362,1.362,0,0,1-.553-.459,1.318,1.318,0,0,1-.217-.777Zm5.416,6.78a2.531,2.531,0,0,1-1.341-.343,2.3,2.3,0,0,1-.865-.966,3.3,3.3,0,0,1-.3-1.451,3.343,3.343,0,0,1,.3-1.456,2.374,2.374,0,0,1,.847-.988,2.274,2.274,0,0,1,1.275-.357,2.541,2.541,0,0,1,.83.141,2.045,2.045,0,0,1,.746.455,2.179,2.179,0,0,1,.536.826,3.524,3.524,0,0,1,.2,1.268v.35H85.023v-.714h3.306a1.774,1.774,0,0,0-.182-.813,1.375,1.375,0,0,0-.512-.564,1.435,1.435,0,0,0-.777-.206,1.48,1.48,0,0,0-.854.245,1.611,1.611,0,0,0-.55.63,1.842,1.842,0,0,0-.193.833v.477a2.3,2.3,0,0,0,.21,1.033,1.513,1.513,0,0,0,.592.641,1.736,1.736,0,0,0,.879.217,1.786,1.786,0,0,0,.588-.091,1.206,1.206,0,0,0,.756-.75l.8.224a1.784,1.784,0,0,1-.424.714,2.064,2.064,0,0,1-.736.477A2.732,2.732,0,0,1,86.943,360.888Zm5.515,0a2.1,2.1,0,0,1-1.187-.339,2.283,2.283,0,0,1-.805-.966,3.492,3.492,0,0,1-.291-1.482,3.445,3.445,0,0,1,.291-1.47,2.254,2.254,0,0,1,.809-.963,2.131,2.131,0,0,1,1.2-.34,1.666,1.666,0,0,1,.83.175,1.431,1.431,0,0,1,.469.393q.165.217.256.357H94.1V353.6h.826v7.172h-.8v-.827h-.1c-.06.1-.147.222-.259.371a1.534,1.534,0,0,1-.48.4A1.723,1.723,0,0,1,92.458,360.888Zm.113-.742a1.354,1.354,0,0,0,.84-.259,1.62,1.62,0,0,0,.522-.725,2.991,2.991,0,0,0,.179-1.076,2.906,2.906,0,0,0-.175-1.054,1.532,1.532,0,0,0-.519-.708,1.374,1.374,0,0,0-.847-.256,1.393,1.393,0,0,0-.876.27,1.616,1.616,0,0,0-.522.725A2.884,2.884,0,0,0,91,358.087a2.968,2.968,0,0,0,.175,1.044,1.713,1.713,0,0,0,.525.743A1.371,1.371,0,0,0,92.571,360.146Zm7.161.63h-.911l2.634-7.172h.9l2.633,7.172h-.911l-2.143-6.038h-.056Zm.336-2.8h3.67v.77h-3.67Zm5.922,2.8V355.4h.8v.812h.056a1.289,1.289,0,0,1,.533-.648,1.565,1.565,0,0,1,.869-.249c.06,0,.136,0,.228,0s.159.006.206.01v.841c-.028-.007-.092-.017-.192-.031a1.892,1.892,0,0,0-.312-.025,1.468,1.468,0,0,0-.7.164,1.246,1.246,0,0,0-.483.449,1.206,1.206,0,0,0-.175.648v3.4Zm3.669,0V355.4h.8v.812h.056a1.289,1.289,0,0,1,.533-.648,1.562,1.562,0,0,1,.868-.249c.061,0,.137,0,.228,0s.16.006.207.01v.841c-.028-.007-.092-.017-.193-.031a1.875,1.875,0,0,0-.311-.025,1.468,1.468,0,0,0-.7.164,1.246,1.246,0,0,0-.483.449,1.206,1.206,0,0,0-.175.648v3.4Zm3.669,0V355.4h.827v5.379Zm.42-6.275a.586.586,0,0,1-.417-.165.542.542,0,0,1,0-.791.589.589,0,0,1,.417-.164.577.577,0,0,1,.413.164.535.535,0,0,1,0,.791A.574.574,0,0,1,113.749,354.5Zm6.319.9-1.99,5.379h-.84l-1.99-5.379h.9l1.485,4.286h.056l1.485-4.286Zm2.51,5.5a2.187,2.187,0,0,1-.928-.192,1.528,1.528,0,0,1-.907-1.46,1.379,1.379,0,0,1,.182-.749,1.289,1.289,0,0,1,.487-.455,2.563,2.563,0,0,1,.672-.245q.371-.084.746-.133c.327-.042.592-.074.795-.095a1.226,1.226,0,0,0,.449-.116.3.3,0,0,0,.144-.28v-.028a1.1,1.1,0,0,0-.284-.805,1.138,1.138,0,0,0-.851-.287,1.486,1.486,0,0,0-.928.259,1.536,1.536,0,0,0-.473.553l-.784-.28a1.88,1.88,0,0,1,.56-.763,2.1,2.1,0,0,1,.77-.385,3.2,3.2,0,0,1,.827-.113,3.285,3.285,0,0,1,.595.063,1.891,1.891,0,0,1,.655.249,1.463,1.463,0,0,1,.529.57,2.131,2.131,0,0,1,.21,1.023v3.544h-.826v-.728h-.043a1.437,1.437,0,0,1-.28.375,1.617,1.617,0,0,1-.521.339A2.01,2.01,0,0,1,122.578,360.9Zm.127-.742a1.64,1.64,0,0,0,.826-.192,1.312,1.312,0,0,0,.511-.5,1.273,1.273,0,0,0,.176-.641v-.757a.5.5,0,0,1-.232.116,3.824,3.824,0,0,1-.406.087c-.152.024-.3.044-.445.063l-.347.042a3.193,3.193,0,0,0-.6.136,1.039,1.039,0,0,0-.449.277.706.706,0,0,0-.168.5.74.74,0,0,0,.319.652A1.429,1.429,0,0,0,122.7,360.16Zm4.674-6.556v7.172h-.826V353.6Zm6.627,1.793v.7h-2.788v-.7Zm-1.975-1.289h.826v5.127a1.065,1.065,0,0,0,.1.525.524.524,0,0,0,.266.231,1.055,1.055,0,0,0,.347.057,1.5,1.5,0,0,0,.224-.014l.141-.029.168.743a1.8,1.8,0,0,1-.234.063,1.753,1.753,0,0,1-.382.034,1.666,1.666,0,0,1-.686-.15,1.361,1.361,0,0,1-.553-.459,1.319,1.319,0,0,1-.217-.777Zm3.218,6.668V355.4h.826v5.379Zm.42-6.275a.586.586,0,0,1-.417-.165.542.542,0,0,1,0-.791.589.589,0,0,1,.417-.164.577.577,0,0,1,.413.164.535.535,0,0,1,0,.791A.575.575,0,0,1,135.668,354.5Zm1.92,6.275V355.4h.8v.84h.07a1.36,1.36,0,0,1,.543-.669,1.625,1.625,0,0,1,.9-.242,1.535,1.535,0,0,1,.886.242,1.586,1.586,0,0,1,.557.669h.056a1.565,1.565,0,0,1,.62-.662,1.884,1.884,0,0,1,.991-.249,1.613,1.613,0,0,1,1.18.452,1.879,1.879,0,0,1,.459,1.4v3.6h-.826v-3.6a1.015,1.015,0,0,0-.326-.851,1.2,1.2,0,0,0-.767-.256,1.126,1.126,0,0,0-.879.343,1.226,1.226,0,0,0-.312.862v3.5h-.84v-3.684a.966.966,0,0,0-.3-.739,1.065,1.065,0,0,0-.767-.284,1.128,1.128,0,0,0-.6.172,1.3,1.3,0,0,0-.448.476,1.4,1.4,0,0,0-.168.7v3.362Zm10.827.112a2.535,2.535,0,0,1-1.341-.343,2.307,2.307,0,0,1-.865-.966,3.291,3.291,0,0,1-.3-1.451,3.332,3.332,0,0,1,.3-1.456,2.374,2.374,0,0,1,.847-.988,2.274,2.274,0,0,1,1.275-.357,2.541,2.541,0,0,1,.83.141,2.045,2.045,0,0,1,.746.455,2.179,2.179,0,0,1,.536.826,3.524,3.524,0,0,1,.2,1.268v.35H146.5v-.714H149.8a1.763,1.763,0,0,0-.182-.813,1.373,1.373,0,0,0-.511-.564,1.435,1.435,0,0,0-.777-.206,1.485,1.485,0,0,0-.855.245,1.624,1.624,0,0,0-.55.63,1.852,1.852,0,0,0-.192.833v.477a2.3,2.3,0,0,0,.21,1.033,1.513,1.513,0,0,0,.592.641,1.735,1.735,0,0,0,.879.217,1.783,1.783,0,0,0,.588-.091,1.2,1.2,0,0,0,.757-.75l.8.224a1.773,1.773,0,0,1-.423.714,2.071,2.071,0,0,1-.736.477A2.734,2.734,0,0,1,148.415,360.888Z"/>
        <path id="Path_506" data-name="Path 506" d="M23.945,278.6H21.312v-7.77H24a4,4,0,0,1,1.988.467,3.123,3.123,0,0,1,1.282,1.332,5.05,5.05,0,0,1,0,4.166,3.121,3.121,0,0,1-1.294,1.339A4.118,4.118,0,0,1,23.945,278.6Zm-1.225-1.218h1.157a2.8,2.8,0,0,0,1.354-.3,1.893,1.893,0,0,0,.816-.892,3.566,3.566,0,0,0,.273-1.487,3.512,3.512,0,0,0-.273-1.479,1.864,1.864,0,0,0-.808-.884,2.683,2.683,0,0,0-1.32-.3h-1.2Zm8.853,1.331a3,3,0,0,1-1.514-.364,2.463,2.463,0,0,1-.975-1.04,3.843,3.843,0,0,1,0-3.167,2.584,2.584,0,0,1,.964-1.063,2.7,2.7,0,0,1,1.453-.383,2.953,2.953,0,0,1,1.017.174,2.306,2.306,0,0,1,.85.531,2.493,2.493,0,0,1,.584.919,3.681,3.681,0,0,1,.212,1.32v.422H29.387v-.926h3.46a1.476,1.476,0,0,0-.171-.7,1.239,1.239,0,0,0-.467-.489,1.309,1.309,0,0,0-.69-.178,1.339,1.339,0,0,0-.74.2,1.408,1.408,0,0,0-.5.531,1.531,1.531,0,0,0-.178.717v.808a1.9,1.9,0,0,0,.186.873,1.328,1.328,0,0,0,.52.554,1.554,1.554,0,0,0,.782.19,1.654,1.654,0,0,0,.542-.084,1.211,1.211,0,0,0,.421-.254,1.062,1.062,0,0,0,.269-.413l1.282.144a2,2,0,0,1-.463.888,2.252,2.252,0,0,1-.865.584A3.318,3.318,0,0,1,31.572,278.708Zm5.126-7.884v7.77H35.325v-7.77Zm1.412,7.77v-5.827h1.373V278.6Zm.69-6.654a.8.8,0,0,1-.562-.216A.7.7,0,0,1,38,271.2a.691.691,0,0,1,.235-.528.8.8,0,0,1,.562-.22.787.787,0,0,1,.561.22.691.691,0,0,1,.235.528.7.7,0,0,1-.235.528A.794.794,0,0,1,38.8,271.941Zm7.3.827L44.027,278.6H42.509l-2.075-5.827H41.9l1.339,4.328H43.3l1.343-4.328Zm3.332,5.941a3,3,0,0,1-1.514-.364,2.462,2.462,0,0,1-.975-1.04,3.843,3.843,0,0,1,0-3.167,2.584,2.584,0,0,1,.964-1.063,2.7,2.7,0,0,1,1.453-.383,2.953,2.953,0,0,1,1.017.174,2.308,2.308,0,0,1,.85.531,2.494,2.494,0,0,1,.584.919,3.683,3.683,0,0,1,.212,1.32v.422H47.249v-.926h3.46a1.477,1.477,0,0,0-.171-.7,1.239,1.239,0,0,0-.467-.489,1.309,1.309,0,0,0-.69-.178,1.339,1.339,0,0,0-.74.2,1.408,1.408,0,0,0-.5.531,1.531,1.531,0,0,0-.178.717v.808a1.9,1.9,0,0,0,.186.873,1.328,1.328,0,0,0,.52.554,1.554,1.554,0,0,0,.781.19,1.655,1.655,0,0,0,.543-.084,1.21,1.21,0,0,0,.421-.254,1.062,1.062,0,0,0,.269-.413l1.282.144a2,2,0,0,1-.463.888,2.252,2.252,0,0,1-.865.584A3.318,3.318,0,0,1,49.434,278.708Zm3.753-.113v-5.827h1.332v.971h.061a1.451,1.451,0,0,1,.546-.777,1.5,1.5,0,0,1,.892-.277c.076,0,.161,0,.254.011a1.732,1.732,0,0,1,.239.027v1.263a1.452,1.452,0,0,0-.277-.053,2.616,2.616,0,0,0-.36-.026,1.384,1.384,0,0,0-.675.164,1.191,1.191,0,0,0-.467.444,1.248,1.248,0,0,0-.171.656V278.6Zm5.267,2.185a2.778,2.778,0,0,1-.52-.045,1.943,1.943,0,0,1-.376-.1l.319-1.07a1.827,1.827,0,0,0,.535.083.656.656,0,0,0,.414-.148,1.047,1.047,0,0,0,.307-.47l.118-.315-2.113-5.949h1.457l1.343,4.4H60l1.347-4.4h1.461L60.472,279.3a2.624,2.624,0,0,1-.433.793,1.759,1.759,0,0,1-.66.508A2.194,2.194,0,0,1,58.454,280.78ZM66.125,272v-1.18h6.2V272h-2.4v6.59h-1.4V272Zm7.519,8.775a2.778,2.778,0,0,1-.52-.045,1.944,1.944,0,0,1-.376-.1l.319-1.07a1.826,1.826,0,0,0,.535.083.656.656,0,0,0,.414-.148,1.047,1.047,0,0,0,.307-.47l.118-.315-2.113-5.949h1.457l1.343,4.4h.061l1.347-4.4H78L75.663,279.3a2.626,2.626,0,0,1-.433.793,1.759,1.759,0,0,1-.66.508A2.193,2.193,0,0,1,73.645,280.78Zm5.3,0v-8.013H80.3v.964h.08a2.509,2.509,0,0,1,.3-.452,1.594,1.594,0,0,1,.523-.413,1.8,1.8,0,0,1,.842-.174,2.221,2.221,0,0,1,1.218.345,2.334,2.334,0,0,1,.865,1.012,3.747,3.747,0,0,1,.323,1.64,3.817,3.817,0,0,1-.316,1.631,2.392,2.392,0,0,1-.857,1.024,2.2,2.2,0,0,1-1.229.353,1.838,1.838,0,0,1-.831-.167,1.7,1.7,0,0,1-.531-.4,2.615,2.615,0,0,1-.307-.451H80.32v3.1Zm1.347-5.1a2.808,2.808,0,0,0,.159.989,1.509,1.509,0,0,0,.467.664,1.3,1.3,0,0,0,1.506-.007,1.5,1.5,0,0,0,.463-.671,3.064,3.064,0,0,0,0-1.939,1.445,1.445,0,0,0-.463-.66,1.337,1.337,0,0,0-1.514-.008,1.423,1.423,0,0,0-.467.649A2.809,2.809,0,0,0,80.293,275.682Zm7.91,3.027a3,3,0,0,1-1.514-.364,2.462,2.462,0,0,1-.975-1.04,3.839,3.839,0,0,1,0-3.167,2.581,2.581,0,0,1,.963-1.063,2.7,2.7,0,0,1,1.453-.383,2.949,2.949,0,0,1,1.017.174A2.312,2.312,0,0,1,90,273.4a2.5,2.5,0,0,1,.583.919,3.67,3.67,0,0,1,.213,1.32v.422H86.018v-.926h3.46a1.47,1.47,0,0,0-.171-.7,1.235,1.235,0,0,0-.466-.489,1.314,1.314,0,0,0-.691-.178,1.34,1.34,0,0,0-.74.2,1.415,1.415,0,0,0-.5.531,1.536,1.536,0,0,0-.178.717v.808a1.9,1.9,0,0,0,.187.873,1.322,1.322,0,0,0,.519.554,1.555,1.555,0,0,0,.782.19,1.654,1.654,0,0,0,.542-.084,1.215,1.215,0,0,0,.422-.254,1.059,1.059,0,0,0,.269-.413l1.283.144a2,2,0,0,1-.463.888,2.252,2.252,0,0,1-.865.584A3.318,3.318,0,0,1,88.2,278.708Z"/>
        <line id="Line_180" data-name="Line 180" x2="338.587" transform="translate(13.149 251.886)" fill="none" stroke="#d9d9d9" stroke-width="0.822"/>
        <line id="Line_181" data-name="Line 181" x2="338.587" transform="translate(13.149 437.616)" fill="none" stroke="#d9d9d9" stroke-width="0.822"/>
        <circle id="Ellipse_152" data-name="Ellipse 152" cx="5.753" cy="5.753" r="5.753" transform="translate(19.724 294.21)" fill="#d9d9d9"/>
        <circle id="Ellipse_153" data-name="Ellipse 153" cx="5.342" cy="5.342" r="5.342" transform="translate(20.545 314.755)" fill="#fa7b17"/>
        <path id="Path_507" data-name="Path 507" d="M40.316,306.537v-7.172h2.423a2.772,2.772,0,0,1,1.38.3,1.912,1.912,0,0,1,.8.816,2.683,2.683,0,0,1,0,2.3,1.924,1.924,0,0,1-.791.827,2.756,2.756,0,0,1-1.373.3H41.016v-.77h1.709a1.867,1.867,0,0,0,.928-.2,1.192,1.192,0,0,0,.508-.539,1.8,1.8,0,0,0,.161-.774,1.774,1.774,0,0,0-.161-.77,1.147,1.147,0,0,0-.511-.533,1.934,1.934,0,0,0-.939-.2H41.184v6.4Zm6.148,0v-5.379h.826v5.379Zm.42-6.275a.587.587,0,0,1-.417-.165.542.542,0,0,1,0-.791.589.589,0,0,1,.417-.164.577.577,0,0,1,.413.164.535.535,0,0,1,0,.791A.574.574,0,0,1,46.884,300.261Zm4.105,6.387a2.249,2.249,0,0,1-2.143-1.341,3.629,3.629,0,0,1,.007-2.879,2.381,2.381,0,0,1,.847-.984,2.275,2.275,0,0,1,1.275-.357A2.418,2.418,0,0,1,52,301.3a1.953,1.953,0,0,1,.746.588,1.837,1.837,0,0,1,.361.883h-.826a1.28,1.28,0,0,0-.42-.652,1.257,1.257,0,0,0-.868-.287,1.45,1.45,0,0,0-.848.252,1.639,1.639,0,0,0-.564.7,2.608,2.608,0,0,0-.2,1.061,2.764,2.764,0,0,0,.2,1.086,1.665,1.665,0,0,0,.56.718,1.452,1.452,0,0,0,.855.256,1.474,1.474,0,0,0,.585-.112,1.21,1.21,0,0,0,.445-.322,1.236,1.236,0,0,0,.259-.5H53.1a1.918,1.918,0,0,1-.347.858,1.938,1.938,0,0,1-.725.6A2.336,2.336,0,0,1,50.989,306.648Zm4.094-2.073-.014-1.023h.168l2.353-2.395h1.023l-2.508,2.535h-.07Zm-.77,1.961v-7.172h.826v7.172Zm3.418,0-2.1-2.662.588-.574,2.563,3.236Zm8.11-2.2v-3.18h.826v5.379H65.84v-.911h-.056a1.767,1.767,0,0,1-.588.7,1.7,1.7,0,0,1-1.009.284,1.8,1.8,0,0,1-.9-.22,1.547,1.547,0,0,1-.616-.672,2.558,2.558,0,0,1-.224-1.138v-3.418h.826v3.361a1.317,1.317,0,0,0,.329.939,1.118,1.118,0,0,0,.848.35,1.406,1.406,0,0,0,.627-.158,1.368,1.368,0,0,0,.539-.483A1.449,1.449,0,0,0,65.84,304.338Zm2.34,4.217v-7.4h.8v.854h.1q.091-.139.252-.357a1.487,1.487,0,0,1,.469-.393,1.689,1.689,0,0,1,.833-.175,2.133,2.133,0,0,1,1.2.34,2.256,2.256,0,0,1,.809.963,3.448,3.448,0,0,1,.291,1.47,3.494,3.494,0,0,1-.291,1.482,2.29,2.29,0,0,1-.805.966,2.1,2.1,0,0,1-1.187.339,1.724,1.724,0,0,1-.83-.171,1.538,1.538,0,0,1-.48-.4c-.112-.15-.2-.273-.259-.371h-.07v2.844Zm.813-4.707a2.993,2.993,0,0,0,.179,1.076,1.623,1.623,0,0,0,.522.725,1.5,1.5,0,0,0,1.706-.014,1.673,1.673,0,0,0,.525-.743,2.915,2.915,0,0,0,.179-1.044,2.829,2.829,0,0,0-.175-1.022,1.581,1.581,0,0,0-.522-.725,1.539,1.539,0,0,0-1.719-.014,1.53,1.53,0,0,0-.518.708A2.906,2.906,0,0,0,68.993,303.847Z"/>
        <path id="Path_508" data-name="Path 508" d="M40.388,327.9v-7.77h.941v3.461h4.143v-3.461h.941v7.77h-.941v-3.475H41.329V327.9Zm10.154.122a2.463,2.463,0,0,1-2.31-1.427,3.555,3.555,0,0,1-.33-1.579,3.6,3.6,0,0,1,.33-1.589,2.626,2.626,0,0,1,3.691-1.054,2.507,2.507,0,0,1,.926,1.054,3.564,3.564,0,0,1,.334,1.589,3.522,3.522,0,0,1-.334,1.579,2.462,2.462,0,0,1-2.307,1.427Zm0-.8a1.539,1.539,0,0,0,.986-.307,1.811,1.811,0,0,0,.573-.808,3.27,3.27,0,0,0,0-2.174,1.832,1.832,0,0,0-.573-.816,1.718,1.718,0,0,0-1.973,0,1.832,1.832,0,0,0-.573.816,3.27,3.27,0,0,0,0,2.174,1.811,1.811,0,0,0,.573.808A1.539,1.539,0,0,0,50.542,327.221Zm4.007.683v-5.827h.865v.911h.076a1.466,1.466,0,0,1,.588-.725,1.762,1.762,0,0,1,.975-.261,1.665,1.665,0,0,1,.96.261,1.713,1.713,0,0,1,.6.725h.061a1.7,1.7,0,0,1,.672-.717,2.041,2.041,0,0,1,1.074-.27,1.745,1.745,0,0,1,1.279.489A2.036,2.036,0,0,1,62.2,324v3.9h-.9V324a1.1,1.1,0,0,0-.353-.922,1.309,1.309,0,0,0-.831-.277,1.22,1.22,0,0,0-.952.372,1.327,1.327,0,0,0-.338.934V327.9h-.91v-3.992a1.049,1.049,0,0,0-.322-.8,1.156,1.156,0,0,0-.831-.307,1.227,1.227,0,0,0-.653.187,1.4,1.4,0,0,0-.486.516,1.519,1.519,0,0,0-.182.754V327.9Zm11.729.122a2.738,2.738,0,0,1-1.453-.372,2.49,2.49,0,0,1-.937-1.047,3.571,3.571,0,0,1-.326-1.57,3.624,3.624,0,0,1,.326-1.579,2.568,2.568,0,0,1,.918-1.069A2.466,2.466,0,0,1,66.187,322a2.764,2.764,0,0,1,.9.151,2.24,2.24,0,0,1,.808.494,2.354,2.354,0,0,1,.58.895,3.817,3.817,0,0,1,.216,1.373v.38H64.2v-.774h3.581a1.91,1.91,0,0,0-.2-.88,1.482,1.482,0,0,0-.554-.611,1.548,1.548,0,0,0-.842-.224,1.6,1.6,0,0,0-.926.266,1.742,1.742,0,0,0-.6.683,2,2,0,0,0-.209.9v.516a2.5,2.5,0,0,0,.228,1.119,1.644,1.644,0,0,0,.641.694,1.877,1.877,0,0,0,.952.235,1.938,1.938,0,0,0,.637-.1,1.364,1.364,0,0,0,.5-.3,1.387,1.387,0,0,0,.322-.509l.865.243a1.917,1.917,0,0,1-.459.773,2.237,2.237,0,0,1-.8.516A2.949,2.949,0,0,1,66.278,328.026Zm9.3-.122h-2.4v-7.77h2.5a3.8,3.8,0,0,1,1.935.467,3.058,3.058,0,0,1,1.233,1.332A4.619,4.619,0,0,1,79.28,324a4.68,4.68,0,0,1-.432,2.091,3.078,3.078,0,0,1-1.26,1.343A4.03,4.03,0,0,1,75.577,327.9Zm-1.457-.835h1.4a3.113,3.113,0,0,0,1.6-.371,2.293,2.293,0,0,0,.945-1.059,4.438,4.438,0,0,0,0-3.255,2.265,2.265,0,0,0-.918-1.047,2.9,2.9,0,0,0-1.521-.368h-1.5Zm9.06.957a2.738,2.738,0,0,1-1.453-.372,2.491,2.491,0,0,1-.937-1.047,3.571,3.571,0,0,1-.326-1.57,3.624,3.624,0,0,1,.326-1.579,2.568,2.568,0,0,1,.918-1.069A2.465,2.465,0,0,1,83.089,322a2.765,2.765,0,0,1,.9.151,2.243,2.243,0,0,1,.808.494,2.355,2.355,0,0,1,.58.895,3.807,3.807,0,0,1,.216,1.373v.38H81.1v-.774h3.581a1.911,1.911,0,0,0-.2-.88,1.479,1.479,0,0,0-.554-.611,1.548,1.548,0,0,0-.842-.224,1.6,1.6,0,0,0-.925.266,1.743,1.743,0,0,0-.6.683,2,2,0,0,0-.209.9v.516a2.5,2.5,0,0,0,.228,1.119,1.643,1.643,0,0,0,.642.694,1.874,1.874,0,0,0,.952.235,1.938,1.938,0,0,0,.638-.1,1.369,1.369,0,0,0,.5-.3,1.386,1.386,0,0,0,.322-.509l.865.243a1.916,1.916,0,0,1-.459.773,2.244,2.244,0,0,1-.8.516A2.954,2.954,0,0,1,83.18,328.026Zm4.67-7.892v7.77h-.895v-7.77Zm1.64,7.77v-5.827h.895V327.9Zm.455-6.8a.636.636,0,0,1-.452-.178.587.587,0,0,1,0-.857.636.636,0,0,1,.452-.178.62.62,0,0,1,.447.178.579.579,0,0,1,0,.857A.62.62,0,0,1,89.946,321.105Zm6.845.971L94.636,327.9h-.911l-2.155-5.827h.971l1.609,4.644h.061l1.608-4.644Zm3.416,5.949a2.737,2.737,0,0,1-1.453-.372,2.488,2.488,0,0,1-.937-1.047,3.568,3.568,0,0,1-.326-1.57,3.62,3.62,0,0,1,.326-1.579,2.563,2.563,0,0,1,.918-1.069,2.465,2.465,0,0,1,1.381-.387,2.76,2.76,0,0,1,.9.151,2.246,2.246,0,0,1,.809.494,2.355,2.355,0,0,1,.58.895,3.825,3.825,0,0,1,.216,1.373v.38H98.128v-.774h3.581a1.911,1.911,0,0,0-.2-.88,1.485,1.485,0,0,0-.554-.611,1.548,1.548,0,0,0-.842-.224,1.6,1.6,0,0,0-.925.266,1.741,1.741,0,0,0-.6.683,2,2,0,0,0-.209.9v.516a2.5,2.5,0,0,0,.228,1.119,1.647,1.647,0,0,0,.641.694,1.88,1.88,0,0,0,.952.235,1.942,1.942,0,0,0,.638-.1,1.359,1.359,0,0,0,.5-.3,1.388,1.388,0,0,0,.323-.509l.865.243a1.914,1.914,0,0,1-.459.773,2.24,2.24,0,0,1-.8.516A2.947,2.947,0,0,1,100.207,328.026Zm3.775-.122v-5.827h.865v.88h.061a1.4,1.4,0,0,1,.577-.7,1.7,1.7,0,0,1,.94-.27c.066,0,.148,0,.247,0s.173.007.224.012v.911c-.03-.008-.1-.019-.209-.035a2.1,2.1,0,0,0-.338-.026,1.581,1.581,0,0,0-.759.178,1.337,1.337,0,0,0-.523.486,1.307,1.307,0,0,0-.19.7V327.9Zm4.73,2.185a1.949,1.949,0,0,1-.406-.038,1.061,1.061,0,0,1-.247-.068l.228-.789a1.726,1.726,0,0,0,.577.06.689.689,0,0,0,.444-.224,1.779,1.779,0,0,0,.36-.641l.167-.455-2.155-5.858h.971l1.608,4.644h.061l1.609-4.644h.971l-2.473,6.677a2.554,2.554,0,0,1-.414.748,1.549,1.549,0,0,1-.573.444A1.763,1.763,0,0,1,108.711,330.089Z"/>
        <path id="Path_509" data-name="Path 509" d="M81.941,177.512v-1.093l2.553-2.364q.325-.316.547-.567a2.163,2.163,0,0,0,.339-.494,1.224,1.224,0,0,0,.116-.529,1,1,0,0,0-.144-.542.95.95,0,0,0-.392-.354,1.234,1.234,0,0,0-.564-.126,1.186,1.186,0,0,0-.574.133.914.914,0,0,0-.378.381,1.239,1.239,0,0,0-.133.593h-1.44a2.29,2.29,0,0,1,.319-1.223,2.127,2.127,0,0,1,.893-.8,2.94,2.94,0,0,1,1.323-.284,3.072,3.072,0,0,1,1.341.274,2.129,2.129,0,0,1,.893.749,1.938,1.938,0,0,1,.319,1.1,2.108,2.108,0,0,1-.161.8,3.365,3.365,0,0,1-.564.879,12.987,12.987,0,0,1-1.146,1.152l-1.047,1.026v.048h3.012v1.24Zm8.807-7.271a3.105,3.105,0,0,1,1.064.186,2.462,2.462,0,0,1,.918.592,2.806,2.806,0,0,1,.64,1.079,4.954,4.954,0,0,1,.242,1.643,5.89,5.89,0,0,1-.206,1.631,3.606,3.606,0,0,1-.585,1.215,2.554,2.554,0,0,1-.92.763,2.749,2.749,0,0,1-1.2.259,2.788,2.788,0,0,1-1.268-.276,2.389,2.389,0,0,1-.886-.76,2.365,2.365,0,0,1-.4-1.086h1.5A1.022,1.022,0,0,0,90,176.1a1.107,1.107,0,0,0,.694.214,1.167,1.167,0,0,0,1.064-.609,3.3,3.3,0,0,0,.368-1.677h-.049a1.725,1.725,0,0,1-.434.542,2.016,2.016,0,0,1-.627.347,2.231,2.231,0,0,1-.746.122,2.161,2.161,0,0,1-1.131-.3,2.132,2.132,0,0,1-.785-.819,2.632,2.632,0,0,1,.046-2.476,2.343,2.343,0,0,1,.939-.883A2.936,2.936,0,0,1,90.748,170.241Zm.01,1.191a1.188,1.188,0,0,0-.63.168,1.238,1.238,0,0,0-.434.452,1.261,1.261,0,0,0-.154.634,1.311,1.311,0,0,0,.154.637,1.23,1.23,0,0,0,.427.449,1.185,1.185,0,0,0,.623.164,1.2,1.2,0,0,0,.876-.367,1.291,1.291,0,0,0,.262-.4,1.245,1.245,0,0,0,.095-.483,1.281,1.281,0,0,0-.161-.624,1.227,1.227,0,0,0-.434-.455A1.159,1.159,0,0,0,90.758,171.432Zm6.78.7v1.12H94.3v-1.12Zm-2.5-1.289h1.492v5.016a.673.673,0,0,0,.063.322.342.342,0,0,0,.175.157.717.717,0,0,0,.266.046,1.286,1.286,0,0,0,.21-.017l.161-.032.235,1.11c-.075.023-.18.05-.316.081a2.485,2.485,0,0,1-.494.059,2.259,2.259,0,0,1-.945-.143,1.323,1.323,0,0,1-.627-.511,1.564,1.564,0,0,1-.22-.876Zm5.083,3.558v3.11H98.626V170.34h1.45v2.742h.062a1.524,1.524,0,0,1,.588-.745,1.786,1.786,0,0,1,1.019-.274,1.89,1.89,0,0,1,.977.246,1.637,1.637,0,0,1,.652.7,2.292,2.292,0,0,1,.231,1.081v3.425h-1.492v-3.159a1.088,1.088,0,0,0-.252-.774.909.909,0,0,0-.708-.276,1.088,1.088,0,0,0-.539.13.919.919,0,0,0-.364.378A1.284,1.284,0,0,0,100.118,174.4Zm6.972,3.11V170.34h4.749v1.25h-3.233V173.3h2.917v1.25h-2.917v2.963Zm7.233-7.172v7.172h-1.492V170.34Zm3.626,7.277a2.76,2.76,0,0,1-1.412-.347,2.37,2.37,0,0,1-.914-.974,3.447,3.447,0,0,1,0-2.91,2.35,2.35,0,0,1,.914-.974,3.014,3.014,0,0,1,2.82,0,2.342,2.342,0,0,1,.917.974,3.447,3.447,0,0,1,0,2.91,2.361,2.361,0,0,1-.917.974A2.738,2.738,0,0,1,117.948,177.617Zm.007-1.155a.928.928,0,0,0,.62-.21,1.3,1.3,0,0,0,.375-.581,2.763,2.763,0,0,0,0-1.674,1.3,1.3,0,0,0-.375-.582.918.918,0,0,0-.62-.214.952.952,0,0,0-.63.214,1.313,1.313,0,0,0-.381.582,2.831,2.831,0,0,0,0,1.674,1.315,1.315,0,0,0,.381.581A.963.963,0,0,0,117.955,176.462ZM124,177.617a2.757,2.757,0,0,1-1.411-.347,2.377,2.377,0,0,1-.915-.974,3.447,3.447,0,0,1,0-2.91,2.357,2.357,0,0,1,.915-.974,3.012,3.012,0,0,1,2.819,0,2.349,2.349,0,0,1,.918.974,3.447,3.447,0,0,1,0,2.91,2.368,2.368,0,0,1-.918.974A2.738,2.738,0,0,1,124,177.617Zm.007-1.155a.93.93,0,0,0,.62-.21,1.3,1.3,0,0,0,.375-.581A2.779,2.779,0,0,0,125,174a1.3,1.3,0,0,0-.375-.582.919.919,0,0,0-.62-.214.95.95,0,0,0-.63.214,1.308,1.308,0,0,0-.382.582,2.849,2.849,0,0,0,0,1.674,1.31,1.31,0,0,0,.382.581A.962.962,0,0,0,124,176.462Zm3.61,1.05v-5.379h1.446v.939h.056a1.39,1.39,0,0,1,.494-.757,1.3,1.3,0,0,1,.8-.259,2.123,2.123,0,0,1,.242.014,1.654,1.654,0,0,1,.228.039v1.324a1.934,1.934,0,0,0-.291-.057,2.587,2.587,0,0,0-.339-.024,1.2,1.2,0,0,0-.588.143,1.065,1.065,0,0,0-.407.392,1.138,1.138,0,0,0-.147.582v3.043Zm5.04-.98-.039.385a5.3,5.3,0,0,1-.175.92q-.126.462-.266.837c-.09.25-.164.445-.22.588h-.966c.035-.138.083-.33.143-.578s.118-.521.172-.827a7.154,7.154,0,0,0,.1-.935l.017-.392Zm3.337.98V170.34h4.749v1.25h-3.233V173.3h2.917v1.25h-2.917v2.963Zm7.233-7.172v7.172h-1.492V170.34Zm2.729,7.274a2.242,2.242,0,0,1-.918-.179,1.473,1.473,0,0,1-.637-.536,1.6,1.6,0,0,1-.232-.889,1.562,1.562,0,0,1,.165-.753,1.334,1.334,0,0,1,.448-.491,2.2,2.2,0,0,1,.644-.28,4.963,4.963,0,0,1,.763-.133c.313-.033.565-.062.757-.091a1.06,1.06,0,0,0,.417-.132.294.294,0,0,0,.129-.26v-.021a.647.647,0,0,0-.21-.515.861.861,0,0,0-.588-.182,1.043,1.043,0,0,0-.641.178.819.819,0,0,0-.315.441l-1.38-.113a1.875,1.875,0,0,1,.413-.847,1.987,1.987,0,0,1,.8-.553,3.038,3.038,0,0,1,1.134-.2,3.446,3.446,0,0,1,.858.105,2.232,2.232,0,0,1,.732.325,1.593,1.593,0,0,1,.508.568,1.7,1.7,0,0,1,.186.823v3.628h-1.415v-.746h-.042a1.524,1.524,0,0,1-.347.445,1.61,1.61,0,0,1-.522.3A2.159,2.159,0,0,1,145.953,177.614Zm.427-1.03a1.256,1.256,0,0,0,.581-.13,1.031,1.031,0,0,0,.4-.357.92.92,0,0,0,.143-.507v-.571a.8.8,0,0,1-.192.084c-.08.024-.169.046-.27.067s-.2.036-.3.053l-.273.039a1.842,1.842,0,0,0-.459.122.737.737,0,0,0-.3.228.556.556,0,0,0-.108.35.542.542,0,0,0,.22.466A.963.963,0,0,0,146.381,176.584ZM153,172.133v1.12h-3.24v-1.12Zm-2.5-1.289h1.492v5.016a.683.683,0,0,0,.063.322.342.342,0,0,0,.175.157.723.723,0,0,0,.266.046,1.286,1.286,0,0,0,.21-.017l.162-.032.234,1.11c-.075.023-.18.05-.315.081a2.493,2.493,0,0,1-.494.059,2.263,2.263,0,0,1-.946-.143,1.323,1.323,0,0,1-.627-.511,1.564,1.564,0,0,1-.22-.876Zm11.785-.5v7.172h-1.309L157.852,173H157.8v4.514h-1.516V170.34h1.331l3.1,4.51h.063v-4.51Zm3.655,7.277a2.757,2.757,0,0,1-1.411-.347,2.369,2.369,0,0,1-.914-.974,3.447,3.447,0,0,1,0-2.91,2.35,2.35,0,0,1,.914-.974,3.012,3.012,0,0,1,2.819,0,2.349,2.349,0,0,1,.918.974,3.447,3.447,0,0,1,0,2.91,2.369,2.369,0,0,1-.918.974A2.738,2.738,0,0,1,165.937,177.617Zm.007-1.155a.929.929,0,0,0,.62-.21,1.3,1.3,0,0,0,.375-.581,2.763,2.763,0,0,0,0-1.674,1.3,1.3,0,0,0-.375-.582.919.919,0,0,0-.62-.214.951.951,0,0,0-.63.214,1.308,1.308,0,0,0-.382.582,2.849,2.849,0,0,0,0,1.674,1.31,1.31,0,0,0,.382.581A.962.962,0,0,0,165.945,176.462Zm7.157,1.05h-1.625l2.475-7.172h1.954l2.473,7.172h-1.626l-1.8-5.533H174.9Zm-.1-2.819h3.839v1.183H173Zm6.165,2.819v-.9l3.58-5.022h-3.586v-1.25h5.491v.9l-3.583,5.022h3.59v1.25Zm6.578,0v-.9l3.579-5.022h-3.586v-1.25h5.491v.9l-3.583,5.022h3.59v1.25Zm7.891,0H192.01l2.476-7.172h1.954l2.472,7.172h-1.625l-1.8-5.533h-.056Zm-.1-2.819h3.838v1.183h-3.838Zm9.566-1.359v1.184h-3.272v-1.184Zm4.377-2.994v7.172H205.96v-5.733h-.042l-1.643,1.03v-1.344l1.776-1.124Zm4.324,7.27a3.075,3.075,0,0,1-1.324-.273,2.3,2.3,0,0,1-.917-.753,1.935,1.935,0,0,1-.354-1.1h1.471a.9.9,0,0,0,.35.676,1.206,1.206,0,0,0,.774.259,1.237,1.237,0,0,0,.63-.157,1.132,1.132,0,0,0,.431-.445,1.348,1.348,0,0,0,.158-.659,1.334,1.334,0,0,0-.161-.665,1.139,1.139,0,0,0-.438-.449,1.294,1.294,0,0,0-.641-.164,1.521,1.521,0,0,0-.612.13,1.107,1.107,0,0,0-.459.353l-1.348-.242.339-3.782h4.384v1.239H210.95l-.186,1.8h.042a1.388,1.388,0,0,1,.57-.441,2.03,2.03,0,0,1,.855-.175,2.172,2.172,0,0,1,1.958,1.142,2.667,2.667,0,0,1-.045,2.507,2.381,2.381,0,0,1-.942.883A2.959,2.959,0,0,1,211.8,177.61Z"/>
        <path id="Path_510" data-name="Path 510" d="M85.874,186.374a.884.884,0,0,0-.361-.658,1.426,1.426,0,0,0-.865-.235,1.651,1.651,0,0,0-.626.105.878.878,0,0,0-.393.284.683.683,0,0,0-.133.413.6.6,0,0,0,.081.336.855.855,0,0,0,.249.249,1.951,1.951,0,0,0,.364.178,3.662,3.662,0,0,0,.441.126l.644.155a4.522,4.522,0,0,1,.861.28,2.593,2.593,0,0,1,.68.431,1.779,1.779,0,0,1,.445.6,1.9,1.9,0,0,1,.165.795,1.989,1.989,0,0,1-.336,1.141,2.131,2.131,0,0,1-.953.746,3.822,3.822,0,0,1-1.495.263,3.944,3.944,0,0,1-1.513-.266,2.219,2.219,0,0,1-1-.788,2.356,2.356,0,0,1-.375-1.3h1.468a1.1,1.1,0,0,0,.206.6,1.157,1.157,0,0,0,.494.361,1.972,1.972,0,0,0,.7.119,1.818,1.818,0,0,0,.669-.113,1.03,1.03,0,0,0,.445-.311.718.718,0,0,0,.157-.459.6.6,0,0,0-.143-.406,1.078,1.078,0,0,0-.413-.28,4.211,4.211,0,0,0-.662-.21l-.782-.2a3.279,3.279,0,0,1-1.432-.689,1.6,1.6,0,0,1-.522-1.265,1.878,1.878,0,0,1,.346-1.137,2.337,2.337,0,0,1,.971-.76,3.418,3.418,0,0,1,1.4-.274,3.308,3.308,0,0,1,1.394.274,2.2,2.2,0,0,1,.932.76,2,2,0,0,1,.343,1.128Zm3.9,3.561,0-1.789h.217l1.723-2.041h1.712l-2.314,2.7h-.354Zm-1.352,1.548v-7.172h1.492v7.172Zm3.362,0L90.2,189.14l1-1.054,2.336,3.4Zm3.385,2.018a2.938,2.938,0,0,1-.532-.046,1.941,1.941,0,0,1-.407-.108l.336-1.114a1.828,1.828,0,0,0,.473.087.6.6,0,0,0,.367-.1.725.725,0,0,0,.256-.357l.088-.227-1.93-5.533h1.569l1.114,3.95h.056l1.124-3.95h1.58l-2.091,5.96a2.507,2.507,0,0,1-.41.757,1.678,1.678,0,0,1-.648.5A2.27,2.27,0,0,1,95.164,193.5Zm8.4-2.018h-1.626l2.476-7.172h1.954l2.472,7.172h-1.625l-1.8-5.533h-.056Zm-.1-2.819h3.838v1.183h-3.838Zm6.215,4.836v-7.4h1.47v.9h.067a1.985,1.985,0,0,1,.284-.441,1.487,1.487,0,0,1,.49-.378,1.666,1.666,0,0,1,.757-.155,2.024,2.024,0,0,1,1.086.308,2.126,2.126,0,0,1,.795.921,3.517,3.517,0,0,1,.3,1.538,3.575,3.575,0,0,1-.29,1.52,2.161,2.161,0,0,1-.785.935,2.012,2.012,0,0,1-1.107.316,1.729,1.729,0,0,1-.739-.144,1.547,1.547,0,0,1-.494-.361,1.85,1.85,0,0,1-.294-.445h-.045V193.5Zm1.46-4.707a2.4,2.4,0,0,0,.133.837,1.244,1.244,0,0,0,.385.556.971.971,0,0,0,.613.2.96.96,0,0,0,.616-.2,1.248,1.248,0,0,0,.382-.56,2.652,2.652,0,0,0,0-1.649,1.217,1.217,0,0,0-.382-.553.966.966,0,0,0-.62-.2.988.988,0,0,0-.616.192,1.21,1.21,0,0,0-.381.546A2.364,2.364,0,0,0,111.142,188.793Zm6.314,2.792a2.242,2.242,0,0,1-.918-.179,1.473,1.473,0,0,1-.637-.536,1.6,1.6,0,0,1-.231-.889,1.562,1.562,0,0,1,.164-.753,1.334,1.334,0,0,1,.448-.491,2.2,2.2,0,0,1,.644-.28,4.98,4.98,0,0,1,.763-.133c.313-.033.565-.062.757-.091a1.06,1.06,0,0,0,.417-.132.3.3,0,0,0,.13-.26v-.021a.647.647,0,0,0-.21-.515.861.861,0,0,0-.588-.182,1.043,1.043,0,0,0-.641.178.819.819,0,0,0-.315.441l-1.38-.113a1.876,1.876,0,0,1,.413-.847,1.984,1.984,0,0,1,.795-.553,3.043,3.043,0,0,1,1.135-.2,3.456,3.456,0,0,1,.858.105,2.235,2.235,0,0,1,.731.325,1.578,1.578,0,0,1,.508.568,1.7,1.7,0,0,1,.186.823v3.628H119.07v-.746h-.042a1.511,1.511,0,0,1-.347.445,1.6,1.6,0,0,1-.522.3A2.158,2.158,0,0,1,117.456,191.585Zm.427-1.03a1.253,1.253,0,0,0,.581-.13,1.031,1.031,0,0,0,.4-.357.92.92,0,0,0,.143-.507v-.571a.767.767,0,0,1-.192.084c-.08.024-.169.046-.27.067s-.2.036-.3.053l-.273.039a1.842,1.842,0,0,0-.459.122.737.737,0,0,0-.3.228.556.556,0,0,0-.108.35.544.544,0,0,0,.22.466A.963.963,0,0,0,117.883,190.555Zm3.759.928V186.1h1.446v.939h.057a1.389,1.389,0,0,1,.493-.757,1.3,1.3,0,0,1,.8-.259,2.123,2.123,0,0,1,.242.014,1.654,1.654,0,0,1,.228.039V187.4a1.894,1.894,0,0,0-.291-.057,2.577,2.577,0,0,0-.339-.024,1.2,1.2,0,0,0-.588.143,1.063,1.063,0,0,0-.406.392,1.13,1.13,0,0,0-.147.582v3.043Zm7.166-5.379v1.12h-3.24V186.1Zm-2.5-1.289H127.8v5.016a.684.684,0,0,0,.062.322.348.348,0,0,0,.175.157.723.723,0,0,0,.266.046,1.288,1.288,0,0,0,.21-.017l.161-.032.235,1.11c-.075.023-.18.05-.316.081a2.484,2.484,0,0,1-.494.059,2.259,2.259,0,0,1-.945-.143,1.323,1.323,0,0,1-.627-.511,1.571,1.571,0,0,1-.221-.876Zm3.476,6.668V186.1H131.2v.948h.063a1.489,1.489,0,0,1,.56-.745,1.744,1.744,0,0,1,1.881,0,1.305,1.305,0,0,1,.518.742h.057a1.432,1.432,0,0,1,.595-.739,1.852,1.852,0,0,1,1.026-.28,1.635,1.635,0,0,1,1.222.48,1.838,1.838,0,0,1,.473,1.352v3.618h-1.488v-3.323a.881.881,0,0,0-.238-.672.833.833,0,0,0-.595-.224.8.8,0,0,0-.634.259.979.979,0,0,0-.228.676v3.285h-1.446v-3.355a.868.868,0,0,0-.228-.63.78.78,0,0,0-.593-.235.824.824,0,0,0-.448.126.869.869,0,0,0-.311.347,1.1,1.1,0,0,0-.116.519v3.229Zm11.446.105a2.883,2.883,0,0,1-1.429-.336,2.3,2.3,0,0,1-.917-.96,3.5,3.5,0,0,1,0-2.931,2.385,2.385,0,0,1,.907-.977,2.647,2.647,0,0,1,1.38-.35,2.816,2.816,0,0,1,.991.172,2.194,2.194,0,0,1,.805.508,2.308,2.308,0,0,1,.539.855,3.4,3.4,0,0,1,.192,1.2v.41h-4.542v-.925h3.138a1.14,1.14,0,0,0-.14-.571,1,1,0,0,0-.389-.389,1.112,1.112,0,0,0-.571-.144,1.15,1.15,0,0,0-.6.158,1.1,1.1,0,0,0-.406.417,1.184,1.184,0,0,0-.15.578v.879a1.516,1.516,0,0,0,.147.69,1.081,1.081,0,0,0,.423.448,1.276,1.276,0,0,0,.648.158,1.43,1.43,0,0,0,.455-.07.955.955,0,0,0,.353-.21.915.915,0,0,0,.224-.344l1.38.091a1.885,1.885,0,0,1-.431.869,2.177,2.177,0,0,1-.833.574A3.157,3.157,0,0,1,141.227,191.588Zm4.934-3.215v3.11H144.67V186.1h1.422v.948h.063a1.507,1.507,0,0,1,.6-.742,1.817,1.817,0,0,1,1.019-.277,1.89,1.89,0,0,1,.977.246,1.667,1.667,0,0,1,.648.7,2.345,2.345,0,0,1,.231,1.078v3.425h-1.492v-3.159a1.08,1.08,0,0,0-.252-.77.9.9,0,0,0-.7-.28,1.06,1.06,0,0,0-.532.13.9.9,0,0,0-.357.378A1.316,1.316,0,0,0,146.161,188.373Zm7.5-2.269v1.12h-3.239V186.1Zm-2.5-1.289h1.492v5.016a.684.684,0,0,0,.062.322.347.347,0,0,0,.176.157.716.716,0,0,0,.265.046,1.288,1.288,0,0,0,.21-.017l.161-.032.235,1.11c-.075.023-.18.05-.316.081a2.484,2.484,0,0,1-.494.059,2.259,2.259,0,0,1-.945-.143,1.323,1.323,0,0,1-.627-.511,1.571,1.571,0,0,1-.221-.876Zm7.884,2.823-1.366.084a.714.714,0,0,0-.15-.315.8.8,0,0,0-.3-.228,1.036,1.036,0,0,0-.445-.088,1.094,1.094,0,0,0-.585.147.436.436,0,0,0-.238.385.415.415,0,0,0,.154.325,1.217,1.217,0,0,0,.528.214l.974.2a2.413,2.413,0,0,1,1.169.519,1.217,1.217,0,0,1,.385.939,1.464,1.464,0,0,1-.311.928,2.015,2.015,0,0,1-.848.623,3.224,3.224,0,0,1-1.236.221,2.917,2.917,0,0,1-1.7-.445,1.734,1.734,0,0,1-.739-1.219l1.468-.077a.752.752,0,0,0,.322.5,1.373,1.373,0,0,0,1.285.017.465.465,0,0,0,.245-.4.413.413,0,0,0-.172-.333,1.234,1.234,0,0,0-.519-.2l-.931-.186a2.232,2.232,0,0,1-1.174-.547,1.357,1.357,0,0,1-.381-.991,1.445,1.445,0,0,1,.28-.892,1.8,1.8,0,0,1,.795-.579,3.285,3.285,0,0,1,1.2-.2,2.657,2.657,0,0,1,1.6.431A1.668,1.668,0,0,1,159.046,187.637Z"/>
        <path id="Path_511" data-name="Path 511" d="M87.446,200.112h-.8a1.665,1.665,0,0,0-.671-1.04,1.809,1.809,0,0,0-.549-.27,2.189,2.189,0,0,0-.629-.09,2,2,0,0,0-1.082.3,2.1,2.1,0,0,0-.767.889,3.816,3.816,0,0,0,0,2.883,2.1,2.1,0,0,0,.767.889,2,2,0,0,0,1.082.3,2.19,2.19,0,0,0,.629-.09,1.84,1.84,0,0,0,.549-.266,1.685,1.685,0,0,0,.671-1.044h.8a2.65,2.65,0,0,1-.327.9,2.467,2.467,0,0,1-.591.677,2.6,2.6,0,0,1-.793.421,2.958,2.958,0,0,1-.934.144,2.751,2.751,0,0,1-1.5-.411,2.819,2.819,0,0,1-1.031-1.169,4.493,4.493,0,0,1,0-3.6,2.822,2.822,0,0,1,1.031-1.168,2.751,2.751,0,0,1,1.5-.411,2.958,2.958,0,0,1,.934.144,2.551,2.551,0,0,1,.793.424,2.418,2.418,0,0,1,.591.674A2.624,2.624,0,0,1,87.446,200.112Zm1.942,1.554v2.966H88.63v-6.575h.758v2.414h.064a1.4,1.4,0,0,1,.519-.606,1.685,1.685,0,0,1,.931-.228,1.851,1.851,0,0,1,.883.2,1.357,1.357,0,0,1,.587.613,2.275,2.275,0,0,1,.212,1.047v3.133h-.758V201.55a1.263,1.263,0,0,0-.3-.908,1.088,1.088,0,0,0-.837-.325,1.407,1.407,0,0,0-.668.157,1.15,1.15,0,0,0-.462.459A1.488,1.488,0,0,0,89.388,201.666Zm4.583,2.966V199.7h.758v4.931Zm.385-5.753a.536.536,0,0,1-.381-.151.5.5,0,0,1,0-.725.536.536,0,0,1,.381-.151.525.525,0,0,1,.379.151.488.488,0,0,1,0,.725A.525.525,0,0,1,94.356,198.879Zm3.764,5.855a2.061,2.061,0,0,1-1.965-1.229,3.327,3.327,0,0,1,.007-2.639,2.175,2.175,0,0,1,.777-.9,2.09,2.09,0,0,1,1.169-.327,2.216,2.216,0,0,1,.938.192,1.8,1.8,0,0,1,.684.539,1.687,1.687,0,0,1,.33.809H99.3a1.174,1.174,0,0,0-.385-.6,1.153,1.153,0,0,0-.8-.263,1.335,1.335,0,0,0-.777.231,1.51,1.51,0,0,0-.517.645,2.4,2.4,0,0,0-.182.973,2.547,2.547,0,0,0,.179,1,1.527,1.527,0,0,0,.514.658,1.331,1.331,0,0,0,.784.234,1.357,1.357,0,0,0,.536-.1,1.1,1.1,0,0,0,.408-.3,1.129,1.129,0,0,0,.238-.462h.758a1.753,1.753,0,0,1-.318.786,1.778,1.778,0,0,1-.664.552A2.145,2.145,0,0,1,98.12,204.734Zm4.5.013a2.007,2.007,0,0,1-.851-.177,1.4,1.4,0,0,1-.832-1.339,1.267,1.267,0,0,1,.167-.687,1.19,1.19,0,0,1,.446-.417,2.368,2.368,0,0,1,.616-.224c.227-.052.455-.092.684-.122q.45-.058.729-.086a1.119,1.119,0,0,0,.411-.106.269.269,0,0,0,.131-.257v-.025a1,1,0,0,0-.26-.738,1.043,1.043,0,0,0-.78-.264,1.366,1.366,0,0,0-.851.238,1.412,1.412,0,0,0-.434.508l-.719-.257a1.729,1.729,0,0,1,.514-.7,1.927,1.927,0,0,1,.707-.353,2.937,2.937,0,0,1,.757-.1,3,3,0,0,1,.547.058,1.736,1.736,0,0,1,.6.228,1.332,1.332,0,0,1,.485.523,1.95,1.95,0,0,1,.192.938v3.249h-.758v-.668h-.039a1.3,1.3,0,0,1-.256.344,1.475,1.475,0,0,1-.478.311A1.831,1.831,0,0,1,102.617,204.748Zm.116-.681a1.507,1.507,0,0,0,.758-.176,1.209,1.209,0,0,0,.468-.456,1.165,1.165,0,0,0,.16-.588v-.694a.452.452,0,0,1-.211.106,3.58,3.58,0,0,1-.373.081c-.139.021-.274.04-.408.058s-.236.028-.317.039a2.888,2.888,0,0,0-.552.125.951.951,0,0,0-.411.254.645.645,0,0,0-.155.456.679.679,0,0,0,.293.6A1.306,1.306,0,0,0,102.733,204.066Zm5.518,2.517a2.8,2.8,0,0,1-.944-.141,1.968,1.968,0,0,1-1.072-.847l.6-.424c.068.09.155.193.26.308a1.319,1.319,0,0,0,.431.3,1.686,1.686,0,0,0,.722.132,1.609,1.609,0,0,0,.985-.288,1.055,1.055,0,0,0,.389-.906v-1h-.065a4.065,4.065,0,0,1-.238.334,1.339,1.339,0,0,1-.436.35,1.635,1.635,0,0,1-.764.15,2.056,2.056,0,0,1-1.072-.282,1.985,1.985,0,0,1-.748-.823,2.865,2.865,0,0,1-.273-1.309,3.053,3.053,0,0,1,.266-1.32,2.058,2.058,0,0,1,.741-.873,1.956,1.956,0,0,1,1.1-.311,1.55,1.55,0,0,1,.764.16,1.337,1.337,0,0,1,.436.36q.154.2.238.327h.077V199.7h.731v5.072a1.72,1.72,0,0,1-.288,1.034,1.652,1.652,0,0,1-.771.588A2.913,2.913,0,0,1,108.25,206.584Zm-.026-2.71a1.366,1.366,0,0,0,.771-.209,1.3,1.3,0,0,0,.478-.6,2.423,2.423,0,0,0,.164-.938,2.555,2.555,0,0,0-.16-.94,1.414,1.414,0,0,0-.475-.639,1.432,1.432,0,0,0-1.58.013,1.481,1.481,0,0,0-.478.655,2.523,2.523,0,0,0-.158.911,2.4,2.4,0,0,0,.161.909,1.4,1.4,0,0,0,.482.616A1.371,1.371,0,0,0,108.224,203.874Zm5.547.86a2.085,2.085,0,0,1-1.954-1.207,3,3,0,0,1-.279-1.335,3.036,3.036,0,0,1,.279-1.344,2.22,2.22,0,0,1,3.123-.892,2.113,2.113,0,0,1,.783.892,3,3,0,0,1,.283,1.344,2.968,2.968,0,0,1-.283,1.335,2.084,2.084,0,0,1-1.952,1.207Zm0-.68a1.3,1.3,0,0,0,.835-.261,1.528,1.528,0,0,0,.485-.684,2.607,2.607,0,0,0,.157-.918,2.639,2.639,0,0,0-.157-.921,1.557,1.557,0,0,0-.485-.69,1.456,1.456,0,0,0-1.669,0,1.557,1.557,0,0,0-.485.69,2.639,2.639,0,0,0-.157.921,2.607,2.607,0,0,0,.157.918,1.528,1.528,0,0,0,.485.684A1.3,1.3,0,0,0,113.771,204.054Z" fill="#ababab"/>
        <circle id="Ellipse_154" data-name="Ellipse 154" cx="20.134" cy="20.134" r="20.134" transform="translate(31.229 164.363)" fill="#d9e2ed"/>
        <path id="Path_512" data-name="Path 512" d="M47.049,182.443a3.9,3.9,0,1,1,3.9,3.9A3.9,3.9,0,0,1,47.049,182.443Zm3.9-2.671a2.671,2.671,0,1,0,2.671,2.671A2.671,2.671,0,0,0,50.952,179.772Z" fill="#fa7b17" fill-rule="evenodd"/>
        <path id="Path_513" data-name="Path 513" d="M43.987,181.5a6.811,6.811,0,0,1,6.788-6.252h.355a6.811,6.811,0,0,1,6.788,6.252,7.351,7.351,0,0,1-1.635,5.256l-3.939,4.817a1.8,1.8,0,0,1-2.783,0l-3.939-4.817A7.35,7.35,0,0,1,43.987,181.5Zm6.788-5.019a5.578,5.578,0,0,0-5.559,5.12,6.117,6.117,0,0,0,1.361,4.375l3.939,4.817a.565.565,0,0,0,.874,0l3.939-4.817a6.117,6.117,0,0,0,1.361-4.375,5.578,5.578,0,0,0-5.559-5.12Z" fill="#fa7b17" fill-rule="evenodd"/>
        <path id="Path_514" data-name="Path 514" d="M86.47,209.563h.8v4.353a2.294,2.294,0,0,1-.318,1.2,2.222,2.222,0,0,1-.889.831,3.157,3.157,0,0,1-2.7,0,2.236,2.236,0,0,1-.892-.831,2.307,2.307,0,0,1-.315-1.2v-4.353h.8v4.289a1.715,1.715,0,0,0,.211.857,1.523,1.523,0,0,0,.6.588,2.214,2.214,0,0,0,1.888,0,1.5,1.5,0,0,0,.6-.588,1.715,1.715,0,0,0,.212-.857Zm5.776,2.748-.68.192a1.25,1.25,0,0,0-.19-.33.91.91,0,0,0-.334-.27,1.212,1.212,0,0,0-.542-.106,1.292,1.292,0,0,0-.754.209.614.614,0,0,0-.3.523.538.538,0,0,0,.205.446,1.7,1.7,0,0,0,.642.273l.732.18a2.022,2.022,0,0,1,.985.491,1.147,1.147,0,0,1,.324.844,1.256,1.256,0,0,1-.243.758,1.625,1.625,0,0,1-.675.527,2.462,2.462,0,0,1-1.008.192,2.222,2.222,0,0,1-1.249-.327,1.454,1.454,0,0,1-.626-.957l.719-.179a1,1,0,0,0,.389.6,1.3,1.3,0,0,0,.754.2,1.413,1.413,0,0,0,.842-.224.662.662,0,0,0,.314-.546.574.574,0,0,0-.179-.43,1.149,1.149,0,0,0-.552-.264L90,213.916a1.954,1.954,0,0,1-1-.5,1.206,1.206,0,0,1-.315-.851,1.219,1.219,0,0,1,.234-.738,1.593,1.593,0,0,1,.645-.5,2.261,2.261,0,0,1,.931-.183,1.847,1.847,0,0,1,1.15.321A1.733,1.733,0,0,1,92.246,212.311Zm2.682,3.942a2.007,2.007,0,0,1-.851-.177,1.4,1.4,0,0,1-.832-1.339,1.267,1.267,0,0,1,.167-.687,1.178,1.178,0,0,1,.446-.417,2.368,2.368,0,0,1,.616-.224c.227-.052.454-.092.684-.122.3-.039.542-.067.729-.086a1.119,1.119,0,0,0,.411-.106.269.269,0,0,0,.131-.257v-.025a1,1,0,0,0-.261-.738,1.042,1.042,0,0,0-.78-.264,1.366,1.366,0,0,0-.851.238,1.4,1.4,0,0,0-.433.508l-.719-.257a1.721,1.721,0,0,1,.514-.7,1.923,1.923,0,0,1,.706-.353,2.947,2.947,0,0,1,.758-.1,2.988,2.988,0,0,1,.546.058,1.741,1.741,0,0,1,.6.228,1.331,1.331,0,0,1,.484.523,1.94,1.94,0,0,1,.193.938v3.249H96.43v-.668h-.039a1.321,1.321,0,0,1-.256.344,1.471,1.471,0,0,1-.479.311A1.827,1.827,0,0,1,94.928,216.253Zm.115-.681a1.5,1.5,0,0,0,.758-.176,1.206,1.206,0,0,0,.469-.456,1.164,1.164,0,0,0,.16-.588v-.694a.451.451,0,0,1-.212.106,3.515,3.515,0,0,1-.372.081c-.139.021-.275.04-.408.058s-.237.028-.318.039a2.918,2.918,0,0,0-.552.125.96.96,0,0,0-.411.254.645.645,0,0,0-.154.456.678.678,0,0,0,.292.6A1.308,1.308,0,0,0,95.043,215.572Z" fill="#ababab"/>
        <path id="Path_515" data-name="Path 515" d="M160.567,394.993v10.161h-2.148v-8.121h-.059l-2.327,1.458v-1.9l2.516-1.593Zm6.126,10.3a4.359,4.359,0,0,1-1.875-.387,3.257,3.257,0,0,1-1.3-1.067,2.734,2.734,0,0,1-.5-1.557H165.1a1.268,1.268,0,0,0,.5.957,1.706,1.706,0,0,0,1.1.367,1.756,1.756,0,0,0,.893-.223,1.6,1.6,0,0,0,.61-.63,2.058,2.058,0,0,0,0-1.875,1.617,1.617,0,0,0-.62-.635,1.828,1.828,0,0,0-.908-.233,2.158,2.158,0,0,0-.869.183,1.564,1.564,0,0,0-.649.5l-1.911-.343.482-5.358h6.211v1.756h-4.44l-.263,2.545h.06a1.967,1.967,0,0,1,.809-.625,2.857,2.857,0,0,1,1.211-.248,3.074,3.074,0,0,1,2.773,1.617,3.78,3.78,0,0,1-.064,3.552,3.369,3.369,0,0,1-1.335,1.251A4.184,4.184,0,0,1,166.693,405.293Zm8.547-.139v-7.621h2.014v1.345h.09a2.114,2.114,0,0,1,.794-1.057,2.477,2.477,0,0,1,2.664,0,1.85,1.85,0,0,1,.734,1.052h.08a2.028,2.028,0,0,1,.843-1.047,2.629,2.629,0,0,1,1.454-.4,2.314,2.314,0,0,1,1.732.68,2.6,2.6,0,0,1,.67,1.915v5.125H184.2v-4.708a1.246,1.246,0,0,0-.338-.952,1.179,1.179,0,0,0-.843-.318,1.13,1.13,0,0,0-.9.367,1.385,1.385,0,0,0-.323.957v4.654h-2.049V400.4a1.228,1.228,0,0,0-.323-.893,1.1,1.1,0,0,0-.838-.333,1.161,1.161,0,0,0-.634.179,1.228,1.228,0,0,0-.442.491,1.562,1.562,0,0,0-.164.735v4.574Zm12.743,0v-7.621H190.1v7.621Zm1.062-8.6a1.151,1.151,0,0,1-.809-.312,1.013,1.013,0,0,1-.332-.759.993.993,0,0,1,.332-.749,1.141,1.141,0,0,1,.809-.317,1.124,1.124,0,0,1,.8.317.987.987,0,0,1,.338.749,1.007,1.007,0,0,1-.338.759A1.134,1.134,0,0,1,189.044,396.552Zm4.859,4.2v4.406h-2.114v-7.621H193.8v1.345h.09a2.126,2.126,0,0,1,.848-1.052,2.572,2.572,0,0,1,1.444-.391,2.677,2.677,0,0,1,1.384.347,2.361,2.361,0,0,1,.918.993,3.321,3.321,0,0,1,.327,1.528v4.852H196.7V400.68a1.529,1.529,0,0,0-.357-1.091,1.283,1.283,0,0,0-1-.4,1.512,1.512,0,0,0-.754.183,1.277,1.277,0,0,0-.506.536A1.856,1.856,0,0,0,193.9,400.749Z" fill="#fa7b17"/>
        <g id="Group_183" data-name="Group 183">
          <path id="Path_516" data-name="Path 516" d="M56.705,498.841H303.249v30.407H56.705Z" fill="#fa7b17"/>
        </g>
        <path id="Path_517" data-name="Path 517" d="M154.563,519.387V509.226h4.008a4.071,4.071,0,0,1,1.97.442,2.988,2.988,0,0,1,1.24,1.215,3.885,3.885,0,0,1,0,3.572,3.009,3.009,0,0,1-1.265,1.206,4.252,4.252,0,0,1-1.995.431h-2.555v-1.721h2.207a2.168,2.168,0,0,0,1.022-.214,1.414,1.414,0,0,0,.606-.6,1.883,1.883,0,0,0,.2-.888,1.833,1.833,0,0,0-.2-.883,1.362,1.362,0,0,0-.606-.59,2.213,2.213,0,0,0-1.032-.214h-1.448v8.4Zm9.005,0v-7.621h2.049v1.33h.08a1.972,1.972,0,0,1,.7-1.072,1.839,1.839,0,0,1,1.132-.367,3.231,3.231,0,0,1,.342.021,2.434,2.434,0,0,1,.323.054v1.875a2.885,2.885,0,0,0-.413-.08,3.712,3.712,0,0,0-.481-.034,1.692,1.692,0,0,0-.833.2,1.5,1.5,0,0,0-.576.556,1.605,1.605,0,0,0-.208.823v4.311Zm8.8.149a3.9,3.9,0,0,1-2-.492,3.353,3.353,0,0,1-1.294-1.379,4.879,4.879,0,0,1,0-4.123,3.324,3.324,0,0,1,1.294-1.379,4.272,4.272,0,0,1,3.994,0,3.322,3.322,0,0,1,1.3,1.379,4.887,4.887,0,0,1,0,4.123,3.351,3.351,0,0,1-1.3,1.379A3.872,3.872,0,0,1,172.373,519.535Zm.01-1.637a1.317,1.317,0,0,0,.879-.3,1.85,1.85,0,0,0,.531-.823,3.928,3.928,0,0,0,0-2.372,1.84,1.84,0,0,0-.531-.823,1.3,1.3,0,0,0-.879-.3,1.342,1.342,0,0,0-.892.3,1.848,1.848,0,0,0-.541.823,4.014,4.014,0,0,0,0,2.372,1.858,1.858,0,0,0,.541.823A1.361,1.361,0,0,0,172.383,517.9Zm8.558,1.637a3.9,3.9,0,0,1-2.014-.5,3.359,3.359,0,0,1-1.29-1.389,4.9,4.9,0,0,1,0-4.1,3.36,3.36,0,0,1,1.3-1.385,3.82,3.82,0,0,1,1.995-.5,3.967,3.967,0,0,1,1.746.362,2.921,2.921,0,0,1,1.186,1.017,2.987,2.987,0,0,1,.481,1.538H182.35a1.538,1.538,0,0,0-.446-.918,1.28,1.28,0,0,0-.938-.352,1.413,1.413,0,0,0-.858.268,1.7,1.7,0,0,0-.565.769,3.285,3.285,0,0,0-.2,1.225,3.454,3.454,0,0,0,.2,1.24,1.726,1.726,0,0,0,.571.779,1.418,1.418,0,0,0,.858.268,1.4,1.4,0,0,0,.65-.149,1.259,1.259,0,0,0,.482-.432,1.646,1.646,0,0,0,.252-.69h1.995a3.124,3.124,0,0,1-.476,1.538,2.877,2.877,0,0,1-1.166,1.031A3.9,3.9,0,0,1,180.941,519.535Zm8.23,0a4.074,4.074,0,0,1-2.024-.476,3.259,3.259,0,0,1-1.3-1.36,4.952,4.952,0,0,1,0-4.152,3.37,3.37,0,0,1,1.285-1.385,3.752,3.752,0,0,1,1.954-.5,3.984,3.984,0,0,1,1.4.242,3.116,3.116,0,0,1,1.141.72,3.275,3.275,0,0,1,.764,1.211,4.809,4.809,0,0,1,.273,1.7v.581h-6.435v-1.31h4.445a1.62,1.62,0,0,0-.2-.809,1.419,1.419,0,0,0-.551-.551,1.568,1.568,0,0,0-.809-.2,1.627,1.627,0,0,0-.853.224,1.561,1.561,0,0,0-.575.59,1.669,1.669,0,0,0-.214.819v1.246a2.139,2.139,0,0,0,.209.977,1.523,1.523,0,0,0,.6.635,1.806,1.806,0,0,0,.918.223,2.011,2.011,0,0,0,.645-.1,1.345,1.345,0,0,0,.5-.3,1.292,1.292,0,0,0,.318-.486l1.954.129a2.668,2.668,0,0,1-.61,1.23,3.061,3.061,0,0,1-1.181.814A4.457,4.457,0,0,1,189.171,519.535Zm8.35,0a4.074,4.074,0,0,1-2.024-.476,3.264,3.264,0,0,1-1.3-1.36,4.952,4.952,0,0,1,0-4.152,3.375,3.375,0,0,1,1.285-1.385,3.752,3.752,0,0,1,1.954-.5,3.984,3.984,0,0,1,1.4.242,3.116,3.116,0,0,1,1.141.72,3.254,3.254,0,0,1,.764,1.211,4.809,4.809,0,0,1,.273,1.7v.581h-6.435v-1.31h4.445a1.62,1.62,0,0,0-.2-.809,1.424,1.424,0,0,0-.551-.551,1.573,1.573,0,0,0-.809-.2,1.627,1.627,0,0,0-.853.224,1.561,1.561,0,0,0-.575.59,1.669,1.669,0,0,0-.214.819v1.246a2.139,2.139,0,0,0,.209.977,1.523,1.523,0,0,0,.6.635,1.806,1.806,0,0,0,.918.223,2.011,2.011,0,0,0,.645-.1,1.348,1.348,0,0,0,.5-.3,1.3,1.3,0,0,0,.317-.486l1.955.129a2.678,2.678,0,0,1-.611,1.23,3.061,3.061,0,0,1-1.181.814A4.454,4.454,0,0,1,197.521,519.535Zm7.685-.025a2.881,2.881,0,0,1-1.573-.446,3.106,3.106,0,0,1-1.111-1.325,5.108,5.108,0,0,1-.407-2.153,4.978,4.978,0,0,1,.422-2.179,3.022,3.022,0,0,1,1.122-1.3,2.872,2.872,0,0,1,1.543-.436,2.33,2.33,0,0,1,1.067.218,2.055,2.055,0,0,1,.694.536,2.732,2.732,0,0,1,.407.625h.065v-3.821h2.108v10.161h-2.083v-1.22h-.09a2.758,2.758,0,0,1-.422.63,2.1,2.1,0,0,1-.7.51A2.409,2.409,0,0,1,205.205,519.511Zm.67-1.682a1.345,1.345,0,0,0,.863-.278,1.757,1.757,0,0,0,.547-.789,3.765,3.765,0,0,0,0-2.366,1.7,1.7,0,0,0-.546-.774,1.391,1.391,0,0,0-.869-.273,1.369,1.369,0,0,0-.878.283,1.735,1.735,0,0,0-.542.784,3.383,3.383,0,0,0-.183,1.161,3.484,3.484,0,0,0,.183,1.175,1.811,1.811,0,0,0,.542.794A1.365,1.365,0,0,0,205.875,517.828Z" fill="#fff"/>
        <rect id="Rectangle_669" data-name="Rectangle 669" width="350.915" height="1.644" transform="translate(0.822 79.716)" fill="#d9d9d9"/>
        <rect id="Rectangle_670" data-name="Rectangle 670" width="206.275" height="4.109" transform="translate(0 78.072)" fill="#fa7b17"/>
        <path id="Path_518" data-name="Path 518" d="M77.935,40.68H76.125A3.776,3.776,0,0,0,74.6,38.316a4.088,4.088,0,0,0-1.248-.613,4.983,4.983,0,0,0-1.43-.2,4.558,4.558,0,0,0-2.459.686,4.769,4.769,0,0,0-1.744,2.021,7.521,7.521,0,0,0-.642,3.276,7.521,7.521,0,0,0,.642,3.276,4.769,4.769,0,0,0,1.744,2.021,4.558,4.558,0,0,0,2.459.686,4.98,4.98,0,0,0,1.43-.2,4.185,4.185,0,0,0,1.248-.606,3.819,3.819,0,0,0,1.525-2.371h1.809a6.027,6.027,0,0,1-.744,2.05,5.6,5.6,0,0,1-1.342,1.539,5.88,5.88,0,0,1-1.8.956,6.718,6.718,0,0,1-2.123.328,6.262,6.262,0,0,1-3.4-.934,6.407,6.407,0,0,1-2.342-2.656,9.1,9.1,0,0,1-.854-4.086,9.1,9.1,0,0,1,.854-4.086,6.407,6.407,0,0,1,2.342-2.656,6.262,6.262,0,0,1,3.4-.934,6.718,6.718,0,0,1,2.123.328,5.794,5.794,0,0,1,1.8.963A5.5,5.5,0,0,1,77.19,38.63,5.953,5.953,0,0,1,77.935,40.68Zm4.412,3.531v6.741H80.625V36.01h1.722V41.5h.146a3.165,3.165,0,0,1,1.182-1.379,3.827,3.827,0,0,1,2.116-.518,4.2,4.2,0,0,1,2.006.46,3.1,3.1,0,0,1,1.335,1.394,5.179,5.179,0,0,1,.482,2.378v7.121H87.891v-7a2.881,2.881,0,0,0-.693-2.065,2.473,2.473,0,0,0-1.9-.737,3.179,3.179,0,0,0-1.518.357,2.616,2.616,0,0,0-1.05,1.043A3.389,3.389,0,0,0,82.347,44.211Zm15.116,6.975a5.271,5.271,0,0,1-2.794-.715,4.8,4.8,0,0,1-1.8-2.014,6.867,6.867,0,0,1-.628-3.02,6.963,6.963,0,0,1,.628-3.035,4.952,4.952,0,0,1,1.765-2.057,4.745,4.745,0,0,1,2.656-.744,5.316,5.316,0,0,1,1.729.292,4.285,4.285,0,0,1,1.554.948,4.536,4.536,0,0,1,1.116,1.722A7.329,7.329,0,0,1,102.1,45.2v.73H93.464V44.445h6.888a3.672,3.672,0,0,0-.38-1.693,2.861,2.861,0,0,0-1.065-1.175,2.986,2.986,0,0,0-1.62-.43,3.088,3.088,0,0,0-1.78.511,3.355,3.355,0,0,0-1.146,1.313,3.853,3.853,0,0,0-.4,1.736V45.7a4.81,4.81,0,0,0,.437,2.152,3.155,3.155,0,0,0,1.234,1.335,3.613,3.613,0,0,0,1.831.452,3.724,3.724,0,0,0,1.225-.19,2.619,2.619,0,0,0,.956-.584,2.652,2.652,0,0,0,.62-.978l1.663.467a3.689,3.689,0,0,1-.883,1.488,4.309,4.309,0,0,1-1.532.992A5.687,5.687,0,0,1,97.462,51.186Zm11.812,0a4.69,4.69,0,0,1-4.465-2.794,7.556,7.556,0,0,1,.015-6,4.961,4.961,0,0,1,1.765-2.05,4.743,4.743,0,0,1,2.656-.744,5.024,5.024,0,0,1,2.13.438,4.08,4.08,0,0,1,1.554,1.226,3.821,3.821,0,0,1,.751,1.839h-1.722a2.673,2.673,0,0,0-.875-1.357,2.621,2.621,0,0,0-1.81-.6,3.022,3.022,0,0,0-1.765.525,3.424,3.424,0,0,0-1.175,1.466,5.438,5.438,0,0,0-.416,2.211,5.752,5.752,0,0,0,.409,2.262,3.456,3.456,0,0,0,1.167,1.5,3.019,3.019,0,0,0,1.78.533,3.075,3.075,0,0,0,1.219-.233,2.513,2.513,0,0,0,.926-.671,2.568,2.568,0,0,0,.54-1.051h1.722a3.981,3.981,0,0,1-.722,1.788,4.033,4.033,0,0,1-1.51,1.255A4.869,4.869,0,0,1,109.274,51.186Zm8.529-4.319-.029-2.13h.35l4.9-4.99h2.13l-5.223,5.282h-.146ZM116.2,50.952V36.01h1.722V50.952Zm7.121,0-4.378-5.545,1.226-1.2,5.34,6.741Zm8.146.233a4.739,4.739,0,0,1-4.444-2.743,6.846,6.846,0,0,1-.634-3.035,6.929,6.929,0,0,1,.634-3.057,5.05,5.05,0,0,1,7.1-2.028,4.832,4.832,0,0,1,1.78,2.028,6.85,6.85,0,0,1,.642,3.057,6.768,6.768,0,0,1-.642,3.035,4.736,4.736,0,0,1-4.436,2.743Zm0-1.547a2.955,2.955,0,0,0,1.9-.591,3.482,3.482,0,0,0,1.1-1.554,5.949,5.949,0,0,0,.357-2.087,6.01,6.01,0,0,0-.357-2.094,3.527,3.527,0,0,0-1.1-1.569,3.306,3.306,0,0,0-3.793,0,3.528,3.528,0,0,0-1.1,1.569,6.011,6.011,0,0,0-.357,2.094,5.95,5.95,0,0,0,.357,2.087,3.483,3.483,0,0,0,1.1,1.554A2.956,2.956,0,0,0,131.465,49.639Zm14.769-3.269V39.746h1.722V50.952h-1.722v-1.9h-.117a3.684,3.684,0,0,1-1.225,1.452,3.54,3.54,0,0,1-2.1.591,3.744,3.744,0,0,1-1.868-.46,3.212,3.212,0,0,1-1.284-1.4,5.318,5.318,0,0,1-.468-2.371V39.746h1.722v7a2.74,2.74,0,0,0,.686,1.955,2.328,2.328,0,0,0,1.765.73,2.935,2.935,0,0,0,1.307-.328,2.849,2.849,0,0,0,1.123-1.007A3.019,3.019,0,0,0,146.234,46.371Zm9.749-6.625v1.459h-5.808V39.746Zm-4.115-2.685h1.722V47.742a2.229,2.229,0,0,0,.212,1.094,1.1,1.1,0,0,0,.554.482,2.228,2.228,0,0,0,.722.117,3.047,3.047,0,0,0,.467-.029l.293-.058.35,1.547a3.534,3.534,0,0,1-.489.131,3.6,3.6,0,0,1-.8.073,3.465,3.465,0,0,1-1.43-.314,2.844,2.844,0,0,1-1.153-.956,2.745,2.745,0,0,1-.452-1.62Z"/>
        <path id="Path_519" data-name="Path 519" d="M41.672,39.754a.822.822,0,0,0-1.162-1.162l-4.383,4.383a.821.821,0,0,0,0,1.162L40.51,48.52a.822.822,0,1,0,1.162-1.162l-2.98-2.98H49.309a.822.822,0,0,0,0-1.644H38.692Z" fill="#fa7b17"/>
        <path id="Path_520" data-name="Path 520" d="M310.341,33.169a54.977,54.977,0,0,1,12.115,0,4.861,4.861,0,0,1,4.288,4.242,52.9,52.9,0,0,1,0,12.29,4.86,4.86,0,0,1-4.288,4.242,54.967,54.967,0,0,1-12.115,0,4.86,4.86,0,0,1-4.288-4.242,52.9,52.9,0,0,1,0-12.29A4.861,4.861,0,0,1,310.341,33.169Zm1.464,5.794a.977.977,0,0,1,1.381,0l3.213,3.214,3.213-3.214a.976.976,0,0,1,1.381,1.38l-3.214,3.214,3.214,3.214a.976.976,0,1,1-1.381,1.38L316.4,44.936l-3.213,3.214a.976.976,0,0,1-1.381-1.38l3.214-3.214L311.8,40.343A.977.977,0,0,1,311.8,38.963Z" fill="#d3241d" fill-rule="evenodd"/>
      </g>
    </g>
  </g>
</svg>
