<svg xmlns="http://www.w3.org/2000/svg" xmlns:xlink="http://www.w3.org/1999/xlink" width="411" height="870" viewBox="0 0 411 870">
  <defs>
    <filter id="Rectangle_95" x="0" y="0" width="411" height="870" filterUnits="userSpaceOnUse">
      <feOffset dy="3" input="SourceAlpha"/>
      <feGaussianBlur stdDeviation="3" result="blur"/>
      <feFlood flood-opacity="0.161"/>
      <feComposite operator="in" in2="blur"/>
      <feComposite in="SourceGraphic"/>
    </filter>
    <clipPath id="clip-path">
      <path id="Rectangle_104" data-name="Rectangle 104" d="M0,0H356a0,0,0,0,1,0,0V717a44,44,0,0,1-44,44H44A44,44,0,0,1,0,717V0A0,0,0,0,1,0,0Z" transform="translate(25 67)" fill="#e3dddd"/>
    </clipPath>
  </defs>
  <g id="iphone_14_model" data-name="iphone 14 model" transform="translate(3 6)">
    <g id="Group_51" data-name="Group 51" transform="translate(-1007 -44)">
      <path id="Rectangle_102" data-name="Rectangle 102" d="M0,0H354a0,0,0,0,1,0,0V715a44,44,0,0,1-44,44H44A44,44,0,0,1,0,715V0A0,0,0,0,1,0,0Z" transform="translate(1033 113)" fill="#fff"/>
      <path id="Rectangle_98" data-name="Rectangle 98" d="M4,0H8A1,1,0,0,1,9,1V32a0,0,0,0,1,0,0H4a4,4,0,0,1-4-4V4A4,4,0,0,1,4,0Z" transform="translate(1007 146)"/>
      <path id="Rectangle_99" data-name="Rectangle 99" d="M4,0H8A1,1,0,0,1,9,1V41a0,0,0,0,1,0,0H4a4,4,0,0,1-4-4V4A4,4,0,0,1,4,0Z" transform="translate(1007 213)"/>
      <path id="Rectangle_100" data-name="Rectangle 100" d="M4,0H8A1,1,0,0,1,9,1V43a0,0,0,0,1,0,0H4a4,4,0,0,1-4-4V4A4,4,0,0,1,4,0Z" transform="translate(1007 267)"/>
      <g transform="matrix(1, 0, 0, 1, 1004, 38)" filter="url(#Rectangle_95)">
        <rect id="Rectangle_95-2" data-name="Rectangle 95" width="393" height="852" rx="49" transform="translate(9 6)"/>
      </g>
      <rect id="Rectangle_96" data-name="Rectangle 96" width="356" height="806" rx="44" transform="translate(1032 66)" fill="#fff"/>
      <rect id="Rectangle_97" data-name="Rectangle 97" width="91" height="26" rx="13" transform="translate(1165 79)"/>
      <circle id="Ellipse_28" data-name="Ellipse 28" cx="7.5" cy="7.5" r="7.5" transform="translate(1235 85)" fill="#343434"/>
      <g id="Group_49" data-name="Group 49" transform="translate(249 -70)">
        <g id="Group_48" data-name="Group 48">
          <circle id="Ellipse_31" data-name="Ellipse 31" cx="7.5" cy="7.5" r="7.5" transform="translate(986 155)" fill="#686868" opacity="0.58"/>
          <circle id="Ellipse_29" data-name="Ellipse 29" cx="5.5" cy="5.5" r="5.5" transform="translate(988 157)"/>
        </g>
        <circle id="Ellipse_30" data-name="Ellipse 30" cx="3.5" cy="3.5" r="3.5" transform="translate(990 159)" fill="#686868" opacity="0.58"/>
      </g>
      <g id="e8e6ee9e72e7153be5440514d554cb61" transform="translate(1334.5 78)">
        <path id="Path_100" data-name="Path 100" d="M4.5,9h17a2,2,0,0,1,2,2v7a2,2,0,0,1-2,2H4.5a2,2,0,0,1-2-2V11a2,2,0,0,1,2-2Z"/>
        <path id="Path_101" data-name="Path 101" d="M22.5,12.511a2.478,2.478,0,0,0,0,3.978V12.511Z"/>
        <path id="Path_102" data-name="Path 102" d="M24.5,12.05v4.9a2.5,2.5,0,0,0,0-4.9Z"/>
        <g id="Group_47" data-name="Group 47">
          <path id="Path_103" data-name="Path 103" d="M4.5,9h17a2,2,0,0,1,2,2v7a2,2,0,0,1-2,2H4.5a2,2,0,0,1-2-2V11a2,2,0,0,1,2-2Z"/>
          <path id="Path_104" data-name="Path 104" d="M22.5,12.511a2.478,2.478,0,0,0,0,3.978V12.511Z"/>
          <path id="Path_105" data-name="Path 105" d="M24.5,12.05v4.9a2.5,2.5,0,0,0,0-4.9Z"/>
        </g>
      </g>
      <g id="d743fefe810fdcecaebf8af611593f31" transform="translate(1302.925 78.713)">
        <path id="Path_107" data-name="Path 107" d="M9.52,14.352a5.617,5.617,0,0,1,7.943,0M7.075,11.907a9.075,9.075,0,0,1,12.832,0" fill="none"/>
      </g>
      <g id="Group_50" data-name="Group 50" transform="translate(131 -70)">
        <g id="Group_48-2" data-name="Group 48">
          <path id="Path_112" data-name="Path 112" d="M7.5,0C9.924,8.771,15,3.358,15,7.5a7.5,7.5,0,0,1-15,0C0,3.358,5.076-8.771,7.5,0Z" transform="translate(986 155)" opacity="0.58"/>
          <circle id="Ellipse_29-2" data-name="Ellipse 29" cx="5.5" cy="5.5" r="5.5" transform="translate(988 157)"/>
        </g>
        <circle id="Ellipse_30-2" data-name="Ellipse 30" cx="3.5" cy="3.5" r="3.5" transform="translate(990 159)" fill="#fff" opacity="0.58"/>
      </g>
      <g id="f1cde6ddbaba974b823c5c7b191d9d2c" transform="translate(1279.5 80.5)">
        <path id="Path_108" data-name="Path 108" d="M5.849,15.087V19.2a.587.587,0,0,1-.587.587H4.087A.587.587,0,0,1,3.5,19.2V15.087a.587.587,0,0,1,.587-.587H5.262A.587.587,0,0,1,5.849,15.087Z" transform="translate(0 -3.715)"/>
        <path id="Path_109" data-name="Path 109" d="M11.849,13.087v5.285a.587.587,0,0,1-.587.587H10.087a.587.587,0,0,1-.587-.587V13.087a.587.587,0,0,1,.587-.587h1.174A.587.587,0,0,1,11.849,13.087Z" transform="translate(-2.477 -2.889)"/>
        <path id="Path_110" data-name="Path 110" d="M17.849,10.087v7.047a.587.587,0,0,1-.587.587H16.087a.587.587,0,0,1-.587-.587V10.087a.587.587,0,0,1,.587-.587h1.174A.587.587,0,0,1,17.849,10.087Z" transform="translate(-4.953 -1.651)"/>
        <path id="Path_111" data-name="Path 111" d="M23.849,6.087v9.4a.587.587,0,0,1-.587.587H22.087a.587.587,0,0,1-.587-.587v-9.4a.587.587,0,0,1,.587-.587h1.174A.587.587,0,0,1,23.849,6.087Z" transform="translate(-7.43)"/>
      </g>
      <text id="_5:41" data-name="5:41" transform="translate(1086 98)" font-size="17" font-family="OpenSans-Bold, Open Sans" font-weight="700"><tspan x="-16.979" y="0">5:41</tspan></text>
      <path id="Rectangle_103" data-name="Rectangle 103" d="M1,0H5A4,4,0,0,1,9,4V87a4,4,0,0,1-4,4H0a0,0,0,0,1,0,0V1A1,1,0,0,1,1,0Z" transform="translate(1404 191)"/>
      <g id="d743fefe810fdcecaebf8af611593f31-2" data-name="d743fefe810fdcecaebf8af611593f31" transform="translate(1302.925 78)">
        <path id="Path_113" data-name="Path 113" d="M14.222,19.357l-2.2-2.2a3.108,3.108,0,0,1,4.394,0Z" transform="translate(-0.556 -0.787)"/>
        <path id="Path_114" data-name="Path 114" d="M9.586,14.491a5.77,5.77,0,0,1,8.159,0M7.075,11.979a9.322,9.322,0,0,1,13.181,0" transform="translate(0 0)" fill="none" stroke="#000" stroke-miterlimit="10" stroke-width="2"/>
      </g>
    </g>
    <g id="Mask_Group_11" data-name="Mask Group 11" clip-path="url(#clip-path)">
      <g id="Check_Out_Phase_1_" data-name="Check Out ( Phase 1 )" transform="translate(27.132 67)">
        <rect id="Rectangle_672" data-name="Rectangle 672" width="351.737" height="761" fill="#fff"/>
        <rect id="Rectangle_673" data-name="Rectangle 673" width="350.915" height="1.644" transform="translate(0.822 79.716)" fill="#d9d9d9"/>
        <rect id="Rectangle_674" data-name="Rectangle 674" width="89.578" height="4.109" transform="translate(0 78.072)" fill="#fa7b17"/>
        <path id="Path_534" data-name="Path 534" d="M36.843,151.907H34.8a2.308,2.308,0,0,0-.166-.9,1.907,1.907,0,0,0-.466-.676,1.952,1.952,0,0,0-.71-.416,2.728,2.728,0,0,0-.909-.144,3.435,3.435,0,0,0-1.774.482,4.073,4.073,0,0,0-1.392,1.4,6.08,6.08,0,0,0-.793,2.223,5.006,5.006,0,0,0,.039,2.135,2.324,2.324,0,0,0,.865,1.3,2.537,2.537,0,0,0,1.5.432,3.943,3.943,0,0,0,1.031-.133,3.349,3.349,0,0,0,.909-.4,3.146,3.146,0,0,0,.737-.66,2.92,2.92,0,0,0,.5-.882h2.068a5.669,5.669,0,0,1-.749,1.524,5.778,5.778,0,0,1-1.187,1.253,5.475,5.475,0,0,1-3.4,1.148,4.669,4.669,0,0,1-2.612-.71,3.949,3.949,0,0,1-1.553-2.045,6.462,6.462,0,0,1-.166-3.2,7.665,7.665,0,0,1,1.176-3.088,6.011,6.011,0,0,1,2.135-1.946,5.681,5.681,0,0,1,2.723-.676,5.446,5.446,0,0,1,1.752.266,3.771,3.771,0,0,1,1.359.782,3.289,3.289,0,0,1,.859,1.253A4.124,4.124,0,0,1,36.843,151.907Zm4.3,7.691a3.717,3.717,0,0,1-2.1-.554,2.941,2.941,0,0,1-1.17-1.558,4.82,4.82,0,0,1-.122-2.329,5.822,5.822,0,0,1,.865-2.29A4.533,4.533,0,0,1,42.5,150.8a3.665,3.665,0,0,1,2.09.56,2.941,2.941,0,0,1,1.17,1.558,4.808,4.808,0,0,1,.128,2.34,5.607,5.607,0,0,1-.871,2.279,4.654,4.654,0,0,1-1.647,1.52A4.6,4.6,0,0,1,41.139,159.6Zm.166-1.607a2.05,2.05,0,0,0,1.225-.377,2.9,2.9,0,0,0,.871-1.026,4.73,4.73,0,0,0,.477-1.442,4.055,4.055,0,0,0,.006-1.386,1.778,1.778,0,0,0-.5-.993,1.43,1.43,0,0,0-1.048-.371,2.058,2.058,0,0,0-1.237.388,2.891,2.891,0,0,0-.871,1.031,4.649,4.649,0,0,0-.466,1.437,3.975,3.975,0,0,0-.011,1.386,1.772,1.772,0,0,0,.5.987A1.461,1.461,0,0,0,41.306,157.991Zm8.435-3.549-.821,4.99H46.907l1.419-8.517h1.924l-.244,1.447h.105a2.981,2.981,0,0,1,1.12-1.137,3.267,3.267,0,0,1,1.68-.422,2.676,2.676,0,0,1,1.464.377,2.024,2.024,0,0,1,.843,1.092,3.5,3.5,0,0,1,.078,1.736l-.909,5.423H52.38l.848-5.113a1.685,1.685,0,0,0-.216-1.331,1.317,1.317,0,0,0-1.142-.488,2.068,2.068,0,0,0-1.719.892A2.639,2.639,0,0,0,49.741,154.442Zm12.415-3.527-.261,1.553H56.86l.261-1.553Zm-5.2,8.517,1.558-9.321a3.019,3.019,0,0,1,.582-1.431,2.857,2.857,0,0,1,1.1-.854,3.476,3.476,0,0,1,1.392-.283,4.48,4.48,0,0,1,1.48.233l-.649,1.553c-.085-.026-.189-.052-.31-.078a1.727,1.727,0,0,0-.416-.044,1.15,1.15,0,0,0-.837.272,1.356,1.356,0,0,0-.366.765l-1.525,9.188Zm5.363,0,1.42-8.517h2.007l-1.42,8.517Zm2.717-9.737a1.072,1.072,0,0,1-.8-.321.937.937,0,0,1-.277-.771,1.128,1.128,0,0,1,.4-.771,1.259,1.259,0,0,1,.848-.321,1.054,1.054,0,0,1,.793.321.936.936,0,0,1,.277.771,1.1,1.1,0,0,1-.4.771A1.238,1.238,0,0,1,65.035,149.7Zm1.354,9.737,1.42-8.517h1.946l-.238,1.42h.089a2.631,2.631,0,0,1,.987-1.137,2.539,2.539,0,0,1,1.375-.4c.115,0,.238.006.371.016a2.692,2.692,0,0,1,.344.039l-.31,1.847a2.1,2.1,0,0,0-.4-.077,3.586,3.586,0,0,0-.527-.039,2.222,2.222,0,0,0-1.02.238,2.267,2.267,0,0,0-.787.648,2.142,2.142,0,0,0-.416.959l-.826,5.007Zm6.212,0,1.42-8.517h1.924l-.244,1.447h.105a2.888,2.888,0,0,1,2.606-1.558,2.152,2.152,0,0,1,1.386.422,1.759,1.759,0,0,1,.654,1.137h.089a2.937,2.937,0,0,1,1.142-1.137,3.365,3.365,0,0,1,1.68-.422,2.2,2.2,0,0,1,1.785.744,2.6,2.6,0,0,1,.383,2.168l-.954,5.717H82.571l.909-5.406a1.163,1.163,0,0,0-1.214-1.531,1.7,1.7,0,0,0-1.209.45,1.967,1.967,0,0,0-.588,1.175l-.893,5.312H77.608l.92-5.49a1.268,1.268,0,0,0-.233-1.054,1.184,1.184,0,0,0-.965-.394,1.659,1.659,0,0,0-.826.222,2.023,2.023,0,0,0-.671.621,2.193,2.193,0,0,0-.355.915l-.865,5.179Zm18.607,3.194a3.891,3.891,0,0,1-.749-.067,2.553,2.553,0,0,1-.527-.144l.732-1.564a2.18,2.18,0,0,0,.749.111,1.063,1.063,0,0,0,.621-.227,2.221,2.221,0,0,0,.565-.694l.255-.46-1.63-8.667h2.052l.887,6.444h.089l3.045-6.444h2.212l-4.985,9.537a4.793,4.793,0,0,1-.837,1.176,3.262,3.262,0,0,1-1.092.743A3.564,3.564,0,0,1,91.208,162.626Zm11.718-3.028a3.718,3.718,0,0,1-2.1-.554,2.937,2.937,0,0,1-1.169-1.558,4.818,4.818,0,0,1-.122-2.329,5.821,5.821,0,0,1,.865-2.29,4.534,4.534,0,0,1,3.881-2.063,3.662,3.662,0,0,1,2.09.56,2.939,2.939,0,0,1,1.17,1.558,4.8,4.8,0,0,1,.127,2.34,5.611,5.611,0,0,1-.87,2.279,4.658,4.658,0,0,1-1.647,1.52A4.6,4.6,0,0,1,102.926,159.6Zm.166-1.607a2.049,2.049,0,0,0,1.225-.377,2.893,2.893,0,0,0,.87-1.026,4.73,4.73,0,0,0,.477-1.442,4.041,4.041,0,0,0,0-1.386,1.772,1.772,0,0,0-.5-.993,1.43,1.43,0,0,0-1.048-.371,2.059,2.059,0,0,0-1.237.388,2.894,2.894,0,0,0-.87,1.031,4.668,4.668,0,0,0-.466,1.437,3.971,3.971,0,0,0-.011,1.386,1.771,1.771,0,0,0,.5.987A1.461,1.461,0,0,0,103.092,157.991Zm11.618-2.141.826-4.935h2.008l-1.419,8.517h-1.947l.256-1.514h-.089a3.2,3.2,0,0,1-2.839,1.625,2.557,2.557,0,0,1-1.414-.371,2.048,2.048,0,0,1-.821-1.092,3.676,3.676,0,0,1-.072-1.741l.91-5.423h2.007l-.854,5.112a1.64,1.64,0,0,0,.233,1.287,1.286,1.286,0,0,0,1.086.477,2.046,2.046,0,0,0,.892-.216,2.234,2.234,0,0,0,.793-.643A2.317,2.317,0,0,0,114.71,155.85ZM125.8,159.6a3.718,3.718,0,0,1-2.1-.554,2.942,2.942,0,0,1-1.169-1.558,4.817,4.817,0,0,1-.122-2.329,5.821,5.821,0,0,1,.865-2.29,4.534,4.534,0,0,1,3.881-2.063,3.662,3.662,0,0,1,2.09.56,2.939,2.939,0,0,1,1.17,1.558,4.8,4.8,0,0,1,.127,2.34,5.612,5.612,0,0,1-.87,2.279,4.657,4.657,0,0,1-1.647,1.52A4.6,4.6,0,0,1,125.8,159.6Zm.166-1.607a2.049,2.049,0,0,0,1.225-.377,2.9,2.9,0,0,0,.871-1.026,4.752,4.752,0,0,0,.477-1.442,4.063,4.063,0,0,0,.006-1.386,1.778,1.778,0,0,0-.5-.993A1.43,1.43,0,0,0,127,152.4a2.059,2.059,0,0,0-1.237.388,2.9,2.9,0,0,0-.87,1.031,4.669,4.669,0,0,0-.466,1.437,3.971,3.971,0,0,0-.011,1.386,1.771,1.771,0,0,0,.5.987A1.461,1.461,0,0,0,125.965,157.991Zm5.6,1.441,1.419-8.517h1.946l-.238,1.42h.089a2.631,2.631,0,0,1,.987-1.137,2.54,2.54,0,0,1,1.375-.4c.115,0,.238.006.371.016a2.7,2.7,0,0,1,.344.039l-.311,1.847a2.117,2.117,0,0,0-.4-.077,3.59,3.59,0,0,0-.527-.039,2.22,2.22,0,0,0-1.02.238,2.269,2.269,0,0,0-.788.648,2.154,2.154,0,0,0-.416.959l-.826,5.007Zm9,.15a2.838,2.838,0,0,1-1.714-.515,2.787,2.787,0,0,1-1.009-1.5,5.377,5.377,0,0,1-.067-2.384,6.28,6.28,0,0,1,.871-2.4,4.389,4.389,0,0,1,1.508-1.481,3.7,3.7,0,0,1,1.863-.5,2.365,2.365,0,0,1,1.192.256,1.8,1.8,0,0,1,.666.6,3.1,3.1,0,0,1,.327.66h.083l.7-4.247H147l-1.885,11.356h-1.974l.228-1.342h-.122a4.593,4.593,0,0,1-.56.66,3.092,3.092,0,0,1-.87.588A2.936,2.936,0,0,1,140.566,159.582Zm.8-1.647a2.016,2.016,0,0,0,1.153-.344,2.756,2.756,0,0,0,.86-.971,4.519,4.519,0,0,0,.482-1.447,3.746,3.746,0,0,0,0-1.436,1.69,1.69,0,0,0-.538-.948,1.567,1.567,0,0,0-1.048-.339,2,2,0,0,0-1.169.349,2.65,2.65,0,0,0-.821.965,4.711,4.711,0,0,0-.454,1.409,4.128,4.128,0,0,0-.017,1.425,1.775,1.775,0,0,0,.5.981A1.494,1.494,0,0,0,141.365,157.935Zm9.651,1.663a3.878,3.878,0,0,1-2.118-.532,2.856,2.856,0,0,1-1.176-1.52,4.789,4.789,0,0,1-.111-2.323,5.773,5.773,0,0,1,.882-2.307,4.768,4.768,0,0,1,1.663-1.552,4.477,4.477,0,0,1,2.218-.56,3.979,3.979,0,0,1,1.447.256,2.719,2.719,0,0,1,1.114.776,2.949,2.949,0,0,1,.627,1.342,5.224,5.224,0,0,1-.017,1.93l-.094.616h-6.987l.217-1.353h5.057a1.956,1.956,0,0,0-.067-1.026,1.432,1.432,0,0,0-.555-.716,1.706,1.706,0,0,0-.971-.261,2.143,2.143,0,0,0-1.109.3,2.836,2.836,0,0,0-.86.777,2.416,2.416,0,0,0-.444,1l-.227,1.3a2.734,2.734,0,0,0,.055,1.3,1.3,1.3,0,0,0,.621.744,2.353,2.353,0,0,0,1.12.238,2.645,2.645,0,0,0,.82-.122,2.011,2.011,0,0,0,.671-.366,2.122,2.122,0,0,0,.5-.61l1.835.21a3.685,3.685,0,0,1-.892,1.3,4.157,4.157,0,0,1-1.409.854A5.221,5.221,0,0,1,151.016,159.6Zm5.523-.166,1.419-8.517H159.9l-.238,1.42h.089a2.625,2.625,0,0,1,.987-1.137,2.536,2.536,0,0,1,1.375-.4c.114,0,.238.006.371.016a2.688,2.688,0,0,1,.344.039l-.311,1.847a2.091,2.091,0,0,0-.4-.077,3.591,3.591,0,0,0-.527-.039,2.221,2.221,0,0,0-1.021.238,2.266,2.266,0,0,0-.787.648,2.136,2.136,0,0,0-.416.959l-.826,5.007Z"/>
        <line id="Line_183" data-name="Line 183" x2="332.835" transform="translate(6.575 337.355)" fill="none" stroke="#fff" stroke-width="0.822"/>
        <path id="Path_535" data-name="Path 535" d="M50.542,472.132H296.264v29.585H50.542Z" fill="none" stroke="#fa7b17" stroke-width="0.822"/>
        <g id="Group_185" data-name="Group 185">
          <path id="Path_536" data-name="Path 536" d="M50.131,525.961H296.675v30.407H50.131Z" fill="#fa7b17"/>
        </g>
        <path id="Path_537" data-name="Path 537" d="M161.484,492.267V482.106h6.132V483.2h-4.9v3.434H167.3v1.091h-4.584v3.453H167.7v1.091Zm11.486,0h-3.136V482.106h3.275a4.962,4.962,0,0,1,2.53.611,4,4,0,0,1,1.612,1.741,6.049,6.049,0,0,1,.56,2.709,6.113,6.113,0,0,1-.566,2.733,4.021,4.021,0,0,1-1.647,1.756A5.275,5.275,0,0,1,172.97,492.267Zm-1.906-1.091h1.826a4.073,4.073,0,0,0,2.089-.486,3,3,0,0,0,1.235-1.384,5.8,5.8,0,0,0,0-4.257,2.964,2.964,0,0,0-1.2-1.369,3.8,3.8,0,0,0-1.99-.482h-1.965Zm10.042-9.07v10.161h-1.23V482.106Zm1.912,1.091v-1.091h7.621V483.2h-3.2v9.07h-1.23V483.2Z" fill="#fa7b17"/>
        <path id="Path_538" data-name="Path 538" d="M147.988,546.506V536.346H152a4.071,4.071,0,0,1,1.97.442,2.987,2.987,0,0,1,1.24,1.215,3.885,3.885,0,0,1,0,3.572,3.008,3.008,0,0,1-1.265,1.206,4.252,4.252,0,0,1-1.995.431h-2.555v-1.721h2.207a2.168,2.168,0,0,0,1.022-.214,1.414,1.414,0,0,0,.606-.6,1.883,1.883,0,0,0,.2-.888,1.833,1.833,0,0,0-.2-.883,1.362,1.362,0,0,0-.606-.59,2.212,2.212,0,0,0-1.032-.214h-1.448v8.4Zm9.005,0v-7.621h2.049v1.33h.08a1.971,1.971,0,0,1,.7-1.072,1.839,1.839,0,0,1,1.132-.367,3.222,3.222,0,0,1,.342.021,2.434,2.434,0,0,1,.323.054v1.875a2.885,2.885,0,0,0-.413-.08,3.712,3.712,0,0,0-.481-.034,1.692,1.692,0,0,0-.833.2,1.5,1.5,0,0,0-.576.556,1.605,1.605,0,0,0-.208.823v4.311Zm8.8.149a3.9,3.9,0,0,1-2-.491,3.353,3.353,0,0,1-1.294-1.379,4.879,4.879,0,0,1,0-4.123,3.324,3.324,0,0,1,1.294-1.379,4.272,4.272,0,0,1,3.994,0,3.322,3.322,0,0,1,1.3,1.379,4.887,4.887,0,0,1,0,4.123,3.35,3.35,0,0,1-1.3,1.379A3.872,3.872,0,0,1,165.8,546.655Zm.01-1.637a1.317,1.317,0,0,0,.879-.3,1.85,1.85,0,0,0,.531-.823,3.928,3.928,0,0,0,0-2.372,1.84,1.84,0,0,0-.531-.823,1.3,1.3,0,0,0-.879-.3,1.342,1.342,0,0,0-.892.3,1.848,1.848,0,0,0-.541.823,4.014,4.014,0,0,0,0,2.372,1.858,1.858,0,0,0,.541.823A1.361,1.361,0,0,0,165.808,545.018Zm8.558,1.637a3.9,3.9,0,0,1-2.014-.5,3.359,3.359,0,0,1-1.29-1.389,4.9,4.9,0,0,1,0-4.1,3.36,3.36,0,0,1,1.3-1.385,3.819,3.819,0,0,1,1.995-.5,3.968,3.968,0,0,1,1.746.362,2.921,2.921,0,0,1,1.186,1.017,2.987,2.987,0,0,1,.481,1.538h-1.995a1.538,1.538,0,0,0-.446-.918,1.28,1.28,0,0,0-.938-.352,1.413,1.413,0,0,0-.858.268,1.7,1.7,0,0,0-.565.769,3.284,3.284,0,0,0-.2,1.225,3.454,3.454,0,0,0,.2,1.24,1.726,1.726,0,0,0,.571.779,1.419,1.419,0,0,0,.858.268,1.4,1.4,0,0,0,.65-.149,1.26,1.26,0,0,0,.482-.432,1.646,1.646,0,0,0,.252-.69h1.995a3.124,3.124,0,0,1-.476,1.538,2.877,2.877,0,0,1-1.166,1.031A3.894,3.894,0,0,1,174.367,546.655Zm8.23,0a4.074,4.074,0,0,1-2.024-.476,3.259,3.259,0,0,1-1.3-1.36,4.952,4.952,0,0,1,0-4.152,3.37,3.37,0,0,1,1.285-1.385,3.752,3.752,0,0,1,1.954-.5,3.984,3.984,0,0,1,1.4.242,3.116,3.116,0,0,1,1.141.72,3.275,3.275,0,0,1,.764,1.211,4.809,4.809,0,0,1,.273,1.7v.581h-6.435v-1.31H184.1a1.62,1.62,0,0,0-.2-.809,1.419,1.419,0,0,0-.551-.551,1.568,1.568,0,0,0-.809-.2,1.627,1.627,0,0,0-.853.224,1.561,1.561,0,0,0-.575.59,1.668,1.668,0,0,0-.214.819v1.246a2.139,2.139,0,0,0,.209.977,1.523,1.523,0,0,0,.6.635,1.806,1.806,0,0,0,.918.223,2.011,2.011,0,0,0,.645-.1,1.345,1.345,0,0,0,.5-.3,1.292,1.292,0,0,0,.318-.486l1.954.129a2.668,2.668,0,0,1-.61,1.23,3.061,3.061,0,0,1-1.181.814A4.457,4.457,0,0,1,182.6,546.655Zm8.35,0a4.074,4.074,0,0,1-2.024-.476,3.264,3.264,0,0,1-1.3-1.36,4.952,4.952,0,0,1,0-4.152,3.375,3.375,0,0,1,1.285-1.385,3.752,3.752,0,0,1,1.954-.5,3.984,3.984,0,0,1,1.4.242,3.116,3.116,0,0,1,1.141.72,3.254,3.254,0,0,1,.764,1.211,4.809,4.809,0,0,1,.273,1.7v.581h-6.435v-1.31h4.445a1.62,1.62,0,0,0-.2-.809,1.424,1.424,0,0,0-.551-.551,1.573,1.573,0,0,0-.809-.2,1.627,1.627,0,0,0-.853.224,1.561,1.561,0,0,0-.575.59,1.668,1.668,0,0,0-.214.819v1.246a2.139,2.139,0,0,0,.209.977,1.523,1.523,0,0,0,.6.635,1.806,1.806,0,0,0,.918.223,2.011,2.011,0,0,0,.645-.1,1.348,1.348,0,0,0,.5-.3,1.3,1.3,0,0,0,.317-.486l1.955.129a2.678,2.678,0,0,1-.611,1.23,3.061,3.061,0,0,1-1.181.814A4.454,4.454,0,0,1,190.946,546.655Zm7.685-.025a2.88,2.88,0,0,1-1.573-.446,3.105,3.105,0,0,1-1.111-1.325,5.107,5.107,0,0,1-.407-2.153,4.978,4.978,0,0,1,.422-2.179,3.022,3.022,0,0,1,1.122-1.3,2.872,2.872,0,0,1,1.543-.436,2.33,2.33,0,0,1,1.067.218,2.056,2.056,0,0,1,.694.536,2.732,2.732,0,0,1,.407.625h.065v-3.821h2.108v10.161h-2.083v-1.22h-.09a2.758,2.758,0,0,1-.422.63,2.1,2.1,0,0,1-.7.51A2.41,2.41,0,0,1,198.631,546.631Zm.67-1.682a1.345,1.345,0,0,0,.863-.278,1.758,1.758,0,0,0,.547-.789,3.766,3.766,0,0,0,0-2.366,1.7,1.7,0,0,0-.546-.774,1.391,1.391,0,0,0-.869-.273,1.369,1.369,0,0,0-.878.283,1.735,1.735,0,0,0-.542.784,3.383,3.383,0,0,0-.183,1.161,3.484,3.484,0,0,0,.183,1.175,1.811,1.811,0,0,0,.542.794A1.365,1.365,0,0,0,199.3,544.948Z" fill="#fff"/>
        <path id="Path_539" data-name="Path 539" d="M75.551,213.672V205.9h2.974a3.245,3.245,0,0,1,1.4.266,1.871,1.871,0,0,1,.838.717,1.926,1.926,0,0,1,.281,1.032,1.689,1.689,0,0,1-.182.812,1.528,1.528,0,0,1-.489.542,2.078,2.078,0,0,1-.687.3v.076a1.676,1.676,0,0,1,.793.254,1.763,1.763,0,0,1,.626.645,1.976,1.976,0,0,1,.243,1.009,2.051,2.051,0,0,1-.292,1.085,1.988,1.988,0,0,1-.88.755,3.467,3.467,0,0,1-1.48.277Zm1.408-1.176h1.514a1.677,1.677,0,0,0,1.1-.293.958.958,0,0,0,.341-.759,1.161,1.161,0,0,0-.656-1.062,1.607,1.607,0,0,0-.751-.164H76.959Zm0-3.29h1.392a1.565,1.565,0,0,0,.656-.132,1.106,1.106,0,0,0,.459-.383,1.029,1.029,0,0,0,.171-.593.963.963,0,0,0-.319-.743,1.334,1.334,0,0,0-.937-.293H76.959Zm8.133,4.579a3,3,0,0,1-1.514-.364,2.464,2.464,0,0,1-.975-1.04,3.847,3.847,0,0,1,0-3.167,2.582,2.582,0,0,1,.964-1.063,2.7,2.7,0,0,1,1.453-.383,2.949,2.949,0,0,1,1.017.174,2.3,2.3,0,0,1,.85.531,2.486,2.486,0,0,1,.584.919,3.67,3.67,0,0,1,.213,1.32v.422H82.907v-.926h3.46a1.471,1.471,0,0,0-.171-.7,1.232,1.232,0,0,0-.467-.489,1.309,1.309,0,0,0-.69-.178,1.339,1.339,0,0,0-.74.2,1.408,1.408,0,0,0-.5.531,1.536,1.536,0,0,0-.178.717v.808a1.911,1.911,0,0,0,.186.873,1.329,1.329,0,0,0,.52.554,1.555,1.555,0,0,0,.782.19,1.654,1.654,0,0,0,.542-.084,1.2,1.2,0,0,0,.421-.254,1.06,1.06,0,0,0,.27-.413l1.283.144a2,2,0,0,1-.464.888,2.243,2.243,0,0,1-.865.584A3.318,3.318,0,0,1,85.092,213.785Zm6.333,0a3,3,0,0,1-1.514-.364,2.464,2.464,0,0,1-.975-1.04,3.847,3.847,0,0,1,0-3.167,2.588,2.588,0,0,1,.964-1.063,2.7,2.7,0,0,1,1.453-.383,2.949,2.949,0,0,1,1.017.174,2.3,2.3,0,0,1,.85.531,2.486,2.486,0,0,1,.584.919,3.67,3.67,0,0,1,.213,1.32v.422H89.24v-.926H92.7a1.471,1.471,0,0,0-.171-.7,1.232,1.232,0,0,0-.467-.489,1.309,1.309,0,0,0-.69-.178,1.341,1.341,0,0,0-.74.2,1.415,1.415,0,0,0-.5.531,1.536,1.536,0,0,0-.178.717v.808a1.9,1.9,0,0,0,.187.873,1.322,1.322,0,0,0,.519.554,1.555,1.555,0,0,0,.782.19,1.654,1.654,0,0,0,.542-.084,1.215,1.215,0,0,0,.422-.254,1.068,1.068,0,0,0,.269-.413l1.283.144A2,2,0,0,1,93.5,213a2.243,2.243,0,0,1-.865.584A3.318,3.318,0,0,1,91.425,213.785Zm6.7-5.941v1.063H94.685v-1.063Zm-2.583,5.827v-6.377a1.823,1.823,0,0,1,.242-.979,1.538,1.538,0,0,1,.66-.584,2.141,2.141,0,0,1,.918-.194,3.109,3.109,0,0,1,.634.058,3.616,3.616,0,0,1,.41.1l-.273,1.063c-.058-.018-.131-.035-.22-.053a1.364,1.364,0,0,0-.3-.03.684.684,0,0,0-.542.186.782.782,0,0,0-.156.523v6.287Zm6.37,0V205.9h2.974a3.242,3.242,0,0,1,1.4.266,1.871,1.871,0,0,1,.839.717,1.931,1.931,0,0,1,.28,1.032,1.7,1.7,0,0,1-.182.812,1.534,1.534,0,0,1-.49.542,2.079,2.079,0,0,1-.686.3v.076a1.673,1.673,0,0,1,.792.254,1.762,1.762,0,0,1,.626.645,1.976,1.976,0,0,1,.243,1.009,2.052,2.052,0,0,1-.293,1.085,1.989,1.989,0,0,1-.88.755,3.466,3.466,0,0,1-1.479.277Zm1.407-1.176h1.514a1.679,1.679,0,0,0,1.1-.293.957.957,0,0,0,.341-.759,1.162,1.162,0,0,0-.657-1.062,1.606,1.606,0,0,0-.751-.164h-1.552Zm0-3.29h1.393a1.564,1.564,0,0,0,.656-.132,1.111,1.111,0,0,0,.459-.383A1.032,1.032,0,0,0,106,208.1a.965.965,0,0,0-.319-.743,1.336,1.336,0,0,0-.938-.293h-1.423Zm9.268,2.015v-3.377h1.373v5.827h-1.331v-1.035h-.061a1.755,1.755,0,0,1-.648.8,1.89,1.89,0,0,1-1.1.311,1.99,1.99,0,0,1-1.012-.254,1.764,1.764,0,0,1-.683-.747,2.645,2.645,0,0,1-.247-1.192v-3.711h1.373v3.5a1.243,1.243,0,0,0,.3.881,1.04,1.04,0,0,0,.8.326,1.25,1.25,0,0,0,.588-.149,1.2,1.2,0,0,0,.467-.44A1.364,1.364,0,0,0,112.591,211.221Zm2.786,2.451v-5.827h1.331v.971h.061a1.451,1.451,0,0,1,.547-.777,1.5,1.5,0,0,1,.892-.277c.076,0,.16,0,.254.011a1.731,1.731,0,0,1,.239.027v1.263a1.45,1.45,0,0,0-.277-.053,2.618,2.618,0,0,0-.361-.026,1.382,1.382,0,0,0-.675.164,1.189,1.189,0,0,0-.467.444,1.245,1.245,0,0,0-.171.656v3.426Zm6.53,2.307a3.6,3.6,0,0,1-1.271-.2,2.253,2.253,0,0,1-.853-.531,1.842,1.842,0,0,1-.448-.74l1.237-.3a1.387,1.387,0,0,0,.242.338,1.205,1.205,0,0,0,.429.28,1.786,1.786,0,0,0,.687.114,1.583,1.583,0,0,0,.967-.284,1.072,1.072,0,0,0,.383-.926v-1.1h-.068a1.94,1.94,0,0,1-.311.436,1.6,1.6,0,0,1-.534.376,1.994,1.994,0,0,1-.831.151,2.389,2.389,0,0,1-1.218-.315,2.258,2.258,0,0,1-.865-.948,3.519,3.519,0,0,1-.319-1.586,3.715,3.715,0,0,1,.319-1.62,2.371,2.371,0,0,1,.869-1.005,2.233,2.233,0,0,1,1.218-.345,1.8,1.8,0,0,1,.842.174,1.626,1.626,0,0,1,.531.413,2.269,2.269,0,0,1,.3.452h.076v-.964h1.354v5.922a2.041,2.041,0,0,1-.357,1.237,2.137,2.137,0,0,1-.975.732A3.817,3.817,0,0,1,121.907,215.979Zm.011-3.468a1.279,1.279,0,0,0,.744-.212,1.311,1.311,0,0,0,.466-.611,2.564,2.564,0,0,0,.159-.957,2.655,2.655,0,0,0-.159-.963,1.372,1.372,0,0,0-.463-.642,1.2,1.2,0,0,0-.747-.231,1.211,1.211,0,0,0-.767.239,1.45,1.45,0,0,0-.463.656,2.665,2.665,0,0,0-.155.941,2.591,2.591,0,0,0,.155.937,1.383,1.383,0,0,0,.467.623A1.29,1.29,0,0,0,121.919,212.51Zm6.711,1.275a3,3,0,0,1-1.514-.364,2.462,2.462,0,0,1-.975-1.04,3.839,3.839,0,0,1,0-3.167,2.582,2.582,0,0,1,.964-1.063,2.7,2.7,0,0,1,1.453-.383,2.952,2.952,0,0,1,1.017.174,2.309,2.309,0,0,1,.85.531,2.486,2.486,0,0,1,.584.919,3.689,3.689,0,0,1,.212,1.32v.422h-4.776v-.926h3.46a1.48,1.48,0,0,0-.17-.7,1.243,1.243,0,0,0-.467-.489,1.309,1.309,0,0,0-.69-.178,1.337,1.337,0,0,0-.74.2,1.4,1.4,0,0,0-.5.531,1.526,1.526,0,0,0-.178.717v.808a1.9,1.9,0,0,0,.186.873,1.333,1.333,0,0,0,.519.554,1.555,1.555,0,0,0,.782.19,1.656,1.656,0,0,0,.543-.084,1.211,1.211,0,0,0,.421-.254,1.06,1.06,0,0,0,.27-.413l1.282.144a1.992,1.992,0,0,1-.463.888,2.252,2.252,0,0,1-.865.584A3.315,3.315,0,0,1,128.63,213.785Zm3.753-.113v-5.827h1.332v.971h.06a1.455,1.455,0,0,1,.547-.777,1.5,1.5,0,0,1,.892-.277c.076,0,.161,0,.254.011a1.731,1.731,0,0,1,.239.027v1.263a1.45,1.45,0,0,0-.277-.053,2.616,2.616,0,0,0-.36-.026,1.383,1.383,0,0,0-.676.164,1.2,1.2,0,0,0-.467.444,1.252,1.252,0,0,0-.171.656v3.426Z"/>
        <path id="Path_540" data-name="Path 540" d="M75.551,232.2h1.722l2.307,5.63h.091l2.307-5.63H83.7v7.77H82.35v-5.338h-.072l-2.148,5.315H79.121l-2.147-5.326H76.9v5.349H75.551Zm11.3,7.888a2.433,2.433,0,0,1-1-.2,1.625,1.625,0,0,1-.7-.592,1.733,1.733,0,0,1-.254-.964,1.637,1.637,0,0,1,.182-.815,1.406,1.406,0,0,1,.5-.516,2.5,2.5,0,0,1,.709-.293,5.78,5.78,0,0,1,.823-.148q.512-.053.831-.094a1.233,1.233,0,0,0,.463-.136.323.323,0,0,0,.148-.293v-.022a.86.86,0,0,0-.254-.664,1.039,1.039,0,0,0-.732-.235,1.316,1.316,0,0,0-.8.219,1.094,1.094,0,0,0-.394.52l-1.283-.182a2.046,2.046,0,0,1,.5-.888,2.185,2.185,0,0,1,.853-.539,3.284,3.284,0,0,1,1.116-.182,3.637,3.637,0,0,1,.838.1,2.356,2.356,0,0,1,.763.326,1.633,1.633,0,0,1,.554.611,1.994,1.994,0,0,1,.212.967v3.9h-1.32v-.8H88.56a1.656,1.656,0,0,1-.353.455,1.7,1.7,0,0,1-.565.338A2.288,2.288,0,0,1,86.849,240.087Zm.357-1.009a1.5,1.5,0,0,0,.717-.163,1.214,1.214,0,0,0,.467-.44,1.123,1.123,0,0,0,.167-.6v-.686a.657.657,0,0,1-.22.1,3.181,3.181,0,0,1-.341.08c-.127.022-.252.043-.376.061l-.323.045a2.4,2.4,0,0,0-.55.136.92.92,0,0,0-.384.265.735.735,0,0,0,.137,1.006A1.2,1.2,0,0,0,87.206,239.078Zm4.1.892v-5.827h1.331v.971H92.7a1.45,1.45,0,0,1,.547-.777,1.5,1.5,0,0,1,.892-.277c.076,0,.16,0,.254.011a1.734,1.734,0,0,1,.239.027v1.263a1.452,1.452,0,0,0-.277-.053,2.618,2.618,0,0,0-.361-.026,1.388,1.388,0,0,0-.676.164,1.187,1.187,0,0,0-.466.444,1.245,1.245,0,0,0-.171.656v3.426Zm5.487-1.829,0-1.658h.22l2.094-2.341h1.605l-2.576,2.868H97.85Zm-1.252,1.829V232.2h1.373v7.77Zm3.657,0-1.9-2.652.926-.967,2.613,3.619Zm4.1.118a2.433,2.433,0,0,1-1-.2,1.632,1.632,0,0,1-.7-.592,1.733,1.733,0,0,1-.254-.964,1.637,1.637,0,0,1,.182-.815,1.4,1.4,0,0,1,.5-.516,2.516,2.516,0,0,1,.71-.293,5.79,5.79,0,0,1,.823-.148q.513-.053.831-.094a1.233,1.233,0,0,0,.464-.136.323.323,0,0,0,.148-.293v-.022a.858.858,0,0,0-.255-.664,1.039,1.039,0,0,0-.732-.235,1.316,1.316,0,0,0-.8.219,1.094,1.094,0,0,0-.394.52l-1.282-.182a2.045,2.045,0,0,1,.5-.888,2.188,2.188,0,0,1,.854-.539,3.28,3.28,0,0,1,1.115-.182,3.627,3.627,0,0,1,.838.1,2.348,2.348,0,0,1,.763.326,1.633,1.633,0,0,1,.554.611,1.984,1.984,0,0,1,.213.967v3.9h-1.321v-.8h-.045a1.689,1.689,0,0,1-.353.455,1.71,1.71,0,0,1-.565.338A2.291,2.291,0,0,1,103.3,240.087Zm.357-1.009a1.5,1.5,0,0,0,.717-.163,1.2,1.2,0,0,0,.467-.44,1.115,1.115,0,0,0,.167-.6v-.686a.643.643,0,0,1-.219.1,3.2,3.2,0,0,1-.342.08c-.127.022-.251.043-.376.061l-.322.045a2.4,2.4,0,0,0-.551.136.917.917,0,0,0-.383.265.734.734,0,0,0,.136,1.006A1.205,1.205,0,0,0,103.66,239.078Zm4.025.892V239.1l3-3.767v-.049h-2.906v-1.138h4.587v.937l-2.861,3.7v.049h2.959v1.138Zm9.789-2.451v-3.377h1.373v5.827h-1.332v-1.035h-.06a1.762,1.762,0,0,1-.649.8,1.889,1.889,0,0,1-1.1.311,1.991,1.991,0,0,1-1.013-.254,1.764,1.764,0,0,1-.683-.747,2.645,2.645,0,0,1-.247-1.192v-3.71h1.373v3.5a1.24,1.24,0,0,0,.3.881,1.038,1.038,0,0,0,.8.326,1.253,1.253,0,0,0,.588-.149,1.193,1.193,0,0,0,.466-.44A1.365,1.365,0,0,0,117.474,237.519Zm6.317-1.351V237.3h-3.5v-1.131Zm1.445,3.8v-5.827h1.331v.971h.061a1.45,1.45,0,0,1,.547-.777,1.5,1.5,0,0,1,.892-.277c.076,0,.16,0,.254.011a1.734,1.734,0,0,1,.239.027v1.263a1.452,1.452,0,0,0-.277-.053,2.618,2.618,0,0,0-.361-.026,1.382,1.382,0,0,0-.675.164,1.189,1.189,0,0,0-.467.444,1.245,1.245,0,0,0-.171.656v3.426Zm6.538.113a2.819,2.819,0,0,1-1.479-.376,2.543,2.543,0,0,1-.971-1.05,3.832,3.832,0,0,1,0-3.161,2.539,2.539,0,0,1,.971-1.054,3.1,3.1,0,0,1,2.959,0,2.52,2.52,0,0,1,.967,1.054,3.79,3.79,0,0,1,0,3.161,2.523,2.523,0,0,1-.967,1.05A2.82,2.82,0,0,1,131.774,240.083Zm.007-1.1a1.179,1.179,0,0,0,.774-.255,1.525,1.525,0,0,0,.463-.69,3.064,3.064,0,0,0,0-1.931,1.522,1.522,0,0,0-.463-.694,1.168,1.168,0,0,0-.774-.258,1.2,1.2,0,0,0-.789.258,1.562,1.562,0,0,0-.467.694,3.159,3.159,0,0,0,0,1.931,1.565,1.565,0,0,0,.467.69A1.214,1.214,0,0,0,131.781,238.984Zm6.9-4.841V235.2h-3.445v-1.063ZM136.1,239.97v-6.377a1.823,1.823,0,0,1,.243-.979,1.533,1.533,0,0,1,.66-.584,2.138,2.138,0,0,1,.918-.194,3.12,3.12,0,0,1,.634.058,3.616,3.616,0,0,1,.41.1l-.274,1.063c-.058-.018-.131-.035-.22-.053a1.354,1.354,0,0,0-.3-.03.686.686,0,0,0-.542.186.787.787,0,0,0-.155.523v6.287Zm5.138.118a2.433,2.433,0,0,1-1-.2,1.632,1.632,0,0,1-.7-.592,1.733,1.733,0,0,1-.254-.964,1.637,1.637,0,0,1,.182-.815,1.406,1.406,0,0,1,.5-.516,2.5,2.5,0,0,1,.709-.293,5.781,5.781,0,0,1,.823-.148q.512-.053.831-.094a1.233,1.233,0,0,0,.463-.136.324.324,0,0,0,.148-.293v-.022a.86.86,0,0,0-.254-.664,1.042,1.042,0,0,0-.732-.235,1.318,1.318,0,0,0-.8.219,1.1,1.1,0,0,0-.394.52l-1.282-.182a2.044,2.044,0,0,1,.5-.888,2.194,2.194,0,0,1,.854-.539,3.279,3.279,0,0,1,1.115-.182,3.639,3.639,0,0,1,.839.1,2.351,2.351,0,0,1,.762.326,1.635,1.635,0,0,1,.555.611,1.994,1.994,0,0,1,.212.967v3.9h-1.321v-.8h-.045a1.673,1.673,0,0,1-.353.455,1.71,1.71,0,0,1-.565.338A2.291,2.291,0,0,1,141.238,240.087Zm.357-1.009a1.5,1.5,0,0,0,.717-.163,1.205,1.205,0,0,0,.466-.44,1.115,1.115,0,0,0,.167-.6v-.686a.643.643,0,0,1-.219.1,3.153,3.153,0,0,1-.342.08c-.127.022-.251.043-.376.061l-.322.045a2.41,2.41,0,0,0-.551.136.917.917,0,0,0-.383.265.734.734,0,0,0,.136,1.006A1.205,1.205,0,0,0,141.594,239.078Z"/>
        <path id="Path_541" data-name="Path 541" d="M82.2,258.654H80.783a1.763,1.763,0,0,0-.224-.618,1.655,1.655,0,0,0-.96-.747,2.137,2.137,0,0,0-.664-.1,2.016,2.016,0,0,0-1.123.319,2.092,2.092,0,0,0-.766.926,3.562,3.562,0,0,0-.277,1.483,3.633,3.633,0,0,0,.277,1.5,2.1,2.1,0,0,0,.766.918,2.062,2.062,0,0,0,1.119.307,2.256,2.256,0,0,0,.653-.091,1.782,1.782,0,0,0,.55-.277,1.624,1.624,0,0,0,.414-.448,1.686,1.686,0,0,0,.235-.607l1.419.007a3.107,3.107,0,0,1-1.032,1.9,3.156,3.156,0,0,1-.994.577,3.712,3.712,0,0,1-1.263.2,3.529,3.529,0,0,1-1.829-.474,3.311,3.311,0,0,1-1.267-1.369,4.627,4.627,0,0,1-.463-2.147,4.577,4.577,0,0,1,.467-2.147,3.334,3.334,0,0,1,1.271-1.37,3.523,3.523,0,0,1,1.821-.474,3.859,3.859,0,0,1,1.207.182,3.082,3.082,0,0,1,.994.535,2.848,2.848,0,0,1,.717.857A3.186,3.186,0,0,1,82.2,258.654Zm2.6,1.734V263.8H83.431v-7.77h1.343v2.933h.068a1.68,1.68,0,0,1,.634-.777,1.944,1.944,0,0,1,1.1-.288,2.124,2.124,0,0,1,1.058.254,1.714,1.714,0,0,1,.7.744,2.6,2.6,0,0,1,.251,1.195V263.8H87.209v-3.5a1.29,1.29,0,0,0-.3-.915,1.078,1.078,0,0,0-.842-.33,1.328,1.328,0,0,0-.653.159,1.114,1.114,0,0,0-.448.452A1.5,1.5,0,0,0,84.8,260.388Zm7.72,3.528a2.819,2.819,0,0,1-1.479-.376,2.544,2.544,0,0,1-.971-1.05,3.832,3.832,0,0,1,0-3.161,2.54,2.54,0,0,1,.971-1.054,3.1,3.1,0,0,1,2.959,0,2.515,2.515,0,0,1,.967,1.054,3.79,3.79,0,0,1,0,3.161A2.518,2.518,0,0,1,94,263.54,2.82,2.82,0,0,1,92.524,263.916Zm.008-1.1a1.178,1.178,0,0,0,.773-.255,1.526,1.526,0,0,0,.464-.69,3.079,3.079,0,0,0,0-1.931,1.524,1.524,0,0,0-.464-.694,1.167,1.167,0,0,0-.773-.258,1.2,1.2,0,0,0-.79.258,1.554,1.554,0,0,0-.466.694,3.143,3.143,0,0,0,0,1.931,1.556,1.556,0,0,0,.466.69A1.215,1.215,0,0,0,92.532,262.816Zm6.492,1.1a2.816,2.816,0,0,1-1.5-.383,2.558,2.558,0,0,1-.96-1.058,3.5,3.5,0,0,1-.334-1.563,3.441,3.441,0,0,1,.341-1.566,2.55,2.55,0,0,1,.964-1.063,2.777,2.777,0,0,1,1.479-.383,2.875,2.875,0,0,1,1.256.261,2.123,2.123,0,0,1,1.248,1.833h-1.312a1.253,1.253,0,0,0-.38-.7,1.094,1.094,0,0,0-.792-.284,1.24,1.24,0,0,0-.74.228,1.452,1.452,0,0,0-.5.645,2.622,2.622,0,0,0-.175,1.009,2.7,2.7,0,0,0,.175,1.024,1.494,1.494,0,0,0,.489.657,1.343,1.343,0,0,0,1.29.113,1.089,1.089,0,0,0,.406-.338,1.293,1.293,0,0,0,.224-.535h1.312a2.286,2.286,0,0,1-.364,1.1,2.154,2.154,0,0,1-.857.743A2.861,2.861,0,0,1,99.025,263.916Zm6.166,0a2.82,2.82,0,0,1-1.48-.376,2.544,2.544,0,0,1-.971-1.05,3.832,3.832,0,0,1,0-3.161,2.54,2.54,0,0,1,.971-1.054,3.1,3.1,0,0,1,2.959,0,2.515,2.515,0,0,1,.967,1.054,3.79,3.79,0,0,1,0,3.161,2.518,2.518,0,0,1-.967,1.05A2.819,2.819,0,0,1,105.191,263.916Zm.007-1.1a1.182,1.182,0,0,0,.774-.255,1.531,1.531,0,0,0,.463-.69,3.079,3.079,0,0,0,0-1.931,1.529,1.529,0,0,0-.463-.694,1.171,1.171,0,0,0-.774-.258,1.2,1.2,0,0,0-.789.258,1.549,1.549,0,0,0-.467.694,3.143,3.143,0,0,0,0,1.931,1.551,1.551,0,0,0,.467.69A1.211,1.211,0,0,0,105.2,262.816Zm5.324-6.784v7.77h-1.373v-7.77Zm3.089,7.888a2.432,2.432,0,0,1-1-.2,1.632,1.632,0,0,1-.7-.592,1.733,1.733,0,0,1-.254-.964,1.637,1.637,0,0,1,.182-.815,1.4,1.4,0,0,1,.5-.516,2.517,2.517,0,0,1,.71-.293,5.786,5.786,0,0,1,.823-.148q.513-.053.831-.095a1.233,1.233,0,0,0,.464-.136.323.323,0,0,0,.148-.293v-.022a.858.858,0,0,0-.255-.664,1.039,1.039,0,0,0-.732-.235,1.316,1.316,0,0,0-.8.219,1.094,1.094,0,0,0-.394.52l-1.282-.182a2.045,2.045,0,0,1,.5-.888,2.188,2.188,0,0,1,.854-.539,3.279,3.279,0,0,1,1.115-.182,3.628,3.628,0,0,1,.838.1,2.349,2.349,0,0,1,.763.326,1.633,1.633,0,0,1,.554.611,1.984,1.984,0,0,1,.213.967v3.9h-1.321V263h-.045a1.689,1.689,0,0,1-.353.455,1.71,1.71,0,0,1-.565.338A2.292,2.292,0,0,1,113.611,263.92Zm.357-1.009a1.5,1.5,0,0,0,.717-.163,1.2,1.2,0,0,0,.467-.44,1.115,1.115,0,0,0,.167-.6v-.686a.643.643,0,0,1-.219.1,3.2,3.2,0,0,1-.342.08c-.127.022-.251.043-.376.061l-.322.045a2.4,2.4,0,0,0-.551.136.917.917,0,0,0-.383.265.734.734,0,0,0,.136,1.006A1.2,1.2,0,0,0,113.968,262.911Zm7.011-4.936v1.063h-3.35v-1.063Zm-2.523-1.4h1.373v5.471a.874.874,0,0,0,.084.425.45.45,0,0,0,.228.2.874.874,0,0,0,.311.053,1.385,1.385,0,0,0,.236-.019c.073-.013.129-.024.167-.035l.231,1.074a3.048,3.048,0,0,1-.315.083,2.558,2.558,0,0,1-.493.053,2.247,2.247,0,0,1-.929-.155,1.449,1.449,0,0,1-.657-.539,1.6,1.6,0,0,1-.235-.911Zm6.189,7.337a3,3,0,0,1-1.514-.364,2.464,2.464,0,0,1-.975-1.04,3.847,3.847,0,0,1,0-3.167,2.583,2.583,0,0,1,.964-1.063,2.7,2.7,0,0,1,1.453-.383,2.953,2.953,0,0,1,1.017.174,2.3,2.3,0,0,1,.85.531,2.486,2.486,0,0,1,.584.919,3.67,3.67,0,0,1,.213,1.32v.422h-4.776v-.926h3.46a1.47,1.47,0,0,0-.171-.7,1.237,1.237,0,0,0-.467-.489,1.309,1.309,0,0,0-.69-.178,1.337,1.337,0,0,0-.74.2,1.408,1.408,0,0,0-.5.531,1.536,1.536,0,0,0-.178.717v.808a1.911,1.911,0,0,0,.186.873,1.329,1.329,0,0,0,.52.554,1.555,1.555,0,0,0,.782.19,1.654,1.654,0,0,0,.542-.084,1.2,1.2,0,0,0,.421-.254,1.06,1.06,0,0,0,.27-.413l1.283.144a2,2,0,0,1-.464.888,2.249,2.249,0,0,1-.865.584A3.318,3.318,0,0,1,124.645,263.916Zm13.115-5.262H136.34a1.763,1.763,0,0,0-.224-.618,1.655,1.655,0,0,0-.96-.747,2.138,2.138,0,0,0-.664-.1,2.019,2.019,0,0,0-1.123.319,2.093,2.093,0,0,0-.766.926,3.557,3.557,0,0,0-.277,1.483,3.628,3.628,0,0,0,.277,1.5,2.107,2.107,0,0,0,.766.918,2.064,2.064,0,0,0,1.119.307,2.256,2.256,0,0,0,.653-.091,1.779,1.779,0,0,0,.551-.277,1.619,1.619,0,0,0,.413-.448,1.687,1.687,0,0,0,.235-.607l1.419.007a3.106,3.106,0,0,1-1.032,1.9,3.163,3.163,0,0,1-.994.577,3.717,3.717,0,0,1-1.264.2,3.53,3.53,0,0,1-1.829-.474,3.317,3.317,0,0,1-1.267-1.369,4.632,4.632,0,0,1-.463-2.147,4.573,4.573,0,0,1,.467-2.147,3.332,3.332,0,0,1,1.271-1.37,3.524,3.524,0,0,1,1.821-.474,3.854,3.854,0,0,1,1.206.182,3.08,3.08,0,0,1,.994.535,2.837,2.837,0,0,1,.717.857A3.189,3.189,0,0,1,137.759,258.654Zm2.905,5.266a2.43,2.43,0,0,1-1-.2,1.632,1.632,0,0,1-.7-.592,1.733,1.733,0,0,1-.254-.964,1.637,1.637,0,0,1,.182-.815,1.4,1.4,0,0,1,.5-.516,2.517,2.517,0,0,1,.71-.293,5.785,5.785,0,0,1,.823-.148q.513-.053.831-.095a1.233,1.233,0,0,0,.464-.136.323.323,0,0,0,.148-.293v-.022a.858.858,0,0,0-.255-.664,1.039,1.039,0,0,0-.732-.235,1.316,1.316,0,0,0-.8.219,1.1,1.1,0,0,0-.394.52l-1.282-.182a2.045,2.045,0,0,1,.5-.888,2.188,2.188,0,0,1,.854-.539,3.279,3.279,0,0,1,1.115-.182,3.628,3.628,0,0,1,.838.1,2.349,2.349,0,0,1,.763.326,1.633,1.633,0,0,1,.554.611,1.984,1.984,0,0,1,.213.967v3.9H142.42V263h-.045a1.688,1.688,0,0,1-.353.455,1.71,1.71,0,0,1-.565.338A2.292,2.292,0,0,1,140.664,263.92Zm.357-1.009a1.5,1.5,0,0,0,.717-.163,1.208,1.208,0,0,0,.467-.44,1.115,1.115,0,0,0,.167-.6v-.686a.641.641,0,0,1-.22.1,3.135,3.135,0,0,1-.341.08c-.127.022-.251.043-.376.061l-.322.045a2.4,2.4,0,0,0-.551.136.917.917,0,0,0-.383.265.734.734,0,0,0,.136,1.006A1.2,1.2,0,0,0,141.021,262.911Zm5.353-.937,0-1.658h.22l2.094-2.341h1.6l-2.576,2.868h-.284Zm-1.252,1.829v-7.77h1.373v7.77Zm3.657,0-1.9-2.652.926-.967,2.613,3.619Zm4.766.113a3,3,0,0,1-1.514-.364,2.464,2.464,0,0,1-.975-1.04,3.847,3.847,0,0,1,0-3.167,2.583,2.583,0,0,1,.964-1.063,2.7,2.7,0,0,1,1.453-.383,2.953,2.953,0,0,1,1.017.174,2.3,2.3,0,0,1,.85.531,2.486,2.486,0,0,1,.584.919,3.67,3.67,0,0,1,.213,1.32v.422h-4.776v-.926h3.46a1.47,1.47,0,0,0-.171-.7,1.237,1.237,0,0,0-.467-.489,1.309,1.309,0,0,0-.69-.178,1.338,1.338,0,0,0-.74.2,1.408,1.408,0,0,0-.5.531,1.536,1.536,0,0,0-.178.717v.808a1.911,1.911,0,0,0,.186.873,1.329,1.329,0,0,0,.52.554,1.555,1.555,0,0,0,.782.19,1.654,1.654,0,0,0,.542-.084,1.2,1.2,0,0,0,.421-.254,1.06,1.06,0,0,0,.27-.413l1.283.144a2,2,0,0,1-.464.888,2.249,2.249,0,0,1-.865.584A3.318,3.318,0,0,1,153.544,263.916Z"/>
        <path id="Path_542" data-name="Path 542" d="M80.757,282.347a2,2,0,0,0-.262-.551,1.683,1.683,0,0,0-.395-.421,1.588,1.588,0,0,0-.524-.262,2.18,2.18,0,0,0-.645-.091,2.013,2.013,0,0,0-1.115.316,2.113,2.113,0,0,0-.77.925,3.552,3.552,0,0,0-.277,1.479,3.6,3.6,0,0,0,.277,1.492,2.11,2.11,0,0,0,.77.929,2.086,2.086,0,0,0,1.146.315,2.168,2.168,0,0,0,1.024-.228,1.6,1.6,0,0,0,.672-.645,1.989,1.989,0,0,0,.235-.986l.319.049H79.1v-1.1h3.153v.934a3.365,3.365,0,0,1-.425,1.726,2.9,2.9,0,0,1-1.169,1.123,3.93,3.93,0,0,1-3.593-.091,3.336,3.336,0,0,1-1.263-1.377,4.666,4.666,0,0,1-.451-2.124,4.956,4.956,0,0,1,.266-1.681,3.632,3.632,0,0,1,.751-1.256,3.187,3.187,0,0,1,1.131-.789,3.594,3.594,0,0,1,1.411-.274,3.709,3.709,0,0,1,1.2.19,3.192,3.192,0,0,1,.99.531,2.968,2.968,0,0,1,.717.819,2.886,2.886,0,0,1,.368,1.048Zm2.8,5.288v-5.827h1.332v.971h.06a1.455,1.455,0,0,1,.547-.777,1.5,1.5,0,0,1,.892-.277c.076,0,.16,0,.254.011a1.729,1.729,0,0,1,.239.027v1.263a1.452,1.452,0,0,0-.277-.053,2.613,2.613,0,0,0-.36-.026,1.383,1.383,0,0,0-.676.164,1.2,1.2,0,0,0-.467.444,1.252,1.252,0,0,0-.171.656v3.426Zm5.809.118a2.432,2.432,0,0,1-1-.2,1.632,1.632,0,0,1-.7-.592,1.733,1.733,0,0,1-.254-.964,1.638,1.638,0,0,1,.182-.815,1.4,1.4,0,0,1,.5-.516,2.517,2.517,0,0,1,.71-.293,5.776,5.776,0,0,1,.823-.148q.512-.053.831-.095A1.233,1.233,0,0,0,90.92,284a.323.323,0,0,0,.148-.293v-.022a.858.858,0,0,0-.255-.664,1.039,1.039,0,0,0-.732-.235,1.316,1.316,0,0,0-.8.219,1.094,1.094,0,0,0-.394.52L87.6,283.34a2.044,2.044,0,0,1,.5-.888,2.188,2.188,0,0,1,.854-.539,3.279,3.279,0,0,1,1.115-.182,3.628,3.628,0,0,1,.838.1,2.349,2.349,0,0,1,.763.326,1.633,1.633,0,0,1,.554.611,1.984,1.984,0,0,1,.213.967v3.9H91.12v-.8h-.045a1.689,1.689,0,0,1-.353.455,1.71,1.71,0,0,1-.565.338A2.292,2.292,0,0,1,89.364,287.753Zm.357-1.009a1.5,1.5,0,0,0,.717-.163,1.2,1.2,0,0,0,.467-.44,1.115,1.115,0,0,0,.167-.6v-.686a.643.643,0,0,1-.219.1,3.153,3.153,0,0,1-.342.08c-.127.022-.251.043-.376.061l-.322.045a2.4,2.4,0,0,0-.551.136.917.917,0,0,0-.383.265.734.734,0,0,0,.136,1.006A1.2,1.2,0,0,0,89.721,286.743Zm9.1-4.936-2.075,5.827H95.225l-2.075-5.827h1.464l1.34,4.328h.061l1.343-4.328Zm.951,5.827v-5.827h1.373v5.827Zm.69-6.654a.8.8,0,0,1-.561-.216.7.7,0,0,1-.236-.528.691.691,0,0,1,.236-.528.825.825,0,0,1,1.123,0,.69.69,0,0,1,.235.528.7.7,0,0,1-.235.528A.793.793,0,0,1,100.459,280.981Zm2.949,8.839a2.767,2.767,0,0,1-.519-.045,1.928,1.928,0,0,1-.376-.1l.318-1.07a1.826,1.826,0,0,0,.535.083.654.654,0,0,0,.413-.148,1.041,1.041,0,0,0,.307-.47l.118-.315-2.113-5.949h1.457l1.343,4.4h.061l1.347-4.4h1.46l-2.333,6.533a2.628,2.628,0,0,1-.432.793,1.764,1.764,0,0,1-.661.508A2.189,2.189,0,0,1,103.408,289.82Zm7.645-2.072a2.819,2.819,0,0,1-1.479-.376,2.544,2.544,0,0,1-.971-1.05,3.832,3.832,0,0,1,0-3.161,2.54,2.54,0,0,1,.971-1.054,3.1,3.1,0,0,1,2.959,0,2.515,2.515,0,0,1,.967,1.054,3.79,3.79,0,0,1,0,3.161,2.518,2.518,0,0,1-.967,1.05A2.82,2.82,0,0,1,111.053,287.748Zm.008-1.1a1.178,1.178,0,0,0,.773-.255,1.533,1.533,0,0,0,.464-.69,3.079,3.079,0,0,0,0-1.931,1.53,1.53,0,0,0-.464-.694,1.167,1.167,0,0,0-.773-.258,1.2,1.2,0,0,0-.79.258,1.554,1.554,0,0,0-.466.694,3.143,3.143,0,0,0,0,1.931,1.557,1.557,0,0,0,.466.69A1.215,1.215,0,0,0,111.062,286.649Zm7.482-2.816v1.131h-3.5v-1.131Zm3.122,3.919a2.43,2.43,0,0,1-1-.2,1.627,1.627,0,0,1-.7-.592,1.733,1.733,0,0,1-.254-.964,1.646,1.646,0,0,1,.182-.815,1.413,1.413,0,0,1,.5-.516,2.511,2.511,0,0,1,.709-.293,5.8,5.8,0,0,1,.823-.148q.513-.053.831-.095a1.228,1.228,0,0,0,.463-.136.323.323,0,0,0,.148-.293v-.022a.86.86,0,0,0-.254-.664,1.039,1.039,0,0,0-.732-.235,1.316,1.316,0,0,0-.8.219,1.094,1.094,0,0,0-.394.52l-1.282-.182a2.044,2.044,0,0,1,.5-.888,2.182,2.182,0,0,1,.854-.539,3.276,3.276,0,0,1,1.115-.182,3.628,3.628,0,0,1,.838.1,2.349,2.349,0,0,1,.763.326,1.633,1.633,0,0,1,.554.611,1.993,1.993,0,0,1,.213.967v3.9h-1.321v-.8h-.045a1.676,1.676,0,0,1-.353.455,1.7,1.7,0,0,1-.565.338A2.284,2.284,0,0,1,121.665,287.753Zm.357-1.009a1.5,1.5,0,0,0,.717-.163,1.208,1.208,0,0,0,.467-.44,1.123,1.123,0,0,0,.167-.6v-.686a.648.648,0,0,1-.22.1,3.135,3.135,0,0,1-.341.08c-.127.022-.251.043-.376.061l-.323.045a2.4,2.4,0,0,0-.55.136.917.917,0,0,0-.383.265.734.734,0,0,0,.136,1.006A1.2,1.2,0,0,0,122.022,286.743Zm5.474-2.523v3.415h-1.373v-5.827h1.312v.99h.068a1.671,1.671,0,0,1,.642-.777,1.969,1.969,0,0,1,1.1-.288,2.065,2.065,0,0,1,1.051.258,1.736,1.736,0,0,1,.7.747,2.554,2.554,0,0,1,.247,1.188v3.711h-1.373v-3.5a1.3,1.3,0,0,0-.3-.915,1.067,1.067,0,0,0-.831-.33,1.28,1.28,0,0,0-.642.159,1.113,1.113,0,0,0-.436.452A1.526,1.526,0,0,0,127.5,284.22Z"/>
        <rect id="Rectangle_675" data-name="Rectangle 675" width="30.407" height="18.08" transform="translate(25.476 201.344)" fill="#fefefe"/>
        <rect id="Rectangle_676" data-name="Rectangle 676" width="29.585" height="17.258" transform="translate(25.887 201.755)" fill="none" stroke="rgba(0,0,0,0.15)" stroke-width="0.822"/>
        <path id="Path_543" data-name="Path 543" d="M35.391,212.85l1.691-2.414-1.62-2.273h1.514l.83,1.289.874-1.289h1.457l-1.589,2.221,1.735,2.467H38.759l-.953-1.452-.962,1.452Zm9.552-1.152v1.152H40.6a2.979,2.979,0,0,1,.424-1.236,8.217,8.217,0,0,1,1.395-1.554A8.692,8.692,0,0,0,43.442,209a1.362,1.362,0,0,0,.256-.759.851.851,0,0,0-.225-.636.94.94,0,0,0-1.231.009,1.2,1.2,0,0,0-.265.777l-1.236-.123a2.027,2.027,0,0,1,.693-1.47,2.33,2.33,0,0,1,1.457-.445,2.1,2.1,0,0,1,1.505.516,1.694,1.694,0,0,1,.547,1.285,2.223,2.223,0,0,1-.159.834,3.339,3.339,0,0,1-.494.826,8.028,8.028,0,0,1-.812.825q-.587.539-.746.715a2.209,2.209,0,0,0-.252.344Z"/>
        <rect id="Rectangle_677" data-name="Rectangle 677" width="30.407" height="18.08" transform="translate(25.476 225.999)" fill="#fff"/>
        <rect id="Rectangle_678" data-name="Rectangle 678" width="29.585" height="17.258" transform="translate(25.887 226.41)" fill="none" stroke="rgba(0,0,0,0.15)" stroke-width="0.822"/>
        <path id="Path_544" data-name="Path 544" d="M35.391,237.5l1.691-2.414-1.62-2.273h1.514l.83,1.289.874-1.289h1.457l-1.589,2.221,1.735,2.467H38.759l-.953-1.452-.962,1.452Zm9.552-1.152V237.5H40.6a2.979,2.979,0,0,1,.424-1.236,8.217,8.217,0,0,1,1.395-1.554,8.7,8.7,0,0,0,1.028-1.059,1.362,1.362,0,0,0,.256-.759.851.851,0,0,0-.225-.636.94.94,0,0,0-1.231.009,1.2,1.2,0,0,0-.265.777l-1.236-.123a2.027,2.027,0,0,1,.693-1.47,2.33,2.33,0,0,1,1.457-.445,2.1,2.1,0,0,1,1.505.516,1.694,1.694,0,0,1,.547,1.285,2.223,2.223,0,0,1-.159.834,3.34,3.34,0,0,1-.494.826,8.03,8.03,0,0,1-.812.825q-.587.539-.746.715a2.209,2.209,0,0,0-.252.344Z"/>
        <rect id="Rectangle_679" data-name="Rectangle 679" width="30.407" height="18.08" transform="translate(25.476 249.832)" fill="#fff"/>
        <rect id="Rectangle_680" data-name="Rectangle 680" width="29.585" height="17.258" transform="translate(25.887 250.242)" fill="none" stroke="rgba(0,0,0,0.15)" stroke-width="0.822"/>
        <path id="Path_545" data-name="Path 545" d="M35.391,261.337l1.691-2.414-1.62-2.273h1.514l.83,1.289.874-1.289h1.457l-1.589,2.221,1.735,2.467H38.759l-.953-1.452-.962,1.452Zm8.537,0h-1.24v-4.674a4.272,4.272,0,0,1-1.6.94v-1.126a3.592,3.592,0,0,0,1.055-.6,2.3,2.3,0,0,0,.781-1.037h1.006Z"/>
        <rect id="Rectangle_681" data-name="Rectangle 681" width="30.407" height="18.08" transform="translate(25.476 274.486)" fill="#fff"/>
        <rect id="Rectangle_682" data-name="Rectangle 682" width="29.585" height="17.258" transform="translate(25.887 274.897)" fill="none" stroke="rgba(0,0,0,0.15)" stroke-width="0.822"/>
        <path id="Path_546" data-name="Path 546" d="M35.391,285.991l1.691-2.414-1.62-2.273h1.514l.83,1.289.874-1.289h1.457l-1.589,2.221,1.735,2.467H38.759l-.953-1.452-.962,1.452Zm9.552-1.152v1.152H40.6a2.979,2.979,0,0,1,.424-1.236,8.218,8.218,0,0,1,1.395-1.554,8.7,8.7,0,0,0,1.028-1.059,1.362,1.362,0,0,0,.256-.759.851.851,0,0,0-.225-.636.94.94,0,0,0-1.231.009,1.2,1.2,0,0,0-.265.777l-1.236-.123a2.027,2.027,0,0,1,.693-1.47,2.33,2.33,0,0,1,1.457-.445,2.1,2.1,0,0,1,1.505.516,1.694,1.694,0,0,1,.547,1.284,2.222,2.222,0,0,1-.159.834,3.339,3.339,0,0,1-.494.826,8.028,8.028,0,0,1-.812.825q-.587.539-.746.715a2.209,2.209,0,0,0-.252.344Z"/>
        <path id="Path_547" data-name="Path 547" d="M291.314,236.757v-8.965h.574v8.965Zm1.934-6.275a1.1,1.1,0,0,0-.512-.827,1.956,1.956,0,0,0-1.1-.294,2.091,2.091,0,0,0-.833.154,1.329,1.329,0,0,0-.553.424,1.016,1.016,0,0,0-.2.613.881.881,0,0,0,.136.494,1.227,1.227,0,0,0,.357.339,2.554,2.554,0,0,0,.455.22c.159.057.3.1.438.137l.728.2a6.518,6.518,0,0,1,.624.2,2.909,2.909,0,0,1,.662.354,1.8,1.8,0,0,1,.525.567,1.634,1.634,0,0,1,.207.851,1.89,1.89,0,0,1-.3,1.05,2.072,2.072,0,0,1-.883.746,3.237,3.237,0,0,1-1.4.276,3.28,3.28,0,0,1-1.334-.248,2.123,2.123,0,0,1-.883-.694,1.975,1.975,0,0,1-.361-1.033h.9a1.119,1.119,0,0,0,.273.672,1.476,1.476,0,0,0,.61.392,2.45,2.45,0,0,0,.8.127,2.345,2.345,0,0,0,.893-.161,1.538,1.538,0,0,0,.627-.455,1.081,1.081,0,0,0,.231-.686.842.842,0,0,0-.2-.582,1.467,1.467,0,0,0-.525-.364,5.432,5.432,0,0,0-.7-.245l-.883-.252a3.288,3.288,0,0,1-1.331-.69,1.513,1.513,0,0,1-.491-1.173,1.743,1.743,0,0,1,.326-1.051,2.167,2.167,0,0,1,.883-.7,2.985,2.985,0,0,1,1.243-.252,2.907,2.907,0,0,1,1.233.249,2.131,2.131,0,0,1,.855.672,1.672,1.672,0,0,1,.336.971Z" fill="rgba(0,0,0,0.58)"/>
        <path id="Path_548" data-name="Path 548" d="M301.176,236.757v-8.965h.574v8.965Zm1.934-6.275a1.1,1.1,0,0,0-.512-.827,1.956,1.956,0,0,0-1.1-.294,2.091,2.091,0,0,0-.833.154,1.329,1.329,0,0,0-.553.424,1.016,1.016,0,0,0-.2.613.881.881,0,0,0,.136.494,1.227,1.227,0,0,0,.357.339,2.553,2.553,0,0,0,.455.22c.159.057.3.1.438.137l.728.2a6.515,6.515,0,0,1,.624.2,2.908,2.908,0,0,1,.662.354,1.8,1.8,0,0,1,.525.567,1.634,1.634,0,0,1,.207.851,1.89,1.89,0,0,1-.3,1.05,2.072,2.072,0,0,1-.883.746,3.238,3.238,0,0,1-1.4.276,3.28,3.28,0,0,1-1.334-.248,2.123,2.123,0,0,1-.883-.694,1.975,1.975,0,0,1-.361-1.033h.9a1.119,1.119,0,0,0,.273.672,1.476,1.476,0,0,0,.61.392,2.45,2.45,0,0,0,.8.127,2.345,2.345,0,0,0,.893-.161,1.539,1.539,0,0,0,.627-.455,1.081,1.081,0,0,0,.231-.686.842.842,0,0,0-.2-.582,1.468,1.468,0,0,0-.525-.364,5.435,5.435,0,0,0-.7-.245l-.883-.252a3.289,3.289,0,0,1-1.331-.69,1.513,1.513,0,0,1-.491-1.173,1.743,1.743,0,0,1,.326-1.051,2.167,2.167,0,0,1,.883-.7,2.985,2.985,0,0,1,1.243-.252,2.907,2.907,0,0,1,1.233.249,2.131,2.131,0,0,1,.855.672,1.672,1.672,0,0,1,.336.971Z" fill="rgba(0,0,0,0.58)"/>
        <path id="Path_549" data-name="Path 549" d="M311.038,236.757v-8.965h.574v8.965Zm1.934-6.275a1.1,1.1,0,0,0-.512-.827,1.956,1.956,0,0,0-1.1-.294,2.091,2.091,0,0,0-.833.154,1.329,1.329,0,0,0-.553.424,1.016,1.016,0,0,0-.2.613.881.881,0,0,0,.136.494,1.227,1.227,0,0,0,.357.339,2.554,2.554,0,0,0,.455.22c.159.057.3.1.438.137l.728.2a6.518,6.518,0,0,1,.624.2,2.909,2.909,0,0,1,.662.354,1.8,1.8,0,0,1,.525.567,1.634,1.634,0,0,1,.207.851,1.89,1.89,0,0,1-.3,1.05,2.072,2.072,0,0,1-.883.746,3.237,3.237,0,0,1-1.4.276,3.28,3.28,0,0,1-1.334-.248,2.123,2.123,0,0,1-.883-.694,1.975,1.975,0,0,1-.361-1.033h.9a1.119,1.119,0,0,0,.273.672,1.476,1.476,0,0,0,.61.392,2.45,2.45,0,0,0,.8.127,2.345,2.345,0,0,0,.893-.161,1.538,1.538,0,0,0,.627-.455,1.081,1.081,0,0,0,.231-.686.842.842,0,0,0-.2-.582,1.467,1.467,0,0,0-.525-.364,5.432,5.432,0,0,0-.7-.245l-.883-.252a3.288,3.288,0,0,1-1.331-.69,1.513,1.513,0,0,1-.491-1.173,1.743,1.743,0,0,1,.326-1.051,2.167,2.167,0,0,1,.883-.7,2.985,2.985,0,0,1,1.243-.252,2.907,2.907,0,0,1,1.233.249,2.131,2.131,0,0,1,.855.672,1.672,1.672,0,0,1,.336.971Z" fill="rgba(0,0,0,0.58)"/>
        <g id="Group_186" data-name="Group 186">
          <rect id="Rectangle_683" data-name="Rectangle 683" width="327.082" height="270.377" rx="17.258" transform="translate(12.327 128.203)" fill="rgba(217,217,217,0.25)"/>
          <rect id="Rectangle_684" data-name="Rectangle 684" width="326.26" height="269.555" rx="16.847" transform="translate(12.738 128.614)" fill="none" stroke="rgba(0,0,0,0.12)" stroke-width="0.822"/>
        </g>
        <rect id="Rectangle_685" data-name="Rectangle 685" width="51.774" height="18.08" transform="translate(275.308 225.999)" fill="#fff"/>
        <rect id="Rectangle_686" data-name="Rectangle 686" width="50.952" height="17.258" transform="translate(275.719 226.41)" fill="none" stroke="rgba(0,0,0,0.15)" stroke-width="0.822"/>
        <path id="Path_550" data-name="Path 550" d="M290.615,237.368v-1.849a2.454,2.454,0,0,1-1.271-.746,1.89,1.89,0,0,1-.4-1.218,1.716,1.716,0,0,1,.454-1.214,1.846,1.846,0,0,1,1.218-.57v-.437h.64v.437a1.885,1.885,0,0,1,1.117.481,1.835,1.835,0,0,1,.53,1.055l-1.117.145a.9.9,0,0,0-.53-.706v1.726a2.838,2.838,0,0,1,1.444.746,1.752,1.752,0,0,1,.384,1.169,1.955,1.955,0,0,1-.486,1.346,2.116,2.116,0,0,1-1.342.671v.825h-.64v-.8a2.051,2.051,0,0,1-1.24-.57,2.341,2.341,0,0,1-.609-1.347l1.152-.123a1.464,1.464,0,0,0,.265.609A1.208,1.208,0,0,0,290.615,237.368Zm0-4.634a.822.822,0,0,0-.414.3.773.773,0,0,0-.155.468.754.754,0,0,0,.141.437.992.992,0,0,0,.428.322Zm.64,4.7a.905.905,0,0,0,.539-.3.872.872,0,0,0,.207-.579.769.769,0,0,0-.177-.507,1.088,1.088,0,0,0-.57-.331Zm5.791.9h-1.24v-4.674a4.272,4.272,0,0,1-1.6.94v-1.126a3.591,3.591,0,0,0,1.055-.6,2.3,2.3,0,0,0,.782-1.037h1.006Zm1.876-1.664,1.236-.128a1.068,1.068,0,0,0,.313.666.855.855,0,0,0,.6.243.835.835,0,0,0,.657-.314,1.445,1.445,0,0,0,.27-.953,1.29,1.29,0,0,0-.27-.892.881.881,0,0,0-.693-.3,1.264,1.264,0,0,0-.958.473l-1.007-.145.636-3.369h3.28V233.1h-2.34l-.194,1.1a1.9,1.9,0,0,1,2.247.393,2.163,2.163,0,0,1,.574,1.558,2.335,2.335,0,0,1-.464,1.426,2.054,2.054,0,0,1-1.753.856,2.175,2.175,0,0,1-1.46-.481A1.977,1.977,0,0,1,298.923,236.662Zm5.279,1.664v-1.24h1.24v1.24Zm2.277-1.5,1.2-.132a.874.874,0,0,0,.229.543.684.684,0,0,0,.491.177.8.8,0,0,0,.653-.353,3.008,3.008,0,0,0,.344-1.465,1.481,1.481,0,0,1-1.169.542,1.759,1.759,0,0,1-1.32-.587,2.43,2.43,0,0,1,.031-3.12,2.114,2.114,0,0,1,3.107.159,3.924,3.924,0,0,1,.631,2.5,3.987,3.987,0,0,1-.657,2.561,2.129,2.129,0,0,1-1.713.786,1.816,1.816,0,0,1-1.227-.4A1.962,1.962,0,0,1,306.479,236.83Zm2.807-2.71a1.41,1.41,0,0,0-.278-.931.807.807,0,0,0-.636-.331.718.718,0,0,0-.574.274,1.39,1.39,0,0,0-.225.888,1.42,1.42,0,0,0,.247.922.777.777,0,0,0,.618.292.761.761,0,0,0,.6-.283A1.224,1.224,0,0,0,309.286,234.119Zm2.225,2.71,1.2-.132a.874.874,0,0,0,.229.543.684.684,0,0,0,.491.177.8.8,0,0,0,.653-.353,3.015,3.015,0,0,0,.344-1.465,1.482,1.482,0,0,1-1.17.542,1.759,1.759,0,0,1-1.32-.587,2.43,2.43,0,0,1,.031-3.12,2.115,2.115,0,0,1,3.107.159,3.924,3.924,0,0,1,.631,2.5,3.987,3.987,0,0,1-.657,2.561,2.129,2.129,0,0,1-1.713.786,1.816,1.816,0,0,1-1.227-.4A1.962,1.962,0,0,1,311.511,236.83Zm2.807-2.71a1.41,1.41,0,0,0-.278-.931.807.807,0,0,0-.636-.331.718.718,0,0,0-.574.274,1.39,1.39,0,0,0-.225.888,1.424,1.424,0,0,0,.247.922.777.777,0,0,0,.618.292.76.76,0,0,0,.6-.283A1.224,1.224,0,0,0,314.318,234.119Z"/>
        <rect id="Rectangle_687" data-name="Rectangle 687" width="51.774" height="18.08" transform="translate(275.308 250.653)" fill="#fff"/>
        <rect id="Rectangle_688" data-name="Rectangle 688" width="50.952" height="17.258" transform="translate(275.719 251.064)" fill="none" stroke="rgba(0,0,0,0.15)" stroke-width="0.822"/>
        <path id="Path_551" data-name="Path 551" d="M289.793,262.022v-1.849a2.455,2.455,0,0,1-1.271-.746,1.89,1.89,0,0,1-.4-1.218,1.716,1.716,0,0,1,.454-1.214,1.846,1.846,0,0,1,1.218-.57v-.437h.64v.437a1.885,1.885,0,0,1,1.117.481,1.836,1.836,0,0,1,.53,1.055l-1.117.145a.9.9,0,0,0-.53-.706v1.726a2.837,2.837,0,0,1,1.444.746,1.752,1.752,0,0,1,.384,1.169,1.955,1.955,0,0,1-.486,1.346,2.116,2.116,0,0,1-1.342.671v.825h-.64v-.8a2.051,2.051,0,0,1-1.24-.57,2.341,2.341,0,0,1-.609-1.347l1.152-.123a1.464,1.464,0,0,0,.265.609A1.208,1.208,0,0,0,289.793,262.022Zm0-4.634a.822.822,0,0,0-.414.3.773.773,0,0,0-.155.468.754.754,0,0,0,.141.437.992.992,0,0,0,.428.322Zm.64,4.7a.905.905,0,0,0,.539-.3.872.872,0,0,0,.207-.579.769.769,0,0,0-.177-.507,1.088,1.088,0,0,0-.57-.331Zm5.791.9h-1.24v-4.674a4.272,4.272,0,0,1-1.6.94V258.12a3.59,3.59,0,0,0,1.055-.6,2.3,2.3,0,0,0,.782-1.037h1.006Zm4.529,0h-1.24v-4.674a4.278,4.278,0,0,1-1.6.94V258.12a3.591,3.591,0,0,0,1.055-.6,2.3,2.3,0,0,0,.781-1.037h1.007Zm2.123,0v-1.24h1.241v1.24Zm2.278-1.5,1.2-.132a.874.874,0,0,0,.229.543.681.681,0,0,0,.49.177.8.8,0,0,0,.653-.353,3.005,3.005,0,0,0,.344-1.465,1.481,1.481,0,0,1-1.169.542,1.758,1.758,0,0,1-1.32-.587,2.429,2.429,0,0,1,.03-3.12,2.115,2.115,0,0,1,3.108.159,3.924,3.924,0,0,1,.631,2.5,3.982,3.982,0,0,1-.658,2.561,2.127,2.127,0,0,1-1.712.786,1.82,1.82,0,0,1-1.228-.4A1.961,1.961,0,0,1,305.154,261.484Zm2.807-2.71a1.41,1.41,0,0,0-.278-.931.807.807,0,0,0-.636-.331.718.718,0,0,0-.574.274,1.385,1.385,0,0,0-.225.888,1.42,1.42,0,0,0,.247.922.776.776,0,0,0,.618.292.761.761,0,0,0,.6-.283A1.224,1.224,0,0,0,307.962,258.774Zm2.225,2.71,1.2-.132a.874.874,0,0,0,.229.543.682.682,0,0,0,.49.177.8.8,0,0,0,.653-.353,3.005,3.005,0,0,0,.344-1.465,1.481,1.481,0,0,1-1.169.542,1.757,1.757,0,0,1-1.32-.587,2.43,2.43,0,0,1,.031-3.12,2.115,2.115,0,0,1,3.107.159,3.924,3.924,0,0,1,.631,2.5,3.987,3.987,0,0,1-.657,2.561,2.13,2.13,0,0,1-1.713.786,1.82,1.82,0,0,1-1.228-.4A1.961,1.961,0,0,1,310.186,261.484Zm2.807-2.71a1.41,1.41,0,0,0-.278-.931.807.807,0,0,0-.636-.331.718.718,0,0,0-.574.274,1.386,1.386,0,0,0-.225.888,1.42,1.42,0,0,0,.247.922.775.775,0,0,0,.618.292.761.761,0,0,0,.6-.283A1.224,1.224,0,0,0,312.994,258.774Z"/>
        <rect id="Rectangle_689" data-name="Rectangle 689" width="51.774" height="18.08" transform="translate(275.308 276.13)" fill="#fff"/>
        <rect id="Rectangle_690" data-name="Rectangle 690" width="50.952" height="17.258" transform="translate(275.719 276.54)" fill="none" stroke="rgba(0,0,0,0.15)" stroke-width="0.822"/>
        <path id="Path_552" data-name="Path 552" d="M289.793,287.5V285.65a2.455,2.455,0,0,1-1.271-.746,1.89,1.89,0,0,1-.4-1.218,1.716,1.716,0,0,1,.454-1.214,1.846,1.846,0,0,1,1.218-.57v-.437h.64v.437a1.885,1.885,0,0,1,1.117.481,1.836,1.836,0,0,1,.53,1.055l-1.117.145a.9.9,0,0,0-.53-.706V284.6a2.838,2.838,0,0,1,1.444.746,1.752,1.752,0,0,1,.384,1.169,1.955,1.955,0,0,1-.486,1.346,2.116,2.116,0,0,1-1.342.671v.825h-.64v-.8a2.051,2.051,0,0,1-1.24-.569,2.341,2.341,0,0,1-.609-1.347l1.152-.123a1.464,1.464,0,0,0,.265.609A1.209,1.209,0,0,0,289.793,287.5Zm0-4.634a.822.822,0,0,0-.414.3.773.773,0,0,0-.155.468.754.754,0,0,0,.141.437.992.992,0,0,0,.428.322Zm.64,4.7a.905.905,0,0,0,.539-.3.872.872,0,0,0,.207-.579.769.769,0,0,0-.177-.507,1.088,1.088,0,0,0-.57-.331Zm2.636-.768,1.236-.128a1.068,1.068,0,0,0,.313.666.855.855,0,0,0,.6.243.835.835,0,0,0,.657-.314,1.445,1.445,0,0,0,.269-.953,1.29,1.29,0,0,0-.269-.892.881.881,0,0,0-.693-.3,1.264,1.264,0,0,0-.958.473l-1.007-.145.636-3.369h3.28v1.161h-2.34l-.194,1.1a1.9,1.9,0,0,1,2.246.393,2.161,2.161,0,0,1,.574,1.558,2.334,2.334,0,0,1-.464,1.426,2.054,2.054,0,0,1-1.753.856,2.175,2.175,0,0,1-1.46-.481A1.977,1.977,0,0,1,293.069,286.793Zm5.279,1.664v-1.24h1.24v1.24Zm2.277-1.5,1.2-.132a.874.874,0,0,0,.229.543.683.683,0,0,0,.491.177.8.8,0,0,0,.652-.353,3,3,0,0,0,.344-1.465,1.481,1.481,0,0,1-1.169.542,1.759,1.759,0,0,1-1.32-.587,2.431,2.431,0,0,1,.031-3.12,2.115,2.115,0,0,1,3.107.159,3.924,3.924,0,0,1,.631,2.5,3.987,3.987,0,0,1-.657,2.561,2.129,2.129,0,0,1-1.713.786,1.816,1.816,0,0,1-1.227-.4A1.962,1.962,0,0,1,300.625,286.96Zm2.807-2.71a1.41,1.41,0,0,0-.278-.931.807.807,0,0,0-.636-.331.718.718,0,0,0-.574.274,1.386,1.386,0,0,0-.225.888,1.42,1.42,0,0,0,.247.922.775.775,0,0,0,.618.292.761.761,0,0,0,.6-.283A1.224,1.224,0,0,0,303.433,284.25Zm2.225,2.71,1.2-.132a.874.874,0,0,0,.229.543.684.684,0,0,0,.491.177.8.8,0,0,0,.653-.353,3.007,3.007,0,0,0,.344-1.465,1.481,1.481,0,0,1-1.169.542,1.759,1.759,0,0,1-1.32-.587,2.43,2.43,0,0,1,.031-3.12,2.115,2.115,0,0,1,3.107.159,3.924,3.924,0,0,1,.631,2.5,3.987,3.987,0,0,1-.657,2.561,2.129,2.129,0,0,1-1.713.786,1.816,1.816,0,0,1-1.227-.4A1.962,1.962,0,0,1,305.657,286.96Zm2.807-2.71a1.41,1.41,0,0,0-.278-.931.807.807,0,0,0-.636-.331.718.718,0,0,0-.574.274,1.391,1.391,0,0,0-.225.888,1.42,1.42,0,0,0,.247.922.777.777,0,0,0,.618.292.761.761,0,0,0,.6-.283A1.224,1.224,0,0,0,308.465,284.25Z"/>
        <rect id="Rectangle_691" data-name="Rectangle 691" width="51.774" height="18.08" transform="translate(275.308 201.344)" fill="#fff"/>
        <rect id="Rectangle_692" data-name="Rectangle 692" width="50.952" height="17.258" transform="translate(275.719 201.755)" fill="none" stroke="rgba(0,0,0,0.15)" stroke-width="0.822"/>
        <path id="Path_553" data-name="Path 553" d="M294.724,211.892v-1.849a2.454,2.454,0,0,1-1.271-.746,1.89,1.89,0,0,1-.4-1.218,1.716,1.716,0,0,1,.454-1.214,1.846,1.846,0,0,1,1.218-.57v-.437h.64v.437a1.885,1.885,0,0,1,1.117.481,1.836,1.836,0,0,1,.53,1.055l-1.117.145a.9.9,0,0,0-.53-.706V209a2.838,2.838,0,0,1,1.444.746,1.752,1.752,0,0,1,.384,1.169,1.955,1.955,0,0,1-.486,1.346,2.116,2.116,0,0,1-1.342.671v.825h-.64v-.8a2.051,2.051,0,0,1-1.24-.57,2.341,2.341,0,0,1-.609-1.347l1.152-.123a1.464,1.464,0,0,0,.265.609A1.208,1.208,0,0,0,294.724,211.892Zm0-4.634a.823.823,0,0,0-.414.3.773.773,0,0,0-.155.468.754.754,0,0,0,.141.437.992.992,0,0,0,.428.322Zm.64,4.7a.905.905,0,0,0,.539-.3.872.872,0,0,0,.207-.579.769.769,0,0,0-.177-.507,1.088,1.088,0,0,0-.57-.331Zm2.617-4.335v-1.152h4.242v.9a6.7,6.7,0,0,0-1.068,1.483,8.721,8.721,0,0,0-.83,2.057,7.637,7.637,0,0,0-.278,1.942h-1.2a8.353,8.353,0,0,1,.552-2.737,9.16,9.16,0,0,1,1.4-2.494Zm5.3,5.231v-1.24h1.24v1.24Zm2.277-1.5,1.2-.132a.874.874,0,0,0,.229.543.683.683,0,0,0,.491.177.8.8,0,0,0,.652-.353,3,3,0,0,0,.344-1.465,1.481,1.481,0,0,1-1.169.542,1.759,1.759,0,0,1-1.32-.587,2.43,2.43,0,0,1,.031-3.12,2.115,2.115,0,0,1,3.107.159,3.924,3.924,0,0,1,.631,2.5,3.987,3.987,0,0,1-.657,2.561,2.129,2.129,0,0,1-1.713.786,1.816,1.816,0,0,1-1.227-.4A1.962,1.962,0,0,1,305.556,211.353Zm2.807-2.71a1.41,1.41,0,0,0-.278-.931.807.807,0,0,0-.636-.331.718.718,0,0,0-.574.274,1.386,1.386,0,0,0-.225.888,1.42,1.42,0,0,0,.247.922.775.775,0,0,0,.618.292.761.761,0,0,0,.6-.283A1.224,1.224,0,0,0,308.364,208.643Zm2.225,2.71,1.2-.132a.874.874,0,0,0,.229.543.684.684,0,0,0,.491.177.8.8,0,0,0,.653-.353,3.008,3.008,0,0,0,.344-1.465,1.481,1.481,0,0,1-1.169.542,1.759,1.759,0,0,1-1.32-.587,2.43,2.43,0,0,1,.031-3.12,2.115,2.115,0,0,1,3.107.159,3.924,3.924,0,0,1,.631,2.5,3.987,3.987,0,0,1-.657,2.561,2.129,2.129,0,0,1-1.713.786,1.816,1.816,0,0,1-1.227-.4A1.962,1.962,0,0,1,310.588,211.353Zm2.807-2.71a1.41,1.41,0,0,0-.278-.931.807.807,0,0,0-.636-.331.718.718,0,0,0-.574.274,1.391,1.391,0,0,0-.225.888,1.42,1.42,0,0,0,.247.922.777.777,0,0,0,.618.292.761.761,0,0,0,.6-.283A1.224,1.224,0,0,0,313.4,208.643Z"/>
        <rect id="Rectangle_693" data-name="Rectangle 693" width="54.24" height="20.545" transform="translate(268.733 350.093)" fill="#d9d9d9"/>
        <path id="Path_554" data-name="Path 554" d="M280.521,362.845V360.49a3.123,3.123,0,0,1-1.618-.949,2.4,2.4,0,0,1-.511-1.551,2.188,2.188,0,0,1,.579-1.545,2.348,2.348,0,0,1,1.551-.724v-.556h.814v.556a2.4,2.4,0,0,1,1.421.612,2.335,2.335,0,0,1,.675,1.343l-1.422.185a1.145,1.145,0,0,0-.674-.9v2.2a3.607,3.607,0,0,1,1.837.95,2.224,2.224,0,0,1,.489,1.488,2.49,2.49,0,0,1-.618,1.714,2.693,2.693,0,0,1-1.708.854v1.05h-.814v-1.022a2.592,2.592,0,0,1-1.579-.725,2.978,2.978,0,0,1-.775-1.713l1.466-.157a1.859,1.859,0,0,0,.337.775A1.535,1.535,0,0,0,280.521,362.845Zm0-5.9a1.055,1.055,0,0,0-.528.382.988.988,0,0,0-.2.6.955.955,0,0,0,.18.556,1.261,1.261,0,0,0,.545.41Zm.814,5.977a1.148,1.148,0,0,0,.685-.387,1.112,1.112,0,0,0,.264-.736.978.978,0,0,0-.224-.646,1.4,1.4,0,0,0-.725-.422Zm3.332-5.517V355.94h5.4v1.146a8.485,8.485,0,0,0-1.359,1.888,11.063,11.063,0,0,0-1.056,2.617,9.709,9.709,0,0,0-.354,2.472h-1.523a10.621,10.621,0,0,1,.7-3.483,11.672,11.672,0,0,1,1.781-3.175ZM296.4,362.6v1.466h-5.533a3.777,3.777,0,0,1,.539-1.573,10.394,10.394,0,0,1,1.775-1.977,11.19,11.19,0,0,0,1.309-1.349,1.736,1.736,0,0,0,.325-.966,1.084,1.084,0,0,0-.286-.809,1.2,1.2,0,0,0-1.568.012,1.529,1.529,0,0,0-.337.989l-1.573-.158a2.58,2.58,0,0,1,.882-1.87,2.965,2.965,0,0,1,1.854-.567,2.679,2.679,0,0,1,1.916.657,2.159,2.159,0,0,1,.7,1.635,2.836,2.836,0,0,1-.2,1.062,4.278,4.278,0,0,1-.629,1.05,10.03,10.03,0,0,1-1.034,1.05q-.747.685-.949.911a2.814,2.814,0,0,0-.32.438Zm1.41,1.466v-1.579h1.579v1.579Zm2.9-1.9,1.529-.168a1.1,1.1,0,0,0,.292.69.864.864,0,0,0,.624.225,1.016,1.016,0,0,0,.831-.45,3.833,3.833,0,0,0,.439-1.866,1.884,1.884,0,0,1-1.489.691,2.238,2.238,0,0,1-1.68-.747,3.094,3.094,0,0,1,.039-3.972,2.693,2.693,0,0,1,3.955.2,5,5,0,0,1,.8,3.185,5.069,5.069,0,0,1-.837,3.258,2.71,2.71,0,0,1-2.18,1,2.315,2.315,0,0,1-1.561-.511A2.5,2.5,0,0,1,300.711,362.16Zm3.573-3.45a1.792,1.792,0,0,0-.354-1.185,1.028,1.028,0,0,0-.809-.422.916.916,0,0,0-.731.348,1.765,1.765,0,0,0-.287,1.129,1.813,1.813,0,0,0,.315,1.174.988.988,0,0,0,.786.371.971.971,0,0,0,.764-.359A1.564,1.564,0,0,0,304.284,358.71Zm2.742,3.169,1.528-.186a1.446,1.446,0,0,0,.394.893,1.073,1.073,0,0,0,.775.309,1.056,1.056,0,0,0,.82-.371,1.432,1.432,0,0,0,.337-1,1.342,1.342,0,0,0-.32-.943,1.021,1.021,0,0,0-.782-.348,2.778,2.778,0,0,0-.725.117l.174-1.286a1.392,1.392,0,0,0,.978-.275,1,1,0,0,0,.337-.786.85.85,0,0,0-.9-.91.951.951,0,0,0-.69.28,1.318,1.318,0,0,0-.348.82l-1.455-.247a3.262,3.262,0,0,1,.455-1.192,2.066,2.066,0,0,1,.854-.7,2.857,2.857,0,0,1,1.23-.258,2.449,2.449,0,0,1,1.866.741,1.877,1.877,0,0,1-.607,3.1,1.9,1.9,0,0,1,1.129.68,1.963,1.963,0,0,1,.427,1.275,2.472,2.472,0,0,1-.792,1.848,2.963,2.963,0,0,1-3.826.124A2.537,2.537,0,0,1,307.026,361.879Z" fill="#fa7b17"/>
        <path id="Path_555" data-name="Path 555" d="M123.045,356.884v-.963h6.724v.963h-2.819v8h-1.086v-8Zm10.016,8.142a2.842,2.842,0,0,1-2.666-1.645,4.1,4.1,0,0,1-.38-1.821,4.148,4.148,0,0,1,.38-1.834,2.836,2.836,0,0,1,2.666-1.65,2.836,2.836,0,0,1,2.662,1.65,4.114,4.114,0,0,1,.385,1.834,4.068,4.068,0,0,1-.385,1.821,2.842,2.842,0,0,1-2.662,1.645Zm0-.928a1.776,1.776,0,0,0,1.138-.354,2.093,2.093,0,0,0,.661-.933,3.569,3.569,0,0,0,.214-1.252,3.606,3.606,0,0,0-.214-1.257,2.118,2.118,0,0,0-.661-.941,1.983,1.983,0,0,0-2.276,0,2.118,2.118,0,0,0-.661.941,3.606,3.606,0,0,0-.214,1.257,3.569,3.569,0,0,0,.214,1.252,2.093,2.093,0,0,0,.661.933A1.776,1.776,0,0,0,133.062,364.1Zm7.548-5.936v.876h-3.485v-.876Zm-2.47-1.611h1.033v6.409a1.338,1.338,0,0,0,.127.657.657.657,0,0,0,.333.289,1.328,1.328,0,0,0,.433.07,1.864,1.864,0,0,0,.28-.017l.175-.035.21.928a2.307,2.307,0,0,1-.771.123,2.077,2.077,0,0,1-.858-.189,1.706,1.706,0,0,1-.692-.573,1.65,1.65,0,0,1-.271-.972Zm6,8.493a2.734,2.734,0,0,1-1.16-.241,1.909,1.909,0,0,1-1.134-1.825,1.723,1.723,0,0,1,.228-.937,1.608,1.608,0,0,1,.608-.57,3.205,3.205,0,0,1,.841-.307q.465-.1.933-.166.613-.079.994-.118a1.518,1.518,0,0,0,.56-.145.367.367,0,0,0,.179-.35v-.035a1.375,1.375,0,0,0-.354-1.008,1.427,1.427,0,0,0-1.064-.358,1.856,1.856,0,0,0-1.16.324,1.912,1.912,0,0,0-.591.691l-.981-.35a2.349,2.349,0,0,1,.7-.954,2.615,2.615,0,0,1,.962-.482,4,4,0,0,1,1.034-.14,4.089,4.089,0,0,1,.744.079,2.364,2.364,0,0,1,.819.311,1.83,1.83,0,0,1,.662.713,2.656,2.656,0,0,1,.262,1.278v4.43h-1.033v-.911h-.053a1.8,1.8,0,0,1-.35.468,2.022,2.022,0,0,1-.653.425A2.512,2.512,0,0,1,144.142,365.043Zm.158-.929a2.052,2.052,0,0,0,1.033-.24,1.647,1.647,0,0,0,.639-.622,1.589,1.589,0,0,0,.219-.8v-.945a.619.619,0,0,1-.289.145,5,5,0,0,1-.507.109q-.285.043-.556.079c-.178.02-.322.038-.433.053a3.89,3.89,0,0,0-.753.17,1.3,1.3,0,0,0-.56.346.879.879,0,0,0-.21.621.926.926,0,0,0,.4.814A1.786,1.786,0,0,0,144.3,364.115Zm5.843-8.194v8.965H149.11V355.92Zm7.338,9.123a2.738,2.738,0,0,1-1.16-.241,1.909,1.909,0,0,1-1.134-1.825,1.73,1.73,0,0,1,.228-.937,1.61,1.61,0,0,1,.609-.57,3.2,3.2,0,0,1,.841-.307q.464-.1.932-.166.613-.079.994-.118a1.514,1.514,0,0,0,.56-.145.366.366,0,0,0,.18-.35v-.035a1.372,1.372,0,0,0-.355-1.008,1.424,1.424,0,0,0-1.063-.358,1.858,1.858,0,0,0-1.16.324,1.912,1.912,0,0,0-.591.691l-.98-.35a2.354,2.354,0,0,1,.7-.954,2.618,2.618,0,0,1,.963-.482,3.984,3.984,0,0,1,1.033-.14,4.09,4.09,0,0,1,.745.079,2.376,2.376,0,0,1,.819.311,1.823,1.823,0,0,1,.661.713,2.655,2.655,0,0,1,.263,1.278v4.43H159.53v-.911h-.053a1.824,1.824,0,0,1-.351.468,2.018,2.018,0,0,1-.652.425A2.515,2.515,0,0,1,157.481,365.043Zm.157-.929a2.048,2.048,0,0,0,1.033-.24,1.641,1.641,0,0,0,.639-.622,1.582,1.582,0,0,0,.219-.8v-.945a.628.628,0,0,1-.289.145,5.064,5.064,0,0,1-.508.109q-.285.043-.556.079c-.178.02-.323.038-.434.053a3.9,3.9,0,0,0-.753.17,1.3,1.3,0,0,0-.56.346.883.883,0,0,0-.21.621.926.926,0,0,0,.4.814A1.79,1.79,0,0,0,157.638,364.115Zm4.81.771v-6.724h1v1.051h.087a1.7,1.7,0,0,1,.679-.837,2.031,2.031,0,0,1,1.125-.3,1.918,1.918,0,0,1,1.107.3,1.97,1.97,0,0,1,.7.837h.071a1.951,1.951,0,0,1,.774-.828,2.361,2.361,0,0,1,1.239-.311,2.014,2.014,0,0,1,1.475.565,2.349,2.349,0,0,1,.574,1.746v4.5H170.24v-4.5a1.27,1.27,0,0,0-.408-1.063,1.507,1.507,0,0,0-.958-.32,1.408,1.408,0,0,0-1.1.429,1.53,1.53,0,0,0-.39,1.077v4.378h-1.051V360.28a1.209,1.209,0,0,0-.372-.924A1.332,1.332,0,0,0,165,359a1.415,1.415,0,0,0-.753.214,1.616,1.616,0,0,0-.56.6,1.755,1.755,0,0,0-.21.871v4.2Zm13.446.14a2.842,2.842,0,0,1-2.666-1.645,4.1,4.1,0,0,1-.38-1.821,4.148,4.148,0,0,1,.38-1.834,2.836,2.836,0,0,1,2.666-1.65,2.836,2.836,0,0,1,2.662,1.65,4.114,4.114,0,0,1,.385,1.834,4.068,4.068,0,0,1-.385,1.821,2.842,2.842,0,0,1-2.662,1.645Zm0-.928a1.776,1.776,0,0,0,1.138-.354,2.093,2.093,0,0,0,.661-.933,3.569,3.569,0,0,0,.214-1.252,3.606,3.606,0,0,0-.214-1.257,2.118,2.118,0,0,0-.661-.941,1.983,1.983,0,0,0-2.276,0,2.118,2.118,0,0,0-.661.941,3.606,3.606,0,0,0-.214,1.257,3.569,3.569,0,0,0,.214,1.252,2.093,2.093,0,0,0,.661.933A1.776,1.776,0,0,0,175.894,364.1Zm8.862-1.961v-3.975h1.033v6.724h-1.033v-1.138h-.071a2.2,2.2,0,0,1-.735.871,2.124,2.124,0,0,1-1.261.355,2.243,2.243,0,0,1-1.12-.276,1.93,1.93,0,0,1-.771-.841,3.194,3.194,0,0,1-.28-1.423v-4.273h1.034v4.2a1.642,1.642,0,0,0,.411,1.173,1.4,1.4,0,0,0,1.059.438,1.757,1.757,0,0,0,.784-.2,1.7,1.7,0,0,0,.674-.6A1.809,1.809,0,0,0,184.755,362.137Zm3.958-1.3v4.045H187.68v-6.724h1v1.051h.087a1.919,1.919,0,0,1,.718-.823,2.229,2.229,0,0,1,1.243-.315,2.445,2.445,0,0,1,1.195.28,1.885,1.885,0,0,1,.8.84,3.122,3.122,0,0,1,.284,1.418v4.273H191.97v-4.2a1.747,1.747,0,0,0-.411-1.234,1.461,1.461,0,0,0-1.13-.446,1.8,1.8,0,0,0-.884.214,1.536,1.536,0,0,0-.608.626A2.064,2.064,0,0,0,188.713,360.841Zm9.1-2.679v.876h-3.484v-.876Zm-2.469-1.611h1.033v6.409a1.339,1.339,0,0,0,.127.657.664.664,0,0,0,.333.289,1.332,1.332,0,0,0,.433.07,1.857,1.857,0,0,0,.28-.017l.175-.035.21.928a2.085,2.085,0,0,1-.293.079,2.131,2.131,0,0,1-.477.044,2.078,2.078,0,0,1-.859-.189,1.7,1.7,0,0,1-.691-.573,1.65,1.65,0,0,1-.271-.972Zm10.414,1.611v.876h-3.484v-.876Zm-2.469-1.611h1.033v6.409a1.339,1.339,0,0,0,.127.657.664.664,0,0,0,.333.289,1.332,1.332,0,0,0,.433.07,1.857,1.857,0,0,0,.28-.017l.175-.035.21.928a2.085,2.085,0,0,1-.293.079,2.133,2.133,0,0,1-.477.044,2.077,2.077,0,0,1-.858-.189,1.7,1.7,0,0,1-.691-.573,1.65,1.65,0,0,1-.271-.972Zm6.682,8.475a2.842,2.842,0,0,1-2.666-1.645,4.1,4.1,0,0,1-.381-1.821,4.148,4.148,0,0,1,.381-1.834,3.03,3.03,0,0,1,4.259-1.217,2.9,2.9,0,0,1,1.068,1.217,4.1,4.1,0,0,1,.385,1.834,4.057,4.057,0,0,1-.385,1.821,2.84,2.84,0,0,1-2.661,1.645Zm0-.928a1.776,1.776,0,0,0,1.138-.354,2.093,2.093,0,0,0,.661-.933,3.568,3.568,0,0,0,.214-1.252,3.606,3.606,0,0,0-.214-1.257,2.118,2.118,0,0,0-.661-.941,1.983,1.983,0,0,0-2.276,0,2.118,2.118,0,0,0-.661.941,3.606,3.606,0,0,0-.214,1.257,3.569,3.569,0,0,0,.214,1.252,2.093,2.093,0,0,0,.661.933A1.776,1.776,0,0,0,209.974,364.1Zm8.23.788V355.92h3.029a3.462,3.462,0,0,1,1.725.38,2.388,2.388,0,0,1,1,1.02,3.356,3.356,0,0,1,0,2.876,2.409,2.409,0,0,1-.989,1.033,3.445,3.445,0,0,1-1.716.381h-2.171v-.963h2.136a2.331,2.331,0,0,0,1.16-.25,1.488,1.488,0,0,0,.634-.674,2.255,2.255,0,0,0,.2-.967,2.223,2.223,0,0,0-.2-.963,1.434,1.434,0,0,0-.639-.666,2.413,2.413,0,0,0-1.173-.245H219.29v8Zm9.664.158a2.74,2.74,0,0,1-1.16-.241,1.909,1.909,0,0,1-1.133-1.825,1.723,1.723,0,0,1,.228-.937,1.6,1.6,0,0,1,.608-.57,3.205,3.205,0,0,1,.841-.307q.464-.1.933-.166.613-.079.994-.118a1.523,1.523,0,0,0,.56-.145.367.367,0,0,0,.179-.35v-.035a1.372,1.372,0,0,0-.355-1.008,1.424,1.424,0,0,0-1.063-.358,1.854,1.854,0,0,0-1.16.324,1.923,1.923,0,0,0-.592.691l-.98-.35a2.354,2.354,0,0,1,.7-.954,2.625,2.625,0,0,1,.963-.482,3.994,3.994,0,0,1,1.033-.14,4.09,4.09,0,0,1,.745.079,2.376,2.376,0,0,1,.819.311,1.822,1.822,0,0,1,.661.713,2.645,2.645,0,0,1,.263,1.278v4.43h-1.033v-.911h-.053a1.8,1.8,0,0,1-.35.468,2.031,2.031,0,0,1-.653.425A2.512,2.512,0,0,1,227.869,365.043Zm.158-.929a2.052,2.052,0,0,0,1.033-.24,1.647,1.647,0,0,0,.639-.622,1.589,1.589,0,0,0,.219-.8v-.945a.624.624,0,0,1-.289.145,4.964,4.964,0,0,1-.508.109c-.189.029-.375.055-.556.079s-.322.038-.433.053a3.913,3.913,0,0,0-.754.17,1.305,1.305,0,0,0-.56.346.879.879,0,0,0-.21.621.926.926,0,0,0,.4.814A1.786,1.786,0,0,0,228.026,364.115Zm5.234,3.292a2.3,2.3,0,0,1-.468-.044,1.232,1.232,0,0,1-.284-.079l.263-.911a1.973,1.973,0,0,0,.665.07.8.8,0,0,0,.512-.258,2.062,2.062,0,0,0,.417-.74l.192-.525-2.487-6.759h1.121l1.856,5.358h.071l1.856-5.358h1.121l-2.854,7.7a2.9,2.9,0,0,1-.477.863,1.8,1.8,0,0,1-.661.512A2.039,2.039,0,0,1,233.26,367.407Z"/>
        <line id="Line_184" data-name="Line 184" y2="18.902" transform="translate(251.064 350.915)" fill="none" stroke="#d9d9d9" stroke-width="0.822"/>
        <path id="Path_556" data-name="Path 556" d="M241.647,318.864V312.51h-2.27v-1.294h6.077v1.294H243.19v6.353Zm5.1-3.85-1.331-.24a2.074,2.074,0,0,1,.772-1.189,2.829,2.829,0,0,1,1.628-.386,3.477,3.477,0,0,1,1.46.235,1.424,1.424,0,0,1,.673.589,2.969,2.969,0,0,1,.2,1.31l-.016,1.711a6.212,6.212,0,0,0,.068,1.08,3.27,3.27,0,0,0,.265.74h-1.45q-.058-.145-.141-.433c-.024-.087-.041-.144-.052-.172a2.647,2.647,0,0,1-.8.547,2.3,2.3,0,0,1-.912.182,1.9,1.9,0,0,1-1.352-.464,1.656,1.656,0,0,1-.265-2.008,1.449,1.449,0,0,1,.625-.564,4.9,4.9,0,0,1,1.169-.344,8.035,8.035,0,0,0,1.424-.36V315.1a.749.749,0,0,0-.209-.6,1.235,1.235,0,0,0-.787-.182,1.036,1.036,0,0,0-.611.157A1.047,1.047,0,0,0,246.749,315.014Zm1.961,1.19q-.281.094-.892.224a2.654,2.654,0,0,0-.8.256.611.611,0,0,0-.288.516.721.721,0,0,0,.23.533.8.8,0,0,0,.584.224,1.268,1.268,0,0,0,.756-.261.913.913,0,0,0,.349-.485,2.877,2.877,0,0,0,.058-.715Zm2.186,2.66,2-2.853-1.915-2.687h1.79l.98,1.523,1.033-1.523H256.5l-1.879,2.624,2.05,2.916h-1.8l-1.127-1.716-1.137,1.716Z"/>
        <path id="Path_557" data-name="Path 557" d="M290.615,317.906v-1.849a2.454,2.454,0,0,1-1.271-.746,1.89,1.89,0,0,1-.4-1.218,1.716,1.716,0,0,1,.454-1.214,1.846,1.846,0,0,1,1.218-.57v-.437h.64v.437a1.885,1.885,0,0,1,1.117.481,1.835,1.835,0,0,1,.53,1.055l-1.117.145a.9.9,0,0,0-.53-.706v1.726a2.838,2.838,0,0,1,1.444.746,1.752,1.752,0,0,1,.384,1.169,1.955,1.955,0,0,1-.486,1.346,2.116,2.116,0,0,1-1.342.671v.825h-.64v-.8a2.051,2.051,0,0,1-1.24-.57,2.341,2.341,0,0,1-.609-1.347l1.152-.123a1.464,1.464,0,0,0,.265.609A1.208,1.208,0,0,0,290.615,317.906Zm0-4.634a.823.823,0,0,0-.414.3.773.773,0,0,0-.155.468.754.754,0,0,0,.141.437.992.992,0,0,0,.428.322Zm.64,4.7a.905.905,0,0,0,.539-.3.872.872,0,0,0,.207-.579.768.768,0,0,0-.177-.507,1.088,1.088,0,0,0-.57-.331Zm5.791.9h-1.24v-4.674a4.272,4.272,0,0,1-1.6.94V314a3.592,3.592,0,0,0,1.055-.6,2.3,2.3,0,0,0,.782-1.037h1.006Zm2.124,0v-1.24h1.24v1.24Zm4.347-6.5a1.769,1.769,0,0,1,1.47.671,5.807,5.807,0,0,1,0,5.275,1.764,1.764,0,0,1-1.465.662,1.853,1.853,0,0,1-1.523-.724,5.926,5.926,0,0,1,.058-5.222A1.764,1.764,0,0,1,303.517,312.367Zm0,1.028a.617.617,0,0,0-.4.145.955.955,0,0,0-.274.513,10.57,10.57,0,0,0-.013,3.186,1.115,1.115,0,0,0,.287.565.642.642,0,0,0,.8,0,.98.98,0,0,0,.274-.516,10.455,10.455,0,0,0,.013-3.179,1.1,1.1,0,0,0-.291-.57A.6.6,0,0,0,303.517,313.395Zm5.032-1.028a1.769,1.769,0,0,1,1.47.671,5.807,5.807,0,0,1,0,5.275,1.764,1.764,0,0,1-1.465.662,1.853,1.853,0,0,1-1.523-.724,5.926,5.926,0,0,1,.057-5.222A1.766,1.766,0,0,1,308.549,312.367Zm0,1.028a.617.617,0,0,0-.4.145.955.955,0,0,0-.274.513,10.569,10.569,0,0,0-.013,3.186,1.115,1.115,0,0,0,.287.565.642.642,0,0,0,.8,0,.98.98,0,0,0,.274-.516,10.452,10.452,0,0,0,.013-3.179,1.1,1.1,0,0,0-.291-.57A.6.6,0,0,0,308.549,313.395Z"/>
        <path id="Path_558" data-name="Path 558" d="M277.754,317.764v-1.988h-2V314.4h2v-1.988h1.335V314.4H281.1v1.372H279.09v1.988Z"/>
        <line id="Line_185" data-name="Line 185" x1="322.973" transform="translate(13.149 177.101)" fill="none" stroke="#fff" stroke-width="0.822"/>
        <path id="Path_559" data-name="Path 559" d="M77.935,40.68H76.125A3.776,3.776,0,0,0,74.6,38.316a4.088,4.088,0,0,0-1.248-.613,4.983,4.983,0,0,0-1.43-.2,4.558,4.558,0,0,0-2.459.686,4.769,4.769,0,0,0-1.744,2.021,7.521,7.521,0,0,0-.642,3.276,7.521,7.521,0,0,0,.642,3.276,4.769,4.769,0,0,0,1.744,2.021,4.558,4.558,0,0,0,2.459.686,4.98,4.98,0,0,0,1.43-.2,4.185,4.185,0,0,0,1.248-.606,3.819,3.819,0,0,0,1.525-2.371h1.809a6.027,6.027,0,0,1-.744,2.05,5.6,5.6,0,0,1-1.342,1.539,5.88,5.88,0,0,1-1.8.956,6.718,6.718,0,0,1-2.123.328,6.262,6.262,0,0,1-3.4-.934,6.407,6.407,0,0,1-2.342-2.656,9.1,9.1,0,0,1-.854-4.086,9.1,9.1,0,0,1,.854-4.086,6.407,6.407,0,0,1,2.342-2.656,6.262,6.262,0,0,1,3.4-.934,6.718,6.718,0,0,1,2.123.328,5.794,5.794,0,0,1,1.8.963A5.5,5.5,0,0,1,77.19,38.63,5.953,5.953,0,0,1,77.935,40.68Zm4.412,3.531v6.741H80.625V36.01h1.722V41.5h.146a3.165,3.165,0,0,1,1.182-1.379,3.827,3.827,0,0,1,2.116-.518,4.2,4.2,0,0,1,2.006.46,3.1,3.1,0,0,1,1.335,1.394,5.179,5.179,0,0,1,.482,2.378v7.121H87.891v-7a2.881,2.881,0,0,0-.693-2.065,2.473,2.473,0,0,0-1.9-.737,3.179,3.179,0,0,0-1.518.357,2.616,2.616,0,0,0-1.05,1.043A3.389,3.389,0,0,0,82.347,44.211Zm15.116,6.975a5.271,5.271,0,0,1-2.794-.715,4.8,4.8,0,0,1-1.8-2.014,6.867,6.867,0,0,1-.628-3.02,6.963,6.963,0,0,1,.628-3.035,4.952,4.952,0,0,1,1.765-2.057,4.745,4.745,0,0,1,2.656-.744,5.316,5.316,0,0,1,1.729.292,4.285,4.285,0,0,1,1.554.948,4.536,4.536,0,0,1,1.116,1.722A7.329,7.329,0,0,1,102.1,45.2v.73H93.464V44.445h6.888a3.672,3.672,0,0,0-.38-1.693,2.861,2.861,0,0,0-1.065-1.175,2.986,2.986,0,0,0-1.62-.43,3.088,3.088,0,0,0-1.78.511,3.355,3.355,0,0,0-1.146,1.313,3.853,3.853,0,0,0-.4,1.736V45.7a4.81,4.81,0,0,0,.437,2.152,3.155,3.155,0,0,0,1.234,1.335,3.613,3.613,0,0,0,1.831.452,3.724,3.724,0,0,0,1.225-.19,2.619,2.619,0,0,0,.956-.584,2.652,2.652,0,0,0,.62-.978l1.663.467a3.689,3.689,0,0,1-.883,1.488,4.309,4.309,0,0,1-1.532.992A5.687,5.687,0,0,1,97.462,51.186Zm11.812,0a4.69,4.69,0,0,1-4.465-2.794,7.556,7.556,0,0,1,.015-6,4.961,4.961,0,0,1,1.765-2.05,4.743,4.743,0,0,1,2.656-.744,5.024,5.024,0,0,1,2.13.438,4.08,4.08,0,0,1,1.554,1.226,3.821,3.821,0,0,1,.751,1.839h-1.722a2.673,2.673,0,0,0-.875-1.357,2.621,2.621,0,0,0-1.81-.6,3.022,3.022,0,0,0-1.765.525,3.424,3.424,0,0,0-1.175,1.466,5.438,5.438,0,0,0-.416,2.211,5.752,5.752,0,0,0,.409,2.262,3.456,3.456,0,0,0,1.167,1.5,3.019,3.019,0,0,0,1.78.533,3.075,3.075,0,0,0,1.219-.233,2.513,2.513,0,0,0,.926-.671,2.568,2.568,0,0,0,.54-1.051h1.722a3.981,3.981,0,0,1-.722,1.788,4.033,4.033,0,0,1-1.51,1.255A4.869,4.869,0,0,1,109.274,51.186Zm8.529-4.319-.029-2.13h.35l4.9-4.99h2.13l-5.223,5.282h-.146ZM116.2,50.952V36.01h1.722V50.952Zm7.121,0-4.378-5.545,1.226-1.2,5.34,6.741Zm8.146.233a4.739,4.739,0,0,1-4.444-2.743,6.846,6.846,0,0,1-.634-3.035,6.929,6.929,0,0,1,.634-3.057,5.05,5.05,0,0,1,7.1-2.028,4.832,4.832,0,0,1,1.78,2.028,6.85,6.85,0,0,1,.642,3.057,6.768,6.768,0,0,1-.642,3.035,4.736,4.736,0,0,1-4.436,2.743Zm0-1.547a2.955,2.955,0,0,0,1.9-.591,3.482,3.482,0,0,0,1.1-1.554,5.949,5.949,0,0,0,.357-2.087,6.01,6.01,0,0,0-.357-2.094,3.527,3.527,0,0,0-1.1-1.569,3.306,3.306,0,0,0-3.793,0,3.528,3.528,0,0,0-1.1,1.569,6.011,6.011,0,0,0-.357,2.094,5.95,5.95,0,0,0,.357,2.087,3.483,3.483,0,0,0,1.1,1.554A2.956,2.956,0,0,0,131.465,49.639Zm14.769-3.269V39.746h1.722V50.952h-1.722v-1.9h-.117a3.684,3.684,0,0,1-1.225,1.452,3.54,3.54,0,0,1-2.1.591,3.744,3.744,0,0,1-1.868-.46,3.212,3.212,0,0,1-1.284-1.4,5.318,5.318,0,0,1-.468-2.371V39.746h1.722v7a2.74,2.74,0,0,0,.686,1.955,2.328,2.328,0,0,0,1.765.73,2.935,2.935,0,0,0,1.307-.328,2.849,2.849,0,0,0,1.123-1.007A3.019,3.019,0,0,0,146.234,46.371Zm9.749-6.625v1.459h-5.808V39.746Zm-4.115-2.685h1.722V47.742a2.229,2.229,0,0,0,.212,1.094,1.1,1.1,0,0,0,.554.482,2.228,2.228,0,0,0,.722.117,3.047,3.047,0,0,0,.467-.029l.293-.058.35,1.547a3.534,3.534,0,0,1-.489.131,3.6,3.6,0,0,1-.8.073,3.465,3.465,0,0,1-1.43-.314,2.844,2.844,0,0,1-1.153-.956,2.745,2.745,0,0,1-.452-1.62Z"/>
        <path id="Path_560" data-name="Path 560" d="M41.672,39.754a.822.822,0,0,0-1.162-1.162l-4.383,4.383a.821.821,0,0,0,0,1.162L40.51,48.52a.822.822,0,1,0,1.162-1.162l-2.98-2.98H49.309a.822.822,0,0,0,0-1.644H38.692Z" fill="#fa7b17"/>
        <path id="Path_561" data-name="Path 561" d="M310.341,33.169a54.977,54.977,0,0,1,12.115,0,4.861,4.861,0,0,1,4.288,4.242,52.9,52.9,0,0,1,0,12.29,4.86,4.86,0,0,1-4.288,4.242,54.967,54.967,0,0,1-12.115,0,4.86,4.86,0,0,1-4.288-4.242,52.9,52.9,0,0,1,0-12.29A4.861,4.861,0,0,1,310.341,33.169Zm1.464,5.794a.977.977,0,0,1,1.381,0l3.213,3.214,3.213-3.214a.976.976,0,0,1,1.381,1.38l-3.214,3.214,3.214,3.214a.976.976,0,1,1-1.381,1.38L316.4,44.936l-3.213,3.214a.976.976,0,0,1-1.381-1.38l3.214-3.214L311.8,40.343A.977.977,0,0,1,311.8,38.963Z" fill="#d3241d" fill-rule="evenodd"/>
      </g>
    </g>
  </g>
</svg>
