<svg xmlns="http://www.w3.org/2000/svg" xmlns:xlink="http://www.w3.org/1999/xlink" width="1240" height="98.606" viewBox="0 0 1240 98.606">
  <defs>
    <filter id="Path_52" x="0" y="0" width="1240" height="98.606" filterUnits="userSpaceOnUse">
      <feOffset dy="3" input="SourceAlpha"/>
      <feGaussianBlur stdDeviation="3" result="blur"/>
      <feFlood flood-opacity="0.161"/>
      <feComposite operator="in" in2="blur"/>
      <feComposite in="SourceGraphic"/>
    </filter>
  </defs>
  <g id="Group_328" data-name="Group 328" transform="translate(1114 -6502)">
    <g transform="matrix(1, 0, 0, 1, -1114, 6502)" filter="url(#Path_52)">
      <g id="Path_52-2" data-name="Path 52" transform="translate(9 6)" fill="#fff">
        <path d="M0,0H1222V80.606H0Z" stroke="none"/>
        <path d="M 1 1.000053405761719 L 1 79.60590362548828 L 1221 79.60590362548828 L 1221 1.000053405761719 L 1 1.000053405761719 M 0 5.340576171875e-05 L 1222 5.340576171875e-05 L 1222 80.60590362548828 L 0 80.60590362548828 L 0 5.340576171875e-05 Z" stroke="none" fill="rgba(112,112,112,0.24)"/>
      </g>
    </g>
    <rect id="Rectangle_80" data-name="Rectangle 80" width="724" height="38" rx="17" transform="translate(-879 6529)" fill="#e9e9e9"/>
    <text id="http:_www.hammadtayyab.com_mockups" data-name="http://www.hammadtayyab.com/mockups" transform="translate(-809 6556)" fill="#707070" font-size="22" font-family="SegoeUI, Segoe UI"><tspan x="0" y="0">http://www.hammadtayyab.com/mockups</tspan></text>
    <ellipse id="Ellipse_15" data-name="Ellipse 15" cx="13" cy="12" rx="13" ry="12" transform="translate(-862 6537)" fill="#0f9700"/>
    <path id="df12b5039313fc3798dfa93cfb504acd" d="M13.455,6.7V5.36A3.472,3.472,0,0,0,9.818,2,3.472,3.472,0,0,0,6.182,5.36V6.7A2.066,2.066,0,0,0,4,8.721v4.7a2.066,2.066,0,0,0,2.182,2.016h7.273a2.066,2.066,0,0,0,2.182-2.016v-4.7A2.066,2.066,0,0,0,13.455,6.7ZM7.636,5.36A2.066,2.066,0,0,1,9.818,3.344,2.066,2.066,0,0,1,12,5.36V6.7H7.636Zm2.982,5.713-.073.067v.941a.662.662,0,0,1-.727.672.662.662,0,0,1-.727-.672V11.14a.927.927,0,0,1-.073-1.411,1.118,1.118,0,0,1,1.527-.067A.925.925,0,0,1,10.618,11.073Z" transform="translate(-858.676 6539.373)" fill="#acfda3"/>
    <g id="_2c52de9e3c9119ef8443c6ee00769e82" data-name="2c52de9e3c9119ef8443c6ee00769e82" transform="translate(-194.31 6540.393)">
      <path id="Path_43" data-name="Path 43" d="M9.633.507,11.59,4.132a.976.976,0,0,0,.736.49l4.383.59a1,1,0,0,1,.646.348.828.828,0,0,1,.184.661.875.875,0,0,1-.282.512L14.078,9.576a.82.82,0,0,0-.282.782l.783,4A.912.912,0,0,1,13.8,15.39a1.1,1.1,0,0,1-.626-.092L9.258,13.414a1.1,1.1,0,0,0-.924,0L4.421,15.3a1.047,1.047,0,0,1-1.346-.362.857.857,0,0,1-.1-.569l.783-4a.82.82,0,0,0-.282-.782L.3,6.74a.832.832,0,0,1,0-1.265A.985.985,0,0,1,.86,5.219l4.383-.59a.976.976,0,0,0,.736-.49L7.864.507a.985.985,0,0,1,.892-.5h.117A.977.977,0,0,1,9.633.507Z" transform="translate(-0.001 -0.002)" fill="#200e32"/>
      <path id="Path_44" data-name="Path 44" d="M8.779,13.306a1.132,1.132,0,0,0-.485.122l-3.9,1.879a1.064,1.064,0,0,1-1.319-.373.831.831,0,0,1-.1-.562l.783-3.995a.852.852,0,0,0-.282-.789L.288,6.746a.839.839,0,0,1,0-1.265,1.033,1.033,0,0,1,.556-.256l4.4-.6a.951.951,0,0,0,.736-.49L7.888.463a1,1,0,0,1,.9-.456C8.779.249,8.779,13.143,8.779,13.306Z" transform="translate(0 0)" fill="#200e32"/>
    </g>
    <circle id="Ellipse_18" data-name="Ellipse 18" cx="10" cy="10" r="10" transform="translate(-1078 6538)" fill="#ffce86"/>
    <circle id="Ellipse_18-2" data-name="Ellipse 18" cx="10" cy="10" r="10" transform="translate(-1044 6538)" fill="#acfda3"/>
    <circle id="Ellipse_18-3" data-name="Ellipse 18" cx="10" cy="10" r="10" transform="translate(-1010 6538)" fill="#ff5975"/>
    <path id="f503a3ed0c57670a9b99857cdf2e6762" d="M10.424,8.512A2.53,2.53,0,0,0,7.8,10.937a2.53,2.53,0,0,0,2.624,2.425,2.53,2.53,0,0,0,2.624-2.425,2.53,2.53,0,0,0-2.624-2.425Zm0-2.865a2.529,2.529,0,0,0,2.622-2.425A2.53,2.53,0,0,0,10.422.8,2.529,2.529,0,0,0,7.8,3.225a2.53,2.53,0,0,0,2.624,2.423Zm0,10.577A2.53,2.53,0,0,0,7.8,18.649a2.53,2.53,0,0,0,2.624,2.425,2.53,2.53,0,0,0,2.624-2.425,2.53,2.53,0,0,0-2.624-2.425Z" transform="translate(74.646 6537.063)"/>
    <g id="Group_327" data-name="Group 327" transform="translate(-7)">
      <path id="Path_45" data-name="Path 45" d="M-132.318-147.775a15.462,15.462,0,0,1,15.456,15.456,15.462,15.462,0,0,1-15.456,15.456,15.462,15.462,0,0,1-15.456-15.456A15.462,15.462,0,0,1-132.318-147.775Z" transform="translate(172.641 6680.646)" fill="#0077b6" stroke="#42e150" stroke-width="0"/>
      <g id="p73bosQ5SN3C_kKYZyR-4" transform="translate(29.641 6537.13)">
        <path id="Path_46" data-name="Path 46" d="M10.682,0A10.686,10.686,0,0,1,21.364,10.682H0A10.686,10.686,0,0,1,10.682,0Z" transform="translate(0 0)" fill="#fff" stroke="#fff" stroke-width="0"/>
      </g>
      <g id="Pk97PHIJLQvdY8wBU9rdV" transform="translate(34.405 6548.323)">
        <path id="Path_47" data-name="Path 47" d="M2.564-21.947a2.565,2.565,0,0,0,2.564-2.564H0A2.565,2.565,0,0,0,2.564-21.947Z" transform="translate(0 24.511)" fill="#fff" stroke="#fff" stroke-width="0"/>
      </g>
      <path id="Path_48" data-name="Path 48" d="M0,10.682A10.686,10.686,0,0,1,10.682,0V10.682Z" transform="translate(51.004 6559.01) rotate(180)" fill="#fff" stroke="#fff" stroke-width="0"/>
    </g>
  </g>
</svg>
